 0
SECTION
 2
ENTITIES
  0
LINE
 8
组“1”#1
10
30.297966666666667
20
-11.75727075024231
30
0.0
11
23.952114726588004
21
-9.447569532993244
31
0.0
  0
LINE
 8
组“1”#1
10
23.952114726588004
20
-9.447569532993244
30
0.0
11
23.952114726588004
21
-3.8518393672035462
31
0.0
  0
LINE
 8
组“1”#1
10
23.952114726588004
20
-3.8518393672035462
30
0.0
11
30.297966666666667
21
-1.5421381499544806
31
0.0
  0
LINE
 8
组“1”#1
10
30.297966666666667
20
-1.5421381499544806
30
0.0
11
30.297966666666667
21
1.54213814995448
31
0.0
  0
LINE
 8
组“1”#1
10
30.297966666666667
20
1.54213814995448
30
0.0
11
23.952114726588004
21
3.851839367203546
31
0.0
  0
LINE
 8
组“1”#1
10
23.952114726588004
20
3.851839367203546
30
0.0
11
23.952114726588004
21
9.447569532993242
31
0.0
  0
LINE
 8
组“1”#1
10
23.952114726588004
20
9.447569532993242
30
0.0
11
30.297966666666667
21
11.757270750242307
31
0.0
  0
LINE
 8
组“1”#1
10
30.297966666666667
20
11.757270750242307
30
0.0
11
30.297966666666667
21
14.841547050151268
31
0.0
  0
LINE
 8
组“1”#1
10
30.297966666666667
20
14.841547050151268
30
0.0
11
23.952114726588004
21
17.151248267400337
31
0.0
  0
LINE
 8
组“1”#1
10
23.952114726588004
20
17.151248267400337
30
0.0
11
23.952114726588004
21
22.74697843319003
31
0.0
  0
LINE
 8
组“1”#1
10
23.952114726588004
20
22.74697843319003
30
0.0
11
30.297966666666667
21
25.056679650439097
31
0.0
  0
LINE
 8
组“1”#1
10
30.297966666666667
20
25.056679650439097
30
0.0
11
30.297966666666667
21
28.14095595034806
31
0.0
  0
LINE
 8
组“1”#1
10
30.297966666666667
20
28.14095595034806
30
0.0
11
23.952114726588004
21
30.45065716759713
31
0.0
  0
LINE
 8
组“1”#1
10
23.952114726588004
20
30.45065716759713
30
0.0
11
23.952114726588004
21
36.046387333386825
31
0.0
  0
LINE
 8
组“1”#1
10
23.952114726588004
20
36.046387333386825
30
0.0
11
30.297966666666667
21
38.35608855063589
31
0.0
  0
LINE
 8
组“1”#1
10
30.297966666666667
20
38.35608855063589
30
0.0
11
30.297966666666667
21
41.440364850544846
31
0.0
  0
LINE
 8
组“1”#1
10
30.297966666666667
20
41.440364850544846
30
0.0
11
23.952114726588004
21
43.75006606779392
31
0.0
  0
LINE
 8
组“1”#1
10
23.952114726588004
20
43.75006606779392
30
0.0
11
23.952114726588004
21
49.34579623358361
31
0.0
  0
LINE
 8
组“1”#1
10
23.952114726588004
20
49.34579623358361
30
0.0
11
30.297966666666667
21
51.655497450832684
31
0.0
  0
LINE
 8
组“1”#1
10
30.297966666666667
20
51.655497450832684
30
0.0
11
30.297966666666667
21
54.739773750741634
31
0.0
  0
LINE
 8
组“1”#1
10
30.297966666666667
20
54.739773750741634
30
0.0
11
23.952114726588004
21
57.0494749679907
31
0.0
  0
LINE
 8
组“1”#1
10
23.952114726588004
20
57.0494749679907
30
0.0
11
23.952114726588004
21
62.645205133780394
31
0.0
  0
LINE
 8
组“1”#1
10
23.952114726588004
20
62.645205133780394
30
0.0
11
30.297966666666667
21
64.95490635102946
31
0.0
  0
LINE
 8
组“1”#1
10
30.297966666666667
20
64.95490635102946
30
0.0
11
30.297966666666667
21
68.03918265093843
31
0.0
  0
LINE
 8
组“1”#1
10
30.297966666666667
20
68.03918265093843
30
0.0
11
23.952114726588004
21
70.3488838681875
31
0.0
  0
LINE
 8
组“1”#1
10
23.952114726588004
20
70.3488838681875
30
0.0
11
23.952114726588004
21
75.94461403397719
31
0.0
  0
LINE
 8
组“1”#1
10
23.952114726588004
20
75.94461403397719
30
0.0
11
30.297966666666667
21
78.25431525122626
31
0.0
  0
LINE
 8
组“1”#1
10
30.297966666666667
20
78.25431525122626
30
0.0
11
30.297966666666667
21
81.33859155113521
31
0.0
  0
LINE
 8
组“1”#1
10
30.297966666666667
20
81.33859155113521
30
0.0
11
23.952114726588004
21
83.64829276838428
31
0.0
  0
LINE
 8
组“1”#1
10
23.952114726588004
20
83.64829276838428
30
0.0
11
23.952114726588004
21
89.24402293417398
31
0.0
  0
LINE
 8
组“1”#1
10
23.952114726588004
20
89.24402293417398
30
0.0
11
30.297966666666667
21
91.55372415142305
31
0.0
  0
LINE
 8
组“1”#1
10
30.297966666666667
20
91.55372415142305
30
0.0
11
30.297966666666667
21
94.638000451332
31
0.0
  0
LINE
 8
组“1”#1
10
30.297966666666667
20
94.638000451332
30
0.0
11
23.952114726588004
21
96.94770166858106
31
0.0
  0
LINE
 8
组“1”#1
10
23.952114726588004
20
96.94770166858106
30
0.0
11
23.952114726588004
21
102.54343183437078
31
0.0
  0
LINE
 8
组“1”#1
10
23.952114726588004
20
102.54343183437078
30
0.0
11
30.297966666666667
21
104.85313305161982
31
0.0
  0
LINE
 8
组“1”#1
10
30.297966666666667
20
104.85313305161982
30
0.0
11
30.297966666666667
21
107.9374093515288
31
0.0
  0
LINE
 8
组“1”#1
10
30.297966666666667
20
107.9374093515288
30
0.0
11
23.952114726588004
21
110.24711056877787
31
0.0
  0
LINE
 8
组“1”#1
10
23.952114726588004
20
110.24711056877787
30
0.0
11
23.952114726588004
21
115.84284073456757
31
0.0
  0
LINE
 8
组“1”#1
10
23.952114726588004
20
115.84284073456757
30
0.0
11
30.297966666666667
21
118.15254195181663
31
0.0
  0
LINE
 8
组“1”#1
10
30.297966666666667
20
118.15254195181663
30
0.0
11
30.297966666666667
21
121.23681825172558
31
0.0
  0
LINE
 8
组“1”#1
10
30.297966666666667
20
121.23681825172558
30
0.0
11
23.952114726588004
21
123.54651946897465
31
0.0
  0
LINE
 8
组“1”#1
10
23.952114726588004
20
123.54651946897465
30
0.0
11
23.952114726588004
21
129.14224963476434
31
0.0
  0
LINE
 8
组“1”#1
10
23.952114726588004
20
129.14224963476434
30
0.0
11
30.297966666666667
21
131.4519508520134
31
0.0
  0
LINE
 8
组“1”#1
10
30.297966666666667
20
131.4519508520134
30
0.0
11
30.297966666666667
21
134.53622715192236
31
0.0
  0
LINE
 8
组“1”#1
10
30.297966666666667
20
134.53622715192236
30
0.0
11
23.952114726588004
21
136.84592836917145
31
0.0
  0
LINE
 8
组“1”#1
10
23.952114726588004
20
136.84592836917145
30
0.0
11
23.952114726588004
21
142.44165853496114
31
0.0
  0
LINE
 8
组“1”#1
10
23.952114726588004
20
142.44165853496114
30
0.0
11
30.297966666666667
21
144.7513597522102
31
0.0
  0
LINE
 8
组“1”#1
10
30.297966666666667
20
144.7513597522102
30
0.0
11
50.8
21
144.7513597522102
31
0.0
  0
LINE
 8
组“1”#1
10
50.8
20
144.7513597522102
30
0.0
11
50.8
21
-11.75727075024231
31
0.0
  0
LINE
 8
组“1”#1
10
50.8
20
-11.75727075024231
30
0.0
11
30.297966666666667
21
-11.75727075024231
31
0.0
  0
LINE
 8
组“1”#1
10
50.8
20
-11.75727075024231
30
0.0
11
30.297966666666667
21
-11.75727075024231
31
0.0
  0
LINE
 8
组“0”#1
10
26.294886956856338
20
-13.664309875386714
30
3.137004571497665e-16
11
26.273342019772564
21
-13.62066786479886
31
3.0977239398532915e-16
  0
LINE
 8
组“0”#1
10
26.273342019772564
20
-13.62066786479886
30
3.0977239398532915e-16
11
25.999487817057243
21
-13.091124732926751
31
2.626927343781547e-16
  0
LINE
 8
组“0”#1
10
25.999487817057243
20
-13.091124732926751
30
2.626927343781547e-16
11
25.721575352626864
21
-12.596808958543514
31
2.1978898124733839e-16
  0
LINE
 8
组“0”#1
10
25.721575352626864
20
-12.596808958543514
30
2.1978898124733839e-16
11
25.441712443034895
21
-12.137327755592734
31
1.8091791049991873e-16
  0
LINE
 8
组“0”#1
10
25.441712443034895
20
-12.137327755592734
30
1.8091791049991873e-16
11
25.161973477214147
21
-11.712184758613095
31
1.4592614539085498e-16
  0
LINE
 8
组“0”#1
10
25.161973477214147
20
-11.712184758613095
30
1.4592614539085498e-16
11
24.884394777249312
21
-11.320781914266753
31
1.146505879538339e-16
  0
LINE
 8
组“0”#1
10
24.884394777249312
20
-11.320781914266753
30
1.146505879538339e-16
11
24.610970051722518
21
-10.962421569679263
31
8.691886836138398e-17
  0
LINE
 8
组“0”#1
10
24.610970051722518
20
-10.962421569679263
30
8.691886836138398e-17
11
24.343645949688465
21
-10.636308753390118
31
6.254981136144298e-17
  0
LINE
 8
组“0”#1
10
24.343645949688465
20
-10.636308753390118
30
6.254981136144298e-17
11
24.08431772315296
21
-10.341553644391515
31
4.1353918909677736e-17
  0
LINE
 8
组“0”#1
10
24.08431772315296
20
-10.341553644391515
30
4.1353918909677736e-17
11
23.834825005734693
21
-10.077174224419092
31
2.313386809046017e-17
  0
LINE
 8
组“0”#1
10
23.834825005734693
20
-10.077174224419092
30
2.313386809046017e-17
11
23.596947714983138
21
-9.842099108352619
31
7.685023394502228e-18
  0
LINE
 8
组“0”#1
10
23.596947714983138
20
-9.842099108352619
30
7.685023394502228e-18
11
23.372402085606474
21
-9.635170547287506
31
-5.204037602210649e-18
  0
LINE
 8
组“0”#1
10
23.372402085606474
20
-9.635170547287506
30
-5.204037602210649e-18
11
23.16283684063362
21
-9.455147598549969
31
-1.575098613535397e-17
  0
LINE
 8
组“0”#1
10
23.16283684063362
20
-9.455147598549969
30
-1.575098613535397e-17
11
22.96982950729215
21
-9.300709456649876
31
-2.417919272242581e-17
  0
LINE
 8
组“0”#1
10
22.96982950729215
20
-9.300709456649876
30
-2.417919272242581e-17
11
22.79488288413217
21
-9.170458938896937
31
-3.0717167222070506e-17
  0
LINE
 8
组“0”#1
10
22.79488288413217
20
-9.170458938896937
30
-3.0717167222070506e-17
11
22.63942166566296
21
-9.062926119147372
31
-3.5597989515400737e-17
  0
LINE
 8
组“0”#1
10
22.63942166566296
20
-9.062926119147372
30
-3.5597989515400737e-17
11
22.504789230496286
21
-8.976572102900578
31
-3.9058731857380595e-17
  0
LINE
 8
组“0”#1
10
22.504789230496286
20
-8.976572102900578
30
-3.9058731857380595e-17
11
22.39224459870812
21
-8.909792936729136
31
-4.133987395984585e-17
  0
LINE
 8
组“0”#1
10
22.39224459870812
20
-8.909792936729136
30
-4.133987395984585e-17
11
22.302959563838478
21
-8.860923644800176
31
-4.2684711879521134e-17
  0
LINE
 8
组“0”#1
10
22.302959563838478
20
-8.860923644800176
30
-4.2684711879521134e-17
11
22.23801600464913
21
-8.828242385033352
31
-4.333876179443112e-17
  0
LINE
 8
组“0”#1
10
22.23801600464913
20
-8.828242385033352
30
-4.333876179443112e-17
11
22.198403381450063
21
-8.809974717239479
31
-4.354915976038033e-17
  0
LINE
 8
组“0”#1
10
22.198403381450063
20
-8.809974717239479
30
-4.354915976038033e-17
11
19.674001131468643
21
-7.807781839725555
31
-3.8633252319285376e-17
  0
LINE
 8
组“0”#1
10
19.674001131468643
20
-7.807781839725555
30
-3.8633252319285376e-17
11
19.5224659098639
21
-7.723278851396301
31
-4.109241199372878e-17
  0
LINE
 8
组“0”#1
10
19.5224659098639
20
-7.723278851396301
30
-4.109241199372878e-17
11
19.397965108471123
21
-7.602435031215328
31
-4.893024189779667e-17
  0
LINE
 8
组“0”#1
10
19.397965108471123
20
-7.602435031215328
30
-4.893024189779667e-17
11
19.308983251157937
21
-7.453485685824118
31
-6.16126068761532e-17
  0
LINE
 8
组“0”#1
10
19.308983251157937
20
-7.453485685824118
30
-6.16126068761532e-17
11
19.261584304450757
21
-7.286581466960649
31
-7.82752247141224e-17
  0
LINE
 8
组“0”#1
10
19.261584304450757
20
-7.286581466960649
30
-7.82752247141224e-17
11
19.25899842823722
21
-7.113096621318208
31
-9.778256554232464e-17
  0
LINE
 8
组“0”#1
10
19.25899842823722
20
-7.113096621318208
30
-9.778256554232464e-17
11
19.30140184570791
21
-6.944853854430057
31
-1.188052363207229e-16
  0
LINE
 8
组“0”#1
10
19.30140184570791
20
-6.944853854430057
30
-1.188052363207229e-16
11
20.187931254249932
21
-3.6362810593472497
31
0.0
  0
LINE
 8
组“0”#1
10
20.187931254249932
20
-3.6362810593472497
30
0.0
11
20.23533020095711
21
-3.4693768404837826
31
0.0
  0
LINE
 8
组“0”#1
10
20.23533020095711
20
-3.4693768404837826
30
0.0
11
20.324312058270298
21
-3.3204274950925727
31
0.0
  0
LINE
 8
组“0”#1
10
20.324312058270298
20
-3.3204274950925727
30
0.0
11
20.448812859663075
21
-3.1995836749116013
31
0.0
  0
LINE
 8
组“0”#1
10
20.448812859663075
20
-3.1995836749116013
30
0.0
11
20.60034808126782
21
-3.1150806865823446
31
0.0
  0
LINE
 8
组“0”#1
10
20.60034808126782
20
-3.1150806865823446
30
0.0
11
20.76859084815597
21
-3.0726772691116526
31
0.0
  0
LINE
 8
组“0”#1
10
20.76859084815597
20
-3.0726772691116526
30
0.0
11
20.94207569379841
21
-3.0752631453251906
31
0.0
  0
LINE
 8
组“0”#1
10
20.94207569379841
20
-3.0752631453251906
30
0.0
11
23.62936861040988
21
-3.4695397788970133
31
0.0
  0
LINE
 8
组“0”#1
10
23.62936861040988
20
-3.4695397788970133
30
0.0
11
23.67280798230775
21
-3.473525826119158
31
0.0
  0
LINE
 8
组“0”#1
10
23.67280798230775
20
-3.473525826119158
30
0.0
11
23.745391384261314
21
-3.477694804528087
31
0.0
  0
LINE
 8
组“0”#1
10
23.745391384261314
20
-3.477694804528087
30
0.0
11
23.84714913860068
21
-3.480015273687469
31
0.0
  0
LINE
 8
组“0”#1
10
23.84714913860068
20
-3.480015273687469
30
0.0
11
23.97800523187452
21
-3.4784551352335398
31
0.0
  0
LINE
 8
组“0”#1
10
23.97800523187452
20
-3.4784551352335398
30
0.0
11
24.13777734902562
21
-3.470986581028341
31
0.0
  0
LINE
 8
组“0”#1
10
24.13777734902562
20
-3.470986581028341
30
0.0
11
24.326177123398026
21
-3.455591036619248
31
0.0
  0
LINE
 8
组“0”#1
10
24.326177123398026
20
-3.455591036619248
30
0.0
11
24.54281060223734
21
-3.430264090969119
31
0.0
  0
LINE
 8
组“0”#1
10
24.54281060223734
20
-3.430264090969119
30
0.0
11
24.787178926977788
21
-3.3930204034411067
31
0.0
  0
LINE
 8
组“0”#1
10
24.787178926977788
20
-3.3930204034411067
30
0.0
11
25.058679227243356
21
-3.3418985790566405
31
0.0
  0
LINE
 8
组“0”#1
10
25.058679227243356
20
-3.3418985790566405
30
0.0
11
25.356605727124865
21
-3.2749660030940277
31
0.0
  0
LINE
 8
组“0”#1
10
25.356605727124865
20
-3.2749660030940277
30
0.0
11
25.680151061932367
21
-3.1903236261586643
31
0.0
  0
LINE
 8
组“0”#1
10
25.680151061932367
20
-3.1903236261586643
30
0.0
11
26.028407803262013
21
-3.086110690933883
31
0.0
  0
LINE
 8
组“0”#1
10
26.028407803262013
20
-3.086110690933883
30
0.0
11
26.400370189859423
21
-2.960509391913596
31
0.0
  0
LINE
 8
组“0”#1
10
26.400370189859423
20
-2.960509391913596
30
0.0
11
26.794936061409352
21
-2.8117494595245334
31
0.0
  0
LINE
 8
组“0”#1
10
26.794936061409352
20
-2.8117494595245334
30
0.0
11
27.210908992032085
21
-2.6381126601662186
31
0.0
  0
LINE
 8
组“0”#1
10
27.210908992032085
20
-2.6381126601662186
30
0.0
11
27.647000619924263
21
-2.4379372038312206
31
0.0
  0
LINE
 8
组“0”#1
10
27.647000619924263
20
-2.4379372038312206
30
0.0
11
28.101833169243232
21
-2.209622051116173
31
0.0
  0
LINE
 8
组“0”#1
10
28.101833169243232
20
-2.209622051116173
30
0.0
11
28.573942160002304
21
-1.9516311115953537
31
0.0
  0
LINE
 8
组“0”#1
10
28.573942160002304
20
-1.9516311115953537
30
0.0
11
29.061779301418966
21
-1.6624973257032805
31
0.0
  0
LINE
 8
组“0”#1
10
29.061779301418966
20
-1.6624973257032805
30
0.0
11
29.563715563839622
21
-1.3408266224601189
31
0.0
  0
LINE
 8
组“0”#1
10
29.563715563839622
20
-1.3408266224601189
30
0.0
11
29.604195031971035
21
-1.3138040011606973
31
0.0
  0
LINE
 8
组“0”#1
10
29.604195031971035
20
-1.3138040011606973
30
0.0
11
29.604195031971035
21
1.3138040011606973
31
0.0
  0
LINE
 8
组“0”#1
10
29.604195031971035
20
1.3138040011606973
30
0.0
11
29.563715563839622
21
1.340826622460117
31
3.0977239398532915e-16
  0
LINE
 8
组“0”#1
10
29.563715563839622
20
1.340826622460117
30
3.0977239398532915e-16
11
29.061779301418966
21
1.662497325703278
31
2.626927343781547e-16
  0
LINE
 8
组“0”#1
10
29.061779301418966
20
1.662497325703278
30
2.626927343781547e-16
11
28.573942160002304
21
1.951631111595348
31
2.1978898124733839e-16
  0
LINE
 8
组“0”#1
10
28.573942160002304
20
1.951631111595348
30
2.1978898124733839e-16
11
28.101833169243243
21
2.209622051116172
31
1.8091791049991873e-16
  0
LINE
 8
组“0”#1
10
28.101833169243243
20
2.209622051116172
30
1.8091791049991873e-16
11
27.647000619924263
21
2.437937203831219
31
1.4592614539085498e-16
  0
LINE
 8
组“0”#1
10
27.647000619924263
20
2.437937203831219
30
1.4592614539085498e-16
11
27.21090899203209
21
2.6381126601662195
31
1.146505879538339e-16
  0
LINE
 8
组“0”#1
10
27.21090899203209
20
2.6381126601662195
30
1.146505879538339e-16
11
26.794936061409352
21
2.811749459524534
31
8.691886836138398e-17
  0
LINE
 8
组“0”#1
10
26.794936061409352
20
2.811749459524534
30
8.691886836138398e-17
11
26.400370189859427
21
2.960509391913595
31
6.254981136144298e-17
  0
LINE
 8
组“0”#1
10
26.400370189859427
20
2.960509391913595
30
6.254981136144298e-17
11
26.028407803262013
21
3.0861106909338836
31
4.1353918909677736e-17
  0
LINE
 8
组“0”#1
10
26.028407803262013
20
3.0861106909338836
30
4.1353918909677736e-17
11
25.680151061932367
21
3.190323626158663
31
2.313386809046017e-17
  0
LINE
 8
组“0”#1
10
25.680151061932367
20
3.190323626158663
30
2.313386809046017e-17
11
25.356605727124865
21
3.2749660030940264
31
7.685023394502228e-18
  0
LINE
 8
组“0”#1
10
25.356605727124865
20
3.2749660030940264
30
7.685023394502228e-18
11
25.058679227243356
21
3.3418985790566422
31
-5.204037602210649e-18
  0
LINE
 8
组“0”#1
10
25.058679227243356
20
3.3418985790566422
30
-5.204037602210649e-18
11
24.787178926977788
21
3.3930204034411067
31
-1.575098613535397e-17
  0
LINE
 8
组“0”#1
10
24.787178926977788
20
3.3930204034411067
30
-1.575098613535397e-17
11
24.54281060223734
21
3.4302640909691178
31
-2.417919272242581e-17
  0
LINE
 8
组“0”#1
10
24.54281060223734
20
3.4302640909691178
30
-2.417919272242581e-17
11
24.326177123398022
21
3.455591036619249
31
-3.0717167222070506e-17
  0
LINE
 8
组“0”#1
10
24.326177123398022
20
3.455591036619249
30
-3.0717167222070506e-17
11
24.137777349025622
21
3.47098658102834
31
-3.5597989515400737e-17
  0
LINE
 8
组“0”#1
10
24.137777349025622
20
3.47098658102834
30
-3.5597989515400737e-17
11
23.97800523187452
21
3.478455135233539
31
-3.9058731857380595e-17
  0
LINE
 8
组“0”#1
10
23.97800523187452
20
3.478455135233539
30
-3.9058731857380595e-17
11
23.847149138600685
21
3.480015273687468
31
-4.133987395984585e-17
  0
LINE
 8
组“0”#1
10
23.847149138600685
20
3.480015273687468
30
-4.133987395984585e-17
11
23.745391384261314
21
3.477694804528086
31
-4.2684711879521134e-17
  0
LINE
 8
组“0”#1
10
23.745391384261314
20
3.477694804528086
30
-4.2684711879521134e-17
11
23.67280798230775
21
3.4735258261191575
31
-4.333876179443112e-17
  0
LINE
 8
组“0”#1
10
23.67280798230775
20
3.4735258261191575
30
-4.333876179443112e-17
11
23.629368610409877
21
3.4695397788970146
31
-4.354915976038033e-17
  0
LINE
 8
组“0”#1
10
23.629368610409877
20
3.4695397788970146
30
-4.354915976038033e-17
11
20.94207569379841
21
3.0752631453251893
31
-3.8633252319285376e-17
  0
LINE
 8
组“0”#1
10
20.94207569379841
20
3.0752631453251893
30
-3.8633252319285376e-17
11
20.768590848155974
21
3.0726772691116517
31
-4.109241199372878e-17
  0
LINE
 8
组“0”#1
10
20.768590848155974
20
3.0726772691116517
30
-4.109241199372878e-17
11
20.600348081267818
21
3.1150806865823446
31
-4.893024189779667e-17
  0
LINE
 8
组“0”#1
10
20.600348081267818
20
3.1150806865823446
30
-4.893024189779667e-17
11
20.448812859663075
21
3.199583674911601
31
-6.16126068761532e-17
  0
LINE
 8
组“0”#1
10
20.448812859663075
20
3.199583674911601
30
-6.16126068761532e-17
11
20.324312058270298
21
3.3204274950925727
31
-7.82752247141224e-17
  0
LINE
 8
组“0”#1
10
20.324312058270298
20
3.3204274950925727
30
-7.82752247141224e-17
11
20.23533020095711
21
3.469376840483781
31
-9.778256554232464e-17
  0
LINE
 8
组“0”#1
10
20.23533020095711
20
3.469376840483781
30
-9.778256554232464e-17
11
20.187931254249932
21
3.636281059347249
31
-1.188052363207229e-16
  0
LINE
 8
组“0”#1
10
20.187931254249932
20
3.636281059347249
30
-1.188052363207229e-16
11
19.30140184570791
21
6.944853854430057
31
0.0
  0
LINE
 8
组“0”#1
10
19.30140184570791
20
6.944853854430057
30
0.0
11
19.258998428237224
21
7.113096621318206
31
0.0
  0
LINE
 8
组“0”#1
10
19.258998428237224
20
7.113096621318206
30
0.0
11
19.26158430445076
21
7.286581466960651
31
0.0
  0
LINE
 8
组“0”#1
10
19.26158430445076
20
7.286581466960651
30
0.0
11
19.308983251157937
21
7.453485685824118
31
0.0
  0
LINE
 8
组“0”#1
10
19.308983251157937
20
7.453485685824118
30
0.0
11
19.397965108471123
21
7.602435031215328
31
0.0
  0
LINE
 8
组“0”#1
10
19.397965108471123
20
7.602435031215328
30
0.0
11
19.522465909863897
21
7.723278851396297
31
0.0
  0
LINE
 8
组“0”#1
10
19.522465909863897
20
7.723278851396297
30
0.0
11
19.674001131468643
21
7.807781839725553
31
0.0
  0
LINE
 8
组“0”#1
10
19.674001131468643
20
7.807781839725553
30
0.0
11
22.198403381450063
21
8.80997471723948
31
0.0
  0
LINE
 8
组“0”#1
10
22.198403381450063
20
8.80997471723948
30
0.0
11
22.23801600464913
21
8.828242385033352
31
0.0
  0
LINE
 8
组“0”#1
10
22.23801600464913
20
8.828242385033352
30
0.0
11
22.302959563838478
21
8.860923644800174
31
0.0
  0
LINE
 8
组“0”#1
10
22.302959563838478
20
8.860923644800174
30
0.0
11
22.392244598708118
21
8.909792936729135
31
0.0
  0
LINE
 8
组“0”#1
10
22.392244598708118
20
8.909792936729135
30
0.0
11
22.504789230496286
21
8.976572102900578
31
0.0
  0
LINE
 8
组“0”#1
10
22.504789230496286
20
8.976572102900578
30
0.0
11
22.63942166566296
21
9.062926119147372
31
0.0
  0
LINE
 8
组“0”#1
10
22.63942166566296
20
9.062926119147372
30
0.0
11
22.794882884132175
21
9.170458938896939
31
0.0
  0
LINE
 8
组“0”#1
10
22.794882884132175
20
9.170458938896939
30
0.0
11
22.96982950729215
21
9.300709456649876
31
0.0
  0
LINE
 8
组“0”#1
10
22.96982950729215
20
9.300709456649876
30
0.0
11
23.16283684063362
21
9.455147598549969
31
0.0
  0
LINE
 8
组“0”#1
10
23.16283684063362
20
9.455147598549969
30
0.0
11
23.372402085606474
21
9.635170547287508
31
0.0
  0
LINE
 8
组“0”#1
10
23.372402085606474
20
9.635170547287508
30
0.0
11
23.596947714983138
21
9.842099108352617
31
0.0
  0
LINE
 8
组“0”#1
10
23.596947714983138
20
9.842099108352617
30
0.0
11
23.834825005734693
21
10.077174224419089
31
0.0
  0
LINE
 8
组“0”#1
10
23.834825005734693
20
10.077174224419089
30
0.0
11
24.084317723152957
21
10.341553644391514
31
0.0
  0
LINE
 8
组“0”#1
10
24.084317723152957
20
10.341553644391514
30
0.0
11
24.343645949688465
21
10.636308753390113
31
0.0
  0
LINE
 8
组“0”#1
10
24.343645949688465
20
10.636308753390113
30
0.0
11
24.610970051722518
21
10.962421569679261
31
0.0
  0
LINE
 8
组“0”#1
10
24.610970051722518
20
10.962421569679261
30
0.0
11
24.88439477724931
21
11.32078191426675
31
0.0
  0
LINE
 8
组“0”#1
10
24.88439477724931
20
11.32078191426675
30
0.0
11
25.16197347721415
21
11.712184758613091
31
0.0
  0
LINE
 8
组“0”#1
10
25.16197347721415
20
11.712184758613091
30
0.0
11
25.44171244303489
21
12.13732775559273
31
0.0
  0
LINE
 8
组“0”#1
10
25.44171244303489
20
12.13732775559273
30
0.0
11
25.72157535262687
21
12.59680895854351
31
0.0
  0
LINE
 8
组“0”#1
10
25.72157535262687
20
12.59680895854351
30
0.0
11
25.999487817057243
21
13.09112473292675
31
0.0
  0
LINE
 8
组“0”#1
10
25.999487817057243
20
13.09112473292675
30
0.0
11
26.273342019772564
21
13.620667864798857
31
0.0
  0
LINE
 8
组“0”#1
10
26.273342019772564
20
13.620667864798857
30
0.0
11
26.294886956856338
21
13.66430987538671
31
0.0
  0
LINE
 8
组“0”#1
10
26.294886956856338
20
13.66430987538671
30
0.0
11
24.98108295569564
21
15.93988515658432
31
0.0
  0
LINE
 8
组“0”#1
10
24.98108295569564
20
15.93988515658432
30
0.0
11
24.932515397312443
21
15.943047699040761
31
3.0977239398532915e-16
  0
LINE
 8
组“0”#1
10
24.932515397312443
20
15.943047699040761
30
3.0977239398532915e-16
11
24.336990491353966
21
15.970654568492217
31
2.626927343781547e-16
  0
LINE
 8
组“0”#1
10
24.336990491353966
20
15.970654568492217
30
2.626927343781547e-16
11
23.769944241031514
21
15.977133201458786
31
2.1978898124733839e-16
  0
LINE
 8
组“0”#1
10
23.769944241031514
20
15.977133201458786
30
2.1978898124733839e-16
11
23.232090391918724
21
15.964505413650503
31
1.8091791049991873e-16
  0
LINE
 8
组“0”#1
10
23.232090391918724
20
15.964505413650503
30
1.8091791049991873e-16
11
22.72403627338293
21
15.934815861311169
31
1.4592614539085498e-16
  0
LINE
 8
组“0”#1
10
22.72403627338293
20
15.934815861311169
30
1.4592614539085498e-16
11
22.246282117083094
21
15.890127077765332
31
1.146505879538339e-16
  0
LINE
 8
组“0”#1
10
22.246282117083094
20
15.890127077765332
30
1.146505879538339e-16
11
21.799220592197987
21
15.83251449173009
31
8.691886836138398e-17
  0
LINE
 8
组“0”#1
10
21.799220592197987
20
15.83251449173009
30
8.691886836138398e-17
11
21.38313655777487
21
15.764061436469307
31
6.254981136144298e-17
  0
LINE
 8
组“0”#1
10
21.38313655777487
20
15.764061436469307
30
6.254981136144298e-17
11
20.998207032219078
21
15.686854158870494
31
4.1353918909677736e-17
  0
LINE
 8
组“0”#1
10
20.998207032219078
20
15.686854158870494
30
4.1353918909677736e-17
11
20.64450137957603
21
15.602976837513275
31
2.313386809046017e-17
  0
LINE
 8
组“0”#1
10
20.64450137957603
20
15.602976837513275
30
2.313386809046017e-17
11
20.321981711889112
21
15.514506618772247
31
7.685023394502228e-18
  0
LINE
 8
组“0”#1
10
20.321981711889112
20
15.514506618772247
30
7.685023394502228e-18
11
20.030503506549834
21
15.423508679955846
31
-5.204037602210649e-18
  0
LINE
 8
组“0”#1
10
20.030503506549834
20
15.423508679955846
30
-5.204037602210649e-18
11
19.769816437192517
21
15.332031328427817
31
-1.575098613535397e-17
  0
LINE
 8
组“0”#1
10
19.769816437192517
20
15.332031328427817
30
-1.575098613535397e-17
11
19.539565416323036
21
15.242101145587458
31
-2.417919272242581e-17
  0
LINE
 8
组“0”#1
10
19.539565416323036
20
15.242101145587458
30
-2.417919272242581e-17
11
19.339291847512925
21
15.155718184501081
31
-3.0717167222070506e-17
  0
LINE
 8
组“0”#1
10
19.339291847512925
20
15.155718184501081
30
-3.0717167222070506e-17
11
19.168435084634623
21
15.074851229878247
31
-3.5597989515400737e-17
  0
LINE
 8
组“0”#1
10
19.168435084634623
20
15.074851229878247
30
-3.5597989515400737e-17
11
19.026334095262744
21
15.001433128973941
31
-3.9058731857380595e-17
  0
LINE
 8
组“0”#1
10
19.026334095262744
20
15.001433128973941
30
-3.9058731857380595e-17
11
18.91222932502065
21
14.937356201871545
31
-4.133987395984585e-17
  0
LINE
 8
组“0”#1
10
18.91222932502065
20
14.937356201871545
30
-4.133987395984585e-17
11
18.825264759310393
21
14.884467739461137
31
-4.2684711879521134e-17
  0
LINE
 8
组“0”#1
10
18.825264759310393
20
14.884467739461137
30
-4.2684711879521134e-17
11
18.76449017852997
21
14.844565597274393
31
-4.333876179443112e-17
  0
LINE
 8
组“0”#1
10
18.76449017852997
20
14.844565597274393
30
-4.333876179443112e-17
11
18.72886360255305
21
14.819393893170398
31
-4.354915976038033e-17
  0
LINE
 8
组“0”#1
10
18.72886360255305
20
14.819393893170398
30
-4.354915976038033e-17
11
16.598737986143455
21
13.134293854072858
31
-3.8633252319285376e-17
  0
LINE
 8
组“0”#1
10
16.598737986143455
20
13.134293854072858
30
-3.8633252319285376e-17
11
16.44978864075225
21
13.045311996759668
31
-4.109241199372878e-17
  0
LINE
 8
组“0”#1
10
16.44978864075225
20
13.045311996759668
30
-4.109241199372878e-17
11
16.28288442188878
21
12.997913050052492
31
-4.893024189779667e-17
  0
LINE
 8
组“0”#1
10
16.28288442188878
20
12.997913050052492
30
-4.893024189779667e-17
11
16.109399576246336
21
12.995327173838954
31
-6.16126068761532e-17
  0
LINE
 8
组“0”#1
10
16.109399576246336
20
12.995327173838954
30
-6.16126068761532e-17
11
15.941156809358185
21
13.037730591309648
31
-7.82752247141224e-17
  0
LINE
 8
组“0”#1
10
15.941156809358185
20
13.037730591309648
30
-7.82752247141224e-17
11
15.789621587753441
21
13.122233579638902
31
-9.778256554232464e-17
  0
LINE
 8
组“0”#1
10
15.789621587753441
20
13.122233579638902
30
-9.778256554232464e-17
11
15.665120786360664
21
13.243077399819873
31
-1.188052363207229e-16
  0
LINE
 8
组“0”#1
10
15.665120786360664
20
13.243077399819873
30
-1.188052363207229e-16
11
13.24307739981988
21
15.665120786360658
31
0.0
  0
LINE
 8
组“0”#1
10
13.24307739981988
20
15.665120786360658
30
0.0
11
13.122233579638907
21
15.78962158775344
31
0.0
  0
LINE
 8
组“0”#1
10
13.122233579638907
20
15.78962158775344
30
0.0
11
13.03773059130965
21
15.941156809358183
31
0.0
  0
LINE
 8
组“0”#1
10
13.03773059130965
20
15.941156809358183
30
0.0
11
12.995327173838959
21
16.109399576246332
31
0.0
  0
LINE
 8
组“0”#1
10
12.995327173838959
20
16.109399576246332
30
0.0
11
12.997913050052494
21
16.282884421888774
31
0.0
  0
LINE
 8
组“0”#1
10
12.997913050052494
20
16.282884421888774
30
0.0
11
13.045311996759672
21
16.449788640752242
31
0.0
  0
LINE
 8
组“0”#1
10
13.045311996759672
20
16.449788640752242
30
0.0
11
13.134293854072862
21
16.59873798614345
31
0.0
  0
LINE
 8
组“0”#1
10
13.134293854072862
20
16.59873798614345
30
0.0
11
14.819393893170401
21
18.728863602553048
31
0.0
  0
LINE
 8
组“0”#1
10
14.819393893170401
20
18.728863602553048
30
0.0
11
14.844565597274396
21
18.764490178529968
31
0.0
  0
LINE
 8
组“0”#1
10
14.844565597274396
20
18.764490178529968
30
0.0
11
14.88446773946114
21
18.82526475931039
31
0.0
  0
LINE
 8
组“0”#1
10
14.88446773946114
20
18.82526475931039
30
0.0
11
14.937356201871548
21
18.912229325020647
31
0.0
  0
LINE
 8
组“0”#1
10
14.937356201871548
20
18.912229325020647
30
0.0
11
15.001433128973941
21
19.02633409526274
31
0.0
  0
LINE
 8
组“0”#1
10
15.001433128973941
20
19.02633409526274
30
0.0
11
15.074851229878249
21
19.168435084634616
31
0.0
  0
LINE
 8
组“0”#1
10
15.074851229878249
20
19.168435084634616
30
0.0
11
15.155718184501087
21
19.339291847512925
31
0.0
  0
LINE
 8
组“0”#1
10
15.155718184501087
20
19.339291847512925
30
0.0
11
15.242101145587464
21
19.53956541632303
31
0.0
  0
LINE
 8
组“0”#1
10
15.242101145587464
20
19.53956541632303
30
0.0
11
15.33203132842782
21
19.769816437192514
31
0.0
  0
LINE
 8
组“0”#1
10
15.33203132842782
20
19.769816437192514
30
0.0
11
15.423508679955852
21
20.03050350654983
31
0.0
  0
LINE
 8
组“0”#1
10
15.423508679955852
20
20.03050350654983
30
0.0
11
15.51450661877225
21
20.321981711889105
31
0.0
  0
LINE
 8
组“0”#1
10
15.51450661877225
20
20.321981711889105
30
0.0
11
15.602976837513276
21
20.644501379576027
31
0.0
  0
LINE
 8
组“0”#1
10
15.602976837513276
20
20.644501379576027
30
0.0
11
15.686854158870496
21
20.99820703221907
31
0.0
  0
LINE
 8
组“0”#1
10
15.686854158870496
20
20.99820703221907
30
0.0
11
15.764061436469309
21
21.383136557774865
31
0.0
  0
LINE
 8
组“0”#1
10
15.764061436469309
20
21.383136557774865
30
0.0
11
15.83251449173009
21
21.79922059219798
31
0.0
  0
LINE
 8
组“0”#1
10
15.83251449173009
20
21.79922059219798
30
0.0
11
15.890127077765333
21
22.246282117083087
31
0.0
  0
LINE
 8
组“0”#1
10
15.890127077765333
20
22.246282117083087
30
0.0
11
15.934815861311174
21
22.724036273382925
31
0.0
  0
LINE
 8
组“0”#1
10
15.934815861311174
20
22.724036273382925
30
0.0
11
15.964505413650501
21
23.232090391918714
31
0.0
  0
LINE
 8
组“0”#1
10
15.964505413650501
20
23.232090391918714
30
0.0
11
15.977133201458793
21
23.769944241031514
31
0.0
  0
LINE
 8
组“0”#1
10
15.977133201458793
20
23.769944241031514
30
0.0
11
15.970654568492218
21
24.33699049135396
31
0.0
  0
LINE
 8
组“0”#1
10
15.970654568492218
20
24.33699049135396
30
0.0
11
15.943047699040763
21
24.932515397312436
31
0.0
  0
LINE
 8
组“0”#1
10
15.943047699040763
20
24.932515397312436
30
0.0
11
15.939885156584324
21
24.98108295569564
31
0.0
  0
LINE
 8
组“0”#1
10
15.939885156584324
20
24.98108295569564
30
0.0
11
13.664309875386715
21
26.294886956856338
31
0.0
  0
LINE
 8
组“0”#1
10
13.664309875386715
20
26.294886956856338
30
0.0
11
13.620667864798863
21
26.273342019772564
31
3.0977239398532915e-16
  0
LINE
 8
组“0”#1
10
13.620667864798863
20
26.273342019772564
30
3.0977239398532915e-16
11
13.091124732926755
21
25.999487817057243
31
2.626927343781547e-16
  0
LINE
 8
组“0”#1
10
13.091124732926755
20
25.999487817057243
30
2.626927343781547e-16
11
12.596808958543516
21
25.721575352626864
31
2.1978898124733839e-16
  0
LINE
 8
组“0”#1
10
12.596808958543516
20
25.721575352626864
30
2.1978898124733839e-16
11
12.137327755592736
21
25.441712443034895
31
1.8091791049991873e-16
  0
LINE
 8
组“0”#1
10
12.137327755592736
20
25.441712443034895
30
1.8091791049991873e-16
11
11.712184758613095
21
25.161973477214147
31
1.4592614539085498e-16
  0
LINE
 8
组“0”#1
10
11.712184758613095
20
25.161973477214147
30
1.4592614539085498e-16
11
11.320781914266753
21
24.884394777249312
31
1.146505879538339e-16
  0
LINE
 8
组“0”#1
10
11.320781914266753
20
24.884394777249312
30
1.146505879538339e-16
11
10.962421569679265
21
24.610970051722518
31
8.691886836138398e-17
  0
LINE
 8
组“0”#1
10
10.962421569679265
20
24.610970051722518
30
8.691886836138398e-17
11
10.636308753390118
21
24.343645949688465
31
6.254981136144298e-17
  0
LINE
 8
组“0”#1
10
10.636308753390118
20
24.343645949688465
30
6.254981136144298e-17
11
10.341553644391517
21
24.08431772315296
31
4.1353918909677736e-17
  0
LINE
 8
组“0”#1
10
10.341553644391517
20
24.08431772315296
30
4.1353918909677736e-17
11
10.077174224419092
21
23.834825005734693
31
2.313386809046017e-17
  0
LINE
 8
组“0”#1
10
10.077174224419092
20
23.834825005734693
30
2.313386809046017e-17
11
9.84209910835262
21
23.596947714983138
31
7.685023394502228e-18
  0
LINE
 8
组“0”#1
10
9.84209910835262
20
23.596947714983138
30
7.685023394502228e-18
11
9.635170547287508
21
23.372402085606474
31
-5.204037602210649e-18
  0
LINE
 8
组“0”#1
10
9.635170547287508
20
23.372402085606474
30
-5.204037602210649e-18
11
9.45514759854997
21
23.16283684063362
31
-1.575098613535397e-17
  0
LINE
 8
组“0”#1
10
9.45514759854997
20
23.16283684063362
30
-1.575098613535397e-17
11
9.300709456649876
21
22.96982950729215
31
-2.417919272242581e-17
  0
LINE
 8
组“0”#1
10
9.300709456649876
20
22.96982950729215
30
-2.417919272242581e-17
11
9.170458938896939
21
22.79488288413217
31
-3.0717167222070506e-17
  0
LINE
 8
组“0”#1
10
9.170458938896939
20
22.79488288413217
30
-3.0717167222070506e-17
11
9.062926119147374
21
22.63942166566296
31
-3.5597989515400737e-17
  0
LINE
 8
组“0”#1
10
9.062926119147374
20
22.63942166566296
30
-3.5597989515400737e-17
11
8.97657210290058
21
22.504789230496286
31
-3.9058731857380595e-17
  0
LINE
 8
组“0”#1
10
8.97657210290058
20
22.504789230496286
30
-3.9058731857380595e-17
11
8.909792936729138
21
22.39224459870812
31
-4.133987395984585e-17
  0
LINE
 8
组“0”#1
10
8.909792936729138
20
22.39224459870812
30
-4.133987395984585e-17
11
8.860923644800177
21
22.302959563838478
31
-4.2684711879521134e-17
  0
LINE
 8
组“0”#1
10
8.860923644800177
20
22.302959563838478
30
-4.2684711879521134e-17
11
8.828242385033354
21
22.23801600464913
31
-4.333876179443112e-17
  0
LINE
 8
组“0”#1
10
8.828242385033354
20
22.23801600464913
30
-4.333876179443112e-17
11
8.80997471723948
21
22.198403381450063
31
-4.354915976038033e-17
  0
LINE
 8
组“0”#1
10
8.80997471723948
20
22.198403381450063
30
-4.354915976038033e-17
11
7.807781839725556
21
19.674001131468643
31
-3.8633252319285376e-17
  0
LINE
 8
组“0”#1
10
7.807781839725556
20
19.674001131468643
30
-3.8633252319285376e-17
11
7.7232788513963015
21
19.5224659098639
31
-4.109241199372878e-17
  0
LINE
 8
组“0”#1
10
7.7232788513963015
20
19.5224659098639
30
-4.109241199372878e-17
11
7.602435031215329
21
19.397965108471123
31
-4.893024189779667e-17
  0
LINE
 8
组“0”#1
10
7.602435031215329
20
19.397965108471123
30
-4.893024189779667e-17
11
7.453485685824119
21
19.308983251157937
31
-6.16126068761532e-17
  0
LINE
 8
组“0”#1
10
7.453485685824119
20
19.308983251157937
30
-6.16126068761532e-17
11
7.286581466960651
21
19.261584304450757
31
-7.82752247141224e-17
  0
LINE
 8
组“0”#1
10
7.286581466960651
20
19.261584304450757
30
-7.82752247141224e-17
11
7.11309662131821
21
19.25899842823722
31
-9.778256554232464e-17
  0
LINE
 8
组“0”#1
10
7.11309662131821
20
19.25899842823722
30
-9.778256554232464e-17
11
6.944853854430058
21
19.30140184570791
31
-1.188052363207229e-16
  0
LINE
 8
组“0”#1
10
6.944853854430058
20
19.30140184570791
30
-1.188052363207229e-16
11
3.636281059347251
21
20.187931254249932
31
0.0
  0
LINE
 8
组“0”#1
10
3.636281059347251
20
20.187931254249932
30
0.0
11
3.469376840483784
21
20.23533020095711
31
0.0
  0
LINE
 8
组“0”#1
10
3.469376840483784
20
20.23533020095711
30
0.0
11
3.320427495092574
21
20.324312058270298
31
0.0
  0
LINE
 8
组“0”#1
10
3.320427495092574
20
20.324312058270298
30
0.0
11
3.1995836749116027
21
20.448812859663075
31
0.0
  0
LINE
 8
组“0”#1
10
3.1995836749116027
20
20.448812859663075
30
0.0
11
3.115080686582346
21
20.60034808126782
31
0.0
  0
LINE
 8
组“0”#1
10
3.115080686582346
20
20.60034808126782
30
0.0
11
3.072677269111654
21
20.76859084815597
31
0.0
  0
LINE
 8
组“0”#1
10
3.072677269111654
20
20.76859084815597
30
0.0
11
3.075263145325192
21
20.94207569379841
31
0.0
  0
LINE
 8
组“0”#1
10
3.075263145325192
20
20.94207569379841
30
0.0
11
3.4695397788970146
21
23.62936861040988
31
0.0
  0
LINE
 8
组“0”#1
10
3.4695397788970146
20
23.62936861040988
30
0.0
11
3.4735258261191593
21
23.67280798230775
31
0.0
  0
LINE
 8
组“0”#1
10
3.4735258261191593
20
23.67280798230775
30
0.0
11
3.477694804528088
21
23.745391384261314
31
0.0
  0
LINE
 8
组“0”#1
10
3.477694804528088
20
23.745391384261314
30
0.0
11
3.4800152736874703
21
23.84714913860068
31
0.0
  0
LINE
 8
组“0”#1
10
3.4800152736874703
20
23.84714913860068
30
0.0
11
3.478455135233541
21
23.97800523187452
31
0.0
  0
LINE
 8
组“0”#1
10
3.478455135233541
20
23.97800523187452
30
0.0
11
3.4709865810283422
21
24.13777734902562
31
0.0
  0
LINE
 8
组“0”#1
10
3.4709865810283422
20
24.13777734902562
30
0.0
11
3.4555910366192495
21
24.326177123398026
31
0.0
  0
LINE
 8
组“0”#1
10
3.4555910366192495
20
24.326177123398026
30
0.0
11
3.4302640909691204
21
24.54281060223734
31
0.0
  0
LINE
 8
组“0”#1
10
3.4302640909691204
20
24.54281060223734
30
0.0
11
3.393020403441108
21
24.787178926977788
31
0.0
  0
LINE
 8
组“0”#1
10
3.393020403441108
20
24.787178926977788
30
0.0
11
3.3418985790566422
21
25.058679227243356
31
0.0
  0
LINE
 8
组“0”#1
10
3.3418985790566422
20
25.058679227243356
30
0.0
11
3.274966003094029
21
25.356605727124865
31
0.0
  0
LINE
 8
组“0”#1
10
3.274966003094029
20
25.356605727124865
30
0.0
11
3.1903236261586656
21
25.680151061932367
31
0.0
  0
LINE
 8
组“0”#1
10
3.1903236261586656
20
25.680151061932367
30
0.0
11
3.086110690933885
21
26.028407803262013
31
0.0
  0
LINE
 8
组“0”#1
10
3.086110690933885
20
26.028407803262013
30
0.0
11
2.9605093919135976
21
26.400370189859423
31
0.0
  0
LINE
 8
组“0”#1
10
2.9605093919135976
20
26.400370189859423
30
0.0
11
2.811749459524535
21
26.794936061409352
31
0.0
  0
LINE
 8
组“0”#1
10
2.811749459524535
20
26.794936061409352
30
0.0
11
2.6381126601662204
21
27.210908992032085
31
0.0
  0
LINE
 8
组“0”#1
10
2.6381126601662204
20
27.210908992032085
30
0.0
11
2.4379372038312224
21
27.647000619924263
31
0.0
  0
LINE
 8
组“0”#1
10
2.4379372038312224
20
27.647000619924263
30
0.0
11
2.2096220511161744
21
28.101833169243232
31
0.0
  0
LINE
 8
组“0”#1
10
2.2096220511161744
20
28.101833169243232
30
0.0
11
1.9516311115953555
21
28.573942160002304
31
0.0
  0
LINE
 8
组“0”#1
10
1.9516311115953555
20
28.573942160002304
30
0.0
11
1.6624973257032822
21
29.061779301418966
31
0.0
  0
LINE
 8
组“0”#1
10
1.6624973257032822
20
29.061779301418966
30
0.0
11
1.3408266224601206
21
29.563715563839622
31
0.0
  0
LINE
 8
组“0”#1
10
1.3408266224601206
20
29.563715563839622
30
0.0
11
1.313804001160699
21
29.604195031971035
31
0.0
  0
LINE
 8
组“0”#1
10
1.313804001160699
20
29.604195031971035
30
0.0
11
-1.3138040011606955
21
29.604195031971035
31
0.0
  0
LINE
 8
组“0”#1
10
-1.3138040011606955
20
29.604195031971035
30
0.0
11
-1.3408266224601129
21
29.563715563839622
31
3.0977239398532915e-16
  0
LINE
 8
组“0”#1
10
-1.3408266224601129
20
29.563715563839622
30
3.0977239398532915e-16
11
-1.6624973257032738
21
29.061779301418973
31
2.626927343781547e-16
  0
LINE
 8
组“0”#1
10
-1.6624973257032738
20
29.061779301418973
30
2.626927343781547e-16
11
-1.9516311115953437
21
28.573942160002304
31
2.1978898124733839e-16
  0
LINE
 8
组“0”#1
10
-1.9516311115953437
20
28.573942160002304
30
2.1978898124733839e-16
11
-2.2096220511161677
21
28.101833169243243
31
1.8091791049991873e-16
  0
LINE
 8
组“0”#1
10
-2.2096220511161677
20
28.101833169243243
30
1.8091791049991873e-16
11
-2.437937203831213
21
27.647000619924263
31
1.4592614539085498e-16
  0
LINE
 8
组“0”#1
10
-2.437937203831213
20
27.647000619924263
30
1.4592614539085498e-16
11
-2.6381126601662137
21
27.21090899203209
31
1.146505879538339e-16
  0
LINE
 8
组“0”#1
10
-2.6381126601662137
20
27.21090899203209
30
1.146505879538339e-16
11
-2.8117494595245294
21
26.794936061409352
31
8.691886836138398e-17
  0
LINE
 8
组“0”#1
10
-2.8117494595245294
20
26.794936061409352
30
8.691886836138398e-17
11
-2.960509391913589
21
26.400370189859427
31
6.254981136144298e-17
  0
LINE
 8
组“0”#1
10
-2.960509391913589
20
26.400370189859427
30
6.254981136144298e-17
11
-3.086110690933878
21
26.028407803262013
31
4.1353918909677736e-17
  0
LINE
 8
组“0”#1
10
-3.086110690933878
20
26.028407803262013
30
4.1353918909677736e-17
11
-3.190323626158657
21
25.68015106193237
31
2.313386809046017e-17
  0
LINE
 8
组“0”#1
10
-3.190323626158657
20
25.68015106193237
30
2.313386809046017e-17
11
-3.2749660030940206
21
25.35660572712487
31
7.685023394502228e-18
  0
LINE
 8
组“0”#1
10
-3.2749660030940206
20
25.35660572712487
30
7.685023394502228e-18
11
-3.3418985790566365
21
25.058679227243356
31
-5.204037602210649e-18
  0
LINE
 8
组“0”#1
10
-3.3418985790566365
20
25.058679227243356
30
-5.204037602210649e-18
11
-3.393020403441101
21
24.787178926977788
31
-1.575098613535397e-17
  0
LINE
 8
组“0”#1
10
-3.393020403441101
20
24.787178926977788
30
-1.575098613535397e-17
11
-3.4302640909691133
21
24.54281060223734
31
-2.417919272242581e-17
  0
LINE
 8
组“0”#1
10
-3.4302640909691133
20
24.54281060223734
30
-2.417919272242581e-17
11
-3.4555910366192433
21
24.326177123398026
31
-3.0717167222070506e-17
  0
LINE
 8
组“0”#1
10
-3.4555910366192433
20
24.326177123398026
30
-3.0717167222070506e-17
11
-3.4709865810283347
21
24.137777349025622
31
-3.5597989515400737e-17
  0
LINE
 8
组“0”#1
10
-3.4709865810283347
20
24.137777349025622
30
-3.5597989515400737e-17
11
-3.478455135233533
21
23.97800523187452
31
-3.9058731857380595e-17
  0
LINE
 8
组“0”#1
10
-3.478455135233533
20
23.97800523187452
30
-3.9058731857380595e-17
11
-3.4800152736874628
21
23.847149138600685
31
-4.133987395984585e-17
  0
LINE
 8
组“0”#1
10
-3.4800152736874628
20
23.847149138600685
30
-4.133987395984585e-17
11
-3.47769480452808
21
23.745391384261318
31
-4.2684711879521134e-17
  0
LINE
 8
组“0”#1
10
-3.47769480452808
20
23.745391384261318
30
-4.2684711879521134e-17
11
-3.4735258261191517
21
23.67280798230775
31
-4.333876179443112e-17
  0
LINE
 8
组“0”#1
10
-3.4735258261191517
20
23.67280798230775
30
-4.333876179443112e-17
11
-3.4695397788970106
21
23.62936861040988
31
-4.354915976038033e-17
  0
LINE
 8
组“0”#1
10
-3.4695397788970106
20
23.62936861040988
30
-4.354915976038033e-17
11
-3.0752631453251853
21
20.94207569379841
31
-3.8633252319285376e-17
  0
LINE
 8
组“0”#1
10
-3.0752631453251853
20
20.94207569379841
30
-3.8633252319285376e-17
11
-3.0726772691116477
21
20.768590848155974
31
-4.109241199372878e-17
  0
LINE
 8
组“0”#1
10
-3.0726772691116477
20
20.768590848155974
30
-4.109241199372878e-17
11
-3.1150806865823406
21
20.60034808126782
31
-4.893024189779667e-17
  0
LINE
 8
组“0”#1
10
-3.1150806865823406
20
20.60034808126782
30
-4.893024189779667e-17
11
-3.199583674911598
21
20.448812859663075
31
-6.16126068761532e-17
  0
LINE
 8
组“0”#1
10
-3.199583674911598
20
20.448812859663075
30
-6.16126068761532e-17
11
-3.320427495092569
21
20.324312058270298
31
-7.82752247141224e-17
  0
LINE
 8
组“0”#1
10
-3.320427495092569
20
20.324312058270298
30
-7.82752247141224e-17
11
-3.4693768404837777
21
20.23533020095711
31
-9.778256554232464e-17
  0
LINE
 8
组“0”#1
10
-3.4693768404837777
20
20.23533020095711
30
-9.778256554232464e-17
11
-3.6362810593472457
21
20.187931254249932
31
-1.188052363207229e-16
  0
LINE
 8
组“0”#1
10
-3.6362810593472457
20
20.187931254249932
30
-1.188052363207229e-16
11
-6.944853854430054
21
19.301401845707915
31
0.0
  0
LINE
 8
组“0”#1
10
-6.944853854430054
20
19.301401845707915
30
0.0
11
-7.113096621318204
21
19.258998428237224
31
0.0
  0
LINE
 8
组“0”#1
10
-7.113096621318204
20
19.258998428237224
30
0.0
11
-7.286581466960648
21
19.26158430445076
31
0.0
  0
LINE
 8
组“0”#1
10
-7.286581466960648
20
19.26158430445076
30
0.0
11
-7.453485685824115
21
19.30898325115794
31
0.0
  0
LINE
 8
组“0”#1
10
-7.453485685824115
20
19.30898325115794
30
0.0
11
-7.602435031215324
21
19.397965108471126
31
0.0
  0
LINE
 8
组“0”#1
10
-7.602435031215324
20
19.397965108471126
30
0.0
11
-7.723278851396294
21
19.5224659098639
31
0.0
  0
LINE
 8
组“0”#1
10
-7.723278851396294
20
19.5224659098639
30
0.0
11
-7.807781839725551
21
19.674001131468646
31
0.0
  0
LINE
 8
组“0”#1
10
-7.807781839725551
20
19.674001131468646
30
0.0
11
-8.809974717239477
21
22.198403381450067
31
0.0
  0
LINE
 8
组“0”#1
10
-8.809974717239477
20
22.198403381450067
30
0.0
11
-8.828242385033349
21
22.238016004649133
31
0.0
  0
LINE
 8
组“0”#1
10
-8.828242385033349
20
22.238016004649133
30
0.0
11
-8.86092364480017
21
22.30295956383848
31
0.0
  0
LINE
 8
组“0”#1
10
-8.86092364480017
20
22.30295956383848
30
0.0
11
-8.90979293672913
21
22.39224459870812
31
0.0
  0
LINE
 8
组“0”#1
10
-8.90979293672913
20
22.39224459870812
30
0.0
11
-8.976572102900573
21
22.504789230496286
31
0.0
  0
LINE
 8
组“0”#1
10
-8.976572102900573
20
22.504789230496286
30
0.0
11
-9.062926119147367
21
22.639421665662965
31
0.0
  0
LINE
 8
组“0”#1
10
-9.062926119147367
20
22.639421665662965
30
0.0
11
-9.170458938896935
21
22.79488288413218
31
0.0
  0
LINE
 8
组“0”#1
10
-9.170458938896935
20
22.79488288413218
30
0.0
11
-9.30070945664987
21
22.969829507292154
31
0.0
  0
LINE
 8
组“0”#1
10
-9.30070945664987
20
22.969829507292154
30
0.0
11
-9.455147598549964
21
23.162836840633624
31
0.0
  0
LINE
 8
组“0”#1
10
-9.455147598549964
20
23.162836840633624
30
0.0
11
-9.635170547287503
21
23.372402085606478
31
0.0
  0
LINE
 8
组“0”#1
10
-9.635170547287503
20
23.372402085606478
30
0.0
11
-9.842099108352611
21
23.59694771498314
31
0.0
  0
LINE
 8
组“0”#1
10
-9.842099108352611
20
23.59694771498314
30
0.0
11
-10.077174224419085
21
23.834825005734697
31
0.0
  0
LINE
 8
组“0”#1
10
-10.077174224419085
20
23.834825005734697
30
0.0
11
-10.34155364439151
21
24.08431772315296
31
0.0
  0
LINE
 8
组“0”#1
10
-10.34155364439151
20
24.08431772315296
30
0.0
11
-10.63630875339011
21
24.343645949688465
31
0.0
  0
LINE
 8
组“0”#1
10
-10.63630875339011
20
24.343645949688465
30
0.0
11
-10.962421569679258
21
24.61097005172252
31
0.0
  0
LINE
 8
组“0”#1
10
-10.962421569679258
20
24.61097005172252
30
0.0
11
-11.320781914266746
21
24.884394777249312
31
0.0
  0
LINE
 8
组“0”#1
10
-11.320781914266746
20
24.884394777249312
30
0.0
11
-11.712184758613088
21
25.16197347721415
31
0.0
  0
LINE
 8
组“0”#1
10
-11.712184758613088
20
25.16197347721415
30
0.0
11
-12.137327755592727
21
25.44171244303489
31
0.0
  0
LINE
 8
组“0”#1
10
-12.137327755592727
20
25.44171244303489
30
0.0
11
-12.596808958543509
21
25.721575352626875
31
0.0
  0
LINE
 8
组“0”#1
10
-12.596808958543509
20
25.721575352626875
30
0.0
11
-13.091124732926746
21
25.99948781705725
31
0.0
  0
LINE
 8
组“0”#1
10
-13.091124732926746
20
25.99948781705725
30
0.0
11
-13.620667864798854
21
26.273342019772567
31
0.0
  0
LINE
 8
组“0”#1
10
-13.620667864798854
20
26.273342019772567
30
0.0
11
-13.664309875386706
21
26.294886956856345
31
0.0
  0
LINE
 8
组“0”#1
10
-13.664309875386706
20
26.294886956856345
30
0.0
11
-15.939885156584316
21
24.981082955695648
31
0.0
  0
LINE
 8
组“0”#1
10
-15.939885156584316
20
24.981082955695648
30
0.0
11
-15.943047699040767
21
24.93251539731244
31
3.0977239398532915e-16
  0
LINE
 8
组“0”#1
10
-15.943047699040767
20
24.93251539731244
30
3.0977239398532915e-16
11
-15.970654568492222
21
24.33699049135396
31
2.626927343781547e-16
  0
LINE
 8
组“0”#1
10
-15.970654568492222
20
24.33699049135396
30
2.626927343781547e-16
11
-15.977133201458791
21
23.769944241031514
31
2.1978898124733839e-16
  0
LINE
 8
组“0”#1
10
-15.977133201458791
20
23.769944241031514
30
2.1978898124733839e-16
11
-15.96450541365051
21
23.232090391918717
31
1.8091791049991873e-16
  0
LINE
 8
组“0”#1
10
-15.96450541365051
20
23.232090391918717
30
1.8091791049991873e-16
11
-15.934815861311174
21
22.72403627338293
31
1.4592614539085498e-16
  0
LINE
 8
组“0”#1
10
-15.934815861311174
20
22.72403627338293
30
1.4592614539085498e-16
11
-15.890127077765337
21
22.246282117083087
31
1.146505879538339e-16
  0
LINE
 8
组“0”#1
10
-15.890127077765337
20
22.246282117083087
30
1.146505879538339e-16
11
-15.832514491730091
21
21.79922059219798
31
8.691886836138398e-17
  0
LINE
 8
组“0”#1
10
-15.832514491730091
20
21.79922059219798
30
8.691886836138398e-17
11
-15.764061436469309
21
21.38313655777487
31
6.254981136144298e-17
  0
LINE
 8
组“0”#1
10
-15.764061436469309
20
21.38313655777487
30
6.254981136144298e-17
11
-15.6868541588705
21
20.998207032219074
31
4.1353918909677736e-17
  0
LINE
 8
组“0”#1
10
-15.6868541588705
20
20.998207032219074
30
4.1353918909677736e-17
11
-15.602976837513276
21
20.644501379576027
31
2.313386809046017e-17
  0
LINE
 8
组“0”#1
10
-15.602976837513276
20
20.644501379576027
30
2.313386809046017e-17
11
-15.51450661877225
21
20.32198171188911
31
7.685023394502228e-18
  0
LINE
 8
组“0”#1
10
-15.51450661877225
20
20.32198171188911
30
7.685023394502228e-18
11
-15.423508679955852
21
20.03050350654983
31
-5.204037602210649e-18
  0
LINE
 8
组“0”#1
10
-15.423508679955852
20
20.03050350654983
30
-5.204037602210649e-18
11
-15.332031328427817
21
19.76981643719251
31
-1.575098613535397e-17
  0
LINE
 8
组“0”#1
10
-15.332031328427817
20
19.76981643719251
30
-1.575098613535397e-17
11
-15.242101145587464
21
19.53956541632303
31
-2.417919272242581e-17
  0
LINE
 8
组“0”#1
10
-15.242101145587464
20
19.53956541632303
30
-2.417919272242581e-17
11
-15.155718184501087
21
19.339291847512918
31
-3.0717167222070506e-17
  0
LINE
 8
组“0”#1
10
-15.155718184501087
20
19.339291847512918
30
-3.0717167222070506e-17
11
-15.074851229878252
21
19.168435084634616
31
-3.5597989515400737e-17
  0
LINE
 8
组“0”#1
10
-15.074851229878252
20
19.168435084634616
30
-3.5597989515400737e-17
11
-15.001433128973941
21
19.026334095262744
31
-3.9058731857380595e-17
  0
LINE
 8
组“0”#1
10
-15.001433128973941
20
19.026334095262744
30
-3.9058731857380595e-17
11
-14.937356201871548
21
18.91222932502065
31
-4.133987395984585e-17
  0
LINE
 8
组“0”#1
10
-14.937356201871548
20
18.91222932502065
30
-4.133987395984585e-17
11
-14.88446773946114
21
18.82526475931039
31
-4.2684711879521134e-17
  0
LINE
 8
组“0”#1
10
-14.88446773946114
20
18.82526475931039
30
-4.2684711879521134e-17
11
-14.844565597274396
21
18.764490178529968
31
-4.333876179443112e-17
  0
LINE
 8
组“0”#1
10
-14.844565597274396
20
18.764490178529968
30
-4.333876179443112e-17
11
-14.819393893170401
21
18.728863602553048
31
-4.354915976038033e-17
  0
LINE
 8
组“0”#1
10
-14.819393893170401
20
18.728863602553048
30
-4.354915976038033e-17
11
-13.134293854072858
21
16.59873798614345
31
-3.8633252319285376e-17
  0
LINE
 8
组“0”#1
10
-13.134293854072858
20
16.59873798614345
30
-3.8633252319285376e-17
11
-13.045311996759676
21
16.449788640752246
31
-4.109241199372878e-17
  0
LINE
 8
组“0”#1
10
-13.045311996759676
20
16.449788640752246
30
-4.109241199372878e-17
11
-12.997913050052494
21
16.282884421888774
31
-4.893024189779667e-17
  0
LINE
 8
组“0”#1
10
-12.997913050052494
20
16.282884421888774
30
-4.893024189779667e-17
11
-12.995327173838959
21
16.109399576246332
31
-6.16126068761532e-17
  0
LINE
 8
组“0”#1
10
-12.995327173838959
20
16.109399576246332
30
-6.16126068761532e-17
11
-13.037730591309648
21
15.94115680935818
31
-7.82752247141224e-17
  0
LINE
 8
组“0”#1
10
-13.037730591309648
20
15.94115680935818
30
-7.82752247141224e-17
11
-13.122233579638907
21
15.789621587753436
31
-9.778256554232464e-17
  0
LINE
 8
组“0”#1
10
-13.122233579638907
20
15.789621587753436
30
-9.778256554232464e-17
11
-13.24307739981988
21
15.665120786360658
31
-1.188052363207229e-16
  0
LINE
 8
组“0”#1
10
-13.24307739981988
20
15.665120786360658
30
-1.188052363207229e-16
11
-15.665120786360664
21
13.243077399819873
31
0.0
  0
LINE
 8
组“0”#1
10
-15.665120786360664
20
13.243077399819873
30
0.0
11
-15.789621587753441
21
13.122233579638902
31
0.0
  0
LINE
 8
组“0”#1
10
-15.789621587753441
20
13.122233579638902
30
0.0
11
-15.941156809358185
21
13.037730591309648
31
0.0
  0
LINE
 8
组“0”#1
10
-15.941156809358185
20
13.037730591309648
30
0.0
11
-16.109399576246336
21
12.995327173838954
31
0.0
  0
LINE
 8
组“0”#1
10
-16.109399576246336
20
12.995327173838954
30
0.0
11
-16.28288442188878
21
12.997913050052489
31
0.0
  0
LINE
 8
组“0”#1
10
-16.28288442188878
20
12.997913050052489
30
0.0
11
-16.449788640752242
21
13.045311996759668
31
0.0
  0
LINE
 8
组“0”#1
10
-16.449788640752242
20
13.045311996759668
30
0.0
11
-16.598737986143455
21
13.134293854072855
31
0.0
  0
LINE
 8
组“0”#1
10
-16.598737986143455
20
13.134293854072855
30
0.0
11
-18.72886360255305
21
14.819393893170396
31
0.0
  0
LINE
 8
组“0”#1
10
-18.72886360255305
20
14.819393893170396
30
0.0
11
-18.76449017852997
21
14.844565597274393
31
0.0
  0
LINE
 8
组“0”#1
10
-18.76449017852997
20
14.844565597274393
30
0.0
11
-18.825264759310393
21
14.884467739461137
31
0.0
  0
LINE
 8
组“0”#1
10
-18.825264759310393
20
14.884467739461137
30
0.0
11
-18.91222932502065
21
14.937356201871543
31
0.0
  0
LINE
 8
组“0”#1
10
-18.91222932502065
20
14.937356201871543
30
0.0
11
-19.026334095262744
21
15.001433128973938
31
0.0
  0
LINE
 8
组“0”#1
10
-19.026334095262744
20
15.001433128973938
30
0.0
11
-19.16843508463462
21
15.074851229878247
31
0.0
  0
LINE
 8
组“0”#1
10
-19.16843508463462
20
15.074851229878247
30
0.0
11
-19.33929184751293
21
15.155718184501083
31
0.0
  0
LINE
 8
组“0”#1
10
-19.33929184751293
20
15.155718184501083
30
0.0
11
-19.539565416323033
21
15.242101145587458
31
0.0
  0
LINE
 8
组“0”#1
10
-19.539565416323033
20
15.242101145587458
30
0.0
11
-19.769816437192517
21
15.332031328427815
31
0.0
  0
LINE
 8
组“0”#1
10
-19.769816437192517
20
15.332031328427815
30
0.0
11
-20.030503506549834
21
15.423508679955846
31
0.0
  0
LINE
 8
组“0”#1
10
-20.030503506549834
20
15.423508679955846
30
0.0
11
-20.32198171188911
21
15.514506618772247
31
0.0
  0
LINE
 8
组“0”#1
10
-20.32198171188911
20
15.514506618772247
30
0.0
11
-20.644501379576027
21
15.602976837513271
31
0.0
  0
LINE
 8
组“0”#1
10
-20.644501379576027
20
15.602976837513271
30
0.0
11
-20.998207032219078
21
15.686854158870494
31
0.0
  0
LINE
 8
组“0”#1
10
-20.998207032219078
20
15.686854158870494
30
0.0
11
-21.38313655777487
21
15.764061436469303
31
0.0
  0
LINE
 8
组“0”#1
10
-21.38313655777487
20
15.764061436469303
30
0.0
11
-21.799220592197983
21
15.832514491730084
31
0.0
  0
LINE
 8
组“0”#1
10
-21.799220592197983
20
15.832514491730084
30
0.0
11
-22.24628211708309
21
15.890127077765328
31
0.0
  0
LINE
 8
组“0”#1
10
-22.24628211708309
20
15.890127077765328
30
0.0
11
-22.72403627338293
21
15.934815861311169
31
0.0
  0
LINE
 8
组“0”#1
10
-22.72403627338293
20
15.934815861311169
30
0.0
11
-23.232090391918717
21
15.964505413650496
31
0.0
  0
LINE
 8
组“0”#1
10
-23.232090391918717
20
15.964505413650496
30
0.0
11
-23.769944241031514
21
15.977133201458788
31
0.0
  0
LINE
 8
组“0”#1
10
-23.769944241031514
20
15.977133201458788
30
0.0
11
-24.336990491353966
21
15.970654568492213
31
0.0
  0
LINE
 8
组“0”#1
10
-24.336990491353966
20
15.970654568492213
30
0.0
11
-24.932515397312443
21
15.943047699040758
31
0.0
  0
LINE
 8
组“0”#1
10
-24.932515397312443
20
15.943047699040758
30
0.0
11
-24.98108295569564
21
15.93988515658432
31
0.0
  0
LINE
 8
组“0”#1
10
-24.98108295569564
20
15.93988515658432
30
0.0
11
-26.294886956856338
21
13.66430987538671
31
0.0
  0
LINE
 8
组“0”#1
10
-26.294886956856338
20
13.66430987538671
30
0.0
11
-26.273342019772564
21
13.620667864798863
31
3.0977239398532915e-16
  0
LINE
 8
组“0”#1
10
-26.273342019772564
20
13.620667864798863
30
3.0977239398532915e-16
11
-25.999487817057243
21
13.091124732926755
31
2.626927343781547e-16
  0
LINE
 8
组“0”#1
10
-25.999487817057243
20
13.091124732926755
30
2.626927343781547e-16
11
-25.721575352626864
21
12.596808958543516
31
2.1978898124733839e-16
  0
LINE
 8
组“0”#1
10
-25.721575352626864
20
12.596808958543516
30
2.1978898124733839e-16
11
-25.441712443034895
21
12.137327755592738
31
1.8091791049991873e-16
  0
LINE
 8
组“0”#1
10
-25.441712443034895
20
12.137327755592738
30
1.8091791049991873e-16
11
-25.161973477214143
21
11.712184758613096
31
1.4592614539085498e-16
  0
LINE
 8
组“0”#1
10
-25.161973477214143
20
11.712184758613096
30
1.4592614539085498e-16
11
-24.884394777249312
21
11.320781914266755
31
1.146505879538339e-16
  0
LINE
 8
组“0”#1
10
-24.884394777249312
20
11.320781914266755
30
1.146505879538339e-16
11
-24.610970051722518
21
10.962421569679265
31
8.691886836138398e-17
  0
LINE
 8
组“0”#1
10
-24.610970051722518
20
10.962421569679265
30
8.691886836138398e-17
11
-24.343645949688465
21
10.63630875339012
31
6.254981136144298e-17
  0
LINE
 8
组“0”#1
10
-24.343645949688465
20
10.63630875339012
30
6.254981136144298e-17
11
-24.08431772315296
21
10.341553644391517
31
4.1353918909677736e-17
  0
LINE
 8
组“0”#1
10
-24.08431772315296
20
10.341553644391517
30
4.1353918909677736e-17
11
-23.834825005734693
21
10.077174224419094
31
2.313386809046017e-17
  0
LINE
 8
组“0”#1
10
-23.834825005734693
20
10.077174224419094
30
2.313386809046017e-17
11
-23.596947714983138
21
9.842099108352622
31
7.685023394502228e-18
  0
LINE
 8
组“0”#1
10
-23.596947714983138
20
9.842099108352622
30
7.685023394502228e-18
11
-23.372402085606474
21
9.635170547287508
31
-5.204037602210649e-18
  0
LINE
 8
组“0”#1
10
-23.372402085606474
20
9.635170547287508
30
-5.204037602210649e-18
11
-23.16283684063362
21
9.45514759854997
31
-1.575098613535397e-17
  0
LINE
 8
组“0”#1
10
-23.16283684063362
20
9.45514759854997
30
-1.575098613535397e-17
11
-22.96982950729215
21
9.300709456649878
31
-2.417919272242581e-17
  0
LINE
 8
组“0”#1
10
-22.96982950729215
20
9.300709456649878
30
-2.417919272242581e-17
11
-22.79488288413217
21
9.17045893889694
31
-3.0717167222070506e-17
  0
LINE
 8
组“0”#1
10
-22.79488288413217
20
9.17045893889694
30
-3.0717167222070506e-17
11
-22.63942166566296
21
9.062926119147376
31
-3.5597989515400737e-17
  0
LINE
 8
组“0”#1
10
-22.63942166566296
20
9.062926119147376
30
-3.5597989515400737e-17
11
-22.504789230496286
21
8.976572102900581
31
-3.9058731857380595e-17
  0
LINE
 8
组“0”#1
10
-22.504789230496286
20
8.976572102900581
30
-3.9058731857380595e-17
11
-22.39224459870812
21
8.90979293672914
31
-4.133987395984585e-17
  0
LINE
 8
组“0”#1
10
-22.39224459870812
20
8.90979293672914
30
-4.133987395984585e-17
11
-22.302959563838478
21
8.86092364480018
31
-4.2684711879521134e-17
  0
LINE
 8
组“0”#1
10
-22.302959563838478
20
8.86092364480018
30
-4.2684711879521134e-17
11
-22.23801600464913
21
8.828242385033356
31
-4.333876179443112e-17
  0
LINE
 8
组“0”#1
10
-22.23801600464913
20
8.828242385033356
30
-4.333876179443112e-17
11
-22.198403381450063
21
8.809974717239482
31
-4.354915976038033e-17
  0
LINE
 8
组“0”#1
10
-22.198403381450063
20
8.809974717239482
30
-4.354915976038033e-17
11
-19.674001131468643
21
7.807781839725558
31
-3.8633252319285376e-17
  0
LINE
 8
组“0”#1
10
-19.674001131468643
20
7.807781839725558
30
-3.8633252319285376e-17
11
-19.5224659098639
21
7.723278851396303
31
-4.109241199372878e-17
  0
LINE
 8
组“0”#1
10
-19.5224659098639
20
7.723278851396303
30
-4.109241199372878e-17
11
-19.397965108471123
21
7.602435031215331
31
-4.893024189779667e-17
  0
LINE
 8
组“0”#1
10
-19.397965108471123
20
7.602435031215331
30
-4.893024189779667e-17
11
-19.308983251157937
21
7.453485685824121
31
-6.16126068761532e-17
  0
LINE
 8
组“0”#1
10
-19.308983251157937
20
7.453485685824121
30
-6.16126068761532e-17
11
-19.261584304450757
21
7.286581466960652
31
-7.82752247141224e-17
  0
LINE
 8
组“0”#1
10
-19.261584304450757
20
7.286581466960652
30
-7.82752247141224e-17
11
-19.25899842823722
21
7.113096621318211
31
-9.778256554232464e-17
  0
LINE
 8
组“0”#1
10
-19.25899842823722
20
7.113096621318211
30
-9.778256554232464e-17
11
-19.30140184570791
21
6.944853854430059
31
-1.188052363207229e-16
  0
LINE
 8
组“0”#1
10
-19.30140184570791
20
6.944853854430059
30
-1.188052363207229e-16
11
-20.187931254249932
21
3.6362810593472528
31
0.0
  0
LINE
 8
组“0”#1
10
-20.187931254249932
20
3.6362810593472528
30
0.0
11
-20.23533020095711
21
3.4693768404837853
31
0.0
  0
LINE
 8
组“0”#1
10
-20.23533020095711
20
3.4693768404837853
30
0.0
11
-20.324312058270298
21
3.320427495092576
31
0.0
  0
LINE
 8
组“0”#1
10
-20.324312058270298
20
3.320427495092576
30
0.0
11
-20.448812859663075
21
3.1995836749116044
31
0.0
  0
LINE
 8
组“0”#1
10
-20.448812859663075
20
3.1995836749116044
30
0.0
11
-20.60034808126782
21
3.1150806865823473
31
0.0
  0
LINE
 8
组“0”#1
10
-20.60034808126782
20
3.1150806865823473
30
0.0
11
-20.76859084815597
21
3.072677269111655
31
0.0
  0
LINE
 8
组“0”#1
10
-20.76859084815597
20
3.072677269111655
30
0.0
11
-20.94207569379841
21
3.0752631453251933
31
0.0
  0
LINE
 8
组“0”#1
10
-20.94207569379841
20
3.0752631453251933
30
0.0
11
-23.62936861040988
21
3.469539778897016
31
0.0
  0
LINE
 8
组“0”#1
10
-23.62936861040988
20
3.469539778897016
30
0.0
11
-23.67280798230775
21
3.4735258261191606
31
0.0
  0
LINE
 8
组“0”#1
10
-23.67280798230775
20
3.4735258261191606
30
0.0
11
-23.745391384261314
21
3.4776948045280895
31
0.0
  0
LINE
 8
组“0”#1
10
-23.745391384261314
20
3.4776948045280895
30
0.0
11
-23.84714913860068
21
3.4800152736874717
31
0.0
  0
LINE
 8
组“0”#1
10
-23.84714913860068
20
3.4800152736874717
30
0.0
11
-23.97800523187452
21
3.4784551352335424
31
0.0
  0
LINE
 8
组“0”#1
10
-23.97800523187452
20
3.4784551352335424
30
0.0
11
-24.13777734902562
21
3.4709865810283436
31
0.0
  0
LINE
 8
组“0”#1
10
-24.13777734902562
20
3.4709865810283436
30
0.0
11
-24.326177123398026
21
3.455591036619251
31
0.0
  0
LINE
 8
组“0”#1
10
-24.326177123398026
20
3.455591036619251
30
0.0
11
-24.54281060223734
21
3.4302640909691218
31
0.0
  0
LINE
 8
组“0”#1
10
-24.54281060223734
20
3.4302640909691218
30
0.0
11
-24.787178926977788
21
3.3930204034411093
31
0.0
  0
LINE
 8
组“0”#1
10
-24.787178926977788
20
3.3930204034411093
30
0.0
11
-25.058679227243356
21
3.3418985790566436
31
0.0
  0
LINE
 8
组“0”#1
10
-25.058679227243356
20
3.3418985790566436
30
0.0
11
-25.356605727124865
21
3.274966003094031
31
0.0
  0
LINE
 8
组“0”#1
10
-25.356605727124865
20
3.274966003094031
30
0.0
11
-25.680151061932367
21
3.190323626158667
31
0.0
  0
LINE
 8
组“0”#1
10
-25.680151061932367
20
3.190323626158667
30
0.0
11
-26.028407803262013
21
3.0861106909338862
31
0.0
  0
LINE
 8
组“0”#1
10
-26.028407803262013
20
3.0861106909338862
30
0.0
11
-26.400370189859423
21
2.960509391913599
31
0.0
  0
LINE
 8
组“0”#1
10
-26.400370189859423
20
2.960509391913599
30
0.0
11
-26.794936061409352
21
2.8117494595245365
31
0.0
  0
LINE
 8
组“0”#1
10
-26.794936061409352
20
2.8117494595245365
30
0.0
11
-27.210908992032085
21
2.6381126601662217
31
0.0
  0
LINE
 8
组“0”#1
10
-27.210908992032085
20
2.6381126601662217
30
0.0
11
-27.647000619924263
21
2.437937203831224
31
0.0
  0
LINE
 8
组“0”#1
10
-27.647000619924263
20
2.437937203831224
30
0.0
11
-28.101833169243232
21
2.209622051116176
31
0.0
  0
LINE
 8
组“0”#1
10
-28.101833169243232
20
2.209622051116176
30
0.0
11
-28.573942160002304
21
1.9516311115953573
31
0.0
  0
LINE
 8
组“0”#1
10
-28.573942160002304
20
1.9516311115953573
30
0.0
11
-29.061779301418966
21
1.662497325703284
31
0.0
  0
LINE
 8
组“0”#1
10
-29.061779301418966
20
1.662497325703284
30
0.0
11
-29.563715563839622
21
1.3408266224601224
31
0.0
  0
LINE
 8
组“0”#1
10
-29.563715563839622
20
1.3408266224601224
30
0.0
11
-29.604195031971035
21
1.313804001160701
31
0.0
  0
LINE
 8
组“0”#1
10
-29.604195031971035
20
1.313804001160701
30
0.0
11
-29.604195031971035
21
-1.3138040011606935
31
0.0
  0
LINE
 8
组“0”#1
10
-29.604195031971035
20
-1.3138040011606935
30
0.0
11
-29.563715563839622
21
-1.3408266224601129
31
3.0977239398532915e-16
  0
LINE
 8
组“0”#1
10
-29.563715563839622
20
-1.3408266224601129
30
3.0977239398532915e-16
11
-29.061779301418973
21
-1.6624973257032738
31
2.626927343781547e-16
  0
LINE
 8
组“0”#1
10
-29.061779301418973
20
-1.6624973257032738
30
2.626927343781547e-16
11
-28.573942160002304
21
-1.9516311115953437
31
2.1978898124733839e-16
  0
LINE
 8
组“0”#1
10
-28.573942160002304
20
-1.9516311115953437
30
2.1978898124733839e-16
11
-28.101833169243243
21
-2.2096220511161677
31
1.8091791049991873e-16
  0
LINE
 8
组“0”#1
10
-28.101833169243243
20
-2.2096220511161677
30
1.8091791049991873e-16
11
-27.647000619924263
21
-2.437937203831213
31
1.4592614539085498e-16
  0
LINE
 8
组“0”#1
10
-27.647000619924263
20
-2.437937203831213
30
1.4592614539085498e-16
11
-27.21090899203209
21
-2.6381126601662137
31
1.146505879538339e-16
  0
LINE
 8
组“0”#1
10
-27.21090899203209
20
-2.6381126601662137
30
1.146505879538339e-16
11
-26.794936061409352
21
-2.8117494595245294
31
8.691886836138398e-17
  0
LINE
 8
组“0”#1
10
-26.794936061409352
20
-2.8117494595245294
30
8.691886836138398e-17
11
-26.400370189859427
21
-2.960509391913589
31
6.254981136144298e-17
  0
LINE
 8
组“0”#1
10
-26.400370189859427
20
-2.960509391913589
30
6.254981136144298e-17
11
-26.028407803262013
21
-3.086110690933878
31
4.1353918909677736e-17
  0
LINE
 8
组“0”#1
10
-26.028407803262013
20
-3.086110690933878
30
4.1353918909677736e-17
11
-25.68015106193237
21
-3.190323626158657
31
2.313386809046017e-17
  0
LINE
 8
组“0”#1
10
-25.68015106193237
20
-3.190323626158657
30
2.313386809046017e-17
11
-25.35660572712487
21
-3.2749660030940206
31
7.685023394502228e-18
  0
LINE
 8
组“0”#1
10
-25.35660572712487
20
-3.2749660030940206
30
7.685023394502228e-18
11
-25.058679227243356
21
-3.3418985790566365
31
-5.204037602210649e-18
  0
LINE
 8
组“0”#1
10
-25.058679227243356
20
-3.3418985790566365
30
-5.204037602210649e-18
11
-24.787178926977788
21
-3.393020403441101
31
-1.575098613535397e-17
  0
LINE
 8
组“0”#1
10
-24.787178926977788
20
-3.393020403441101
30
-1.575098613535397e-17
11
-24.54281060223734
21
-3.4302640909691133
31
-2.417919272242581e-17
  0
LINE
 8
组“0”#1
10
-24.54281060223734
20
-3.4302640909691133
30
-2.417919272242581e-17
11
-24.326177123398026
21
-3.4555910366192433
31
-3.0717167222070506e-17
  0
LINE
 8
组“0”#1
10
-24.326177123398026
20
-3.4555910366192433
30
-3.0717167222070506e-17
11
-24.137777349025622
21
-3.4709865810283347
31
-3.5597989515400737e-17
  0
LINE
 8
组“0”#1
10
-24.137777349025622
20
-3.4709865810283347
30
-3.5597989515400737e-17
11
-23.97800523187452
21
-3.478455135233533
31
-3.9058731857380595e-17
  0
LINE
 8
组“0”#1
10
-23.97800523187452
20
-3.478455135233533
30
-3.9058731857380595e-17
11
-23.847149138600685
21
-3.4800152736874628
31
-4.133987395984585e-17
  0
LINE
 8
组“0”#1
10
-23.847149138600685
20
-3.4800152736874628
30
-4.133987395984585e-17
11
-23.745391384261318
21
-3.47769480452808
31
-4.2684711879521134e-17
  0
LINE
 8
组“0”#1
10
-23.745391384261318
20
-3.47769480452808
30
-4.2684711879521134e-17
11
-23.67280798230775
21
-3.4735258261191517
31
-4.333876179443112e-17
  0
LINE
 8
组“0”#1
10
-23.67280798230775
20
-3.4735258261191517
30
-4.333876179443112e-17
11
-23.62936861040988
21
-3.4695397788970106
31
-4.354915976038033e-17
  0
LINE
 8
组“0”#1
10
-23.62936861040988
20
-3.4695397788970106
30
-4.354915976038033e-17
11
-20.94207569379841
21
-3.0752631453251853
31
-3.8633252319285376e-17
  0
LINE
 8
组“0”#1
10
-20.94207569379841
20
-3.0752631453251853
30
-3.8633252319285376e-17
11
-20.768590848155974
21
-3.0726772691116477
31
-4.109241199372878e-17
  0
LINE
 8
组“0”#1
10
-20.768590848155974
20
-3.0726772691116477
30
-4.109241199372878e-17
11
-20.60034808126782
21
-3.1150806865823406
31
-4.893024189779667e-17
  0
LINE
 8
组“0”#1
10
-20.60034808126782
20
-3.1150806865823406
30
-4.893024189779667e-17
11
-20.448812859663075
21
-3.199583674911598
31
-6.16126068761532e-17
  0
LINE
 8
组“0”#1
10
-20.448812859663075
20
-3.199583674911598
30
-6.16126068761532e-17
11
-20.324312058270298
21
-3.320427495092569
31
-7.82752247141224e-17
  0
LINE
 8
组“0”#1
10
-20.324312058270298
20
-3.320427495092569
30
-7.82752247141224e-17
11
-20.23533020095711
21
-3.4693768404837777
31
-9.778256554232464e-17
  0
LINE
 8
组“0”#1
10
-20.23533020095711
20
-3.4693768404837777
30
-9.778256554232464e-17
11
-20.187931254249932
21
-3.6362810593472457
31
-1.188052363207229e-16
  0
LINE
 8
组“0”#1
10
-20.187931254249932
20
-3.6362810593472457
30
-1.188052363207229e-16
11
-19.301401845707915
21
-6.944853854430054
31
0.0
  0
LINE
 8
组“0”#1
10
-19.301401845707915
20
-6.944853854430054
30
0.0
11
-19.258998428237224
21
-7.113096621318204
31
0.0
  0
LINE
 8
组“0”#1
10
-19.258998428237224
20
-7.113096621318204
30
0.0
11
-19.26158430445076
21
-7.286581466960648
31
0.0
  0
LINE
 8
组“0”#1
10
-19.26158430445076
20
-7.286581466960648
30
0.0
11
-19.30898325115794
21
-7.453485685824115
31
0.0
  0
LINE
 8
组“0”#1
10
-19.30898325115794
20
-7.453485685824115
30
0.0
11
-19.397965108471126
21
-7.602435031215324
31
0.0
  0
LINE
 8
组“0”#1
10
-19.397965108471126
20
-7.602435031215324
30
0.0
11
-19.5224659098639
21
-7.723278851396294
31
0.0
  0
LINE
 8
组“0”#1
10
-19.5224659098639
20
-7.723278851396294
30
0.0
11
-19.674001131468646
21
-7.807781839725551
31
0.0
  0
LINE
 8
组“0”#1
10
-19.674001131468646
20
-7.807781839725551
30
0.0
11
-22.198403381450067
21
-8.809974717239477
31
0.0
  0
LINE
 8
组“0”#1
10
-22.198403381450067
20
-8.809974717239477
30
0.0
11
-22.238016004649133
21
-8.828242385033349
31
0.0
  0
LINE
 8
组“0”#1
10
-22.238016004649133
20
-8.828242385033349
30
0.0
11
-22.30295956383848
21
-8.86092364480017
31
0.0
  0
LINE
 8
组“0”#1
10
-22.30295956383848
20
-8.86092364480017
30
0.0
11
-22.39224459870812
21
-8.90979293672913
31
0.0
  0
LINE
 8
组“0”#1
10
-22.39224459870812
20
-8.90979293672913
30
0.0
11
-22.504789230496286
21
-8.976572102900573
31
0.0
  0
LINE
 8
组“0”#1
10
-22.504789230496286
20
-8.976572102900573
30
0.0
11
-22.639421665662965
21
-9.062926119147367
31
0.0
  0
LINE
 8
组“0”#1
10
-22.639421665662965
20
-9.062926119147367
30
0.0
11
-22.79488288413218
21
-9.170458938896935
31
0.0
  0
LINE
 8
组“0”#1
10
-22.79488288413218
20
-9.170458938896935
30
0.0
11
-22.969829507292154
21
-9.30070945664987
31
0.0
  0
LINE
 8
组“0”#1
10
-22.969829507292154
20
-9.30070945664987
30
0.0
11
-23.162836840633624
21
-9.455147598549964
31
0.0
  0
LINE
 8
组“0”#1
10
-23.162836840633624
20
-9.455147598549964
30
0.0
11
-23.372402085606478
21
-9.635170547287503
31
0.0
  0
LINE
 8
组“0”#1
10
-23.372402085606478
20
-9.635170547287503
30
0.0
11
-23.59694771498314
21
-9.842099108352611
31
0.0
  0
LINE
 8
组“0”#1
10
-23.59694771498314
20
-9.842099108352611
30
0.0
11
-23.834825005734697
21
-10.077174224419085
31
0.0
  0
LINE
 8
组“0”#1
10
-23.834825005734697
20
-10.077174224419085
30
0.0
11
-24.08431772315296
21
-10.34155364439151
31
0.0
  0
LINE
 8
组“0”#1
10
-24.08431772315296
20
-10.34155364439151
30
0.0
11
-24.343645949688465
21
-10.63630875339011
31
0.0
  0
LINE
 8
组“0”#1
10
-24.343645949688465
20
-10.63630875339011
30
0.0
11
-24.61097005172252
21
-10.962421569679258
31
0.0
  0
LINE
 8
组“0”#1
10
-24.61097005172252
20
-10.962421569679258
30
0.0
11
-24.884394777249312
21
-11.320781914266746
31
0.0
  0
LINE
 8
组“0”#1
10
-24.884394777249312
20
-11.320781914266746
30
0.0
11
-25.16197347721415
21
-11.712184758613088
31
0.0
  0
LINE
 8
组“0”#1
10
-25.16197347721415
20
-11.712184758613088
30
0.0
11
-25.44171244303489
21
-12.137327755592727
31
0.0
  0
LINE
 8
组“0”#1
10
-25.44171244303489
20
-12.137327755592727
30
0.0
11
-25.721575352626875
21
-12.596808958543509
31
0.0
  0
LINE
 8
组“0”#1
10
-25.721575352626875
20
-12.596808958543509
30
0.0
11
-25.99948781705725
21
-13.091124732926746
31
0.0
  0
LINE
 8
组“0”#1
10
-25.99948781705725
20
-13.091124732926746
30
0.0
11
-26.273342019772567
21
-13.620667864798854
31
0.0
  0
LINE
 8
组“0”#1
10
-26.273342019772567
20
-13.620667864798854
30
0.0
11
-26.294886956856345
21
-13.664309875386706
31
0.0
  0
LINE
 8
组“0”#1
10
-26.294886956856345
20
-13.664309875386706
30
0.0
11
-24.981082955695648
21
-15.939885156584316
31
0.0
  0
LINE
 8
组“0”#1
10
-24.981082955695648
20
-15.939885156584316
30
0.0
11
-24.932515397312446
21
-15.94304769904075
31
3.0977239398532915e-16
  0
LINE
 8
组“0”#1
10
-24.932515397312446
20
-15.94304769904075
30
3.0977239398532915e-16
11
-24.336990491353973
21
-15.970654568492204
31
2.626927343781547e-16
  0
LINE
 8
组“0”#1
10
-24.336990491353973
20
-15.970654568492204
30
2.626927343781547e-16
11
-23.76994424103152
21
-15.977133201458777
31
2.1978898124733839e-16
  0
LINE
 8
组“0”#1
10
-23.76994424103152
20
-15.977133201458777
30
2.1978898124733839e-16
11
-23.23209039191873
21
-15.964505413650496
31
1.8091791049991873e-16
  0
LINE
 8
组“0”#1
10
-23.23209039191873
20
-15.964505413650496
30
1.8091791049991873e-16
11
-22.724036273382932
21
-15.93481586131116
31
1.4592614539085498e-16
  0
LINE
 8
组“0”#1
10
-22.724036273382932
20
-15.93481586131116
30
1.4592614539085498e-16
11
-22.246282117083098
21
-15.890127077765323
31
1.146505879538339e-16
  0
LINE
 8
组“0”#1
10
-22.246282117083098
20
-15.890127077765323
30
1.146505879538339e-16
11
-21.799220592197994
21
-15.83251449173008
31
8.691886836138398e-17
  0
LINE
 8
组“0”#1
10
-21.799220592197994
20
-15.83251449173008
30
8.691886836138398e-17
11
-21.383136557774876
21
-15.764061436469298
31
6.254981136144298e-17
  0
LINE
 8
组“0”#1
10
-21.383136557774876
20
-15.764061436469298
30
6.254981136144298e-17
11
-20.99820703221908
21
-15.686854158870485
31
4.1353918909677736e-17
  0
LINE
 8
组“0”#1
10
-20.99820703221908
20
-15.686854158870485
30
4.1353918909677736e-17
11
-20.644501379576038
21
-15.60297683751327
31
2.313386809046017e-17
  0
LINE
 8
组“0”#1
10
-20.644501379576038
20
-15.60297683751327
30
2.313386809046017e-17
11
-20.321981711889116
21
-15.51450661877224
31
7.685023394502228e-18
  0
LINE
 8
组“0”#1
10
-20.321981711889116
20
-15.51450661877224
30
7.685023394502228e-18
11
-20.030503506549834
21
-15.42350867995584
31
-5.204037602210649e-18
  0
LINE
 8
组“0”#1
10
-20.030503506549834
20
-15.42350867995584
30
-5.204037602210649e-18
11
-19.76981643719252
21
-15.33203132842781
31
-1.575098613535397e-17
  0
LINE
 8
组“0”#1
10
-19.76981643719252
20
-15.33203132842781
30
-1.575098613535397e-17
11
-19.53956541632304
21
-15.24210114558745
31
-2.417919272242581e-17
  0
LINE
 8
组“0”#1
10
-19.53956541632304
20
-15.24210114558745
30
-2.417919272242581e-17
11
-19.33929184751293
21
-15.155718184501074
31
-3.0717167222070506e-17
  0
LINE
 8
组“0”#1
10
-19.33929184751293
20
-15.155718184501074
30
-3.0717167222070506e-17
11
-19.16843508463463
21
-15.074851229878238
31
-3.5597989515400737e-17
  0
LINE
 8
组“0”#1
10
-19.16843508463463
20
-15.074851229878238
30
-3.5597989515400737e-17
11
-19.02633409526275
21
-15.001433128973932
31
-3.9058731857380595e-17
  0
LINE
 8
组“0”#1
10
-19.02633409526275
20
-15.001433128973932
30
-3.9058731857380595e-17
11
-18.912229325020657
21
-14.937356201871536
31
-4.133987395984585e-17
  0
LINE
 8
组“0”#1
10
-18.912229325020657
20
-14.937356201871536
30
-4.133987395984585e-17
11
-18.8252647593104
21
-14.884467739461128
31
-4.2684711879521134e-17
  0
LINE
 8
组“0”#1
10
-18.8252647593104
20
-14.884467739461128
30
-4.2684711879521134e-17
11
-18.764490178529975
21
-14.844565597274384
31
-4.333876179443112e-17
  0
LINE
 8
组“0”#1
10
-18.764490178529975
20
-14.844565597274384
30
-4.333876179443112e-17
11
-18.728863602553055
21
-14.81939389317039
31
-4.354915976038033e-17
  0
LINE
 8
组“0”#1
10
-18.728863602553055
20
-14.81939389317039
30
-4.354915976038033e-17
11
-16.598737986143462
21
-13.13429385407285
31
-3.8633252319285376e-17
  0
LINE
 8
组“0”#1
10
-16.598737986143462
20
-13.13429385407285
30
-3.8633252319285376e-17
11
-16.449788640752253
21
-13.045311996759663
31
-4.109241199372878e-17
  0
LINE
 8
组“0”#1
10
-16.449788640752253
20
-13.045311996759663
30
-4.109241199372878e-17
11
-16.282884421888784
21
-12.997913050052484
31
-4.893024189779667e-17
  0
LINE
 8
组“0”#1
10
-16.282884421888784
20
-12.997913050052484
30
-4.893024189779667e-17
11
-16.10939957624634
21
-12.995327173838948
31
-6.16126068761532e-17
  0
LINE
 8
组“0”#1
10
-16.10939957624634
20
-12.995327173838948
30
-6.16126068761532e-17
11
-15.941156809358189
21
-13.03773059130964
31
-7.82752247141224e-17
  0
LINE
 8
组“0”#1
10
-15.941156809358189
20
-13.03773059130964
30
-7.82752247141224e-17
11
-15.789621587753444
21
-13.122233579638893
31
-9.778256554232464e-17
  0
LINE
 8
组“0”#1
10
-15.789621587753444
20
-13.122233579638893
30
-9.778256554232464e-17
11
-15.665120786360667
21
-13.243077399819867
31
-1.188052363207229e-16
  0
LINE
 8
组“0”#1
10
-15.665120786360667
20
-13.243077399819867
30
-1.188052363207229e-16
11
-13.243077399819882
21
-15.665120786360657
31
0.0
  0
LINE
 8
组“0”#1
10
-13.243077399819882
20
-15.665120786360657
30
0.0
11
-13.12223357963891
21
-15.78962158775343
31
0.0
  0
LINE
 8
组“0”#1
10
-13.12223357963891
20
-15.78962158775343
30
0.0
11
-13.037730591309655
21
-15.94115680935818
31
0.0
  0
LINE
 8
组“0”#1
10
-13.037730591309655
20
-15.94115680935818
30
0.0
11
-12.995327173838962
21
-16.109399576246325
31
0.0
  0
LINE
 8
组“0”#1
10
-12.995327173838962
20
-16.109399576246325
30
0.0
11
-12.997913050052501
21
-16.282884421888774
31
0.0
  0
LINE
 8
组“0”#1
10
-12.997913050052501
20
-16.282884421888774
30
0.0
11
-13.045311996759677
21
-16.44978864075224
31
0.0
  0
LINE
 8
组“0”#1
10
-13.045311996759677
20
-16.44978864075224
30
0.0
11
-13.134293854072867
21
-16.598737986143448
31
0.0
  0
LINE
 8
组“0”#1
10
-13.134293854072867
20
-16.598737986143448
30
0.0
11
-14.819393893170407
21
-18.72886360255304
31
0.0
  0
LINE
 8
组“0”#1
10
-14.819393893170407
20
-18.72886360255304
30
0.0
11
-14.844565597274402
21
-18.76449017852996
31
0.0
  0
LINE
 8
组“0”#1
10
-14.844565597274402
20
-18.76449017852996
30
0.0
11
-14.884467739461147
21
-18.825264759310382
31
0.0
  0
LINE
 8
组“0”#1
10
-14.884467739461147
20
-18.825264759310382
30
0.0
11
-14.937356201871554
21
-18.91222932502064
31
0.0
  0
LINE
 8
组“0”#1
10
-14.937356201871554
20
-18.91222932502064
30
0.0
11
-15.001433128973948
21
-19.026334095262733
31
0.0
  0
LINE
 8
组“0”#1
10
-15.001433128973948
20
-19.026334095262733
30
0.0
11
-15.074851229878258
21
-19.168435084634613
31
0.0
  0
LINE
 8
组“0”#1
10
-15.074851229878258
20
-19.168435084634613
30
0.0
11
-15.155718184501096
21
-19.339291847512914
31
0.0
  0
LINE
 8
组“0”#1
10
-15.155718184501096
20
-19.339291847512914
30
0.0
11
-15.242101145587469
21
-19.539565416323025
31
0.0
  0
LINE
 8
组“0”#1
10
-15.242101145587469
20
-19.539565416323025
30
0.0
11
-15.33203132842783
21
-19.769816437192503
31
0.0
  0
LINE
 8
组“0”#1
10
-15.33203132842783
20
-19.769816437192503
30
0.0
11
-15.423508679955857
21
-20.030503506549824
31
0.0
  0
LINE
 8
组“0”#1
10
-15.423508679955857
20
-20.030503506549824
30
0.0
11
-15.51450661877226
21
-20.321981711889098
31
0.0
  0
LINE
 8
组“0”#1
10
-15.51450661877226
20
-20.321981711889098
30
0.0
11
-15.602976837513285
21
-20.64450137957602
31
0.0
  0
LINE
 8
组“0”#1
10
-15.602976837513285
20
-20.64450137957602
30
0.0
11
-15.686854158870505
21
-20.998207032219067
31
0.0
  0
LINE
 8
组“0”#1
10
-15.686854158870505
20
-20.998207032219067
30
0.0
11
-15.764061436469316
21
-21.383136557774858
31
0.0
  0
LINE
 8
组“0”#1
10
-15.764061436469316
20
-21.383136557774858
30
0.0
11
-15.832514491730098
21
-21.799220592197972
31
0.0
  0
LINE
 8
组“0”#1
10
-15.832514491730098
20
-21.799220592197972
30
0.0
11
-15.890127077765342
21
-22.24628211708308
31
0.0
  0
LINE
 8
组“0”#1
10
-15.890127077765342
20
-22.24628211708308
30
0.0
11
-15.934815861311183
21
-22.724036273382918
31
0.0
  0
LINE
 8
组“0”#1
10
-15.934815861311183
20
-22.724036273382918
30
0.0
11
-15.96450541365051
21
-23.232090391918707
31
0.0
  0
LINE
 8
组“0”#1
10
-15.96450541365051
20
-23.232090391918707
30
0.0
11
-15.977133201458802
21
-23.769944241031503
31
0.0
  0
LINE
 8
组“0”#1
10
-15.977133201458802
20
-23.769944241031503
30
0.0
11
-15.97065456849223
21
-24.336990491353955
31
0.0
  0
LINE
 8
组“0”#1
10
-15.97065456849223
20
-24.336990491353955
30
0.0
11
-15.943047699040772
21
-24.932515397312432
31
0.0
  0
LINE
 8
组“0”#1
10
-15.943047699040772
20
-24.932515397312432
30
0.0
11
-15.939885156584335
21
-24.981082955695626
31
0.0
  0
LINE
 8
组“0”#1
10
-15.939885156584335
20
-24.981082955695626
30
0.0
11
-13.664309875386728
21
-26.294886956856327
31
0.0
  0
LINE
 8
组“0”#1
10
-13.664309875386728
20
-26.294886956856327
30
0.0
11
-13.620667864798866
21
-26.273342019772564
31
3.0977239398532915e-16
  0
LINE
 8
组“0”#1
10
-13.620667864798866
20
-26.273342019772564
30
3.0977239398532915e-16
11
-13.091124732926756
21
-25.999487817057243
31
2.626927343781547e-16
  0
LINE
 8
组“0”#1
10
-13.091124732926756
20
-25.999487817057243
30
2.626927343781547e-16
11
-12.596808958543518
21
-25.721575352626864
31
2.1978898124733839e-16
  0
LINE
 8
组“0”#1
10
-12.596808958543518
20
-25.721575352626864
30
2.1978898124733839e-16
11
-12.13732775559274
21
-25.441712443034895
31
1.8091791049991873e-16
  0
LINE
 8
组“0”#1
10
-12.13732775559274
20
-25.441712443034895
30
1.8091791049991873e-16
11
-11.712184758613098
21
-25.161973477214143
31
1.4592614539085498e-16
  0
LINE
 8
组“0”#1
10
-11.712184758613098
20
-25.161973477214143
30
1.4592614539085498e-16
11
-11.320781914266757
21
-24.88439477724931
31
1.146505879538339e-16
  0
LINE
 8
组“0”#1
10
-11.320781914266757
20
-24.88439477724931
30
1.146505879538339e-16
11
-10.962421569679266
21
-24.610970051722518
31
8.691886836138398e-17
  0
LINE
 8
组“0”#1
10
-10.962421569679266
20
-24.610970051722518
30
8.691886836138398e-17
11
-10.636308753390121
21
-24.34364594968846
31
6.254981136144298e-17
  0
LINE
 8
组“0”#1
10
-10.636308753390121
20
-24.34364594968846
30
6.254981136144298e-17
11
-10.341553644391519
21
-24.084317723152957
31
4.1353918909677736e-17
  0
LINE
 8
组“0”#1
10
-10.341553644391519
20
-24.084317723152957
30
4.1353918909677736e-17
11
-10.077174224419096
21
-23.83482500573469
31
2.313386809046017e-17
  0
LINE
 8
组“0”#1
10
-10.077174224419096
20
-23.83482500573469
30
2.313386809046017e-17
11
-9.842099108352624
21
-23.596947714983134
31
7.685023394502228e-18
  0
LINE
 8
组“0”#1
10
-9.842099108352624
20
-23.596947714983134
30
7.685023394502228e-18
11
-9.63517054728751
21
-23.37240208560647
31
-5.204037602210649e-18
  0
LINE
 8
组“0”#1
10
-9.63517054728751
20
-23.37240208560647
30
-5.204037602210649e-18
11
-9.455147598549972
21
-23.162836840633616
31
-1.575098613535397e-17
  0
LINE
 8
组“0”#1
10
-9.455147598549972
20
-23.162836840633616
30
-1.575098613535397e-17
11
-9.30070945664988
21
-22.96982950729215
31
-2.417919272242581e-17
  0
LINE
 8
组“0”#1
10
-9.30070945664988
20
-22.96982950729215
30
-2.417919272242581e-17
11
-9.170458938896942
21
-22.794882884132168
31
-3.0717167222070506e-17
  0
LINE
 8
组“0”#1
10
-9.170458938896942
20
-22.794882884132168
30
-3.0717167222070506e-17
11
-9.062926119147377
21
-22.639421665662958
31
-3.5597989515400737e-17
  0
LINE
 8
组“0”#1
10
-9.062926119147377
20
-22.639421665662958
30
-3.5597989515400737e-17
11
-8.976572102900583
21
-22.504789230496282
31
-3.9058731857380595e-17
  0
LINE
 8
组“0”#1
10
-8.976572102900583
20
-22.504789230496282
30
-3.9058731857380595e-17
11
-8.909792936729142
21
-22.392244598708118
31
-4.133987395984585e-17
  0
LINE
 8
组“0”#1
10
-8.909792936729142
20
-22.392244598708118
30
-4.133987395984585e-17
11
-8.86092364480018
21
-22.302959563838478
31
-4.2684711879521134e-17
  0
LINE
 8
组“0”#1
10
-8.86092364480018
20
-22.302959563838478
30
-4.2684711879521134e-17
11
-8.828242385033358
21
-22.238016004649126
31
-4.333876179443112e-17
  0
LINE
 8
组“0”#1
10
-8.828242385033358
20
-22.238016004649126
30
-4.333876179443112e-17
11
-8.809974717239484
21
-22.19840338145006
31
-4.354915976038033e-17
  0
LINE
 8
组“0”#1
10
-8.809974717239484
20
-22.19840338145006
30
-4.354915976038033e-17
11
-7.807781839725559
21
-19.674001131468643
31
-3.8633252319285376e-17
  0
LINE
 8
组“0”#1
10
-7.807781839725559
20
-19.674001131468643
30
-3.8633252319285376e-17
11
-7.723278851396304
21
-19.522465909863897
31
-4.109241199372878e-17
  0
LINE
 8
组“0”#1
10
-7.723278851396304
20
-19.522465909863897
30
-4.109241199372878e-17
11
-7.6024350312153315
21
-19.397965108471123
31
-4.893024189779667e-17
  0
LINE
 8
组“0”#1
10
-7.6024350312153315
20
-19.397965108471123
30
-4.893024189779667e-17
11
-7.4534856858241225
21
-19.308983251157937
31
-6.16126068761532e-17
  0
LINE
 8
组“0”#1
10
-7.4534856858241225
20
-19.308983251157937
30
-6.16126068761532e-17
11
-7.286581466960653
21
-19.261584304450757
31
-7.82752247141224e-17
  0
LINE
 8
组“0”#1
10
-7.286581466960653
20
-19.261584304450757
30
-7.82752247141224e-17
11
-7.1130966213182125
21
-19.25899842823722
31
-9.778256554232464e-17
  0
LINE
 8
组“0”#1
10
-7.1130966213182125
20
-19.25899842823722
30
-9.778256554232464e-17
11
-6.944853854430061
21
-19.30140184570791
31
-1.188052363207229e-16
  0
LINE
 8
组“0”#1
10
-6.944853854430061
20
-19.30140184570791
30
-1.188052363207229e-16
11
-3.636281059347253
21
-20.187931254249932
31
0.0
  0
LINE
 8
组“0”#1
10
-3.636281059347253
20
-20.187931254249932
30
0.0
11
-3.469376840483786
21
-20.23533020095711
31
0.0
  0
LINE
 8
组“0”#1
10
-3.469376840483786
20
-20.23533020095711
30
0.0
11
-3.3204274950925763
21
-20.324312058270298
31
0.0
  0
LINE
 8
组“0”#1
10
-3.3204274950925763
20
-20.324312058270298
30
0.0
11
-3.199583674911605
21
-20.448812859663075
31
0.0
  0
LINE
 8
组“0”#1
10
-3.199583674911605
20
-20.448812859663075
30
0.0
11
-3.1150806865823486
21
-20.60034808126782
31
0.0
  0
LINE
 8
组“0”#1
10
-3.1150806865823486
20
-20.60034808126782
30
0.0
11
-3.0726772691116566
21
-20.76859084815597
31
0.0
  0
LINE
 8
组“0”#1
10
-3.0726772691116566
20
-20.76859084815597
30
0.0
11
-3.0752631453251946
21
-20.94207569379841
31
0.0
  0
LINE
 8
组“0”#1
10
-3.0752631453251946
20
-20.94207569379841
30
0.0
11
-3.4695397788970177
21
-23.62936861040988
31
0.0
  0
LINE
 8
组“0”#1
10
-3.4695397788970177
20
-23.62936861040988
30
0.0
11
-3.4735258261191624
21
-23.67280798230775
31
0.0
  0
LINE
 8
组“0”#1
10
-3.4735258261191624
20
-23.67280798230775
30
0.0
11
-3.477694804528091
21
-23.745391384261314
31
0.0
  0
LINE
 8
组“0”#1
10
-3.477694804528091
20
-23.745391384261314
30
0.0
11
-3.480015273687473
21
-23.84714913860068
31
0.0
  0
LINE
 8
组“0”#1
10
-3.480015273687473
20
-23.84714913860068
30
0.0
11
-3.4784551352335438
21
-23.97800523187452
31
0.0
  0
LINE
 8
组“0”#1
10
-3.4784551352335438
20
-23.97800523187452
30
0.0
11
-3.4709865810283453
21
-24.13777734902562
31
0.0
  0
LINE
 8
组“0”#1
10
-3.4709865810283453
20
-24.13777734902562
30
0.0
11
-3.455591036619252
21
-24.326177123398026
31
0.0
  0
LINE
 8
组“0”#1
10
-3.455591036619252
20
-24.326177123398026
30
0.0
11
-3.430264090969123
21
-24.54281060223734
31
0.0
  0
LINE
 8
组“0”#1
10
-3.430264090969123
20
-24.54281060223734
30
0.0
11
-3.3930204034411107
21
-24.787178926977788
31
0.0
  0
LINE
 8
组“0”#1
10
-3.3930204034411107
20
-24.787178926977788
30
0.0
11
-3.3418985790566453
21
-25.058679227243356
31
0.0
  0
LINE
 8
组“0”#1
10
-3.3418985790566453
20
-25.058679227243356
30
0.0
11
-3.2749660030940326
21
-25.356605727124865
31
0.0
  0
LINE
 8
组“0”#1
10
-3.2749660030940326
20
-25.356605727124865
30
0.0
11
-3.190323626158669
21
-25.680151061932367
31
0.0
  0
LINE
 8
组“0”#1
10
-3.190323626158669
20
-25.680151061932367
30
0.0
11
-3.086110690933888
21
-26.028407803262013
31
0.0
  0
LINE
 8
组“0”#1
10
-3.086110690933888
20
-26.028407803262013
30
0.0
11
-2.9605093919136007
21
-26.400370189859423
31
0.0
  0
LINE
 8
组“0”#1
10
-2.9605093919136007
20
-26.400370189859423
30
0.0
11
-2.8117494595245383
21
-26.794936061409352
31
0.0
  0
LINE
 8
组“0”#1
10
-2.8117494595245383
20
-26.794936061409352
30
0.0
11
-2.6381126601662235
21
-27.210908992032085
31
0.0
  0
LINE
 8
组“0”#1
10
-2.6381126601662235
20
-27.210908992032085
30
0.0
11
-2.437937203831226
21
-27.647000619924263
31
0.0
  0
LINE
 8
组“0”#1
10
-2.437937203831226
20
-27.647000619924263
30
0.0
11
-2.209622051116178
21
-28.101833169243232
31
0.0
  0
LINE
 8
组“0”#1
10
-2.209622051116178
20
-28.101833169243232
30
0.0
11
-1.951631111595359
21
-28.573942160002304
31
0.0
  0
LINE
 8
组“0”#1
10
-1.951631111595359
20
-28.573942160002304
30
0.0
11
-1.6624973257032858
21
-29.061779301418966
31
0.0
  0
LINE
 8
组“0”#1
10
-1.6624973257032858
20
-29.061779301418966
30
0.0
11
-1.3408266224601242
21
-29.563715563839622
31
0.0
  0
LINE
 8
组“0”#1
10
-1.3408266224601242
20
-29.563715563839622
30
0.0
11
-1.3138040011607028
21
-29.604195031971035
31
0.0
  0
LINE
 8
组“0”#1
10
-1.3138040011607028
20
-29.604195031971035
30
0.0
11
1.3138040011606917
21
-29.604195031971035
31
0.0
  0
LINE
 8
组“0”#1
10
1.3138040011606917
20
-29.604195031971035
30
0.0
11
1.3408266224601213
21
-29.563715563839622
31
3.0977239398532915e-16
  0
LINE
 8
组“0”#1
10
1.3408266224601213
20
-29.563715563839622
30
3.0977239398532915e-16
11
1.6624973257032822
21
-29.061779301418966
31
2.626927343781547e-16
  0
LINE
 8
组“0”#1
10
1.6624973257032822
20
-29.061779301418966
30
2.626927343781547e-16
11
1.9516311115953524
21
-28.5739421600023
31
2.1978898124733839e-16
  0
LINE
 8
组“0”#1
10
1.9516311115953524
20
-28.5739421600023
30
2.1978898124733839e-16
11
2.209622051116176
21
-28.10183316924324
31
1.8091791049991873e-16
  0
LINE
 8
组“0”#1
10
2.209622051116176
20
-28.10183316924324
30
1.8091791049991873e-16
11
2.4379372038312215
21
-27.647000619924263
31
1.4592614539085498e-16
  0
LINE
 8
组“0”#1
10
2.4379372038312215
20
-27.647000619924263
30
1.4592614539085498e-16
11
2.638112660166222
21
-27.21090899203209
31
1.146505879538339e-16
  0
LINE
 8
组“0”#1
10
2.638112660166222
20
-27.21090899203209
30
1.146505879538339e-16
11
2.8117494595245365
21
-26.794936061409352
31
8.691886836138398e-17
  0
LINE
 8
组“0”#1
10
2.8117494595245365
20
-26.794936061409352
30
8.691886836138398e-17
11
2.9605093919135976
21
-26.400370189859423
31
6.254981136144298e-17
  0
LINE
 8
组“0”#1
10
2.9605093919135976
20
-26.400370189859423
30
6.254981136144298e-17
11
3.0861106909338862
21
-26.028407803262013
31
4.1353918909677736e-17
  0
LINE
 8
组“0”#1
10
3.0861106909338862
20
-26.028407803262013
30
4.1353918909677736e-17
11
3.1903236261586656
21
-25.680151061932367
31
2.313386809046017e-17
  0
LINE
 8
组“0”#1
10
3.1903236261586656
20
-25.680151061932367
30
2.313386809046017e-17
11
3.2749660030940277
21
-25.35660572712487
31
7.685023394502228e-18
  0
LINE
 8
组“0”#1
10
3.2749660030940277
20
-25.35660572712487
30
7.685023394502228e-18
11
3.3418985790566436
21
-25.058679227243356
31
-5.204037602210649e-18
  0
LINE
 8
组“0”#1
10
3.3418985790566436
20
-25.058679227243356
30
-5.204037602210649e-18
11
3.3930204034411093
21
-24.787178926977788
31
-1.575098613535397e-17
  0
LINE
 8
组“0”#1
10
3.3930204034411093
20
-24.787178926977788
30
-1.575098613535397e-17
11
3.4302640909691204
21
-24.542810602237335
31
-2.417919272242581e-17
  0
LINE
 8
组“0”#1
10
3.4302640909691204
20
-24.542810602237335
30
-2.417919272242581e-17
11
3.4555910366192504
21
-24.32617712339802
31
-3.0717167222070506e-17
  0
LINE
 8
组“0”#1
10
3.4555910366192504
20
-24.32617712339802
30
-3.0717167222070506e-17
11
3.470986581028343
21
-24.13777734902562
31
-3.5597989515400737e-17
  0
LINE
 8
组“0”#1
10
3.470986581028343
20
-24.13777734902562
30
-3.5597989515400737e-17
11
3.4784551352335416
21
-23.97800523187452
31
-3.9058731857380595e-17
  0
LINE
 8
组“0”#1
10
3.4784551352335416
20
-23.97800523187452
30
-3.9058731857380595e-17
11
3.480015273687471
21
-23.84714913860068
31
-4.133987395984585e-17
  0
LINE
 8
组“0”#1
10
3.480015273687471
20
-23.84714913860068
30
-4.133987395984585e-17
11
3.4776948045280873
21
-23.745391384261314
31
-4.2684711879521134e-17
  0
LINE
 8
组“0”#1
10
3.4776948045280873
20
-23.745391384261314
30
-4.2684711879521134e-17
11
3.47352582611916
21
-23.67280798230775
31
-4.333876179443112e-17
  0
LINE
 8
组“0”#1
10
3.47352582611916
20
-23.67280798230775
30
-4.333876179443112e-17
11
3.469539778897016
21
-23.629368610409877
31
-4.354915976038033e-17
  0
LINE
 8
组“0”#1
10
3.469539778897016
20
-23.629368610409877
30
-4.354915976038033e-17
11
3.075263145325192
21
-20.94207569379841
31
-3.8633252319285376e-17
  0
LINE
 8
组“0”#1
10
3.075263145325192
20
-20.94207569379841
30
-3.8633252319285376e-17
11
3.072677269111653
21
-20.76859084815597
31
-4.109241199372878e-17
  0
LINE
 8
组“0”#1
10
3.072677269111653
20
-20.76859084815597
30
-4.109241199372878e-17
11
3.115080686582346
21
-20.60034808126782
31
-4.893024189779667e-17
  0
LINE
 8
组“0”#1
10
3.115080686582346
20
-20.60034808126782
30
-4.893024189779667e-17
11
3.1995836749116036
21
-20.448812859663075
31
-6.16126068761532e-17
  0
LINE
 8
组“0”#1
10
3.1995836749116036
20
-20.448812859663075
30
-6.16126068761532e-17
11
3.320427495092575
21
-20.324312058270298
31
-7.82752247141224e-17
  0
LINE
 8
组“0”#1
10
3.320427495092575
20
-20.324312058270298
30
-7.82752247141224e-17
11
3.469376840483783
21
-20.23533020095711
31
-9.778256554232464e-17
  0
LINE
 8
组“0”#1
10
3.469376840483783
20
-20.23533020095711
30
-9.778256554232464e-17
11
3.636281059347251
21
-20.187931254249932
31
-1.188052363207229e-16
  0
LINE
 8
组“0”#1
10
3.636281059347251
20
-20.187931254249932
30
-1.188052363207229e-16
11
6.944853854430058
21
-19.301401845707908
31
0.0
  0
LINE
 8
组“0”#1
10
6.944853854430058
20
-19.301401845707908
30
0.0
11
7.113096621318208
21
-19.25899842823722
31
0.0
  0
LINE
 8
组“0”#1
10
7.113096621318208
20
-19.25899842823722
30
0.0
11
7.286581466960652
21
-19.261584304450757
31
0.0
  0
LINE
 8
组“0”#1
10
7.286581466960652
20
-19.261584304450757
30
0.0
11
7.453485685824119
21
-19.308983251157933
31
0.0
  0
LINE
 8
组“0”#1
10
7.453485685824119
20
-19.308983251157933
30
0.0
11
7.602435031215329
21
-19.397965108471123
31
0.0
  0
LINE
 8
组“0”#1
10
7.602435031215329
20
-19.397965108471123
30
0.0
11
7.723278851396301
21
-19.522465909863897
31
0.0
  0
LINE
 8
组“0”#1
10
7.723278851396301
20
-19.522465909863897
30
0.0
11
7.807781839725555
21
-19.674001131468643
31
0.0
  0
LINE
 8
组“0”#1
10
7.807781839725555
20
-19.674001131468643
30
0.0
11
8.809974717239482
21
-22.19840338145006
31
0.0
  0
LINE
 8
组“0”#1
10
8.809974717239482
20
-22.19840338145006
30
0.0
11
8.828242385033354
21
-22.238016004649126
31
0.0
  0
LINE
 8
组“0”#1
10
8.828242385033354
20
-22.238016004649126
30
0.0
11
8.860923644800177
21
-22.302959563838478
31
0.0
  0
LINE
 8
组“0”#1
10
8.860923644800177
20
-22.302959563838478
30
0.0
11
8.909792936729136
21
-22.392244598708118
31
0.0
  0
LINE
 8
组“0”#1
10
8.909792936729136
20
-22.392244598708118
30
0.0
11
8.976572102900578
21
-22.504789230496282
31
0.0
  0
LINE
 8
组“0”#1
10
8.976572102900578
20
-22.504789230496282
30
0.0
11
9.062926119147372
21
-22.639421665662958
31
0.0
  0
LINE
 8
组“0”#1
10
9.062926119147372
20
-22.639421665662958
30
0.0
11
9.17045893889694
21
-22.79488288413217
31
0.0
  0
LINE
 8
组“0”#1
10
9.17045893889694
20
-22.79488288413217
30
0.0
11
9.300709456649876
21
-22.96982950729215
31
0.0
  0
LINE
 8
组“0”#1
10
9.300709456649876
20
-22.96982950729215
30
0.0
11
9.45514759854997
21
-23.162836840633616
31
0.0
  0
LINE
 8
组“0”#1
10
9.45514759854997
20
-23.162836840633616
30
0.0
11
9.63517054728751
21
-23.372402085606474
31
0.0
  0
LINE
 8
组“0”#1
10
9.63517054728751
20
-23.372402085606474
30
0.0
11
9.842099108352619
21
-23.596947714983134
31
0.0
  0
LINE
 8
组“0”#1
10
9.842099108352619
20
-23.596947714983134
30
0.0
11
10.077174224419092
21
-23.83482500573469
31
0.0
  0
LINE
 8
组“0”#1
10
10.077174224419092
20
-23.83482500573469
30
0.0
11
10.341553644391517
21
-24.084317723152957
31
0.0
  0
LINE
 8
组“0”#1
10
10.341553644391517
20
-24.084317723152957
30
0.0
11
10.636308753390116
21
-24.34364594968846
31
0.0
  0
LINE
 8
组“0”#1
10
10.636308753390116
20
-24.34364594968846
30
0.0
11
10.962421569679265
21
-24.610970051722514
31
0.0
  0
LINE
 8
组“0”#1
10
10.962421569679265
20
-24.610970051722514
30
0.0
11
11.320781914266753
21
-24.884394777249305
31
0.0
  0
LINE
 8
组“0”#1
10
11.320781914266753
20
-24.884394777249305
30
0.0
11
11.712184758613095
21
-25.161973477214147
31
0.0
  0
LINE
 8
组“0”#1
10
11.712184758613095
20
-25.161973477214147
30
0.0
11
12.137327755592732
21
-25.441712443034884
31
0.0
  0
LINE
 8
组“0”#1
10
12.137327755592732
20
-25.441712443034884
30
0.0
11
12.596808958543514
21
-25.721575352626864
31
0.0
  0
LINE
 8
组“0”#1
10
12.596808958543514
20
-25.721575352626864
30
0.0
11
13.091124732926751
21
-25.99948781705724
31
0.0
  0
LINE
 8
组“0”#1
10
13.091124732926751
20
-25.99948781705724
30
0.0
11
13.62066786479886
21
-26.273342019772556
31
0.0
  0
LINE
 8
组“0”#1
10
13.62066786479886
20
-26.273342019772556
30
0.0
11
13.664309875386714
21
-26.294886956856338
31
0.0
  0
LINE
 8
组“0”#1
10
13.664309875386714
20
-26.294886956856338
30
0.0
11
15.939885156584321
21
-24.98108295569564
31
0.0
  0
LINE
 8
组“0”#1
10
15.939885156584321
20
-24.98108295569564
30
0.0
11
15.94304769904075
21
-24.932515397312446
31
3.0977239398532915e-16
  0
LINE
 8
组“0”#1
10
15.94304769904075
20
-24.932515397312446
30
3.0977239398532915e-16
11
15.970654568492204
21
-24.336990491353973
31
2.626927343781547e-16
  0
LINE
 8
组“0”#1
10
15.970654568492204
20
-24.336990491353973
30
2.626927343781547e-16
11
15.977133201458777
21
-23.76994424103152
31
2.1978898124733839e-16
  0
LINE
 8
组“0”#1
10
15.977133201458777
20
-23.76994424103152
30
2.1978898124733839e-16
11
15.964505413650496
21
-23.23209039191873
31
1.8091791049991873e-16
  0
LINE
 8
组“0”#1
10
15.964505413650496
20
-23.23209039191873
30
1.8091791049991873e-16
11
15.93481586131116
21
-22.724036273382932
31
1.4592614539085498e-16
  0
LINE
 8
组“0”#1
10
15.93481586131116
20
-22.724036273382932
30
1.4592614539085498e-16
11
15.890127077765323
21
-22.246282117083098
31
1.146505879538339e-16
  0
LINE
 8
组“0”#1
10
15.890127077765323
20
-22.246282117083098
30
1.146505879538339e-16
11
15.83251449173008
21
-21.799220592197994
31
8.691886836138398e-17
  0
LINE
 8
组“0”#1
10
15.83251449173008
20
-21.799220592197994
30
8.691886836138398e-17
11
15.764061436469298
21
-21.383136557774876
31
6.254981136144298e-17
  0
LINE
 8
组“0”#1
10
15.764061436469298
20
-21.383136557774876
30
6.254981136144298e-17
11
15.686854158870485
21
-20.99820703221908
31
4.1353918909677736e-17
  0
LINE
 8
组“0”#1
10
15.686854158870485
20
-20.99820703221908
30
4.1353918909677736e-17
11
15.60297683751327
21
-20.644501379576038
31
2.313386809046017e-17
  0
LINE
 8
组“0”#1
10
15.60297683751327
20
-20.644501379576038
30
2.313386809046017e-17
11
15.51450661877224
21
-20.321981711889116
31
7.685023394502228e-18
  0
LINE
 8
组“0”#1
10
15.51450661877224
20
-20.321981711889116
30
7.685023394502228e-18
11
15.42350867995584
21
-20.030503506549834
31
-5.204037602210649e-18
  0
LINE
 8
组“0”#1
10
15.42350867995584
20
-20.030503506549834
30
-5.204037602210649e-18
11
15.33203132842781
21
-19.76981643719252
31
-1.575098613535397e-17
  0
LINE
 8
组“0”#1
10
15.33203132842781
20
-19.76981643719252
30
-1.575098613535397e-17
11
15.24210114558745
21
-19.53956541632304
31
-2.417919272242581e-17
  0
LINE
 8
组“0”#1
10
15.24210114558745
20
-19.53956541632304
30
-2.417919272242581e-17
11
15.155718184501074
21
-19.33929184751293
31
-3.0717167222070506e-17
  0
LINE
 8
组“0”#1
10
15.155718184501074
20
-19.33929184751293
30
-3.0717167222070506e-17
11
15.074851229878238
21
-19.16843508463463
31
-3.5597989515400737e-17
  0
LINE
 8
组“0”#1
10
15.074851229878238
20
-19.16843508463463
30
-3.5597989515400737e-17
11
15.001433128973932
21
-19.02633409526275
31
-3.9058731857380595e-17
  0
LINE
 8
组“0”#1
10
15.001433128973932
20
-19.02633409526275
30
-3.9058731857380595e-17
11
14.937356201871536
21
-18.912229325020657
31
-4.133987395984585e-17
  0
LINE
 8
组“0”#1
10
14.937356201871536
20
-18.912229325020657
30
-4.133987395984585e-17
11
14.884467739461128
21
-18.8252647593104
31
-4.2684711879521134e-17
  0
LINE
 8
组“0”#1
10
14.884467739461128
20
-18.8252647593104
30
-4.2684711879521134e-17
11
14.844565597274384
21
-18.764490178529975
31
-4.333876179443112e-17
  0
LINE
 8
组“0”#1
10
14.844565597274384
20
-18.764490178529975
30
-4.333876179443112e-17
11
14.81939389317039
21
-18.728863602553055
31
-4.354915976038033e-17
  0
LINE
 8
组“0”#1
10
14.81939389317039
20
-18.728863602553055
30
-4.354915976038033e-17
11
13.13429385407285
21
-16.598737986143462
31
-3.8633252319285376e-17
  0
LINE
 8
组“0”#1
10
13.13429385407285
20
-16.598737986143462
30
-3.8633252319285376e-17
11
13.045311996759663
21
-16.449788640752253
31
-4.109241199372878e-17
  0
LINE
 8
组“0”#1
10
13.045311996759663
20
-16.449788640752253
30
-4.109241199372878e-17
11
12.997913050052484
21
-16.282884421888784
31
-4.893024189779667e-17
  0
LINE
 8
组“0”#1
10
12.997913050052484
20
-16.282884421888784
30
-4.893024189779667e-17
11
12.995327173838948
21
-16.10939957624634
31
-6.16126068761532e-17
  0
LINE
 8
组“0”#1
10
12.995327173838948
20
-16.10939957624634
30
-6.16126068761532e-17
11
13.03773059130964
21
-15.941156809358189
31
-7.82752247141224e-17
  0
LINE
 8
组“0”#1
10
13.03773059130964
20
-15.941156809358189
30
-7.82752247141224e-17
11
13.122233579638893
21
-15.789621587753444
31
-9.778256554232464e-17
  0
LINE
 8
组“0”#1
10
13.122233579638893
20
-15.789621587753444
30
-9.778256554232464e-17
11
13.243077399819867
21
-15.665120786360667
31
-1.188052363207229e-16
  0
LINE
 8
组“0”#1
10
13.243077399819867
20
-15.665120786360667
30
-1.188052363207229e-16
11
15.665120786360657
21
-13.243077399819882
31
0.0
  0
LINE
 8
组“0”#1
10
15.665120786360657
20
-13.243077399819882
30
0.0
11
15.78962158775343
21
-13.12223357963891
31
0.0
  0
LINE
 8
组“0”#1
10
15.78962158775343
20
-13.12223357963891
30
0.0
11
15.94115680935818
21
-13.037730591309655
31
0.0
  0
LINE
 8
组“0”#1
10
15.94115680935818
20
-13.037730591309655
30
0.0
11
16.109399576246325
21
-12.995327173838962
31
0.0
  0
LINE
 8
组“0”#1
10
16.109399576246325
20
-12.995327173838962
30
0.0
11
16.282884421888774
21
-12.997913050052501
31
0.0
  0
LINE
 8
组“0”#1
10
16.282884421888774
20
-12.997913050052501
30
0.0
11
16.44978864075224
21
-13.045311996759677
31
0.0
  0
LINE
 8
组“0”#1
10
16.44978864075224
20
-13.045311996759677
30
0.0
11
16.598737986143448
21
-13.134293854072867
31
0.0
  0
LINE
 8
组“0”#1
10
16.598737986143448
20
-13.134293854072867
30
0.0
11
18.72886360255304
21
-14.819393893170407
31
0.0
  0
LINE
 8
组“0”#1
10
18.72886360255304
20
-14.819393893170407
30
0.0
11
18.76449017852996
21
-14.844565597274402
31
0.0
  0
LINE
 8
组“0”#1
10
18.76449017852996
20
-14.844565597274402
30
0.0
11
18.825264759310382
21
-14.884467739461147
31
0.0
  0
LINE
 8
组“0”#1
10
18.825264759310382
20
-14.884467739461147
30
0.0
11
18.91222932502064
21
-14.937356201871554
31
0.0
  0
LINE
 8
组“0”#1
10
18.91222932502064
20
-14.937356201871554
30
0.0
11
19.026334095262733
21
-15.001433128973948
31
0.0
  0
LINE
 8
组“0”#1
10
19.026334095262733
20
-15.001433128973948
30
0.0
11
19.168435084634613
21
-15.074851229878258
31
0.0
  0
LINE
 8
组“0”#1
10
19.168435084634613
20
-15.074851229878258
30
0.0
11
19.339291847512914
21
-15.155718184501096
31
0.0
  0
LINE
 8
组“0”#1
10
19.339291847512914
20
-15.155718184501096
30
0.0
11
19.539565416323025
21
-15.242101145587469
31
0.0
  0
LINE
 8
组“0”#1
10
19.539565416323025
20
-15.242101145587469
30
0.0
11
19.769816437192503
21
-15.33203132842783
31
0.0
  0
LINE
 8
组“0”#1
10
19.769816437192503
20
-15.33203132842783
30
0.0
11
20.030503506549824
21
-15.423508679955857
31
0.0
  0
LINE
 8
组“0”#1
10
20.030503506549824
20
-15.423508679955857
30
0.0
11
20.321981711889098
21
-15.51450661877226
31
0.0
  0
LINE
 8
组“0”#1
10
20.321981711889098
20
-15.51450661877226
30
0.0
11
20.64450137957602
21
-15.602976837513285
31
0.0
  0
LINE
 8
组“0”#1
10
20.64450137957602
20
-15.602976837513285
30
0.0
11
20.998207032219067
21
-15.686854158870505
31
0.0
  0
LINE
 8
组“0”#1
10
20.998207032219067
20
-15.686854158870505
30
0.0
11
21.383136557774858
21
-15.764061436469316
31
0.0
  0
LINE
 8
组“0”#1
10
21.383136557774858
20
-15.764061436469316
30
0.0
11
21.799220592197972
21
-15.832514491730098
31
0.0
  0
LINE
 8
组“0”#1
10
21.799220592197972
20
-15.832514491730098
30
0.0
11
22.24628211708308
21
-15.890127077765342
31
0.0
  0
LINE
 8
组“0”#1
10
22.24628211708308
20
-15.890127077765342
30
0.0
11
22.724036273382918
21
-15.934815861311183
31
0.0
  0
LINE
 8
组“0”#1
10
22.724036273382918
20
-15.934815861311183
30
0.0
11
23.232090391918707
21
-15.96450541365051
31
0.0
  0
LINE
 8
组“0”#1
10
23.232090391918707
20
-15.96450541365051
30
0.0
11
23.769944241031503
21
-15.977133201458802
31
0.0
  0
LINE
 8
组“0”#1
10
23.769944241031503
20
-15.977133201458802
30
0.0
11
24.336990491353955
21
-15.97065456849223
31
0.0
  0
LINE
 8
组“0”#1
10
24.336990491353955
20
-15.97065456849223
30
0.0
11
24.932515397312432
21
-15.943047699040772
31
0.0
  0
LINE
 8
组“0”#1
10
24.932515397312432
20
-15.943047699040772
30
0.0
11
24.981082955695626
21
-15.939885156584335
31
0.0
  0
LINE
 8
组“0”#1
10
24.981082955695626
20
-15.939885156584335
30
0.0
11
26.294886956856338
21
-13.664309875386714
31
3.137004571497665e-16
  0
LINE
 8
组“0”#1
10
1.9999999999999998
20
0.0
30
0.0
11
1.9828897227476205
21
0.26105238444010315
31
0.0
  0
LINE
 8
组“0”#1
10
1.9828897227476205
20
0.26105238444010315
30
0.0
11
1.9318516525781364
21
0.5176380902050415
31
0.0
  0
LINE
 8
组“0”#1
10
1.9318516525781364
20
0.5176380902050415
30
0.0
11
1.8477590650225733
21
0.7653668647301795
31
0.0
  0
LINE
 8
组“0”#1
10
1.8477590650225733
20
0.7653668647301795
30
0.0
11
1.7320508075688772
21
0.9999999999999998
31
0.0
  0
LINE
 8
组“0”#1
10
1.7320508075688772
20
0.9999999999999998
30
0.0
11
1.5867066805824703
21
1.217522858017441
31
0.0
  0
LINE
 8
组“0”#1
10
1.5867066805824703
20
1.217522858017441
30
0.0
11
1.4142135623730951
21
1.414213562373095
31
0.0
  0
LINE
 8
组“0”#1
10
1.4142135623730951
20
1.414213562373095
30
0.0
11
1.2175228580174413
21
1.58670668058247
31
0.0
  0
LINE
 8
组“0”#1
10
1.2175228580174413
20
1.58670668058247
30
0.0
11
1.0
21
1.732050807568877
31
0.0
  0
LINE
 8
组“0”#1
10
1.0
20
1.732050807568877
30
0.0
11
0.7653668647301797
21
1.8477590650225733
31
0.0
  0
LINE
 8
组“0”#1
10
0.7653668647301797
20
1.8477590650225733
30
0.0
11
0.5176380902050419
21
1.9318516525781364
31
0.0
  0
LINE
 8
组“0”#1
10
0.5176380902050419
20
1.9318516525781364
30
0.0
11
0.26105238444010337
21
1.9828897227476205
31
0.0
  0
LINE
 8
组“0”#1
10
0.26105238444010337
20
1.9828897227476205
30
0.0
11
1.224646799147353e-16
21
1.9999999999999998
31
0.0
  0
LINE
 8
组“0”#1
10
1.224646799147353e-16
20
1.9999999999999998
30
0.0
11
-0.26105238444010276
21
1.9828897227476208
31
0.0
  0
LINE
 8
组“0”#1
10
-0.26105238444010276
20
1.9828897227476208
30
0.0
11
-0.5176380902050413
21
1.9318516525781364
31
0.0
  0
LINE
 8
组“0”#1
10
-0.5176380902050413
20
1.9318516525781364
30
0.0
11
-0.7653668647301789
21
1.8477590650225737
31
0.0
  0
LINE
 8
组“0”#1
10
-0.7653668647301789
20
1.8477590650225737
30
0.0
11
-0.9999999999999994
21
1.7320508075688776
31
0.0
  0
LINE
 8
组“0”#1
10
-0.9999999999999994
20
1.7320508075688776
30
0.0
11
-1.2175228580174404
21
1.5867066805824706
31
0.0
  0
LINE
 8
组“0”#1
10
-1.2175228580174404
20
1.5867066805824706
30
0.0
11
-1.414213562373095
21
1.4142135623730951
31
0.0
  0
LINE
 8
组“0”#1
10
-1.414213562373095
20
1.4142135623730951
30
0.0
11
-1.5867066805824697
21
1.2175228580174418
31
0.0
  0
LINE
 8
组“0”#1
10
-1.5867066805824697
20
1.2175228580174418
30
0.0
11
-1.732050807568877
21
1.0000000000000007
31
0.0
  0
LINE
 8
组“0”#1
10
-1.732050807568877
20
1.0000000000000007
30
0.0
11
-1.8477590650225733
21
0.7653668647301797
31
0.0
  0
LINE
 8
组“0”#1
10
-1.8477590650225733
20
0.7653668647301797
30
0.0
11
-1.9318516525781364
21
0.517638090205042
31
0.0
  0
LINE
 8
组“0”#1
10
-1.9318516525781364
20
0.517638090205042
30
0.0
11
-1.9828897227476205
21
0.261052384440104
31
0.0
  0
LINE
 8
组“0”#1
10
-1.9828897227476205
20
0.261052384440104
30
0.0
11
-1.9999999999999998
21
2.449293598294706e-16
31
0.0
  0
LINE
 8
组“0”#1
10
-1.9999999999999998
20
2.449293598294706e-16
30
0.0
11
-1.9828897227476208
21
-0.26105238444010265
31
0.0
  0
LINE
 8
组“0”#1
10
-1.9828897227476208
20
-0.26105238444010265
30
0.0
11
-1.9318516525781366
21
-0.5176380902050407
31
0.0
  0
LINE
 8
组“0”#1
10
-1.9318516525781366
20
-0.5176380902050407
30
0.0
11
-1.8477590650225737
21
-0.7653668647301785
31
0.0
  0
LINE
 8
组“0”#1
10
-1.8477590650225737
20
-0.7653668647301785
30
0.0
11
-1.7320508075688776
21
-0.9999999999999994
31
0.0
  0
LINE
 8
组“0”#1
10
-1.7320508075688776
20
-0.9999999999999994
30
0.0
11
-1.5867066805824706
21
-1.2175228580174404
31
0.0
  0
LINE
 8
组“0”#1
10
-1.5867066805824706
20
-1.2175228580174404
30
0.0
11
-1.4142135623730958
21
-1.4142135623730943
31
0.0
  0
LINE
 8
组“0”#1
10
-1.4142135623730958
20
-1.4142135623730943
30
0.0
11
-1.2175228580174418
21
-1.5867066805824697
31
0.0
  0
LINE
 8
组“0”#1
10
-1.2175228580174418
20
-1.5867066805824697
30
0.0
11
-1.0000000000000009
21
-1.7320508075688765
31
0.0
  0
LINE
 8
组“0”#1
10
-1.0000000000000009
20
-1.7320508075688765
30
0.0
11
-0.7653668647301806
21
-1.847759065022573
31
0.0
  0
LINE
 8
组“0”#1
10
-0.7653668647301806
20
-1.847759065022573
30
0.0
11
-0.5176380902050429
21
-1.931851652578136
31
0.0
  0
LINE
 8
组“0”#1
10
-0.5176380902050429
20
-1.931851652578136
30
0.0
11
-0.26105238444010503
21
-1.9828897227476205
31
0.0
  0
LINE
 8
组“0”#1
10
-0.26105238444010503
20
-1.9828897227476205
30
0.0
11
-3.6739403974420594e-16
21
-1.9999999999999998
31
0.0
  0
LINE
 8
组“0”#1
10
-3.6739403974420594e-16
20
-1.9999999999999998
30
0.0
11
0.2610523844401025
21
-1.9828897227476208
31
0.0
  0
LINE
 8
组“0”#1
10
0.2610523844401025
20
-1.9828897227476208
30
0.0
11
0.5176380902050405
21
-1.9318516525781366
31
0.0
  0
LINE
 8
组“0”#1
10
0.5176380902050405
20
-1.9318516525781366
30
0.0
11
0.7653668647301783
21
-1.8477590650225737
31
0.0
  0
LINE
 8
组“0”#1
10
0.7653668647301783
20
-1.8477590650225737
30
0.0
11
0.9999999999999986
21
-1.732050807568878
31
0.0
  0
LINE
 8
组“0”#1
10
0.9999999999999986
20
-1.732050807568878
30
0.0
11
1.2175228580174395
21
-1.5867066805824712
31
0.0
  0
LINE
 8
组“0”#1
10
1.2175228580174395
20
-1.5867066805824712
30
0.0
11
1.414213562373095
21
-1.4142135623730951
31
0.0
  0
LINE
 8
组“0”#1
10
1.414213562373095
20
-1.4142135623730951
30
0.0
11
1.5867066805824697
21
-1.2175228580174418
31
0.0
  0
LINE
 8
组“0”#1
10
1.5867066805824697
20
-1.2175228580174418
30
0.0
11
1.7320508075688765
21
-1.0000000000000009
31
0.0
  0
LINE
 8
组“0”#1
10
1.7320508075688765
20
-1.0000000000000009
30
0.0
11
1.847759065022573
21
-0.7653668647301807
31
0.0
  0
LINE
 8
组“0”#1
10
1.847759065022573
20
-0.7653668647301807
30
0.0
11
1.931851652578136
21
-0.517638090205043
31
0.0
  0
LINE
 8
组“0”#1
10
1.931851652578136
20
-0.517638090205043
30
0.0
11
1.9828897227476205
21
-0.2610523844401051
31
0.0
  0
LINE
 8
组“0”#1
10
1.9828897227476205
20
-0.2610523844401051
30
0.0
11
1.9999999999999998
21
0.0
31
0.0
 0
ENDSEC
 0
EOF
