 0
SECTION
 2
ENTITIES
  0
LINE
 8
Layer0
10
89.85000000000002
20
104.13351365237939
30
0.0
11
80.91675682618974
21
110.98823222982286
31
0.0
  0
LINE
 8
Layer0
10
89.85000000000001
20
43.1335136523794
30
0.0
11
96.70471857744347
21
52.066756826189696
31
0.0
  0
LINE
 8
Layer0
10
96.7047185774435
20
95.2002704785691
30
0.0
11
89.85000000000002
21
104.13351365237939
31
0.0
  0
LINE
 8
Layer0
10
37.78324317381033
20
110.98823222982288
30
0.0
11
28.850000000000033
21
104.13351365237943
31
0.0
  0
LINE
 8
Layer0
10
21.99528142255656
20
95.20027047856914
30
0.0
11
17.686225184574646
21
84.79728846780482
31
0.0
  0
LINE
 8
Layer0
10
17.686225184574646
20
84.79728846780482
30
0.0
11
16.21648634762061
21
73.63351365237943
31
0.0
  0
LINE
 8
Layer0
10
16.21648634762061
20
73.63351365237943
30
0.0
11
17.686225184574617
21
62.46973883695405
31
0.0
  0
LINE
 8
Layer0
10
17.686225184574617
20
62.46973883695405
30
0.0
11
21.99528142255655
21
52.06675682618972
31
0.0
  0
LINE
 8
Layer0
10
21.99528142255655
20
52.06675682618972
30
0.0
11
28.849999999999998
21
43.13351365237941
31
0.0
  0
LINE
 8
Layer0
10
28.849999999999998
20
43.13351365237941
30
0.0
11
37.783243173810284
21
36.27879507493596
31
0.0
  0
LINE
 8
Layer0
10
37.783243173810284
20
36.27879507493596
30
0.0
11
48.18622518457459
21
31.96973883695404
31
0.0
  0
LINE
 8
Layer0
10
48.18622518457459
20
31.96973883695404
30
0.0
11
59.35
21
30.5
31
0.0
  0
LINE
 8
Layer0
10
80.91675682618974
20
110.98823222982286
30
0.0
11
70.5137748154254
21
115.29728846780478
31
0.0
  0
LINE
 8
Layer0
10
96.70471857744347
20
8.933243173810299
30
0.0
11
101.01377481542538
21
19.336225184574616
31
0.0
  0
LINE
 8
Layer0
10
101.01377481542538
20
19.336225184574616
30
0.0
11
102.48351365237941
21
30.499999999999996
31
0.0
  0
LINE
 8
Layer0
10
102.48351365237941
20
30.499999999999996
30
0.0
11
101.01377481542539
21
41.66377481542537
31
0.0
  0
LINE
 8
Layer0
10
101.01377481542539
20
41.66377481542537
30
0.0
11
96.70471857744347
21
52.066756826189696
31
0.0
  0
LINE
 8
Layer0
10
96.70471857744347
20
52.066756826189696
30
0.0
11
89.85000000000001
21
61.0
31
0.0
  0
LINE
 8
Layer0
10
89.85000000000001
20
61.0
30
0.0
11
80.91675682618973
21
67.85471857744346
31
0.0
  0
LINE
 8
Layer0
10
16.2164863476206
20
30.50000000000002
30
0.0
11
17.686225184574617
21
19.33622518457464
31
0.0
  0
LINE
 8
Layer0
10
80.91675682618973
20
67.85471857744346
30
0.0
11
70.5137748154254
21
72.16377481542537
31
0.0
  0
LINE
 8
Layer0
10
70.5137748154254
20
72.16377481542537
30
0.0
11
59.350000000000016
21
73.6335136523794
31
0.0
  0
LINE
 8
Layer0
10
59.350000000000016
20
73.6335136523794
30
0.0
11
48.18622518457465
21
72.16377481542538
31
0.0
  0
LINE
 8
Layer0
10
48.18622518457465
20
72.16377481542538
30
0.0
11
37.78324317381032
21
67.85471857744348
31
0.0
  0
LINE
 8
Layer0
10
37.78324317381032
20
67.85471857744348
30
0.0
11
28.850000000000016
21
61.0
31
0.0
  0
LINE
 8
Layer0
10
28.850000000000016
20
61.0
30
0.0
11
21.99528142255655
21
52.06675682618972
31
0.0
  0
LINE
 8
Layer0
10
21.99528142255655
20
52.06675682618972
30
0.0
11
17.686225184574628
21
41.66377481542539
31
0.0
  0
LINE
 8
Layer0
10
17.686225184574628
20
41.66377481542539
30
0.0
11
16.2164863476206
21
30.50000000000002
31
0.0
  0
LINE
 8
Layer0
10
17.686225184574617
20
19.33622518457464
30
0.0
11
21.995281422556513
21
8.933243173810327
31
0.0
  0
LINE
 8
Layer0
10
21.995281422556513
20
8.933243173810327
30
0.0
11
28.850000000000005
21
1.8675863686997138e-15
31
0.0
  0
LINE
 8
Layer0
10
28.850000000000005
20
1.8675863686997138e-15
30
0.0
11
37.78324317381027
21
-6.854718577443461
31
0.0
  0
LINE
 8
Layer0
10
37.78324317381027
20
-6.854718577443461
30
0.0
11
48.18622518457458
21
-11.163774815425368
31
0.0
  0
LINE
 8
Layer0
10
48.18622518457458
20
-11.163774815425368
30
0.0
11
59.349999999999994
21
-12.633513652379404
31
0.0
  0
LINE
 8
Layer0
10
59.349999999999994
20
-12.633513652379404
30
0.0
11
70.51377481542535
21
-11.163774815425386
31
0.0
  0
LINE
 8
Layer0
10
70.51377481542535
20
-11.163774815425386
30
0.0
11
80.91675682618967
21
-6.854718577443483
31
0.0
  0
LINE
 8
Layer0
10
80.91675682618967
20
-6.854718577443483
30
0.0
11
89.85000000000001
21
-5.602759106099141e-15
31
0.0
  0
LINE
 8
Layer0
10
59.35000000000003
20
116.7670273047588
30
0.0
11
48.18622518457466
21
115.29728846780479
31
0.0
  0
LINE
 8
Layer0
10
48.18622518457466
20
115.29728846780479
30
0.0
11
37.78324317381033
21
110.98823222982288
31
0.0
  0
LINE
 8
Layer0
10
59.35
20
30.5
30
0.0
11
51.45601912437312
21
29.460737701816583
31
0.0
  0
LINE
 8
Layer0
10
44.10000000000001
20
26.41377481542538
30
0.0
11
37.783243173810305
21
21.566756826189703
31
0.0
  0
LINE
 8
Layer0
10
37.783243173810305
20
21.566756826189703
30
0.0
11
32.93622518457463
21
15.250000000000004
31
0.0
  0
LINE
 8
Layer0
10
80.91675682618968
20
-21.56675682618971
30
0.0
11
85.76377481542538
21
-15.250000000000014
31
0.0
  0
LINE
 8
Layer0
10
29.889262298183418
20
-7.8939808756268794
30
0.0
11
32.93622518457462
21
-15.249999999999995
31
0.0
  0
LINE
 8
Layer0
10
32.93622518457462
20
-15.249999999999995
30
0.0
11
37.7832431738103
21
-21.566756826189696
31
0.0
  0
LINE
 8
Layer0
10
88.81073770181658
20
-7.893980875626905
30
0.0
11
89.85000000000001
21
-5.602759106099141e-15
31
0.0
  0
LINE
 8
Layer0
10
37.7832431738103
20
-21.566756826189696
30
0.0
11
44.099999999999994
21
-26.413774815425374
31
0.0
  0
LINE
 8
Layer0
10
44.099999999999994
20
-26.413774815425374
30
0.0
11
51.45601912437311
21
-29.46073770181658
31
0.0
  0
LINE
 8
Layer0
10
51.45601912437311
20
-29.46073770181658
30
0.0
11
59.35
21
-30.5
31
0.0
  0
LINE
 8
Layer0
10
59.35
20
-30.5
30
0.0
11
67.24398087562687
21
-29.460737701816583
31
0.0
  0
LINE
 8
Layer0
10
67.24398087562687
20
-29.460737701816583
30
0.0
11
74.6
21
-26.413774815425388
31
0.0
  0
LINE
 8
Layer0
10
74.6
20
-26.413774815425388
30
0.0
11
80.91675682618968
21
-21.56675682618971
31
0.0
  0
LINE
 8
Layer0
10
85.76377481542538
20
-15.250000000000014
30
0.0
11
88.81073770181658
21
-7.893980875626905
31
0.0
  0
LINE
 8
Layer0
10
101.0137748154254
20
84.79728846780476
30
0.0
11
96.7047185774435
21
95.2002704785691
31
0.0
  0
LINE
 8
Layer0
10
0.0
20
118.7
30
0.0
11
0.0
21
0.0
31
0.0
  0
LINE
 8
Layer0
10
59.35
20
30.5
30
0.0
11
70.51377481542538
21
31.96973883695402
31
0.0
  0
LINE
 8
Layer0
10
96.70471857744347
20
52.066756826189696
30
0.0
11
101.01377481542539
21
62.46973883695401
31
0.0
  0
LINE
 8
Layer0
10
101.01377481542539
20
62.46973883695401
30
0.0
11
102.48351365237941
21
73.63351365237939
31
0.0
  0
LINE
 8
Layer0
10
89.85000000000001
20
-5.602759106099141e-15
30
0.0
11
88.81073770181658
21
7.89398087562687
31
0.0
  0
LINE
 8
Layer0
10
88.81073770181658
20
7.89398087562687
30
0.0
11
85.76377481542539
21
15.249999999999977
31
0.0
  0
LINE
 8
Layer0
10
85.76377481542539
20
15.249999999999977
30
0.0
11
80.91675682618971
21
21.566756826189696
31
0.0
  0
LINE
 8
Layer0
10
80.91675682618971
20
21.566756826189696
30
0.0
11
74.60000000000002
21
26.41377481542537
31
0.0
  0
LINE
 8
Layer0
10
74.60000000000002
20
26.41377481542537
30
0.0
11
67.2439808756269
21
29.46073770181658
31
0.0
  0
LINE
 8
Layer0
10
67.2439808756269
20
29.46073770181658
30
0.0
11
59.35
21
30.5
31
0.0
  0
LINE
 8
Layer0
10
70.5137748154254
20
115.29728846780478
30
0.0
11
59.35000000000003
21
116.7670273047588
31
0.0
  0
LINE
 8
Layer0
10
118.7
20
118.7
30
0.0
11
0.0
21
118.7
31
0.0
  0
LINE
 8
Layer0
10
0.0
20
0.0
30
0.0
11
28.850000000000005
21
1.8675863686997138e-15
31
0.0
  0
LINE
 8
Layer0
10
102.48351365237941
20
73.63351365237939
30
0.0
11
101.0137748154254
21
84.79728846780476
31
0.0
  0
LINE
 8
Layer0
10
28.850000000000005
20
1.8675863686997138e-15
30
0.0
11
89.85000000000001
21
-5.602759106099141e-15
31
0.0
  0
LINE
 8
Layer0
10
89.85000000000001
20
-5.602759106099141e-15
30
0.0
11
118.7
21
0.0
31
0.0
  0
LINE
 8
Layer0
10
80.9167568261897
20
36.278795074935935
30
0.0
11
89.85000000000001
21
43.1335136523794
31
0.0
  0
LINE
 8
Layer0
10
89.85000000000001
20
-5.602759106099141e-15
30
0.0
11
96.70471857744347
21
8.933243173810299
31
0.0
  0
LINE
 8
Layer0
10
70.51377481542538
20
31.96973883695402
30
0.0
11
80.9167568261897
21
36.278795074935935
31
0.0
  0
LINE
 8
Layer0
10
28.850000000000005
20
1.8675863686997138e-15
30
0.0
11
29.889262298183418
21
-7.8939808756268794
31
0.0
  0
LINE
 8
Layer0
10
32.93622518457463
20
15.250000000000004
30
0.0
11
29.889262298183425
21
7.893980875626889
31
0.0
  0
LINE
 8
Layer0
10
29.889262298183425
20
7.893980875626889
30
0.0
11
28.850000000000005
21
1.8675863686997138e-15
31
0.0
  0
LINE
 8
Layer0
10
51.45601912437312
20
29.460737701816583
30
0.0
11
44.10000000000001
21
26.41377481542538
31
0.0
  0
LINE
 8
Layer0
10
28.850000000000033
20
104.13351365237943
30
0.0
11
21.99528142255656
21
95.20027047856914
31
0.0
  0
LINE
 8
Layer0
10
118.7
20
0.0
30
0.0
11
118.7
21
118.7
31
0.0
 0
ENDSEC
 0
EOF
