<svg viewBox="-0.1 -420.6896911621094 420.78969116210936 528.8603393554688" version="1.1" xmlns="http://www.w3.org/2000/svg">
<g transform="scale(3.543299873306695,-3.543299873306695)"  style="stroke:black; stroke-width:0.2; stroke-linecap:round; stroke-linejoin:round; fill:none">
<path d="M0,0 101.01377481542539,41.66377481542537"/>
<path d="M101.01377481542539,41.66377481542537 96.70471857744347,52.066756826189696"/>
<path d="M96.70471857744347,52.066756826189696 101.01377481542539,62.46973883695401"/>
<path d="M101.01377481542539,62.46973883695401 102.48351365237941,73.63351365237939"/>
<path d="M102.48351365237941,73.63351365237939 101.0137748154254,84.79728846780476"/>
<path d="M101.0137748154254,84.79728846780476 96.7047185774435,95.2002704785691"/>
<path d="M96.7047185774435,95.2002704785691 89.85000000000002,104.13351365237939"/>
<path d="M89.85000000000002,104.13351365237939 80.91675682618974,110.98823222982286"/>
<path d="M80.91675682618974,110.98823222982286 70.5137748154254,115.29728846780478"/>
<path d="M70.5137748154254,115.29728846780478 59.35000000000003,116.7670273047588"/>
<path d="M59.35000000000003,116.7670273047588 48.18622518457466,115.29728846780479"/>
<path d="M48.18622518457466,115.29728846780479 37.78324317381033,110.98823222982288"/>
<path d="M37.78324317381033,110.98823222982288 28.850000000000033,104.13351365237943"/>
<path d="M28.850000000000033,104.13351365237943 21.99528142255656,95.20027047856914"/>
<path d="M21.99528142255656,95.20027047856914 17.686225184574646,84.79728846780482"/>
<path d="M17.686225184574646,84.79728846780482 16.21648634762061,73.63351365237943"/>
<path d="M16.21648634762061,73.63351365237943 17.686225184574617,62.46973883695405"/>
<path d="M17.686225184574617,62.46973883695405 21.99528142255655,52.06675682618972"/>
<path d="M21.99528142255655,52.06675682618972 17.686225184574628,41.66377481542539"/>
<path d="M17.686225184574628,41.66377481542539 16.2164863476206,30.50000000000002"/>
<path d="M16.2164863476206,30.50000000000002 17.686225184574617,19.33622518457464"/>
<path d="M17.686225184574617,19.33622518457464 21.995281422556513,8.933243173810327"/>
<path d="M21.995281422556513,8.933243173810327 28.850000000000005,0.00000000000000018675863686997138"/>
<path d="M28.850000000000005,0.00000000000000018675863686997138 0,0"/>
<path d="M0,0 0,118.7"/>
<path d="M0,118.7 118.7,118.7"/>
<path d="M118.7,118.7 118.7,0"/>
<path d="M118.7,0 89.85000000000001,-0.0000000000000005602759106099141"/>
<path d="M89.85000000000001,-0.0000000000000005602759106099141 96.70471857744347,8.933243173810299"/>
<path d="M96.70471857744347,8.933243173810299 101.01377481542538,19.336225184574616"/>
<path d="M101.01377481542538,19.336225184574616 102.48351365237941,30.499999999999996"/>
<path d="M102.48351365237941,30.499999999999996 101.01377481542539,41.66377481542537"/>
<path d="M0,0 29.889262298183418,-7.8939808756268794"/>
<path d="M29.889262298183418,-7.8939808756268794 28.850000000000005,0.00000000000000018675863686997138"/>
<path d="M28.850000000000005,0.00000000000000018675863686997138 37.78324317381027,-6.854718577443461"/>
<path d="M37.78324317381027,-6.854718577443461 48.18622518457458,-11.163774815425368"/>
<path d="M48.18622518457458,-11.163774815425368 59.349999999999994,-12.633513652379404"/>
<path d="M59.349999999999994,-12.633513652379404 70.51377481542535,-11.163774815425386"/>
<path d="M70.51377481542535,-11.163774815425386 80.91675682618967,-6.854718577443483"/>
<path d="M80.91675682618967,-6.854718577443483 89.85000000000001,-0.0000000000000005602759106099141"/>
<path d="M89.85000000000001,-0.0000000000000005602759106099141 88.81073770181658,-7.893980875626905"/>
<path d="M88.81073770181658,-7.893980875626905 85.76377481542538,-15.250000000000014"/>
<path d="M85.76377481542538,-15.250000000000014 80.91675682618968,-21.56675682618971"/>
<path d="M80.91675682618968,-21.56675682618971 74.6,-26.413774815425388"/>
<path d="M74.6,-26.413774815425388 67.24398087562687,-29.460737701816583"/>
<path d="M67.24398087562687,-29.460737701816583 59.35,-30.5"/>
<path d="M59.35,-30.5 51.45601912437311,-29.46073770181658"/>
<path d="M51.45601912437311,-29.46073770181658 44.099999999999994,-26.413774815425374"/>
<path d="M44.099999999999994,-26.413774815425374 37.7832431738103,-21.566756826189696"/>
<path d="M37.7832431738103,-21.566756826189696 32.93622518457462,-15.249999999999995"/>
<path d="M32.93622518457462,-15.249999999999995 29.889262298183418,-7.8939808756268794"/>
<path d="M0,0 89.85000000000001,-0.0000000000000005602759106099141"/>
<path d="M89.85000000000001,-0.0000000000000005602759106099141 28.850000000000005,0.00000000000000018675863686997138"/>
<path d="M28.850000000000005,0.00000000000000018675863686997138 29.889262298183425,7.893980875626889"/>
<path d="M29.889262298183425,7.893980875626889 32.93622518457463,15.250000000000004"/>
<path d="M32.93622518457463,15.250000000000004 37.783243173810305,21.566756826189703"/>
<path d="M37.783243173810305,21.566756826189703 44.10000000000001,26.41377481542538"/>
<path d="M44.10000000000001,26.41377481542538 51.45601912437312,29.460737701816583"/>
<path d="M51.45601912437312,29.460737701816583 59.35,30.5"/>
<path d="M59.35,30.5 67.2439808756269,29.46073770181658"/>
<path d="M67.2439808756269,29.46073770181658 74.60000000000002,26.41377481542537"/>
<path d="M74.60000000000002,26.41377481542537 80.91675682618971,21.566756826189696"/>
<path d="M80.91675682618971,21.566756826189696 85.76377481542539,15.249999999999977"/>
<path d="M85.76377481542539,15.249999999999977 88.81073770181658,7.89398087562687"/>
<path d="M88.81073770181658,7.89398087562687 89.85000000000001,-0.0000000000000005602759106099141"/>
<path d="M0,0 67.2439808756269,29.46073770181658"/>
<path d="M67.2439808756269,29.46073770181658 59.35,30.5"/>
<path d="M59.35,30.5 70.51377481542538,31.96973883695402"/>
<path d="M70.51377481542538,31.96973883695402 80.9167568261897,36.278795074935935"/>
<path d="M80.9167568261897,36.278795074935935 89.85000000000001,43.1335136523794"/>
<path d="M89.85000000000001,43.1335136523794 96.70471857744347,52.066756826189696"/>
<path d="M96.70471857744347,52.066756826189696 101.01377481542539,41.66377481542537"/>
<path d="M101.01377481542539,41.66377481542537 102.48351365237941,30.499999999999996"/>
<path d="M102.48351365237941,30.499999999999996 101.01377481542538,19.336225184574616"/>
<path d="M101.01377481542538,19.336225184574616 96.70471857744347,8.933243173810299"/>
<path d="M96.70471857744347,8.933243173810299 89.85000000000001,-0.0000000000000005602759106099141"/>
<path d="M89.85000000000001,-0.0000000000000005602759106099141 88.81073770181658,7.89398087562687"/>
<path d="M88.81073770181658,7.89398087562687 85.76377481542539,15.249999999999977"/>
<path d="M85.76377481542539,15.249999999999977 80.91675682618971,21.566756826189696"/>
<path d="M80.91675682618971,21.566756826189696 74.60000000000002,26.41377481542537"/>
<path d="M74.60000000000002,26.41377481542537 67.2439808756269,29.46073770181658"/>
<path d="M0,0 28.850000000000005,0.00000000000000018675863686997138"/>
<path d="M28.850000000000005,0.00000000000000018675863686997138 89.85000000000001,-0.0000000000000005602759106099141"/>
<path d="M89.85000000000001,-0.0000000000000005602759106099141 80.91675682618967,-6.854718577443483"/>
<path d="M80.91675682618967,-6.854718577443483 70.51377481542535,-11.163774815425386"/>
<path d="M70.51377481542535,-11.163774815425386 59.349999999999994,-12.633513652379404"/>
<path d="M59.349999999999994,-12.633513652379404 48.18622518457458,-11.163774815425368"/>
<path d="M48.18622518457458,-11.163774815425368 37.78324317381027,-6.854718577443461"/>
<path d="M37.78324317381027,-6.854718577443461 28.850000000000005,0.00000000000000018675863686997138"/>
<path d="M0,0 17.686225184574628,41.66377481542539"/>
<path d="M17.686225184574628,41.66377481542539 21.99528142255655,52.06675682618972"/>
<path d="M21.99528142255655,52.06675682618972 28.849999999999998,43.13351365237941"/>
<path d="M28.849999999999998,43.13351365237941 37.783243173810284,36.27879507493596"/>
<path d="M37.783243173810284,36.27879507493596 48.18622518457459,31.96973883695404"/>
<path d="M48.18622518457459,31.96973883695404 59.35,30.5"/>
<path d="M59.35,30.5 51.45601912437312,29.460737701816583"/>
<path d="M51.45601912437312,29.460737701816583 44.10000000000001,26.41377481542538"/>
<path d="M44.10000000000001,26.41377481542538 37.783243173810305,21.566756826189703"/>
<path d="M37.783243173810305,21.566756826189703 32.93622518457463,15.250000000000004"/>
<path d="M32.93622518457463,15.250000000000004 29.889262298183425,7.893980875626889"/>
<path d="M29.889262298183425,7.893980875626889 28.850000000000005,0.00000000000000018675863686997138"/>
<path d="M28.850000000000005,0.00000000000000018675863686997138 21.995281422556513,8.933243173810327"/>
<path d="M21.995281422556513,8.933243173810327 17.686225184574617,19.33622518457464"/>
<path d="M17.686225184574617,19.33622518457464 16.2164863476206,30.50000000000002"/>
<path d="M16.2164863476206,30.50000000000002 17.686225184574628,41.66377481542539"/>
<path d="M0,0 28.850000000000016,61"/>
<path d="M28.850000000000016,61 21.99528142255655,52.06675682618972"/>
<path d="M21.99528142255655,52.06675682618972 17.686225184574617,62.46973883695405"/>
<path d="M17.686225184574617,62.46973883695405 16.21648634762061,73.63351365237943"/>
<path d="M16.21648634762061,73.63351365237943 17.686225184574646,84.79728846780482"/>
<path d="M17.686225184574646,84.79728846780482 21.99528142255656,95.20027047856914"/>
<path d="M21.99528142255656,95.20027047856914 28.850000000000033,104.13351365237943"/>
<path d="M28.850000000000033,104.13351365237943 37.78324317381033,110.98823222982288"/>
<path d="M37.78324317381033,110.98823222982288 48.18622518457466,115.29728846780479"/>
<path d="M48.18622518457466,115.29728846780479 59.35000000000003,116.7670273047588"/>
<path d="M59.35000000000003,116.7670273047588 70.5137748154254,115.29728846780478"/>
<path d="M70.5137748154254,115.29728846780478 80.91675682618974,110.98823222982286"/>
<path d="M80.91675682618974,110.98823222982286 89.85000000000002,104.13351365237939"/>
<path d="M89.85000000000002,104.13351365237939 96.7047185774435,95.2002704785691"/>
<path d="M96.7047185774435,95.2002704785691 101.0137748154254,84.79728846780476"/>
<path d="M101.0137748154254,84.79728846780476 102.48351365237941,73.63351365237939"/>
<path d="M102.48351365237941,73.63351365237939 101.01377481542539,62.46973883695401"/>
<path d="M101.01377481542539,62.46973883695401 96.70471857744347,52.066756826189696"/>
<path d="M96.70471857744347,52.066756826189696 89.85000000000001,61"/>
<path d="M89.85000000000001,61 80.91675682618973,67.85471857744346"/>
<path d="M80.91675682618973,67.85471857744346 70.5137748154254,72.16377481542537"/>
<path d="M70.5137748154254,72.16377481542537 59.350000000000016,73.6335136523794"/>
<path d="M59.350000000000016,73.6335136523794 48.18622518457465,72.16377481542538"/>
<path d="M48.18622518457465,72.16377481542538 37.78324317381032,67.85471857744348"/>
<path d="M37.78324317381032,67.85471857744348 28.850000000000016,61"/>
<path d="M0,0 70.51377481542538,31.96973883695402"/>
<path d="M70.51377481542538,31.96973883695402 59.35,30.5"/>
<path d="M59.35,30.5 48.18622518457459,31.96973883695404"/>
<path d="M48.18622518457459,31.96973883695404 37.783243173810284,36.27879507493596"/>
<path d="M37.783243173810284,36.27879507493596 28.849999999999998,43.13351365237941"/>
<path d="M28.849999999999998,43.13351365237941 21.99528142255655,52.06675682618972"/>
<path d="M21.99528142255655,52.06675682618972 28.850000000000016,61"/>
<path d="M28.850000000000016,61 37.78324317381032,67.85471857744348"/>
<path d="M37.78324317381032,67.85471857744348 48.18622518457465,72.16377481542538"/>
<path d="M48.18622518457465,72.16377481542538 59.350000000000016,73.6335136523794"/>
<path d="M59.350000000000016,73.6335136523794 70.5137748154254,72.16377481542537"/>
<path d="M70.5137748154254,72.16377481542537 80.91675682618973,67.85471857744346"/>
<path d="M80.91675682618973,67.85471857744346 89.85000000000001,61"/>
<path d="M89.85000000000001,61 96.70471857744347,52.066756826189696"/>
<path d="M96.70471857744347,52.066756826189696 89.85000000000001,43.1335136523794"/>
<path d="M89.85000000000001,43.1335136523794 80.9167568261897,36.278795074935935"/>
<path d="M80.9167568261897,36.278795074935935 70.51377481542538,31.96973883695402"/>
</g>
</svg>