<?xml version="1.0" encoding="UTF-8" standalone="no" ?>
<!DOCTYPE svg PUBLIC "-//W3C//DTD SVG 1.1//EN" "http://www.w3.org/Graphics/SVG/1.1/DTD/svg11.dtd">
<svg xmlns="http://www.w3.org/2000/svg" xmlns:xlink="http://www.w3.org/1999/xlink" version="1.1" width="700" height="600" viewBox="0 0 700 600" xml:space="preserve">
<desc>Created with Fabric.js 1.6.2</desc>
<defs></defs>
<path d="m 58.486638 29.967876 c -1.34627 -0.80247 -3.33333 -1.716639 -4.87949 -2.378015 c -1.66078 -0.711347 -3.27454 -1.487362 -4.96767 -2.18989 c -1.2816 -0.532041 -2.62199 -1.140507 -3.96531 -1.528514 c -0.4615 -0.135215 -1.01705 -0.223399 -1.40506 -0.358613 c -0.78777 -0.276309 -2.08701 -2.13992 -2.47502 -2.921814 c -0.21164 -0.42622 -0.291 -0.867137 -0.47031 -1.293358 c -0.30276 -0.717225 -2.14286 -3.550855 -2.73075 -4.529692 c -2.52793 -4.191656 -4.30923 -2.466199 -5.08819 -3.932984 c -0.92886 -1.7401554 -0.15873 -4.0270475 -0.16755 -4.5179355 c -0.0235 -1.166962 -0.69371 -1.843035 -0.11757 -2.989421 c 0.34979 -0.696649 1.03762 -1.557908 1.22281 -2.34862007 c -1.29336 0.27336907 -2.61905 0.89947207 -3.64492 1.47854307 c -0.68489 0.385068 -1.24045 0.220459 -2.05762 0.426221 c -3.91534 0.987655 -4.38859 4.603178 -4.39741 8.0746695 c -3.31276 2.707233 -5.68196 6.310999 -4.87067 10.896541 c 0.34097 1.92534 1.11111 3.386246 1.23163 4.012349 c -0.89653 -0.02058 -1.71664 -2.8836 -2.04586 -3.406823 c -0.4321 0.114639 -0.31452 0.255733 -0.72604 0.420342 c -0.70841 -0.828925 -0.35862 -1.240448 -0.29983 -2.395652 l -0.9612 0.523222 c -0.39388 -0.764257 -1.48736 -1.628455 -1.57554 -2.88654 c -0.22634 -3.262789 0.18812 -1.704881 -1.26984 -3.118756 c 0.66725 -1.249266 2.1987 -1.71076 2.87772 -2.178133 c -0.20576 -1.146385 -1.7284 -2.301589 -3.27161 -1.904763 c -1.53439 0.393886 -1.99295 1.822459 -3.5626104 1.687244 c 0.0235 -0.552616 0.0323 -1.699002 0.12345 -2.186951 c 0.14991 -0.7936513 0.83481 -0.6349213 0.66726 -1.6490314 c -0.28513 -0.199883 -0.67608 -0.4262201 -1.20518 -0.258672 c -0.55555 0.370371 0.0118 0.80247 0.0118 2.4485624 c 0 1.519696 0.20577 1.701942 -0.39388 2.454441 c -0.2381 0.302763 -0.42622 0.53204 -0.63198 0.817167 c -0.89948 1.237508 -1.74016 0.981776 -2.25456 1.992947 c -0.24104 0.473252 -0.14404 0.743681 -0.37919 1.075839 c -0.44386 0.626103 -1.39036 1.410936 -1.61964 2.621989 c -0.19988 1.055263 0.21752 1.55203 0.74074 2.066434 c 0.62317 0.614345 1.28748 0.514403 2.31923 0.514403 c 0.46443 -0.155791 0.097 -3.095241 2.07525 -3.500885 l 0.66138 0.631982 c 1.4226904 1.049384 1.7548504 -0.238095 4.0828904 1.722518 c 1.85186 1.560848 0.78484 1.216932 0.7525 2.539685 c 1.51676 -0.26749 2.03116 0 1.64609 1.566726 c -0.29394 1.196357 -0.37037 2.054676 -0.24397 3.374489 c -0.85832 -0.05585 -0.98178 -0.449736 -1.67255 -0.705468 c -1.74309 -0.6408 -4.0152904 -0.58789 -5.6408004 0.02352 c 0.26749 0.620224 1.92534 1.105233 2.3809504 2.304528 c -2.4750104 0.467373 -3.9153404 1.455028 -5.6907704 2.477957 c 0.8495 0.414462 6.9488604 -1.131688 7.5926004 -0.455615 c 0.1793 0.117578 0.14109 -0.02645 -0.0852 0.388007 c -0.097 0.179307 -0.18225 0.314522 -0.26749 0.476191 c -0.38213 0.708408 -1.33451 2.630808 -1.311 3.292184 c 1.36391 -0.07936 3.82423 -1.349207 4.9324 -2.263376 c 0.47325 -0.388008 0.77601 -0.917109 1.15226 -1.196356 c 0.83481 1.534393 1.50206 2.857145 2.56614 3.809527 c -0.44091 0.440917 -1.2522 0.464433 -1.54321 1.055262 c 4.71782 -0.09406 11.25222 -1.407996 15.57909 -1.407996 c 4.08289 0 11.34627 0.911229 15.88479 1.084657 c 0.194 -0.417402 0.49676 -0.734863 0.63492 -1.149325 c -0.46444 -0.388007 -1.01999 -0.552617 -1.50206 -0.90829 c -1.15521 -0.849501 -2.26044 -1.660789 -3.05997 -2.857145 c -0.14403 -0.21458 -0.26749 -0.440918 -0.49971 -0.546738 c -0.18224 0.931805 -0.0911 1.793064 -0.0647 2.730749 c -0.23221 -0.05879 -1.80776 -0.96414 -1.93121 -1.137567 c -0.19401 -0.27043 -1.18166 -3.818346 0.52322 -4.726636 c 0.92004 -0.490888 1.39036 0.111699 2.01646 0.526162 l 5.53498 3.694888 c 0.41741 0.288066 1.41682 0.987656 1.86068 1.152265 c 0.59964 -0.3204 1.09641 -0.623164 1.74015 -0.96414 c 0.58201 -0.308642 1.25221 -0.514404 1.74897 -0.837743 c 0.56732 -0.367431 2.21635 -2.013523 2.39272 -2.733689 z" style="stroke: none; stroke-width: 1; stroke-dasharray: NaN; stroke-linecap: butt; stroke-linejoin: miter; stroke-miterlimit: 10; fill: #000000; fill-rule: evenodd; opacity: 1;" transform="translate(308.09 206.96) scale(10.82 10.82) translate(-30.81420986618783, -19.512253715) " stroke-linecap="round" />
<path d="m 22.446028 37.00198 l -0.35862 0.07937 c 0.17049 -0.282187 -0.20576 -0.135215 0.39389 -0.326279 c 0.6408 -0.01176 1.88713 -0.408584 2.5632 -0.558496 c 0.82892 -0.182246 1.77543 -0.352734 2.6602 -0.470312 c 1.57261 -0.208701 4.11229 -0.593769 5.42035 0.235156 l -0.66432 0.194004 c -0.2234 0.0294 -0.41446 0.04409 -0.62022 0.06761 l -3.95356 0.405644 c -1.54909 0.16461 -3.91829 0.440918 -5.43799 0.367432 z" style="stroke: none; stroke-width: 1; stroke-dasharray: NaN; stroke-linecap: butt; stroke-linejoin: miter; stroke-miterlimit: 10; fill: rgba(255,239,247,1); fill-rule: evenodd; opacity: 1;" transform="translate(273.38 388.29) scale(10.82 10.82) translate(-27.606228, -36.267055960456304) " stroke-linecap="round" />
<path d="m 38.298478 35.223612 c 1.32863 0.220459 5.83187 0.796591 6.40212 1.349208 c -1.07584 0.173428 -6.56673 -0.473252 -8.05115 -1.019989 l -0.37037 -0.208701 c 0.3204 -0.705468 0.194 -0.423281 2.02234 -0.120518 z" style="stroke: none; stroke-width: 1; stroke-dasharray: NaN; stroke-linecap: butt; stroke-linejoin: miter; stroke-miterlimit: 10; fill: rgba(255,239,247,1); fill-rule: evenodd; opacity: 1;" transform="translate(412.81 382.72) scale(10.82 10.82) translate(-40.489838, -35.75246839544761) " stroke-linecap="round" />
<path d="m 42.842868 34.800332 c 0.80835 0.114638 1.55791 0.617284 2.05173 1.046444 c -0.44091 0.03527 -0.90241 -0.129336 -1.31687 -0.194004 c -0.68489 -0.10582 -0.6408 -0.149912 -0.73486 -0.85244 z" style="stroke: none; stroke-width: 1; stroke-dasharray: NaN; stroke-linecap: butt; stroke-linejoin: miter; stroke-miterlimit: 10; fill: rgba(255,239,247,1); fill-rule: evenodd; opacity: 1;" transform="translate(449.37 378.11) scale(10.82 10.82) translate(-43.868733000000006, -35.32600268016496) " stroke-linecap="round" />
<path d="m 26.331978 35.382343 c 0.0529 -0.258672 0.64962 -0.928866 0.87008 -1.190478 c 0.60846 0.0088 2.3251 0.170489 2.72487 0.758379 c -1.06115 0.249853 -2.43387 0.382128 -3.59201 0.432099 z" style="stroke: none; stroke-width: 1; stroke-dasharray: NaN; stroke-linecap: butt; stroke-linejoin: miter; stroke-miterlimit: 10; fill: rgba(255,239,247,1); fill-rule: evenodd; opacity: 1;" transform="translate(279.04 372.27) scale(10.82 10.82) translate(-28.129452999999998, -34.787104) " stroke-linecap="round" />
<path d="m 39.462498 34.233018 c 0.54674 0.205761 1.2816 0.561435 1.59612 0.975897 c -0.5438 0.09112 -1.19341 -0.205761 -1.62845 -0.355673 l 0.0323 -0.623164 z" style="stroke: none; stroke-width: 1; stroke-dasharray: NaN; stroke-linecap: butt; stroke-linejoin: miter; stroke-miterlimit: 10; fill: rgba(255,239,247,1); fill-rule: evenodd; opacity: 1;" transform="translate(410.15 371.64) scale(10.82 10.82) translate(-40.244392999999995, -34.7280173480155) " stroke-linecap="round" />
<path d="m 45.370798 34.003741 c 0.29394 0.146972 0.82598 0.723104 1.06702 0.981776 c 0.22339 0.241035 0.78483 0.761317 0.92004 1.105233 c -1.39036 -0.202822 -2.03703 -0.558495 -1.98706 -2.087009 z" style="stroke: none; stroke-width: 1; stroke-dasharray: NaN; stroke-linecap: butt; stroke-linejoin: miter; stroke-miterlimit: 10; fill: rgba(255,239,247,1); fill-rule: evenodd; opacity: 1;" transform="translate(476.37 375.09) scale(10.82 10.82) translate(-46.36298495243301, -35.0472455) " stroke-linecap="round" />
<path d="m 21.911048 36.378816 c -0.31453 0.09994 -0.57026 0.191065 -0.88478 0.264551 c -0.009 -0.667255 -0.29982 -2.771902 -0.20576 -3.118757 c 0.89947 -0.05585 2.83069 -0.126396 3.58613 0.06173 c 0.11758 0.255732 0.18518 0.728983 0.31746 1.019989 c 0.15579 0.338037 0.34391 0.485009 0.25279 0.887714 c -0.24691 0.408583 -2.74838 0.784833 -3.06291 0.884774 z" style="stroke: none; stroke-width: 1; stroke-dasharray: NaN; stroke-linecap: butt; stroke-linejoin: miter; stroke-miterlimit: 10; fill: rgba(255,239,247,1); fill-rule: evenodd; opacity: 1;" transform="translate(222.46 375.16) scale(10.82 10.82) translate(-22.901286305893812, -35.053660666600166) " stroke-linecap="round" />
<path d="m 31.505408 33.730372 c 2.53381 0.823046 2.31335 0.464433 3.99471 0.849501 l -0.14697 0.505585 c -0.15285 0.235156 -0.17637 0.21458 -0.29394 0.432099 c -2.07526 0.05585 -5.52029 -1.466785 -7.67785 -1.828337 c 0.0294 -0.396826 0.0588 -0.676074 0.23222 -0.955322 c 1.41387 -0.04703 2.66314 0.596709 3.89183 0.996474 z" style="stroke: none; stroke-width: 1; stroke-dasharray: NaN; stroke-linecap: butt; stroke-linejoin: miter; stroke-miterlimit: 10; fill: rgba(255,239,247,1); fill-rule: evenodd; opacity: 1;" transform="translate(314.87 365.11) scale(10.82 10.82) translate(-31.440738, -34.12525645303597) " stroke-linecap="round" />
<path d="m 18.019208 32.966115 c 0.55556 -0.479131 -0.05 -1.305116 0.96414 -0.934745 c 1.57261 0.573192 1.50794 3.342154 1.46385 4.676665 c -1.77543 0.07643 -3.64198 -3.550856 -3.09818 -4.576724 l 0.41446 0.411523 c 0.12934 0.182246 0.15873 0.258672 0.25867 0.420341 z" style="stroke: none; stroke-width: 1; stroke-dasharray: NaN; stroke-linecap: butt; stroke-linejoin: miter; stroke-miterlimit: 10; fill: rgba(255,239,247,1); fill-rule: evenodd; opacity: 1;" transform="translate(178.7 367.26) scale(10.82 10.82) translate(-18.858202821108197, -34.323896876303436) " stroke-linecap="round" />
<path d="m 36.705298 34.347656 c 0.15873 -0.825985 0.15285 -1.525574 0.53792 -2.236921 l 1.1552 -1.54909 c 0.45855 0.223398 3.27455 3.057028 3.40094 4.041743 c -0.81422 0.129336 -2.0194 -0.611405 -2.66314 -1.037625 c -0.14991 -0.09994 -0.24397 -0.173428 -0.36449 -0.252793 l -0.43504 -0.264551 l 0.44974 1.757791 c -0.80247 0.123457 -1.41976 -0.276308 -2.08113 -0.458554 z" style="stroke: none; stroke-width: 1; stroke-dasharray: NaN; stroke-linecap: butt; stroke-linejoin: miter; stroke-miterlimit: 10; fill: rgba(255,239,247,1); fill-rule: evenodd; opacity: 1;" transform="translate(399.41 349.64) scale(10.82 10.82) translate(-39.25232799999999, -32.69555164468632) " stroke-linecap="round" />
<path d="m 25.747028 35.467587 c -1.44915 -1.481483 -1.09936 -5.855385 -0.51735 -6.5197 c 0.44386 0.593769 0.35568 1.810701 0.72605 2.436804 c 0.39388 -0.446797 0.38507 -0.770136 0.76719 -1.028808 c 0.33216 1.528514 0.7966 2.548503 -0.32921 4.079957 c -0.32922 0.446796 -0.38507 0.776015 -0.64668 1.034686 z" style="stroke: none; stroke-width: 1; stroke-dasharray: NaN; stroke-linecap: butt; stroke-linejoin: miter; stroke-miterlimit: 10; fill: rgba(255,239,247,1); fill-rule: evenodd; opacity: 1;" transform="translate(255.08 344.38) scale(10.82 10.82) translate(-25.91578251760921, -32.2092065) " stroke-linecap="round" />
<path d="m 52.381378 33.25712 c -0.17342 -0.402704 -0.48794 -0.623163 -0.62022 -1.143446 c 0.61435 0.152852 1.1699 0.367432 1.39918 0.881835 l -0.77896 0.258672 z" style="stroke: none; stroke-width: 1; stroke-dasharray: NaN; stroke-linecap: butt; stroke-linejoin: miter; stroke-miterlimit: 10; fill: rgba(255,239,247,1); fill-rule: evenodd; opacity: 1;" transform="translate(542.36 349.53) scale(10.82 10.82) translate(-52.460747999999995, -32.685397) " stroke-linecap="round" />
<path d="m 24.100938 33.027843 l -3.55086 -0.07643 l -0.32334 -0.970019 l 3.89771 0.01176 l -0.0235 1.037626 z" style="stroke: none; stroke-width: 1; stroke-dasharray: NaN; stroke-linecap: butt; stroke-linejoin: miter; stroke-miterlimit: 10; fill: rgba(255,239,247,1); fill-rule: evenodd; opacity: 1;" transform="translate(214.6 347.59) scale(10.82 10.82) translate(-22.175593, -32.506086999999994) " stroke-linecap="round" />
<path d="m 27.745848 30.999623 c 0.52029 0.04997 1.61964 1.146385 1.69607 1.602 l -1.73134 -0.461494 l 0.0382 -1.143446 z" style="stroke: none; stroke-width: 1; stroke-dasharray: NaN; stroke-linecap: butt; stroke-linejoin: miter; stroke-miterlimit: 10; fill: rgba(255,239,247,1); fill-rule: evenodd; opacity: 1;" transform="translate(283.87 339.94) scale(10.82 10.82) translate(-28.576248, -31.799152999999997) " stroke-linecap="round" />
<path d="m 33.660028 33.727432 c -1.00236 -0.141093 -1.63728 -0.273369 -2.43975 -0.749559 c -0.48501 -0.288067 -1.41681 -1.087597 -1.602 -1.440331 c 1.47561 -0.04409 1.51676 -0.01176 2.35744 0.684892 l 1.68431 1.504998 z" style="stroke: none; stroke-width: 1; stroke-dasharray: NaN; stroke-linecap: butt; stroke-linejoin: miter; stroke-miterlimit: 10; fill: rgba(255,239,247,1); fill-rule: evenodd; opacity: 1;" transform="translate(317.02 348.89) scale(10.82 10.82) translate(-31.639152999999997, -32.625998395366395) " stroke-linecap="round" />
<path d="m 16.520088 31.940247 c -0.27336 1.628455 -3.44797 3.959439 -4.91476 3.883013 c -0.35273 -0.01764 -0.27043 -0.258671 -0.14991 -0.652558 c 0.54086 -1.76073 1.89889 -3.445035 3.94768 -3.721343 c -0.16755 0.549677 -0.39388 0.755438 -0.55555 1.246326 l 1.67254 -0.755438 z" style="stroke: none; stroke-width: 1; stroke-dasharray: NaN; stroke-linecap: butt; stroke-linejoin: miter; stroke-miterlimit: 10; fill: rgba(255,239,247,1); fill-rule: evenodd; opacity: 1;" transform="translate(125.43 359.83) scale(10.82 10.82) translate(-13.936033888846662, -33.63722565316031) " stroke-linecap="round" />
<path d="m 7.4401276 31.766819 c 0.88478 -0.182246 4.2122304 -1.460906 5.4879604 -0.16167 l -0.13522 0.097 c -0.0206 0.01176 -0.047 0.03233 -0.0705 0.04409 c -0.9759 0.517343 -4.4738404 0.432099 -5.0529104 0.176367 c -0.20283 -0.08818 -0.0999 -0.04115 -0.22634 -0.155791 z" style="stroke: none; stroke-width: 1; stroke-dasharray: NaN; stroke-linecap: butt; stroke-linejoin: miter; stroke-miterlimit: 10; fill: rgba(255,239,247,1); fill-rule: evenodd; opacity: 1;" transform="translate(84.83 337.54) scale(10.82 10.82) translate(-10.1841078, -31.577200961258765) " stroke-linecap="round" />
<path d="m 33.019228 30.893803 c 1.75779 -0.293945 2.65432 1.17578 2.76014 2.410349 c 0.097 1.140506 -1.91652 -0.06173 -2.21928 -0.282188 c -0.22634 -0.164609 -0.3645 -0.252792 -0.54086 -0.390946 c -0.40859 -0.317461 -1.07584 -0.837744 -1.311 -1.23163 l 1.31394 -0.505585 z" style="stroke: none; stroke-width: 1; stroke-dasharray: NaN; stroke-linecap: butt; stroke-linejoin: miter; stroke-miterlimit: 10; fill: rgba(255,239,247,1); fill-rule: evenodd; opacity: 1;" transform="translate(339.82 345.6) scale(10.82 10.82) translate(-33.745493745355816, -32.3221477512418) " stroke-linecap="round" />
<path d="m 50.264978 30.835013 c 0.29982 0.232216 0.38801 0.487948 0.40858 1.005291 c -0.83774 -0.138154 -1.29335 -0.523222 -1.24338 -1.44327 c 0.27043 0.02646 0.65549 0.296885 0.8348 0.435039 z" style="stroke: none; stroke-width: 1; stroke-dasharray: NaN; stroke-linecap: butt; stroke-linejoin: miter; stroke-miterlimit: 10; fill: rgba(255,239,247,1); fill-rule: evenodd; opacity: 1;" transform="translate(516.27 332.57) scale(10.82 10.82) translate(-50.05000840076911, -31.118668999999997) " stroke-linecap="round" />
<path d="m 54.994548 30.567523 c 0.28513 -0.296885 1.05527 -0.37625 1.50206 -0.443857 c -0.0558 0.508524 -0.24103 0.758378 -0.40564 1.090536 c -0.37625 -0.105821 -0.3204 -0.129336 -0.64374 -0.279248 c -0.4321 -0.196943 -0.29101 0.03233 -0.45268 -0.370371 z" style="stroke: none; stroke-width: 1; stroke-dasharray: NaN; stroke-linecap: butt; stroke-linejoin: miter; stroke-miterlimit: 10; fill: rgba(255,239,247,1); fill-rule: evenodd; opacity: 1;" transform="translate(577.91 327.71) scale(10.82 10.82) translate(-55.745578, -30.668934) " stroke-linecap="round" />
<path d="m 17.581238 31.164231 c 0.19106 -0.340976 0.41152 -0.576132 0.69371 -0.887714 c 1.77542 0.437978 2.47795 0.338037 4.30923 0.332158 c -0.5438 0.987655 -3.8448 0.937684 -5.00294 0.555556 z" style="stroke: none; stroke-width: 1; stroke-dasharray: NaN; stroke-linecap: butt; stroke-linejoin: miter; stroke-miterlimit: 10; fill: rgba(255,239,247,1); fill-rule: evenodd; opacity: 1;" transform="translate(191.95 329.64) scale(10.82 10.82) translate(-20.082707999999997, -30.847365698517592) " stroke-linecap="round" />
<path d="m 47.331408 28.827368 c 0.4027 0.117578 0.74956 0.637861 0.79365 1.243388 l -0.80835 -0.06761 l 0.0147 -1.17578 z" style="stroke: none; stroke-width: 1; stroke-dasharray: NaN; stroke-linecap: butt; stroke-linejoin: miter; stroke-miterlimit: 10; fill: rgba(255,239,247,1); fill-rule: evenodd; opacity: 1;" transform="translate(491.06 314.5) scale(10.82 10.82) translate(-47.720883, -29.449061) " stroke-linecap="round" />
<path d="m 22.684118 31.367053 c 0.39683 -0.326279 1.21987 -1.355086 1.66079 -1.475604 c 0.0147 0.226338 -0.0118 0.487949 -0.0411 0.761318 c -0.006 0.04115 -0.05 0.332157 -0.0558 0.346855 c -0.13816 0.432099 -0.0118 0.138154 -0.18225 0.349794 l -1.38154 0.02058 z" style="stroke: none; stroke-width: 1; stroke-dasharray: NaN; stroke-linecap: butt; stroke-linejoin: miter; stroke-miterlimit: 10; fill: rgba(255,239,247,1); fill-rule: evenodd; opacity: 1;" transform="translate(229.12 327.29) scale(10.82 10.82) translate(-23.516605265127307, -30.630722499999997) " stroke-linecap="round" />
<path d="m 39.068608 29.864994 c 0.3204 -0.191064 2.31041 -0.490888 2.88361 -0.558495 c -0.32628 1.484422 -0.60259 1.781306 -0.28513 3.492066 c -0.98766 -0.296884 -2.27808 -1.878308 -2.59848 -2.933571 z" style="stroke: none; stroke-width: 1; stroke-dasharray: NaN; stroke-linecap: butt; stroke-linejoin: miter; stroke-miterlimit: 10; fill: rgba(255,239,247,1); fill-rule: evenodd; opacity: 1;" transform="translate(413.03 331.86) scale(10.82 10.82) translate(-40.51041299999999, -31.052532) " stroke-linecap="round" />
<path d="m 52.963398 29.526957 c 0.20282 -0.196943 1.15226 -0.487948 1.48148 -0.543798 c 0.56143 -0.097 0.94356 0.364492 1.14638 0.649618 c -0.24103 0.194004 -1.13756 0.558496 -1.4609 0.596709 c -0.42328 0.04997 -0.96414 -0.470312 -1.16403 -0.702529 z" style="stroke: none; stroke-width: 1; stroke-dasharray: NaN; stroke-linecap: butt; stroke-linejoin: miter; stroke-miterlimit: 10; fill: rgba(255,239,247,1); fill-rule: evenodd; opacity: 1;" transform="translate(562.02 316.15) scale(10.82 10.82) translate(-54.277328, -29.601420888497536) " stroke-linecap="round" />
<path d="m 28.345498 29.365289 c -0.42622 -0.452676 -0.70253 -0.229278 -1.00529 -0.80541 c 1.12581 -0.631982 3.78601 0.746621 4.15638 2.231043 c -1.03762 0.258671 -1.6843 0.508525 -2.80129 0.04115 c -0.0294 -0.01176 -2.74545 -1.437391 -0.9906 -1.472664 c 0.20576 -0.0029 0.4321 0.0088 0.64374 0.0059 z" style="stroke: none; stroke-width: 1; stroke-dasharray: NaN; stroke-linecap: butt; stroke-linejoin: miter; stroke-miterlimit: 10; fill: rgba(255,239,247,1); fill-rule: evenodd; opacity: 1;" transform="translate(291.77 317.74) scale(10.82 10.82) translate(-29.305648970259703, -29.74829828276397) " stroke-linecap="round" />
<path d="m 50.846988 28.630426 c 0.12346 -0.173427 0.003 -0.04115 0.16167 -0.179306 c 0.15285 -0.135215 -0.10288 0.06173 0.12052 -0.09112 l 0.91123 -0.449736 c 0.56731 -0.16167 0.92886 0.243974 1.00235 0.731923 c -1.34039 0.652558 -1.58436 0.393886 -2.19577 -0.01176 z" style="stroke: none; stroke-width: 1; stroke-dasharray: NaN; stroke-linecap: butt; stroke-linejoin: miter; stroke-miterlimit: 10; fill: rgba(255,239,247,1); fill-rule: evenodd; opacity: 1;" transform="translate(536.78 303.77) scale(10.82 10.82) translate(-51.944873, -28.4567933087939) " stroke-linecap="round" />
<path d="m 14.806388 30.911439 c -1.88124 0.514404 -3.24809 -0.273369 -4.67372 -1.437391 c -0.3821304 -0.311581 -0.8201104 -0.702528 -1.0170504 -1.152264 c 1.2257504 -0.235156 2.7013504 -0.255732 3.9182904 0.117578 c 0.95238 0.293945 2.24868 1.061141 2.53674 1.70782 l -1.87243 -0.223398 c 0.19988 0.199883 0.3351 0.273369 0.61435 0.449736 c 0.40858 0.258671 0.36449 0.164609 0.49382 0.53498 z" style="stroke: none; stroke-width: 1; stroke-dasharray: NaN; stroke-linecap: butt; stroke-linejoin: miter; stroke-miterlimit: 10; fill: rgba(255,239,247,1); fill-rule: evenodd; opacity: 1;" transform="translate(108.19 316.26) scale(10.82 10.82) translate(-12.3431328, -29.611397203403477) " stroke-linecap="round" />
<path d="m 18.645318 27.610437 c 0.37037 -0.05585 0.58789 0.241035 0.76425 0.464433 c -0.0794 0.599648 -0.43797 0.708407 -0.8201 0.984716 l 0.0558 -1.449149 z" style="stroke: none; stroke-width: 1; stroke-dasharray: NaN; stroke-linecap: butt; stroke-linejoin: miter; stroke-miterlimit: 10; fill: rgba(255,239,247,1); fill-rule: evenodd; opacity: 1;" transform="translate(180.23 302.41) scale(10.82 10.82) translate(-18.999518000000002, -28.33158124428471) " stroke-linecap="round" />
<path d="m 18.621818 29.73272 c 0.52028 -0.664316 3.28042 -2.895358 4.85009 -1.866551 c -0.31452 0.364492 -0.90535 0.48207 -0.95238 0.767197 l 1.84597 -0.129336 c -0.3204 0.990594 -1.08759 1.44327 -2.34274 1.649031 c -0.79953 0.132275 -2.82775 0.0059 -3.40388 -0.423281 z" style="stroke: none; stroke-width: 1; stroke-dasharray: NaN; stroke-linecap: butt; stroke-linejoin: miter; stroke-miterlimit: 10; fill: rgba(255,239,247,1); fill-rule: evenodd; opacity: 1;" transform="translate(207.21 308.57) scale(10.82 10.82) translate(-21.492188, -28.90117995474339) " stroke-linecap="round" />
<path d="m 22.407828 28.530485 l 0 0 z" style="stroke: none; stroke-width: 1; stroke-dasharray: NaN; stroke-linecap: butt; stroke-linejoin: miter; stroke-miterlimit: 10; fill: rgba(255,239,247,1); fill-rule: evenodd; opacity: 1;" transform="translate(217.12 304.56) scale(10.82 10.82) translate(-22.407828, -28.530485) " stroke-linecap="round" />
<path d="m 28.607128 27.895564 c 0.14403 -0.420342 0.76719 -1.205175 1.06702 -1.602001 c 0.35567 -0.473251 0.64668 -1.017049 0.82892 -1.643152 c 0.2528 0.07937 0.82599 0.549677 1.14051 0.740741 c 0.99353 0.611406 2.51323 1.293358 3.60377 1.684305 c 1.84303 0.658437 4.10935 1.134628 6.18166 0.717226 c 0.1117 -0.435039 0.17637 -0.887714 0.16755 -1.402118 l 0.69371 0.702529 c 0.15579 0.188125 0.41446 0.540859 0.47031 0.878895 c -0.69665 0.708408 -2.93357 1.249267 -4.08877 1.513817 c -0.60847 0.141094 -0.68196 0.06173 -0.92005 0.529101 c -0.38801 0.755439 -0.95532 2.078191 -1.4227 2.657263 c -0.34979 -0.443857 -0.39682 -1.375663 -1.34626 -2.004705 c -0.80541 -0.532041 -1.85186 -0.261611 -2.74839 -0.07937 c -0.54086 -0.702529 -2.28689 -2.436804 -3.6214 -2.689597 z" style="stroke: none; stroke-width: 1; stroke-dasharray: NaN; stroke-linecap: butt; stroke-linejoin: miter; stroke-miterlimit: 10; fill: rgba(255,239,247,1); fill-rule: evenodd; opacity: 1;" transform="translate(360.79 305.98) scale(10.82 10.82) translate(-35.683853, -28.661290499999996) " stroke-linecap="round" />
<path d="m 49.912258 27.054881 c 0.32334 0.129336 0.4174 0.229277 0.55262 0.602587 c -0.26161 0.285127 -0.42034 0.382129 -0.79071 0.532041 c -0.1411 -0.329219 -0.28219 -0.405645 -0.40271 -0.761318 c 0.30277 -0.129336 0.35274 -0.235156 0.6408 -0.370371 z" style="stroke: none; stroke-width: 1; stroke-dasharray: NaN; stroke-linecap: butt; stroke-linejoin: miter; stroke-miterlimit: 10; fill: rgba(255,239,247,1); fill-rule: evenodd; opacity: 1;" transform="translate(514.3 294.73) scale(10.82 10.82) translate(-49.868168, -27.622195) " stroke-linecap="round" />
<path d="m 16.314348 30.014907 c -0.62023 -0.620224 -0.74368 -2.842448 -0.54086 -3.818346 c 0.16167 -0.790712 0.89947 -2.542624 1.71076 -2.860084 c 0.33216 1.425633 1.52263 3.697828 0.14991 5.955325 c -0.0118 0.02058 -0.22046 0.293945 -0.2234 0.293945 c -0.15579 0.146973 -0.0323 0.08524 -0.25573 0.167549 c 0.003 -0.537919 -0.0794 -1.757791 -0.29982 -2.154617 c -0.32922 0.555556 -0.28513 1.76661 -0.54086 2.413289 z" style="stroke: none; stroke-width: 1; stroke-dasharray: NaN; stroke-linecap: butt; stroke-linejoin: miter; stroke-miterlimit: 10; fill: rgba(255,239,247,1); fill-rule: evenodd; opacity: 1;" transform="translate(158.39 284.49) scale(10.82 10.82) translate(-16.981875770459826, -26.675692) " stroke-linecap="round" />
<path d="m 44.744708 27.948474 l -0.20576 -0.723105 c 0.70547 -0.08524 1.10817 0.205761 1.12287 0.884774 l -0.91711 -0.161669 z" style="stroke: none; stroke-width: 1; stroke-dasharray: NaN; stroke-linecap: butt; stroke-linejoin: miter; stroke-miterlimit: 10; fill: rgba(255,239,247,1); fill-rule: evenodd; opacity: 1;" transform="translate(462.7 295.15) scale(10.82 10.82) translate(-45.10038300000001, -27.66052264067948) " stroke-linecap="round" />
<path d="m 55.068058 31.702151 c -0.18225 0.26749 -0.67902 0.646679 -1.04351 0.464433 c -1.29336 -0.646679 -6.99001 -4.344507 -7.38096 -5.18225 c 1.47855 0.590829 7.74839 4.035865 8.42447 4.717817 z" style="stroke: none; stroke-width: 1; stroke-dasharray: NaN; stroke-linecap: butt; stroke-linejoin: miter; stroke-miterlimit: 10; fill: rgba(255,239,247,1); fill-rule: evenodd; opacity: 1;" transform="translate(524.99 316.13) scale(10.82 10.82) translate(-50.855823, -29.59934574348989) " stroke-linecap="round" />
<path d="m 19.521288 27.454646 c -0.39682 -0.355673 -0.73486 -0.47913 -0.61434 -1.322752 c 0.63198 0.223398 1.72545 1.169901 2.03704 1.525574 c -0.66432 0.414463 -1.02293 0.155791 -1.4227 -0.202822 z" style="stroke: none; stroke-width: 1; stroke-dasharray: NaN; stroke-linecap: butt; stroke-linejoin: miter; stroke-miterlimit: 10; fill: rgba(255,239,247,1); fill-rule: evenodd; opacity: 1;" transform="translate(190.12 288.01) scale(10.82 10.82) translate(-19.913091964265664, -27.00101852012343) " stroke-linecap="round" />
<path d="m 47.734128 25.867343 c 0.35568 0.149912 0.50559 0.238095 0.60553 0.546738 c -0.27043 0.285126 -0.4321 0.385068 -0.94944 0.449736 c -0.10288 -0.26749 -0.16461 -0.299824 -0.3204 -0.593769 l 0.66431 -0.402705 z" style="stroke: none; stroke-width: 1; stroke-dasharray: NaN; stroke-linecap: butt; stroke-linejoin: miter; stroke-miterlimit: 10; fill: rgba(255,239,247,1); fill-rule: evenodd; opacity: 1;" transform="translate(490.89 281.13) scale(10.82 10.82) translate(-47.704738, -26.36558) " stroke-linecap="round" />
<path d="m 46.008678 24.959053 l 0.43797 0.614345 l -0.68489 0.311582 c -0.12051 -0.06173 -0.20576 -0.0823 -0.32334 -0.185186 c -0.25573 -0.223398 -0.12345 -0.10582 -0.23515 -0.358613 l 0.80247 -0.379189 z" style="stroke: none; stroke-width: 1; stroke-dasharray: NaN; stroke-linecap: butt; stroke-linejoin: miter; stroke-miterlimit: 10; fill: rgba(255,239,247,1); fill-rule: evenodd; opacity: 1;" transform="translate(470.55 270.92) scale(10.82 10.82) translate(-45.824958, -25.4220165) " stroke-linecap="round" />
<path d="m 38.419018 24.950253 c 0.25867 -0.452676 0.19106 -0.646679 0.53792 -0.870078 c 0.0999 0.408584 0.34685 1.105234 0.30864 1.60788 c -0.0176 0.214579 -0.0176 0.132275 -0.0588 0.285126 l -0.0764 0.167549 c -1.16108 0.235156 -3.42446 -0.358613 -4.00941 -1.078778 l 3.29806 -0.111699 z" style="stroke: none; stroke-width: 1; stroke-dasharray: NaN; stroke-linecap: butt; stroke-linejoin: miter; stroke-miterlimit: 10; fill: rgba(255,239,247,1); fill-rule: evenodd; opacity: 1;" transform="translate(377.15 267.83) scale(10.82 10.82) translate(-37.19526348993812, -25.136574607338176) " stroke-linecap="round" />
<path d="m 25.673558 26.999049 c 0.28219 -1.775427 3.00118 -3.865376 4.05938 -3.753677 c 0.0941 1.319813 -0.12052 2.51029 -0.74956 3.295123 c -0.4997 0.626103 -1.57554 1.402118 -2.83069 1.305116 c 0.0382 -0.396826 -0.003 -0.21458 0.22634 -0.487949 c 0.38213 -0.452675 0.81423 -0.755438 0.9759 -1.164022 l -1.68137 0.805409 z" style="stroke: none; stroke-width: 1; stroke-dasharray: NaN; stroke-linecap: butt; stroke-linejoin: miter; stroke-miterlimit: 10; fill: rgba(255,239,247,1); fill-rule: evenodd; opacity: 1;" transform="translate(274.54 272.28) scale(10.82 10.82) translate(-27.713823755307637, -25.54747942913407) " stroke-linecap="round" />
<path d="m 24.150928 27.42527 c -0.85244 -0.117578 -2.98942 -2.536746 -1.7284 -5.764262 c 1.87537 0.32334 3.23633 2.569079 2.46914 4.826577 c -0.16755 -0.173428 -0.27043 -0.385068 -0.42916 -0.661376 c -0.0647 -0.114639 -0.13522 -0.252793 -0.23222 -0.388008 l -0.27925 -0.299824 l 0.19695 2.286893 z" style="stroke: none; stroke-width: 1; stroke-dasharray: NaN; stroke-linecap: butt; stroke-linejoin: miter; stroke-miterlimit: 10; fill: rgba(255,239,247,1); fill-rule: evenodd; opacity: 1;" transform="translate(229.71 261.41) scale(10.82 10.82) translate(-23.57171952059109, -24.543139000000004) " stroke-linecap="round" />
<path d="m 32.766448 23.227735 c 5.22047 0.875956 4.17402 0.673134 4.88537 -1.340389 l 0.21164 2.322165 c -0.98178 0.04115 -2.24868 0.138154 -3.1893 0.102881 c -0.63786 -0.02352 -0.8936 -0.3204 -1.17872 -0.370371 c -0.0676 -0.01176 -0.41446 0.199883 -0.73193 -0.714286 z" style="stroke: none; stroke-width: 1; stroke-dasharray: NaN; stroke-linecap: butt; stroke-linejoin: miter; stroke-miterlimit: 10; fill: rgba(255,239,247,1); fill-rule: evenodd; opacity: 1;" transform="translate(356.79 245.83) scale(10.82 10.82) translate(-35.313483000000005, -23.103658660352067) " stroke-linecap="round" />
<path d="m 15.993948 22.566359 l 0.4468 0.946503 l -0.34392 0.505585 c -0.11464 -0.07349 -0.0588 -0.02352 -0.17342 -0.132275 c -0.0206 -0.02058 -0.0764 -0.08524 -0.097 -0.10876 l -0.57908 -0.728984 l 0.74368 -0.482069 z" style="stroke: none; stroke-width: 1; stroke-dasharray: NaN; stroke-linecap: butt; stroke-linejoin: miter; stroke-miterlimit: 10; fill: rgba(255,239,247,1); fill-rule: evenodd; opacity: 1;" transform="translate(146.08 247.87) scale(10.82 10.82) translate(-15.844038, -23.292403) " stroke-linecap="round" />
<path d="m 41.196798 22.804454 c -1.74898 0.0088 -1.70488 -0.74662 -1.71076 -1.807762 c 0.56143 0.185186 1.505 1.308056 1.71076 1.807762 z" style="stroke: none; stroke-width: 1; stroke-dasharray: NaN; stroke-linecap: butt; stroke-linejoin: miter; stroke-miterlimit: 10; fill: rgba(255,239,247,1); fill-rule: evenodd; opacity: 1;" transform="translate(411.2 232.81) scale(10.82 10.82) translate(-40.341418000000004, -21.90061104339592) " stroke-linecap="round" />
<path d="m 32.531298 21.07604 c 0.0647 0.831864 -0.69077 1.531453 -1.49912 1.299236 c -1.04057 -0.299823 -0.50265 -1.190477 -0.3057 -2.089948 c 1.00235 0.576132 1.28747 0.452675 1.80188 0.790712 z" style="stroke: none; stroke-width: 1; stroke-dasharray: NaN; stroke-linecap: butt; stroke-linejoin: miter; stroke-miterlimit: 10; fill: rgba(255,239,247,1); fill-rule: evenodd; opacity: 1;" transform="translate(315.23 226.88) scale(10.82 10.82) translate(-31.473263188130936, -21.352846742623488) " stroke-linecap="round" />
<path d="m 32.834058 21.252407 c 0.51734 -0.467373 0.74662 -0.637861 1.5197 -0.664316 l 0.57613 0.07936 c 0.1264 0.737802 -0.18519 1.322753 -0.80835 1.469725 c -0.20282 0.04703 -0.90535 0.06467 -1.0876 -0.0147 c -0.27924 -0.120518 -0.18518 -0.435039 -0.19988 -0.873017 z" style="stroke: none; stroke-width: 1; stroke-dasharray: NaN; stroke-linecap: butt; stroke-linejoin: miter; stroke-miterlimit: 10; fill: rgba(255,239,247,1); fill-rule: evenodd; opacity: 1;" transform="translate(341.42 227.21) scale(10.82 10.82) translate(-33.893881601283994, -21.382661698832187) " stroke-linecap="round" />
<path d="m 29.953398 20.649819 c -0.0558 0.393887 -0.40858 0.884775 -0.94356 0.646679 c -0.29689 -0.132275 -0.52029 -0.711347 -0.63492 -1.093475 c 0.48794 0.03821 0.75837 0.382128 1.57554 0.443857 z" style="stroke: none; stroke-width: 1; stroke-dasharray: NaN; stroke-linecap: butt; stroke-linejoin: miter; stroke-miterlimit: 10; fill: rgba(255,239,247,1); fill-rule: evenodd; opacity: 1;" transform="translate(290.24 220.7) scale(10.82 10.82) translate(-29.164158, -20.78103016959345) " stroke-linecap="round" />
<path d="m 12.105058 19.912017 c 0.52028 -0.379189 0.92005 -1.017049 1.505 -1.2816 c 0.71135 1.640213 0.91417 1.575545 1.53733 2.616111 c 0.34392 0.576132 0.41152 1.578484 -0.34098 0.975897 l -1.91946 -1.616697 c -0.80835 -0.532041 -0.54967 -0.09994 -0.78189 -0.690771 z" style="stroke: none; stroke-width: 1; stroke-dasharray: NaN; stroke-linecap: butt; stroke-linejoin: miter; stroke-miterlimit: 10; fill: rgba(255,239,247,1); fill-rule: evenodd; opacity: 1;" transform="translate(123.42 217.87) scale(10.82 10.82) translate(-13.749821059819155, -20.51957903784083) " stroke-linecap="round" />
<path d="m 32.922238 20.314722 c -0.91122 0.03527 -1.93709 -0.255732 -1.80188 -1.266903 c 0.0823 -0.614345 0.40271 -0.343916 0.94063 -0.194004 c 0.42916 0.117578 0.79071 0.138155 1.20811 0.241035 c 0.0206 0.925927 -0.0794 0.649619 -0.34392 1.222811 z" style="stroke: none; stroke-width: 1; stroke-dasharray: NaN; stroke-linecap: butt; stroke-linejoin: miter; stroke-miterlimit: 10; fill: rgba(255,239,247,1); fill-rule: evenodd; opacity: 1;" transform="translate(322.98 206.73) scale(10.82 10.82) translate(-32.18999723219587, -19.490590063497702) " stroke-linecap="round" />
<path d="m 36.434888 18.298259 l 1.46678 0.32334 c 0.003 0.711347 -0.0852 1.199295 -0.56143 1.446209 c -0.46443 0.241035 -1.22281 0.09406 -1.61376 -0.102881 l 0.70841 -1.666668 z" style="stroke: none; stroke-width: 1; stroke-dasharray: NaN; stroke-linecap: butt; stroke-linejoin: miter; stroke-miterlimit: 10; fill: rgba(255,239,247,1); fill-rule: evenodd; opacity: 1;" transform="translate(373.03 204.08) scale(10.82 10.82) translate(-36.81410937141523, -19.245691592121247) " stroke-linecap="round" />
<path d="m 33.839348 18.72154 c 1.26985 -0.340976 1.94298 -0.517343 1.83422 0.296885 c -0.10582 0.784833 -0.93474 1.06408 -1.77543 1.087596 l -0.0558 -1.384481 z" style="stroke: none; stroke-width: 1; stroke-dasharray: NaN; stroke-linecap: butt; stroke-linejoin: miter; stroke-miterlimit: 10; fill: rgba(255,239,247,1); fill-rule: evenodd; opacity: 1;" transform="translate(350.82 204.35) scale(10.82 10.82) translate(-34.76216268519968, -19.270804091934046) " stroke-linecap="round" />
<path d="m 29.068628 17.939646 l 1.63433 0.21458 c 0.05 0.937685 -0.0441 1.463846 -0.70547 1.87243 c -0.5291 -0.02352 -1.13169 -0.252793 -1.47266 -0.570253 l 0.54674 -1.516757 z" style="stroke: none; stroke-width: 1; stroke-dasharray: NaN; stroke-linecap: butt; stroke-linejoin: miter; stroke-miterlimit: 10; fill: rgba(255,239,247,1); fill-rule: evenodd; opacity: 1;" transform="translate(295.16 201.24) scale(10.82 10.82) translate(-29.61957926321126, -18.983151) " stroke-linecap="round" />
<path d="m 38.812898 17.604549 c 0.43798 0.355674 0.98766 1.06996 0.51441 1.731336 c -0.56732 -0.114638 -0.84657 -0.623163 -1.09054 -1.216932 l 0.57319 -0.514404 z" style="stroke: none; stroke-width: 1; stroke-dasharray: NaN; stroke-linecap: butt; stroke-linejoin: miter; stroke-miterlimit: 10; fill: rgba(255,239,247,1); fill-rule: evenodd; opacity: 1;" transform="translate(395.31 195.69) scale(10.82 10.82) translate(-38.87302004032131, -18.470216999999998) " stroke-linecap="round" />
<path d="m 28.025118 19.056637 c -0.36743 -0.358613 -0.34979 -1.137567 -0.39095 -1.625515 l 0.92299 0.223398 c 0 0.711347 -0.0823 1.155204 -0.53204 1.399178 z" style="stroke: none; stroke-width: 1; stroke-dasharray: NaN; stroke-linecap: butt; stroke-linejoin: miter; stroke-miterlimit: 10; fill: rgba(255,239,247,1); fill-rule: evenodd; opacity: 1;" transform="translate(278.67 193.24) scale(10.82 10.82) translate(-28.095663, -18.2438795) " stroke-linecap="round" />
<path d="m 8.3014076 17.60161 c 0.05 0.517343 0.18225 0.643739 -0.19988 0.922987 c -0.14697 0.10582 -0.55262 0.332158 -0.70841 0.435039 c -1.64609 1.108172 -0.97296 2.589655 -1.72839 2.839508 c -0.61141 0.202822 -1.39918 0.01764 -1.70489 -0.361552 c -0.94062 -1.172841 -0.54673 -4.282779 4.34157 -3.835982 z" style="stroke: none; stroke-width: 1; stroke-dasharray: NaN; stroke-linecap: butt; stroke-linejoin: miter; stroke-miterlimit: 10; fill: rgba(255,239,247,1); fill-rule: evenodd; opacity: 1;" transform="translate(39.09 209.22) scale(10.82 10.82) translate(-5.958249873931894, -19.720279774003043) " stroke-linecap="round" />
<path d="m 32.172688 16.419951 c 1.4462 -0.03233 1.85773 0.890653 1.21693 1.945916 c -0.68489 0.149912 -1.32863 0.04997 -1.91652 -0.276309 l 0.69959 -1.669607 z" style="stroke: none; stroke-width: 1; stroke-dasharray: NaN; stroke-linecap: butt; stroke-linejoin: miter; stroke-miterlimit: 10; fill: rgba(255,239,247,1); fill-rule: evenodd; opacity: 1;" transform="translate(327.18 184.39) scale(10.82 10.82) translate(-32.57793513032483, -17.42655119507512) " stroke-linecap="round" />
<path d="m 11.111528 15.793848 c 3.44209 -0.523222 2.38095 3.230455 0.17342 3.835982 c -2.9129904 0.799531 -3.0099904 -3.403883 -0.17342 -3.835982 z" style="stroke: none; stroke-width: 1; stroke-dasharray: NaN; stroke-linecap: butt; stroke-linejoin: miter; stroke-miterlimit: 10; fill: rgba(255,239,247,1); fill-rule: evenodd; opacity: 1;" transform="translate(95.66 187.76) scale(10.82 10.82) translate(-11.185343109223366, -17.73733859913558) " stroke-linecap="round" />
<path d="m 37.069808 16.346464 c 0.77307 -0.485009 1.63139 0.646679 0.58201 1.134628 c -0.7231 0.335098 -1.796 -0.37331 -0.58201 -1.134628 z" style="stroke: none; stroke-width: 1; stroke-dasharray: NaN; stroke-linecap: butt; stroke-linejoin: miter; stroke-miterlimit: 10; fill: rgba(255,239,247,1); fill-rule: evenodd; opacity: 1;" transform="translate(378.61 178.66) scale(10.82 10.82) translate(-37.32970297865887, -16.89731330137632) " stroke-linecap="round" />
<path d="m 34.177388 16.490498 c 0.28807 -0.144034 0.67901 -0.302764 1.06702 -0.305703 c 0.82893 1.213993 0.49971 1.790125 -1.0582 1.866551 c 0.34979 -1.102294 -0.0794 -0.825986 -0.009 -1.560848 z" style="stroke: none; stroke-width: 1; stroke-dasharray: NaN; stroke-linecap: butt; stroke-linejoin: miter; stroke-miterlimit: 10; fill: rgba(255,239,247,1); fill-rule: evenodd; opacity: 1;" transform="translate(352.61 181.05) scale(10.82 10.82) translate(-34.927722132591086, -17.118070499999998) " stroke-linecap="round" />
<path d="m 29.553638 15.805606 c 0.97295 0.09406 2.5485 0.09994 1.78718 1.164022 c -0.34098 0.476191 -1.60494 0.920048 -2.41329 0.097 l 0.62611 -1.263964 z" style="stroke: none; stroke-width: 1; stroke-dasharray: NaN; stroke-linecap: butt; stroke-linejoin: miter; stroke-miterlimit: 10; fill: rgba(255,239,247,1); fill-rule: evenodd; opacity: 1;" transform="translate(301.82 176.14) scale(10.82 10.82) translate(-30.23477759223531, -16.66394807708102) " stroke-linecap="round" />
<path d="m 8.3014076 13.96551 l 0.0911 -0.123457 c 0.17931 -0.10876 -0.27631 -0.185185 0.23222 -0.07349 l 0.0118 0.314521 l 0.74956 1.651971 c -0.0823 0.21458 -0.0529 0.120517 -0.16461 0.279248 c -0.41152 0.570253 -0.68783 0.925926 -1.18166 0.984715 c -0.73192 0.08818 -1.80188 0.08231 -2.5632 0.09994 c 0.0999 -1.28454 2.26044 -1.796004 2.82775 -3.127575 z" style="stroke: none; stroke-width: 1; stroke-dasharray: NaN; stroke-linecap: butt; stroke-linejoin: miter; stroke-miterlimit: 10; fill: rgba(255,239,247,1); fill-rule: evenodd; opacity: 1;" transform="translate(55.03 162.53) scale(10.82 10.82) translate(-7.431352599999999, -15.406345736376938) " stroke-linecap="round" />
<path d="m 32.331418 15.787969 c 0.75249 -1.269842 0.72898 -1.516756 1.53145 -1.504998 c 0.17931 0.205761 0.78777 0.95826 0.91417 1.240447 c -0.47031 0.611406 -1.70488 0.840683 -2.44856 0.264551 z" style="stroke: none; stroke-width: 1; stroke-dasharray: NaN; stroke-linecap: butt; stroke-linejoin: miter; stroke-miterlimit: 10; fill: rgba(255,239,247,1); fill-rule: evenodd; opacity: 1;" transform="translate(337.73 160.31) scale(10.82 10.82) translate(-33.552758, -15.201199981151705) " stroke-linecap="round" />
<path d="m 27.528348 17.06369 c -0.12933 -0.796591 -0.0558 -1.604939 0.22634 -2.225163 c 0.5291 -0.03821 0.99941 0.129335 1.40506 0.270429 c -0.0588 1.049384 -0.57613 2.001765 -1.6314 1.954734 z" style="stroke: none; stroke-width: 1; stroke-dasharray: NaN; stroke-linecap: butt; stroke-linejoin: miter; stroke-miterlimit: 10; fill: rgba(255,239,247,1); fill-rule: evenodd; opacity: 1;" transform="translate(281.03 168.4) scale(10.82 10.82) translate(-28.31322093060077, -15.949182365001093) " stroke-linecap="round" />
<path d="m 35.555988 15.058985 c 0.4615 -0.138154 0.52322 -0.311581 1.02293 -0.390946 c 0.18519 0.332157 0.62316 0.984715 0.0147 1.249266 c -0.65256 0.282187 -0.9465 -0.317461 -1.03469 -0.85832 z" style="stroke: none; stroke-width: 1; stroke-dasharray: NaN; stroke-linecap: butt; stroke-linejoin: miter; stroke-miterlimit: 10; fill: rgba(255,239,247,1); fill-rule: evenodd; opacity: 1;" transform="translate(366.71 161.69) scale(10.82 10.82) translate(-36.23061399963028, -15.328760263407862) " stroke-linecap="round" />
<path d="m 18.980428 18.633357 c 0 -1.23163 0.72311 -3.027634 1.34921 -3.606706 c -0.0852 1.067021 -0.37625 1.992948 -0.42328 3.295124 c -0.0941 2.739567 -0.0676 3.909468 1.21399 6.281605 c 0.23222 0.432099 0.43798 0.784833 0.70253 1.164022 c 0.25867 0.37037 0.43798 0.69077 0.49677 1.27866 c -1.34333 0.152852 -2.22516 -1.422693 -2.62493 -2.466198 c -0.7525 -1.960613 -0.71429 -3.888892 -0.71429 -5.946507 z" style="stroke: none; stroke-width: 1; stroke-dasharray: NaN; stroke-linecap: butt; stroke-linejoin: miter; stroke-miterlimit: 10; fill: rgba(255,239,247,1); fill-rule: evenodd; opacity: 1;" transform="translate(198.09 223.51) scale(10.82 10.82) translate(-20.649875618753057, -21.041527804788455) " stroke-linecap="round" />
<path d="m 29.935758 14.920831 c 0.18519 -0.179306 0.80541 -0.828925 1.0876 -0.831864 c 0.23516 -0.0029 1.1552 0.370371 1.34039 0.499706 c -0.4468 1.593182 -2.07819 0.978837 -2.42799 0.332158 z" style="stroke: none; stroke-width: 1; stroke-dasharray: NaN; stroke-linecap: butt; stroke-linejoin: miter; stroke-miterlimit: 10; fill: rgba(255,239,247,1); fill-rule: evenodd; opacity: 1;" transform="translate(311.72 156.44) scale(10.82 10.82) translate(-31.149753, -14.843458982272665) " stroke-linecap="round" />
<path d="m 35.605958 13.442288 l 0.39389 0.396826 c -0.12346 0.388007 -0.13228 0.249853 -0.36155 0.549677 c -0.65844 0.01176 -0.87302 -0.220459 -1.09936 -0.667255 l 1.06996 -0.279248 z" style="stroke: none; stroke-width: 1; stroke-dasharray: NaN; stroke-linecap: butt; stroke-linejoin: miter; stroke-miterlimit: 10; fill: rgba(255,239,247,1); fill-rule: evenodd; opacity: 1;" transform="translate(356.31 146.4) scale(10.82 10.82) translate(-35.269393, -13.91575227207385) " stroke-linecap="round" />
<path d="m 27.995728 14.274152 c 0.003 -0.928866 1.20223 -1.734275 2.13698 -1.895945 c 0.15285 0.646679 0.39388 1.375663 -0.16755 1.766609 c -0.54086 0.37625 -1.33745 0.264551 -1.97237 0.129336 z" style="stroke: none; stroke-width: 1; stroke-dasharray: NaN; stroke-linecap: butt; stroke-linejoin: miter; stroke-miterlimit: 10; fill: rgba(255,239,247,1); fill-rule: evenodd; opacity: 1;" transform="translate(290.14 140.7) scale(10.82 10.82) translate(-29.155135100008284, -13.389773846580903) " stroke-linecap="round" />
<path d="m 21.384898 23.936124 c -0.24397 -0.214579 -0.27337 -0.37037 -0.41446 -0.737802 c -0.78483 -2.037038 -0.92005 -4.43269 -0.49383 -6.507942 c 0.3645 -1.772488 1.97531 -4.553208 3.30982 -5.208705 c 1.16991 2.095828 0.49971 2.34862 0.32628 4.797182 c -0.13521 1.913582 0.006 3.762496 0.0353 5.637865 c -0.40858 -0.09406 -1.51675 -1.061141 -2.06349 -1.296297 l -0.69959 3.315699 z" style="stroke: none; stroke-width: 1; stroke-dasharray: NaN; stroke-linecap: butt; stroke-linejoin: miter; stroke-miterlimit: 10; fill: rgba(255,239,247,1); fill-rule: evenodd; opacity: 1;" transform="translate(216.49 187.45) scale(10.82 10.82) translate(-22.34979885413472, -17.7088995) " stroke-linecap="round" />
<path d="m 9.9122276 13.016068 l -0.2087 2.122283 c -0.006 -0.0147 -0.0235 0.04409 -0.0382 0.06467 c -0.27043 -0.338036 -0.59083 -1.460906 -0.62316 -1.984128 l 0.87007 -0.202822 z" style="stroke: none; stroke-width: 1; stroke-dasharray: NaN; stroke-linecap: butt; stroke-linejoin: miter; stroke-miterlimit: 10; fill: rgba(255,239,247,1); fill-rule: evenodd; opacity: 1;" transform="translate(77.18 148.49) scale(10.82 10.82) translate(-9.477202599999998, -14.1095445) " stroke-linecap="round" />
<path d="m 31.505428 13.598079 c -0.49089 -0.264551 -0.74368 -0.53792 -0.69665 -1.296298 c 0.89359 0.185186 2.24868 0.764257 2.28101 1.540272 c -0.59964 0.202822 -1.09935 0.02058 -1.5873 -0.241035 z" style="stroke: none; stroke-width: 1; stroke-dasharray: NaN; stroke-linecap: butt; stroke-linejoin: miter; stroke-miterlimit: 10; fill: rgba(255,239,247,1); fill-rule: evenodd; opacity: 1;" transform="translate(320.35 137.73) scale(10.82 10.82) translate(-31.946501492325684, -13.115330722163517) " stroke-linecap="round" />
<path d="m 33.330828 12.234174 c 0.72016 -0.0088 1.44033 0.120517 1.61376 0.679013 c -0.6702 0.576132 -1.61082 0.120517 -1.61376 -0.679013 z" style="stroke: none; stroke-width: 1; stroke-dasharray: NaN; stroke-linecap: butt; stroke-linejoin: miter; stroke-miterlimit: 10; fill: rgba(255,239,247,1); fill-rule: evenodd; opacity: 1;" transform="translate(344.06 133.27) scale(10.82 10.82) translate(-34.137707999999996, -12.702898357222718) " stroke-linecap="round" />
<path d="m 10.361968 15.238292 c -0.15579 -1.616698 0.28512 -2.904177 1.2669 -3.459733 c 1.41681 -0.79953 3.05997 -0.423281 3.35685 0.69371 c -0.74956 0.42916 -1.45503 1.111113 -2.08407 1.722518 c -0.25573 0.246914 -0.68489 0.711347 -1.03175 0.840683 c -0.26161 0.09994 -1.22575 0.252793 -1.50793 0.205761 z" style="stroke: none; stroke-width: 1; stroke-dasharray: NaN; stroke-linecap: butt; stroke-linejoin: miter; stroke-miterlimit: 10; fill: rgba(255,239,247,1); fill-rule: evenodd; opacity: 1;" transform="translate(111.61 139.74) scale(10.82 10.82) translate(-12.658527354221471, -13.30092235526607) " stroke-linecap="round" />
<path d="m 26.102718 24.715079 c -0.35273 -0.776015 -1.01999 -1.798944 -1.23751 -2.807175 c -0.41446 -1.928279 -0.39976 -5.496772 0.0823 -7.486779 c 0.35274 -1.455028 -0.28512 -2.016463 -0.31746 -3.224577 c 0.44386 0.296885 0.84362 0.634921 1.37566 0.949442 c 0.48501 0.288067 1.62846 0.652558 1.6314 0.64374 c 0.0118 -0.02058 0.047 0.02058 0.0676 0.03527 c -0.76426 1.951795 -1.14933 2.78366 -0.66726 5.349799 c 0.44974 2.392713 1.61964 4.068199 1.68431 4.606119 c -0.39977 0.411523 -0.92593 0.590829 -1.33157 0.928866 c -0.60847 0.508525 -0.74368 0.85244 -1.29042 1.008231 z" style="stroke: none; stroke-width: 1; stroke-dasharray: NaN; stroke-linecap: butt; stroke-linejoin: miter; stroke-miterlimit: 10; fill: rgba(255,239,247,1); fill-rule: evenodd; opacity: 1;" transform="translate(262.98 190.14) scale(10.82 10.82) translate(-26.645468167041095, -17.957281499999997) " stroke-linecap="round" />
<path d="m 31.531888 10.773267 c 0.18812 0.226338 0.13815 0.0088 0.0852 0.352734 c -0.32628 0.06467 -0.21458 0.102881 -0.46444 -0.08524 c -0.89359 -0.167548 -1.2669 -0.734862 -1.58142 -1.5314533 c -0.93475 -2.3721362 0.23221 -1.8371562 0.67019 -1.8459752 c 0.38213 -0.526161 0.6555 -0.567314 0.56438 -1.578484 l -0.77896 -0.04409 l -0.0735 -0.74956 c -1.10229 0.0059 -0.95238 0.681952 -1.49912 0.878896 c -0.29982 -2.789538 2.63081 -1.934159 3.08643 -0.920048 c 0.25573 0.573193 0.12051 2.175193 0.0441 2.874782 c -0.25574 2.4338645 -0.0941 0.8465611 -0.0588 2.6455055 z" style="stroke: none; stroke-width: 1; stroke-dasharray: NaN; stroke-linecap: butt; stroke-linejoin: miter; stroke-miterlimit: 10; fill: rgba(255,239,247,1); fill-rule: evenodd; opacity: 1;" transform="translate(299.94 79.47) scale(10.82 10.82) translate(-30.061102922350813, -7.731308975571399) " stroke-linecap="round" />
<path d="m 30.520708 2.9690275 c 0.29689 -0.279248 0.70547 -0.755439 1.13463 -0.787773 l 0.14991 0.03527 c 0.0823 0.48501 -0.24691 1.011171 -0.56731 1.290419 l -0.71723 -0.53498 z" style="stroke: none; stroke-width: 1; stroke-dasharray: NaN; stroke-linecap: butt; stroke-linejoin: miter; stroke-miterlimit: 10; fill: rgba(255,239,247,1); fill-rule: evenodd; opacity: 1;" transform="translate(311.94 26.57) scale(10.82 10.82) translate(-31.16937846267788, -2.844099) " stroke-linecap="round" />
</svg>