<?xml version="1.0" encoding="UTF-8" standalone="no"?>
<svg
   xmlns:dc="http://purl.org/dc/elements/1.1/"
   xmlns:cc="http://creativecommons.org/ns#"
   xmlns:rdf="http://www.w3.org/1999/02/22-rdf-syntax-ns#"
   xmlns:svg="http://www.w3.org/2000/svg"
   xmlns="http://www.w3.org/2000/svg"
   xmlns:sodipodi="http://sodipodi.sourceforge.net/DTD/sodipodi-0.dtd"
   xmlns:inkscape="http://www.inkscape.org/namespaces/inkscape"
   version="1.1"
   width="598.9599"
   height="401.0592"
   viewBox="0 0 598.9599 401.0592"
   xml:space="preserve"
   id="svg2"
   inkscape:version="0.91 r13725"
   sodipodi:docname="flower.svg"><metadata
     id="metadata166"><rdf:RDF><cc:Work
         rdf:about=""><dc:format>image/svg+xml</dc:format><dc:type
           rdf:resource="http://purl.org/dc/dcmitype/StillImage" /><dc:title /></cc:Work></rdf:RDF></metadata><sodipodi:namedview
     pagecolor="#ffffff"
     bordercolor="#666666"
     borderopacity="1"
     objecttolerance="10"
     gridtolerance="10"
     guidetolerance="10"
     inkscape:pageopacity="0"
     inkscape:pageshadow="2"
     inkscape:window-width="1393"
     inkscape:window-height="855"
     id="namedview164"
     showgrid="false"
     fit-margin-top="0"
     fit-margin-left="0"
     fit-margin-right="0"
     fit-margin-bottom="0"
     inkscape:zoom="1.5733333"
     inkscape:cx="202.50428"
     inkscape:cy="169.82873"
     inkscape:window-x="47"
     inkscape:window-y="1"
     inkscape:window-maximized="1"
     inkscape:current-layer="svg2" /><desc
     id="desc4">Created with Fabric.js 1.6.2</desc><defs
     id="defs6" /><path
     d="m 598.89562,313.65943 c -14.56665,-8.68273 -36.06664,-18.57404 -52.79609,-25.73012 -17.96964,-7.69678 -35.43052,-16.09326 -53.75019,-23.69461 -13.86691,-5.75669 -28.36993,-12.34029 -42.90465,-16.53853 -4.99343,-1.46302 -11.00448,-2.41717 -15.20275,-3.88019 -8.52367,-2.98966 -22.58145,-23.15393 -26.77972,-31.61403 -2.28994,-4.6117 -3.14862,-9.38242 -5.08875,-13.99413 -3.27586,-7.76037 -23.18575,-38.42025 -29.54671,-49.01127 C 345.47455,103.84284 326.20089,122.51228 317.77254,106.64167 307.72227,87.813185 316.05508,63.069013 315.95965,57.757604 315.70538,45.131076 308.45371,37.815966 314.68754,25.412069 318.47227,17.874327 325.91459,8.5555046 327.91835,0 c -13.99416,2.9578533 -28.33813,9.7322878 -39.43804,15.997836 -7.41051,4.166436 -13.42167,2.385366 -22.26345,4.611711 -42.36398,10.686427 -47.48454,49.806386 -47.57997,87.367923 -35.84407,29.29226 -61.47881,68.28501 -52.70065,117.90057 3.68929,20.83218 12.02221,36.63919 13.32623,43.41362 -9.70045,-0.22267 -18.57404,-31.20055 -22.1362,-36.86182 -4.67532,1.24039 -3.40311,2.76703 -7.85575,4.5481 -7.665,-8.96897 -3.88027,-13.42165 -3.24417,-25.92096 l -10.40018,5.66126 c -4.26178,-8.26926 -16.09323,-17.61988 -17.04734,-31.23236 -2.449,-35.30338 2.03546,-18.44681 -13.73967,-33.74494 7.21964,-13.51706 23.78993,-18.51042 31.13693,-23.5674 -2.22632,-12.40388 -18.70129,-24.90319 -35.39882,-20.60953 -16.6021,4.26184 -21.56372,19.719 -38.547445,18.25598 0.25427,-5.97931 0.349486,-18.3832 1.335729,-23.66281 1.622026,-8.58731 9.032644,-6.869852 7.219753,-17.842523 -3.085107,-2.162734 -7.315186,-4.611701 -13.040048,-2.798831 -6.011051,4.007414 0.127676,8.682725 0.127676,26.493444 0,16.44311 2.226432,18.41501 -4.261781,26.55705 -2.576242,3.2759 -4.611701,5.75668 -6.838024,8.84175 -9.732373,13.38984 -18.828531,10.62282 -24.394339,21.56369 -2.608053,5.12058 -1.558513,8.04662 -4.102836,11.64057 -4.802565,6.77444 -15.043695,15.26633 -17.52450456,28.36993 -2.16270164,11.41794 2.35356636,16.79296 8.01480676,22.35881 6.7426998,6.64721 13.9305338,5.56584 25.0940688,5.56584 5.025132,-1.68566 1.04954,-33.49051 22.454205,-37.87957 l 7.156131,6.83804 c 15.393511,11.35434 18.987482,-2.57619 44.176878,18.63765 20.03712,16.88837 8.49197,13.1672 8.14205,27.47939 16.41134,-2.89424 21.97715,0 17.81069,16.95197 -3.18043,12.94459 -4.0074,22.2316 -2.63976,36.51197 -9.28702,-0.60429 -10.62285,-4.86614 -18.09699,-7.63316 -18.86023,-6.93346 -43.445438,-6.36097 -61.033456,0.25449 2.894241,6.71082 20.832178,11.95862 25.761883,24.93499 -26.779613,5.05698 -42.363983,15.7434 -61.574136,26.81149 9.19159,4.48448 75.18667,-12.24486 82.151937,-4.92975 1.940026,1.27219 1.526593,-0.28619 -0.921864,4.19824 -1.04954,1.9401 -1.971945,3.40312 -2.894242,5.15238 -4.134647,7.66498 -14.439398,28.46534 -14.18502,35.62143 14.757506,-0.85867 41.378168,-14.59842 53.368568,-24.48973 5.12056,-4.19824 8.39643,-9.92311 12.46745,-12.94457 9.03265,16.60214 16.25229,30.91431 27.76564,41.21909 -4.77065,4.77072 -13.54881,5.02516 -16.69753,11.41793 51.04681,-1.01773 121.74902,-15.23452 168.56575,-15.23452 44.17687,0 122.76664,9.8595 171.87343,11.73599 2.09908,-4.51629 5.37494,-7.95122 6.86983,-12.43569 -5.02524,-4.19824 -11.03629,-5.97932 -16.25229,-9.8277 -12.49937,-9.1916 -24.45796,-17.96974 -33.10887,-30.91431 -1.55841,-2.32176 -2.89424,-4.77073 -5.40687,-5.91571 -1.97183,10.08213 -0.9857,19.40096 -0.70005,29.54671 -2.51251,-0.63611 -19.55996,-10.432 -20.89569,-12.30848 -2.09919,-2.92605 -12.78556,-41.3145 5.66124,-51.1422 9.95483,-5.31141 15.04369,1.20858 21.8181,5.69307 l 59.88848,39.97869 c 4.51638,3.11688 15.32999,10.68644 20.13256,12.46751 6.4881,-3.46673 11.86315,-6.74263 18.82842,-10.432 6.29735,-3.3395 13.54891,-5.56585 18.92386,-9.06437 6.1384,-3.97561 23.9809,-21.78632 25.88923,-29.57852 z"
     style="opacity:1;fill:#ffffff;fill-rule:evenodd;stroke:none;stroke-width:1;stroke-linecap:butt;stroke-linejoin:miter;stroke-miterlimit:10;stroke-dasharray:none;fill-opacity:1"
     id="path8"
     inkscape:connector-curvature="0" /><path
     d="m 208.93658,389.81147 -3.88027,0.85879 c 1.8447,-3.05327 -2.22632,-1.46303 4.26189,-3.53034 6.93346,-0.12725 20.41875,-4.42088 27.73382,-6.04293 8.96892,-1.9719 19.21016,-3.81658 28.78337,-5.08877 17.01564,-2.25815 44.49498,-6.42459 58.64819,2.54438 l -7.18795,2.09913 c -2.41718,0.3181 -4.48445,0.47705 -6.71078,0.73154 l -42.77752,4.38906 c -16.76115,1.78108 -42.39589,4.77074 -58.83905,3.97562 z"
     style="opacity:1;fill-rule:evenodd;stroke:none;stroke-width:1;stroke-linecap:butt;stroke-linejoin:miter;stroke-miterlimit:10;stroke-dasharray:none"
     id="path10"
     inkscape:connector-curvature="0" /><path
     d="m 380.48943,370.56737 c 14.37577,2.38537 63.10083,8.61911 69.27094,14.59843 -11.64059,1.87649 -71.05202,-5.12059 -87.11345,-11.03628 l -4.0074,-2.25815 c 3.46673,-7.63316 2.09908,-4.5799 21.88172,-1.304 z"
     style="opacity:1;fill-rule:evenodd;stroke:none;stroke-width:1;stroke-linecap:butt;stroke-linejoin:miter;stroke-miterlimit:10;stroke-dasharray:none"
     id="path12"
     inkscape:connector-curvature="0" /><path
     d="m 429.66008,365.99184 c 8.74635,1.24038 16.85659,6.67901 22.19972,11.32252 -4.77064,0.38162 -9.76407,-1.39941 -14.24853,-2.09912 -7.41051,-1.14497 -6.93346,-1.62205 -7.95119,-9.2234 z"
     style="opacity:1;fill-rule:evenodd;stroke:none;stroke-width:1;stroke-linecap:butt;stroke-linejoin:miter;stroke-miterlimit:10;stroke-dasharray:none"
     id="path14"
     inkscape:connector-curvature="0" /><path
     d="m 250.98126,372.28008 c 0.57238,-2.79883 7.02889,-10.05033 9.41427,-12.88097 6.58354,0.0952 25.15758,1.84469 29.48309,8.20566 -11.48164,2.70341 -26.33447,4.13462 -38.86555,4.67531 z"
     style="opacity:1;fill-rule:evenodd;stroke:none;stroke-width:1;stroke-linecap:butt;stroke-linejoin:miter;stroke-miterlimit:10;stroke-dasharray:none"
     id="path16"
     inkscape:connector-curvature="0" /><path
     d="m 393.07984,359.8537 c 5.91573,2.22634 13.86691,6.07473 17.27002,10.55921 -5.88392,0.98592 -12.9127,-2.22634 -17.61983,-3.84838 l 0.34948,-6.74264 z"
     style="opacity:1;fill-rule:evenodd;stroke:none;stroke-width:1;stroke-linecap:butt;stroke-linejoin:miter;stroke-miterlimit:10;stroke-dasharray:none"
     id="path18"
     inkscape:connector-curvature="0" /><path
     d="m 457.02448,357.36888 c 3.18043,1.59023 8.9371,7.82398 11.54516,10.62281 2.41708,2.608 8.49186,8.23745 9.95483,11.95862 -15.0437,-2.19453 -22.04066,-6.04291 -21.49999,-22.58143 z"
     style="opacity:1;fill-rule:evenodd;stroke:none;stroke-width:1;stroke-linecap:butt;stroke-linejoin:miter;stroke-miterlimit:10;stroke-dasharray:none"
     id="path20"
     inkscape:connector-curvature="0" /><path
     d="m 203.13556,383.06778 c -3.40321,1.08135 -6.17021,2.06732 -9.57332,2.86244 -0.0974,-7.2197 -3.24405,-29.99198 -2.22632,-33.74495 9.73227,-0.6043 30.62807,-1.36761 38.80193,0.66792 1.27221,2.76702 2.00365,7.88759 3.43492,11.03628 1.68564,3.65756 3.7211,5.24779 2.73518,9.60506 -2.67156,4.42087 -29.73747,8.49189 -33.14068,9.57326 z"
     style="opacity:1;fill-rule:evenodd;stroke:none;stroke-width:1;stroke-linecap:butt;stroke-linejoin:miter;stroke-miterlimit:10;stroke-dasharray:none"
     id="path22"
     inkscape:connector-curvature="0" /><path
     d="m 306.95967,354.40695 c 27.41583,8.90535 25.03045,5.02516 43.22276,9.1916 l -1.59021,5.47043 c -1.65384,2.54438 -1.90832,2.32175 -3.18043,4.67531 -22.45431,0.60429 -59.72954,-15.87062 -83.07434,-19.78261 0.31811,-4.29366 0.63622,-7.31512 2.51262,-10.33658 15.29808,-0.50887 28.81518,6.45639 42.1096,10.78185 z"
     style="opacity:1;fill-rule:evenodd;stroke:none;stroke-width:1;stroke-linecap:butt;stroke-linejoin:miter;stroke-miterlimit:10;stroke-dasharray:none"
     id="path24"
     inkscape:connector-curvature="0" /><path
     d="m 161.01202,346.1384 c 6.01116,-5.1842 -0.541,-14.12136 10.43199,-10.11395 17.01564,6.20194 16.31591,36.16211 15.83886,50.60152 -19.21015,0.82697 -39.40622,-38.42026 -33.52231,-49.52015 l 4.48446,4.45267 c 1.39946,1.97191 1.71746,2.79884 2.79881,4.54809 z"
     style="opacity:1;fill-rule:evenodd;stroke:none;stroke-width:1;stroke-linecap:butt;stroke-linejoin:miter;stroke-miterlimit:10;stroke-dasharray:none"
     id="path26"
     inkscape:connector-curvature="0" /><path
     d="m 363.24108,361.08536 c 1.71746,-8.93715 1.65384,-16.50671 5.82029,-24.20348 l 12.49927,-16.76115 c 4.96151,2.41716 35.43063,33.07704 36.79817,43.73165 -8.80986,1.39942 -21.84991,-6.6154 -28.81518,-11.2271 -1.62202,-1.08135 -2.63975,-1.87649 -3.94378,-2.73522 l -4.70713,-2.86244 4.86619,19.0193 c -8.68273,1.3358 -15.36181,-2.98965 -22.51783,-4.96156 z"
     style="opacity:1;fill-rule:evenodd;stroke:none;stroke-width:1;stroke-linecap:butt;stroke-linejoin:miter;stroke-miterlimit:10;stroke-dasharray:none"
     id="path28"
     inkscape:connector-curvature="0" /><path
     d="m 244.64402,373.20527 c -15.6798,-16.02964 -11.89508,-63.35526 -5.59773,-70.54315 4.80257,6.42458 3.84846,19.59178 7.85586,26.36622 4.26178,-4.83435 4.16646,-8.33287 8.301,-11.13171 3.59397,16.53853 8.61921,27.57481 -3.56205,44.14514 -3.56216,4.83433 -4.16646,8.39648 -6.99708,11.1953 z"
     style="opacity:1;fill-rule:evenodd;stroke:none;stroke-width:1;stroke-linecap:butt;stroke-linejoin:miter;stroke-miterlimit:10;stroke-dasharray:none"
     id="path30"
     inkscape:connector-curvature="0" /><path
     d="m 532.89116,349.28564 c -1.8764,-4.35726 -5.27951,-6.74263 -6.71078,-12.37209 6.64727,1.65386 12.65832,3.97562 15.13913,9.54146 l -8.42835,2.79883 z"
     style="opacity:1;fill-rule:evenodd;stroke:none;stroke-width:1;stroke-linecap:butt;stroke-linejoin:miter;stroke-miterlimit:10;stroke-dasharray:none"
     id="path32"
     inkscape:connector-curvature="0" /><path
     d="m 226.82218,346.80499 -38.42031,-0.82697 -3.49854,-10.4956 42.17322,0.12724 -0.25427,11.22711 z"
     style="opacity:1;fill-rule:evenodd;stroke:none;stroke-width:1;stroke-linecap:butt;stroke-linejoin:miter;stroke-miterlimit:10;stroke-dasharray:none"
     id="path34"
     inkscape:connector-curvature="0" /><path
     d="m 266.27502,324.85868 c 5.62953,0.54068 17.5245,12.40389 18.35147,17.33364 l -18.7331,-4.99336 0.41333,-12.37209 z"
     style="opacity:1;fill-rule:evenodd;stroke:none;stroke-width:1;stroke-linecap:butt;stroke-linejoin:miter;stroke-miterlimit:10;stroke-dasharray:none"
     id="path36"
     inkscape:connector-curvature="0" /><path
     d="m 330.27581,354.37711 c -10.84553,-1.52663 -17.71537,-2.95786 -26.39809,-8.11023 -5.24781,-3.11689 -15.32989,-11.7678 -17.33364,-15.58438 15.9661,-0.47706 16.41134,-0.12725 25.5075,7.41053 l 18.22423,16.28408 z"
     style="opacity:1;fill-rule:evenodd;stroke:none;stroke-width:1;stroke-linecap:butt;stroke-linejoin:miter;stroke-miterlimit:10;stroke-dasharray:none"
     id="path38"
     inkscape:connector-curvature="0" /><path
     d="m 144.77941,335.03829 c -2.95776,17.61988 -37.30704,42.84113 -53.177705,42.0142 -3.816538,-0.19087 -2.926052,-2.79882 -1.622026,-7.06068 5.852105,-19.0511 20.545991,-37.27528 42.713901,-40.26493 -1.81289,5.9475 -4.26179,8.17384 -6.01105,13.48525 l 18.09688,-8.17384 z"
     style="opacity:1;fill-rule:evenodd;stroke:none;stroke-width:1;stroke-linecap:butt;stroke-linejoin:miter;stroke-miterlimit:10;stroke-dasharray:none"
     id="path40"
     inkscape:connector-curvature="0" /><path
     d="m 46.530078,333.16126 c 9.573319,-1.9719 45.576333,-15.807 59.379732,-1.74927 l -1.46308,1.04954 c -0.22289,0.12725 -0.50854,0.34981 -0.76281,0.47706 -10.559239,5.59765 -48.406954,4.67531 -54.672492,1.90829 -2.19462,-0.95411 -1.080918,-0.44525 -2.448998,-1.68566 z"
     style="opacity:1;fill-rule:evenodd;stroke:none;stroke-width:1;stroke-linecap:butt;stroke-linejoin:miter;stroke-miterlimit:10;stroke-dasharray:none"
     id="path42"
     inkscape:connector-curvature="0" /><path
     d="m 323.35175,323.7149 c 19.01929,-3.18048 28.71974,12.72194 29.86471,26.07998 1.04954,12.34028 -20.73674,-0.66792 -24.01261,-3.05327 -2.449,-1.78107 -3.94389,-2.73521 -5.8521,-4.23004 -4.42095,-3.43493 -11.64059,-9.06439 -14.18502,-13.32624 l 14.21683,-5.47043 z"
     style="opacity:1;fill-rule:evenodd;stroke:none;stroke-width:1;stroke-linecap:butt;stroke-linejoin:miter;stroke-miterlimit:10;stroke-dasharray:none"
     id="path44"
     inkscape:connector-curvature="0" /><path
     d="m 509.98591,323.07044 c 3.24406,2.51257 4.19827,5.27959 4.42084,10.87725 -9.06435,-1.49483 -13.99405,-5.66127 -13.45337,-15.61619 2.92605,0.2863 7.0924,3.2123 9.03253,4.70713 z"
     style="opacity:1;fill-rule:evenodd;stroke:none;stroke-width:1;stroke-linecap:butt;stroke-linejoin:miter;stroke-miterlimit:10;stroke-dasharray:none"
     id="path46"
     inkscape:connector-curvature="0" /><path
     d="m 561.1738,320.18233 c 3.08511,-3.2123 11.41802,-4.07103 16.25229,-4.80253 -0.60376,5.50222 -2.60795,8.20565 -4.38903,11.79959 -4.07102,-1.14498 -3.46673,-1.39941 -6.96526,-3.02146 -4.67533,-2.13092 -3.14873,0.34981 -4.898,-4.00741 z"
     style="opacity:1;fill-rule:evenodd;stroke:none;stroke-width:1;stroke-linecap:butt;stroke-linejoin:miter;stroke-miterlimit:10;stroke-dasharray:none"
     id="path48"
     inkscape:connector-curvature="0" /><path
     d="m 156.27404,326.63808 c 2.06727,-3.68936 4.45264,-6.23375 7.50594,-9.60507 19.21004,4.73892 26.81142,3.65756 46.62587,3.59395 -5.88392,10.68643 -41.60074,10.14574 -54.13181,6.01112 z"
     style="opacity:1;fill-rule:evenodd;stroke:none;stroke-width:1;stroke-linecap:butt;stroke-linejoin:miter;stroke-miterlimit:10;stroke-dasharray:none"
     id="path50"
     inkscape:connector-curvature="0" /><path
     d="m 478.23582,301.34288 c 4.35722,1.27219 8.11024,6.90165 8.5873,13.45345 l -8.74635,-0.73154 0.15905,-12.72193 z"
     style="opacity:1;fill-rule:evenodd;stroke:none;stroke-width:1;stroke-linecap:butt;stroke-linejoin:miter;stroke-miterlimit:10;stroke-dasharray:none"
     id="path52"
     inkscape:connector-curvature="0" /><path
     d="m 211.50243,328.82669 c 4.2937,-3.53034 13.19899,-14.66203 17.96975,-15.96603 0.15905,2.44897 -0.12768,5.2796 -0.4447,8.23746 -0.0649,0.44524 -0.541,3.59394 -0.60376,3.75297 -1.49489,4.67531 -0.12768,1.49482 -1.97194,3.78477 l -14.94827,0.22267 z"
     style="opacity:1;fill-rule:evenodd;stroke:none;stroke-width:1;stroke-linecap:butt;stroke-linejoin:miter;stroke-miterlimit:10;stroke-dasharray:none"
     id="path54"
     inkscape:connector-curvature="0" /><path
     d="m 388.81961,312.58043 c 3.46673,-2.06731 24.99864,-5.3114 31.20066,-6.04291 -3.53035,16.06144 -6.52002,19.27373 -3.0851,37.78415 -10.68648,-3.21228 -24.64883,-20.32329 -28.11556,-31.74124 z"
     style="opacity:1;fill-rule:evenodd;stroke:none;stroke-width:1;stroke-linecap:butt;stroke-linejoin:miter;stroke-miterlimit:10;stroke-dasharray:none"
     id="path56"
     inkscape:connector-curvature="0" /><path
     d="m 539.19322,308.9139 c 2.19451,-2.13093 12.46745,-5.2796 16.02961,-5.8839 6.07468,-1.04954 10.20932,3.9438 12.40384,7.02887 -2.60795,2.09912 -12.3084,6.04292 -15.80694,6.45639 -4.57989,0.54067 -10.432,-5.08878 -12.59481,-7.60136 z"
     style="opacity:1;fill-rule:evenodd;stroke:none;stroke-width:1;stroke-linecap:butt;stroke-linejoin:miter;stroke-miterlimit:10;stroke-dasharray:none"
     id="path58"
     inkscape:connector-curvature="0" /><path
     d="m 272.77111,307.16543 c -4.6117,-4.89795 -7.60138,-2.48078 -10.87724,-8.71453 12.18127,-6.83805 40.96463,8.07844 44.97203,24.13988 -11.22705,2.79882 -18.22412,5.50224 -30.30995,0.44525 -0.31811,-0.12725 -29.70577,-15.55257 -10.7183,-15.93423 2.22633,-0.0314 4.67533,0.0952 6.96527,0.0638 z"
     style="opacity:1;fill-rule:evenodd;stroke:none;stroke-width:1;stroke-linecap:butt;stroke-linejoin:miter;stroke-miterlimit:10;stroke-dasharray:none"
     id="path60"
     inkscape:connector-curvature="0" /><path
     d="m 516.29083,299.2183 c 1.33583,-1.87648 0.0325,-0.44524 1.74927,-1.94009 1.65383,-1.46303 -1.11316,0.66792 1.30402,-0.98592 l 9.85951,-4.86614 c 6.1383,-1.74927 10.05027,2.6398 10.84543,7.9194 -14.50302,7.06068 -17.14278,4.26185 -23.75823,-0.12724 z"
     style="opacity:1;fill-rule:evenodd;stroke:none;stroke-width:1;stroke-linecap:butt;stroke-linejoin:miter;stroke-miterlimit:10;stroke-dasharray:none"
     id="path62"
     inkscape:connector-curvature="0" /><path
     d="m 126.23236,323.89605 c -20.35501,5.56585 -35.144329,-2.95786 -50.569646,-15.55257 -4.134651,-3.37131 -8.873595,-7.60136 -11.004485,-12.4675 13.262619,-2.54439 29.228611,-2.76702 42.395901,1.27219 10.30475,3.18049 24.33072,11.48155 27.44753,18.47862 l -20.2597,-2.41717 c 2.16271,2.16273 3.62579,2.95785 6.64727,4.86614 4.42084,2.79882 3.94378,1.78107 5.34313,5.78849 z"
     style="opacity:1;fill-rule:evenodd;stroke:none;stroke-width:1;stroke-linecap:butt;stroke-linejoin:miter;stroke-miterlimit:10;stroke-dasharray:none"
     id="path64"
     inkscape:connector-curvature="0" /><path
     d="m 167.7875,288.17681 c 4.0074,-0.60429 6.36097,2.608 8.26918,5.02517 -0.8591,6.48819 -4.73883,7.66496 -8.87348,10.65463 l 0.60376,-15.6798 z"
     style="opacity:1;fill-rule:evenodd;stroke:none;stroke-width:1;stroke-linecap:butt;stroke-linejoin:miter;stroke-miterlimit:10;stroke-dasharray:none"
     id="path66"
     inkscape:connector-curvature="0" /><path
     d="m 167.54254,311.13686 c 5.62943,-7.1879 35.49414,-31.32778 52.47797,-20.19608 -3.4031,3.9438 -9.79588,5.21599 -10.30475,8.30107 l 19.9734,-1.39942 c -3.46673,10.71823 -11.76773,15.61618 -25.34845,17.84252 -8.65091,1.43121 -30.59625,0.0638 -36.82998,-4.5799 z"
     style="opacity:1;fill-rule:evenodd;stroke:none;stroke-width:1;stroke-linecap:butt;stroke-linejoin:miter;stroke-miterlimit:10;stroke-dasharray:none"
     id="path68"
     inkscape:connector-curvature="0" /><path
     d="m 208.50994,298.12959 0,0 z"
     style="opacity:1;fill-rule:evenodd;stroke:none;stroke-width:1;stroke-linecap:butt;stroke-linejoin:miter;stroke-miterlimit:10;stroke-dasharray:none"
     id="path70"
     inkscape:connector-curvature="0" /><path
     d="m 275.60978,291.26443 c 1.5584,-4.5481 8.30099,-13.03999 11.54516,-17.33365 3.84834,-5.12057 6.99707,-11.00447 8.96891,-17.7789 2.7353,0.85878 8.93721,5.9475 12.34032,8.01482 10.74999,6.61541 27.19315,13.99413 38.99279,18.22418 19.94158,7.12428 44.46317,12.27667 66.88556,7.76038 1.20859,-4.70712 1.90832,-9.60506 1.81289,-15.17091 l 7.50594,7.60136 c 1.68565,2.03551 4.48446,5.85209 5.08876,9.50964 -7.53775,7.66498 -31.74123,13.51707 -44.24049,16.3795 -6.58365,1.52664 -7.37881,0.66792 -9.95494,5.72488 -4.19827,8.17385 -10.33657,22.48602 -15.39362,28.75158 -3.78473,-4.80253 -4.29359,-14.88467 -14.56653,-21.69091 -8.71454,-5.75668 -20.03713,-2.83063 -29.73758,-0.85878 -5.85211,-7.60136 -24.74415,-26.36622 -39.18355,-29.10144 z"
     style="opacity:1;fill-rule:evenodd;stroke:none;stroke-width:1;stroke-linecap:butt;stroke-linejoin:miter;stroke-miterlimit:10;stroke-dasharray:none"
     id="path72"
     inkscape:connector-curvature="0" /><path
     d="m 506.167,282.16126 c 3.49854,1.39941 4.51626,2.48077 5.97935,6.51999 -2.83063,3.08507 -4.54808,4.13463 -8.55549,5.75668 -1.5267,-3.56215 -3.05329,-4.38908 -4.35732,-8.23746 3.27597,-1.39941 3.81665,-2.54439 6.93346,-4.00741 z"
     style="opacity:1;fill-rule:evenodd;stroke:none;stroke-width:1;stroke-linecap:butt;stroke-linejoin:miter;stroke-miterlimit:10;stroke-dasharray:none"
     id="path74"
     inkscape:connector-curvature="0" /><path
     d="m 142.55729,314.1899 c -6.71089,-6.71082 -8.04662,-30.75529 -5.8521,-41.3145 1.74927,-8.55551 9.73226,-27.51119 18.51042,-30.94611 3.59397,15.42535 16.47486,40.0105 1.62203,64.43662 -0.12768,0.22267 -2.38538,3.18048 -2.41719,3.18048 -1.68565,1.59025 -0.34949,0.9223 -2.767,1.81288 0.0325,-5.82028 -0.85911,-19.0193 -3.24405,-23.31296 -3.56216,6.01112 -3.08511,19.11472 -5.85211,26.11179 z"
     style="opacity:1;fill-rule:evenodd;stroke:none;stroke-width:1;stroke-linecap:butt;stroke-linejoin:miter;stroke-miterlimit:10;stroke-dasharray:none"
     id="path76"
     inkscape:connector-curvature="0" /><path
     d="m 450.24154,291.83523 -2.22632,-7.824 c 7.63318,-0.92229 11.9904,2.22634 12.14945,9.57326 l -9.92313,-1.74926 z"
     style="opacity:1;fill-rule:evenodd;stroke:none;stroke-width:1;stroke-linecap:butt;stroke-linejoin:miter;stroke-miterlimit:10;stroke-dasharray:none"
     id="path78"
     inkscape:connector-curvature="0" /><path
     d="m 561.95633,332.45195 c -1.97195,2.89424 -7.347,6.99706 -11.29078,5.02516 -13.99416,-6.99706 -75.63191,-47.00756 -79.86199,-56.07194 15.99791,6.39277 83.83758,43.66806 91.15277,51.04678 z"
     style="opacity:1;fill-rule:evenodd;stroke:none;stroke-width:1;stroke-linecap:butt;stroke-linejoin:miter;stroke-miterlimit:10;stroke-dasharray:none"
     id="path80"
     inkscape:connector-curvature="0" /><path
     d="m 177.27062,286.48784 c -4.29359,-3.84838 -7.95118,-5.18418 -6.64715,-14.31217 6.83802,2.41716 18.66936,12.65833 22.04077,16.50671 -7.18794,4.48449 -11.0681,1.68566 -15.39362,-2.19454 z"
     style="opacity:1;fill-rule:evenodd;stroke:none;stroke-width:1;stroke-linecap:butt;stroke-linejoin:miter;stroke-miterlimit:10;stroke-dasharray:none"
     id="path82"
     inkscape:connector-curvature="0" /><path
     d="m 482.59794,269.30867 c 3.84846,1.62205 5.47049,2.57619 6.55184,5.91571 -2.92605,3.08506 -4.67532,4.16643 -10.27294,4.86614 -1.11316,-2.89424 -1.78108,-3.2441 -3.46673,-6.42458 l 7.18783,-4.35727 z"
     style="opacity:1;fill-rule:evenodd;stroke:none;stroke-width:1;stroke-linecap:butt;stroke-linejoin:miter;stroke-miterlimit:10;stroke-dasharray:none"
     id="path84"
     inkscape:connector-curvature="0" /><path
     d="m 463.92779,259.48033 4.73884,6.64721 -7.41051,3.37132 c -1.30392,-0.66792 -2.22632,-0.89049 -3.49854,-2.00371 -2.767,-2.41717 -1.33573,-1.14497 -2.54432,-3.8802 l 8.68272,-4.10282 z"
     style="opacity:1;fill-rule:evenodd;stroke:none;stroke-width:1;stroke-linecap:butt;stroke-linejoin:miter;stroke-miterlimit:10;stroke-dasharray:none"
     id="path86"
     inkscape:connector-curvature="0" /><path
     d="m 381.78097,259.3836 c 2.79881,-4.89796 2.06727,-6.99707 5.82029,-9.41425 1.08092,4.42088 3.75292,11.95863 3.33949,17.39726 -0.19044,2.32175 -0.19044,1.43122 -0.63622,3.08507 l -0.82665,1.81288 c -12.56288,2.54438 -37.05266,-3.8802 -43.38181,-11.67238 l 35.68501,-1.20858 z"
     style="opacity:1;fill-rule:evenodd;stroke:none;stroke-width:1;stroke-linecap:butt;stroke-linejoin:miter;stroke-miterlimit:10;stroke-dasharray:none"
     id="path88"
     inkscape:connector-curvature="0" /><path
     d="m 243.85427,281.55558 c 3.05329,-19.21012 32.47277,-41.82337 43.92249,-40.61479 1.01816,14.28038 -1.30403,27.16134 -8.11024,35.65323 -5.40675,6.77444 -17.04734,15.17092 -30.62807,14.12136 0.41333,-4.29366 -0.0325,-2.32176 2.449,-5.27961 4.13465,-4.89794 8.80997,-8.17384 10.55924,-12.59472 l -18.19242,8.71453 z"
     style="opacity:1;fill-rule:evenodd;stroke:none;stroke-width:1;stroke-linecap:butt;stroke-linejoin:miter;stroke-miterlimit:10;stroke-dasharray:none"
     id="path90"
     inkscape:connector-curvature="0" /><path
     d="m 227.36698,286.16425 c -9.2234,-1.27219 -32.34553,-27.44759 -18.70129,-62.36931 20.2915,3.49854 35.01709,27.79743 26.7161,52.22356 -1.8129,-1.87649 -2.92606,-4.16644 -4.64352,-7.15609 -0.70005,-1.24039 -1.46308,-2.73522 -2.51262,-4.19824 l -3.02148,-3.2441 2.131,24.74418 z"
     style="opacity:1;fill-rule:evenodd;stroke:none;stroke-width:1;stroke-linecap:butt;stroke-linejoin:miter;stroke-miterlimit:10;stroke-dasharray:none"
     id="path92"
     inkscape:connector-curvature="0" /><path
     d="m 320.62102,240.7421 c 56.48549,9.47784 45.1629,7.28331 52.85971,-14.50301 l 2.28994,25.12583 c -10.62286,0.44524 -24.33071,1.49482 -34.50822,1.11317 -6.90165,-0.25449 -9.66876,-3.46673 -12.75375,-4.00741 -0.73144,-0.12725 -4.48446,2.16273 -7.91949,-7.72858 z"
     style="opacity:1;fill-rule:evenodd;stroke:none;stroke-width:1;stroke-linecap:butt;stroke-linejoin:miter;stroke-miterlimit:10;stroke-dasharray:none"
     id="path94"
     inkscape:connector-curvature="0" /><path
     d="m 139.09197,233.5838 4.83438,10.24116 -3.72122,5.47043 c -1.2404,-0.79516 -0.63621,-0.25449 -1.8764,-1.43121 -0.2229,-0.22268 -0.82665,-0.9223 -1.04954,-1.17679 l -6.26565,-7.8876 8.04662,-5.21599 z"
     style="opacity:1;fill-rule:evenodd;stroke:none;stroke-width:1;stroke-linecap:butt;stroke-linejoin:miter;stroke-miterlimit:10;stroke-dasharray:none"
     id="path96"
     inkscape:connector-curvature="0" /><path
     d="m 411.84515,236.15918 c -18.92396,0.0952 -18.4468,-8.07843 -18.51042,-19.55999 6.07467,2.00371 16.2841,14.15317 18.51042,19.55999 z"
     style="opacity:1;fill-rule:evenodd;stroke:none;stroke-width:1;stroke-linecap:butt;stroke-linejoin:miter;stroke-miterlimit:10;stroke-dasharray:none"
     id="path98"
     inkscape:connector-curvature="0" /><path
     d="m 318.06788,217.45455 c 0.70005,9.00076 -7.47413,16.57032 -16.22048,14.05773 -11.25897,-3.24409 -5.43867,-12.88096 -3.30767,-22.61324 10.84542,6.23375 13.93042,4.89795 19.49634,8.55551 z"
     style="opacity:1;fill-rule:evenodd;stroke:none;stroke-width:1;stroke-linecap:butt;stroke-linejoin:miter;stroke-miterlimit:10;stroke-dasharray:none"
     id="path100"
     inkscape:connector-curvature="0" /><path
     d="m 321.34265,219.37024 c 5.59762,-5.05698 8.07843,-6.90166 16.44316,-7.1879 l 6.23372,0.85868 c 1.36765,7.98301 -2.00375,14.31218 -8.74634,15.90242 -2.19452,0.50886 -9.79589,0.69973 -11.76784,-0.15905 -3.02137,-1.30401 -2.00364,-4.70713 -2.1627,-9.44605 z"
     style="opacity:1;fill-rule:evenodd;stroke:none;stroke-width:1;stroke-linecap:butt;stroke-linejoin:miter;stroke-miterlimit:10;stroke-dasharray:none"
     id="path102"
     inkscape:connector-curvature="0" /><path
     d="m 290.16952,212.84989 c -0.60376,4.26186 -4.42084,9.57327 -10.20932,6.99707 -3.21235,-1.43122 -5.62954,-7.69678 -6.86983,-11.8314 5.27951,0.41343 8.20556,4.13462 17.04734,4.80253 z"
     style="opacity:1;fill-rule:evenodd;stroke:none;stroke-width:1;stroke-linecap:butt;stroke-linejoin:miter;stroke-miterlimit:10;stroke-dasharray:none"
     id="path104"
     inkscape:connector-curvature="0" /><path
     d="m 97.013607,204.86577 c 5.629433,-4.10282 9.954943,-11.00447 16.284103,-13.86691 7.6968,17.74711 9.89132,17.0474 16.63391,28.30632 3.72121,6.23375 4.45264,17.0792 -3.68941,10.55921 l -20.76855,-17.49266 c -8.74635,-5.75669 -5.947433,-1.08135 -8.460053,-7.47415 z"
     style="opacity:1;fill-rule:evenodd;stroke:none;stroke-width:1;stroke-linecap:butt;stroke-linejoin:miter;stroke-miterlimit:10;stroke-dasharray:none"
     id="path106"
     inkscape:connector-curvature="0" /><path
     d="m 322.29279,209.2167 c -9.8594,0.38162 -20.95932,-2.76702 -19.49634,-13.70789 0.89048,-6.64721 4.35732,-3.72117 10.17761,-2.09912 4.64351,1.27219 8.55549,1.49484 13.07175,2.608 0.2229,10.01853 -0.8591,7.02888 -3.72121,13.23081 z"
     style="opacity:1;fill-rule:evenodd;stroke:none;stroke-width:1;stroke-linecap:butt;stroke-linejoin:miter;stroke-miterlimit:10;stroke-dasharray:none"
     id="path108"
     inkscape:connector-curvature="0" /><path
     d="m 360.31677,187.39837 15.87056,3.49854 c 0.0325,7.69678 -0.92187,12.97638 -6.07467,15.64798 -5.02514,2.608 -13.23081,1.01773 -17.46089,-1.11317 l 7.665,-18.03335 z"
     style="opacity:1;fill-rule:evenodd;stroke:none;stroke-width:1;stroke-linecap:butt;stroke-linejoin:miter;stroke-miterlimit:10;stroke-dasharray:none"
     id="path110"
     inkscape:connector-curvature="0" /><path
     d="m 332.22509,191.97656 c 13.73978,-3.68936 21.02304,-5.59765 19.84626,3.21229 -1.14497,8.4919 -10.11389,11.51335 -19.21015,11.76779 l -0.60376,-14.98008 z"
     style="opacity:1;fill-rule:evenodd;stroke:none;stroke-width:1;stroke-linecap:butt;stroke-linejoin:miter;stroke-miterlimit:10;stroke-dasharray:none"
     id="path112"
     inkscape:connector-curvature="0" /><path
     d="m 280.58865,183.51887 17.68345,2.32176 c 0.541,10.14575 -0.47716,15.83881 -7.63318,20.25969 -5.72487,-0.25449 -12.24489,-2.73522 -15.93419,-6.17014 l 5.91573,-16.41131 z"
     style="opacity:1;fill-rule:evenodd;stroke:none;stroke-width:1;stroke-linecap:butt;stroke-linejoin:miter;stroke-miterlimit:10;stroke-dasharray:none"
     id="path114"
     inkscape:connector-curvature="0" /><path
     d="m 386.04942,179.89307 c 4.73895,3.84839 10.68648,11.57696 5.56592,18.73305 -6.1384,-1.24038 -9.15989,-6.74262 -11.79964,-13.1672 l 6.20191,-5.56585 z"
     style="opacity:1;fill-rule:evenodd;stroke:none;stroke-width:1;stroke-linecap:butt;stroke-linejoin:miter;stroke-miterlimit:10;stroke-dasharray:none"
     id="path116"
     inkscape:connector-curvature="0" /><path
     d="m 269.29665,195.60363 c -3.9756,-3.88019 -3.78473,-12.30847 -4.23008,-17.58807 l 9.98675,2.41717 c 0,7.69677 -0.89049,12.4993 -5.75667,15.1391 z"
     style="opacity:1;fill-rule:evenodd;stroke:none;stroke-width:1;stroke-linecap:butt;stroke-linejoin:miter;stroke-miterlimit:10;stroke-dasharray:none"
     id="path118"
     inkscape:connector-curvature="0" /><path
     d="m 55.832909,179.86559 c 0.541,5.59765 1.971945,6.96525 -2.162701,9.98672 -1.590216,1.14497 -5.979349,3.59395 -7.664996,4.70712 -17.810694,11.99042 -10.527428,28.02007 -18.70118,30.72348 -6.615456,2.19453 -15.139128,0.19086 -18.44691,-3.912 -10.1775084,-12.69014 -5.9156186,-46.33967 46.975787,-41.50532 z"
     style="opacity:1;fill-rule:evenodd;stroke:none;stroke-width:1;stroke-linecap:butt;stroke-linejoin:miter;stroke-miterlimit:10;stroke-dasharray:none"
     id="path120"
     inkscape:connector-curvature="0" /><path
     d="m 314.18517,167.06818 c 15.64788,-0.34981 20.10064,9.63687 13.16718,21.05481 -7.41051,1.62205 -14.37577,0.54068 -20.73674,-2.98966 l 7.56956,-18.06515 z"
     style="opacity:1;fill-rule:evenodd;stroke:none;stroke-width:1;stroke-linecap:butt;stroke-linejoin:miter;stroke-miterlimit:10;stroke-dasharray:none"
     id="path122"
     inkscape:connector-curvature="0" /><path
     d="m 86.251264,160.30103 c 37.243416,-5.66127 25.761876,34.95352 1.876405,41.50532 -31.518557,8.65093 -32.568097,-36.83001 -1.876405,-41.50532 z"
     style="opacity:1;fill-rule:evenodd;stroke:none;stroke-width:1;stroke-linecap:butt;stroke-linejoin:miter;stroke-miterlimit:10;stroke-dasharray:none"
     id="path124"
     inkscape:connector-curvature="0" /><path
     d="m 367.18788,166.26941 c 8.36462,-5.2478 17.65164,6.99706 6.29735,12.27667 -7.82394,3.62576 -19.43272,-4.03921 -6.29735,-12.27667 z"
     style="opacity:1;fill-rule:evenodd;stroke:none;stroke-width:1;stroke-linecap:butt;stroke-linejoin:miter;stroke-miterlimit:10;stroke-dasharray:none"
     id="path126"
     inkscape:connector-curvature="0" /><path
     d="m 335.88133,167.82926 c 3.11692,-1.55845 7.34689,-3.27591 11.54515,-3.30771 8.96903,13.13541 5.40687,19.36916 -11.44972,20.19609 3.78473,-11.92683 -0.85911,-8.93717 -0.0974,-16.88838 z"
     style="opacity:1;fill-rule:evenodd;stroke:none;stroke-width:1;stroke-linecap:butt;stroke-linejoin:miter;stroke-miterlimit:10;stroke-dasharray:none"
     id="path128"
     inkscape:connector-curvature="0" /><path
     d="m 285.84001,160.42233 c 10.52732,1.01773 27.57477,1.08135 19.33729,12.59472 -3.6894,5.15239 -17.36545,9.95492 -26.1118,1.04954 l 6.77451,-13.67609 z"
     style="opacity:1;fill-rule:evenodd;stroke:none;stroke-width:1;stroke-linecap:butt;stroke-linejoin:miter;stroke-miterlimit:10;stroke-dasharray:none"
     id="path130"
     inkscape:connector-curvature="0" /><path
     d="m 55.833938,140.50975 0.985702,-1.3358 c 1.940135,-1.17679 -2.989674,-2.0037 2.512621,-0.79516 l 0.127676,3.40311 8.110239,17.87433 c -0.890486,2.32175 -0.572378,1.30399 -1.78108,3.02146 -4.452647,6.17014 -7.442321,10.01852 -12.785561,10.65462 -7.919375,0.95411 -19.496342,0.89059 -27.733824,1.08135 1.080918,-13.89872 24.45796,-19.43276 30.596255,-33.84036 z"
     style="opacity:1;fill-rule:evenodd;stroke:none;stroke-width:1;stroke-linecap:butt;stroke-linejoin:miter;stroke-miterlimit:10;stroke-dasharray:none"
     id="path132"
     inkscape:connector-curvature="0" /><path
     d="m 315.90504,160.22844 c 8.14195,-13.73969 7.88757,-16.4113 16.57029,-16.28408 1.94014,2.22633 8.52367,10.36837 9.89132,13.42163 -5.08875,6.61542 -18.4468,9.09619 -26.49342,2.86245 z"
     style="opacity:1;fill-rule:evenodd;stroke:none;stroke-width:1;stroke-linecap:butt;stroke-linejoin:miter;stroke-miterlimit:10;stroke-dasharray:none"
     id="path134"
     inkscape:connector-curvature="0" /><path
     d="m 263.92762,174.02857 c -1.39935,-8.61912 -0.60376,-17.36544 2.449,-24.07627 5.72486,-0.41343 10.81361,1.39941 15.20275,2.92605 -0.63622,11.35433 -6.23373,21.65909 -17.65175,21.15022 z"
     style="opacity:1;fill-rule:evenodd;stroke:none;stroke-width:1;stroke-linecap:butt;stroke-linejoin:miter;stroke-miterlimit:10;stroke-dasharray:none"
     id="path136"
     inkscape:connector-curvature="0" /><path
     d="m 350.80049,152.34063 c 4.99343,-1.49483 5.66124,-3.37131 11.0681,-4.23004 2.00376,3.59394 6.74259,10.65462 0.15906,13.51706 -7.0607,3.05326 -10.24113,-3.43493 -11.19535,-9.28702 z"
     style="opacity:1;fill-rule:evenodd;stroke:none;stroke-width:1;stroke-linecap:butt;stroke-linejoin:miter;stroke-miterlimit:10;stroke-dasharray:none"
     id="path138"
     inkscape:connector-curvature="0" /><path
     d="m 171.41652,191.02319 c 0,-13.32624 7.82405,-32.759 14.59845,-39.02456 -0.92186,11.54517 -4.07102,21.5637 -4.57989,35.65324 -1.01816,29.64211 -0.73143,42.30044 13.13537,67.96697 2.51262,4.67531 4.73895,8.49189 7.60138,12.59471 2.79881,4.00741 4.73894,7.47414 5.37505,13.83511 -14.53483,1.65385 -24.07623,-15.39354 -28.40174,-26.68427 -8.14205,-21.21383 -7.72862,-42.07781 -7.72862,-64.3412 z"
     style="opacity:1;fill-rule:evenodd;stroke:none;stroke-width:1;stroke-linecap:butt;stroke-linejoin:miter;stroke-miterlimit:10;stroke-dasharray:none"
     id="path140"
     inkscape:connector-curvature="0" /><path
     d="m 289.97452,150.84676 c 2.00375,-1.94009 8.71453,-8.96897 11.76783,-9.00077 2.54443,-0.0314 12.49926,4.00742 14.50302,5.40682 -4.83438,17.23823 -22.48602,10.59102 -26.27085,3.59395 z"
     style="opacity:1;fill-rule:evenodd;stroke:none;stroke-width:1;stroke-linecap:butt;stroke-linejoin:miter;stroke-miterlimit:10;stroke-dasharray:none"
     id="path142"
     inkscape:connector-curvature="0" /><path
     d="m 351.34158,134.84671 4.26189,4.29366 c -1.33584,4.19823 -1.43127,2.70341 -3.91197,5.9475 -7.12433,0.12725 -9.44608,-2.38536 -11.89508,-7.2197 l 11.57697,-3.02146 z"
     style="opacity:1;fill-rule:evenodd;stroke:none;stroke-width:1;stroke-linecap:butt;stroke-linejoin:miter;stroke-miterlimit:10;stroke-dasharray:none"
     id="path144"
     inkscape:connector-curvature="0" /><path
     d="m 268.98516,143.83857 c 0.0325,-10.05033 13.00813,-18.76486 23.12212,-20.51413 1.65384,6.99707 4.26178,14.88468 -1.81289,19.11471 -5.8521,4.07103 -14.47121,2.86244 -21.34104,1.39942 z"
     style="opacity:1;fill-rule:evenodd;stroke:none;stroke-width:1;stroke-linecap:butt;stroke-linejoin:miter;stroke-miterlimit:10;stroke-dasharray:none"
     id="path146"
     inkscape:connector-curvature="0" /><path
     d="m 197.43972,248.39816 c -2.63976,-2.32174 -2.95787,-4.0074 -4.48446,-7.98301 -8.49186,-22.04075 -9.95494,-47.96171 -5.34324,-70.41594 3.94389,-19.17832 21.37285,-49.26571 35.81225,-56.35818 12.65843,22.67685 5.40686,25.41206 3.53035,51.90551 -1.46297,20.70495 0.0649,40.7102 0.38195,61.00169 -4.42084,-1.01772 -16.41124,-11.48154 -22.32697,-14.02593 l -7.56956,35.87586 z"
     style="opacity:1;fill-rule:evenodd;stroke:none;stroke-width:1;stroke-linecap:butt;stroke-linejoin:miter;stroke-miterlimit:10;stroke-dasharray:none"
     id="path148"
     inkscape:connector-curvature="0" /><path
     d="m 73.276914,130.22818 -2.258134,22.9631 c -0.06492,-0.15905 -0.25427,0.47706 -0.413324,0.69973 -2.926053,-3.65755 -6.392781,-15.807 -6.742591,-21.46826 l 9.414157,-2.19454 z"
     style="opacity:1;fill-rule:evenodd;stroke:none;stroke-width:1;stroke-linecap:butt;stroke-linejoin:miter;stroke-miterlimit:10;stroke-dasharray:none"
     id="path150"
     inkscape:connector-curvature="0" /><path
     d="m 306.96753,136.52293 c -5.31143,-2.86244 -8.04662,-5.82029 -7.53775,-14.02594 9.66864,2.00371 24.33071,8.26926 24.68052,16.66574 -6.4881,2.19453 -11.89496,0.22268 -17.17458,-2.608 z"
     style="opacity:1;fill-rule:evenodd;stroke:none;stroke-width:1;stroke-linecap:butt;stroke-linejoin:miter;stroke-miterlimit:10;stroke-dasharray:none"
     id="path152"
     inkscape:connector-curvature="0" /><path
     d="m 326.7195,121.768 c 7.79213,-0.0952 15.58437,1.30399 17.46088,7.34692 -7.25156,6.23375 -17.42907,1.30399 -17.46088,-7.34692 z"
     style="opacity:1;fill-rule:evenodd;stroke:none;stroke-width:1;stroke-linecap:butt;stroke-linejoin:miter;stroke-miterlimit:10;stroke-dasharray:none"
     id="path154"
     inkscape:connector-curvature="0" /><path
     d="m 78.151171,154.27193 c -1.685648,-17.49267 3.084998,-31.42319 13.707858,-37.43431 15.329881,-8.65091 33.108871,-4.5799 36.321121,7.50595 -8.11024,4.64351 -15.74343,12.02224 -22.54964,18.63764 -2.767,2.67161 -7.410511,7.69677 -11.163536,9.09619 -2.830621,1.08135 -13.262615,2.73522 -16.315803,2.22633 z"
     style="opacity:1;fill-rule:evenodd;stroke:none;stroke-width:1;stroke-linecap:butt;stroke-linejoin:miter;stroke-miterlimit:10;stroke-dasharray:none"
     id="path156"
     inkscape:connector-curvature="0" /><path
     d="m 248.49739,256.82896 c -3.81654,-8.39648 -11.0363,-19.46457 -13.38986,-30.37363 -4.48446,-20.86398 -4.32541,-59.47507 0.89048,-81.00695 3.81665,-15.7434 -3.08499,-21.81813 -3.43491,-34.88992 4.80256,3.21229 9.12796,6.86984 14.88464,10.27296 5.24781,3.11689 17.61993,7.06068 17.65175,6.96527 0.12767,-0.22268 0.50854,0.22267 0.73143,0.38162 -8.2693,21.11842 -12.43575,30.1192 -7.21976,57.88482 4.86619,25.88916 17.52451,44.01792 18.22424,49.83821 -4.32551,4.45268 -10.01856,6.39277 -14.40759,10.05033 -6.58364,5.50224 -8.04662,9.2234 -13.96234,10.90906 z"
     style="opacity:1;fill-rule:evenodd;stroke:none;stroke-width:1;stroke-linecap:butt;stroke-linejoin:miter;stroke-miterlimit:10;stroke-dasharray:none"
     id="path158"
     inkscape:connector-curvature="0" /><path
     d="m 307.24384,105.95358 c 2.03546,2.44898 1.49478,0.0952 0.92186,3.81658 -3.53035,0.69973 -2.32175,1.11318 -5.02524,-0.92229 -9.66864,-1.81287 -13.70786,-7.95121 -17.11096,-16.570329 -10.114,-25.666514 2.51251,-19.87803 7.25145,-19.973451 4.13465,-5.693063 7.09251,-6.138338 6.10659,-17.079197 L 290.9592,54.747839 290.16393,46.6376 c -11.92678,0.06384 -10.30476,7.37872 -16.22048,9.509654 -3.24405,-30.182801 28.46536,-20.9276 33.39517,-9.954919 2.767,6.201948 1.30392,23.535588 0.47716,31.105141 -2.7671,26.334414 -1.01816,9.159791 -0.63621,28.624374 z"
     style="opacity:1;fill-rule:evenodd;stroke:none;stroke-width:1;stroke-linecap:butt;stroke-linejoin:miter;stroke-miterlimit:10;stroke-dasharray:none"
     id="path160"
     inkscape:connector-curvature="0" /><path
     d="m 296.31133,21.491321 c 3.21235,-3.021463 7.63318,-8.17385 12.2767,-8.523704 l 1.62202,0.381622 c 0.89049,5.247808 -2.67156,10.94087 -6.13829,13.962333 l -7.76043,-5.788483 z"
     style="opacity:1;fill-rule:evenodd;stroke:none;stroke-width:1;stroke-linecap:butt;stroke-linejoin:miter;stroke-miterlimit:10;stroke-dasharray:none"
     id="path162"
     inkscape:connector-curvature="0" /></svg>