<?xml version="1.0" encoding="UTF-8"?>
<!DOCTYPE svg PUBLIC "-//W3C//DTD SVG 1.0//EN" "http://www.w3.org/TR/2001/REC-SVG-20010904/DTD/svg10.dtd">
<!-- Creator: CorelDRAW X6 -->
<svg xmlns="http://www.w3.org/2000/svg" xml:space="preserve" width="210mm" height="297mm" version="1.0" style="shape-rendering:geometricPrecision; text-rendering:geometricPrecision; image-rendering:optimizeQuality; fill-rule:evenodd; clip-rule:evenodd"
viewBox="0 0 21000 29700"
 xmlns:xlink="http://www.w3.org/1999/xlink">
 <defs>
  <style type="text/css">
   <![CDATA[
    .fil0 {fill:black}
    .fil2 {fill:#777777}
    .fil1 {fill:white}
   ]]>
  </style>
 </defs>
 <g id="图层_x0020_1">
  <metadata id="CorelCorpID_0Corel-Layer"/>
  <g id="_334674752">
   <path class="fil0" d="M7057 28437l-122 27c58,-96 -70,-46 134,-111 218,-4 642,-139 872,-190 282,-62 604,-120 905,-160 535,-71 1399,-202 1844,80l-226 66c-76,10 -141,15 -211,23l-1345 138c-527,56 -1333,150 -1850,125zm5393 -605c452,75 1984,271 2178,459 -366,59 -2234,-161 -2739,-347l-126 -71c109,-240 66,-144 688,-41zm1546 -144c275,39 530,210 698,356 -150,12 -307,-44 -448,-66 -233,-36 -218,-51 -250,-290zm-5617 198c18,-88 221,-316 296,-405 207,3 791,58 927,258 -361,85 -828,130 -1222,147zm4467 -391c186,70 436,191 543,332 -185,31 -406,-70 -554,-121l11 -212zm2010 -78c100,50 281,246 363,334 76,82 267,259 313,376 -473,-69 -693,-190 -676,-710zm-7981 808c-107,34 -194,65 -301,90 -3,-227 -102,-943 -70,-1061 306,-19 963,-43 1220,21 40,87 63,248 108,347 53,115 117,165 86,302 -84,139 -935,267 -1042,301zm3264 -901c862,280 787,158 1359,289l-50 172c-52,80 -60,73 -100,147 -706,19 -1878,-499 -2612,-622 10,-135 20,-230 79,-325 481,-16 906,203 1324,339zm-4588 -260c189,-163 -17,-444 328,-318 535,195 513,1137 498,1591 -604,26 -1239,-1208 -1054,-1557l141 140c44,62 54,88 88,143zm6357 470c54,-281 52,-519 183,-761l393 -527c156,76 1114,1040 1157,1375 -277,44 -687,-208 -906,-353 -51,-34 -83,-59 -124,-86l-148 -90 153 598c-273,42 -483,-94 -708,-156zm-3728 381c-493,-504 -374,-1992 -176,-2218 151,202 121,616 247,829 134,-152 131,-262 261,-350 113,520 271,867 -112,1388 -112,152 -131,264 -220,352zm9061 -752c-59,-137 -166,-212 -211,-389 209,52 398,125 476,300l-265 88zm-9621 -78l-1208 -26 -110 -330 1326 4 -8 353zm1240 -690c177,17 551,390 577,545l-589 -157 13 -389zm2012 928c-341,-48 -557,-93 -830,-255 -165,-98 -482,-370 -545,-490 502,-15 516,-4 802,233l573 512zm-5831 -608c-93,554 -1173,1347 -1672,1321 -120,-6 -92,-88 -51,-222 184,-599 646,-1172 1343,-1266 -57,187 -134,257 -189,424l569 -257zm-3089 -59c301,-62 1433,-497 1867,-55l-46 33c-7,4 -16,11 -24,15 -332,176 -1522,147 -1719,60 -69,-30 -34,-14 -77,-53zm8702 -297c598,-100 903,400 939,820 33,388 -652,-21 -755,-96 -77,-56 -124,-86 -184,-133 -139,-108 -366,-285 -446,-419l447 -172zm5867 -20c102,79 132,166 139,342 -285,-47 -440,-178 -423,-491 92,9 223,101 284,148zm1609 -91c97,-101 359,-128 511,-151 -19,173 -82,258 -138,371 -128,-36 -109,-44 -219,-95 -147,-67 -99,11 -154,-126zm-12728 203c65,-116 140,-196 236,-302 604,149 843,115 1466,113 -185,336 -1308,319 -1702,189zm10121 -795c137,40 255,217 270,423l-275 -23 5 -400zm-8385 864c135,-111 415,-461 565,-502 5,77 -4,166 -14,259 -2,14 -17,113 -19,118 -47,147 -4,47 -62,119l-470 7zm5574 -511c109,-65 786,-167 981,-190 -111,505 -205,606 -97,1188 -336,-101 -775,-639 -884,-998zm4727 -115c69,-67 392,-166 504,-185 191,-33 321,124 390,221 -82,66 -387,190 -497,203 -144,17 -328,-160 -396,-239zm-8375 -55c-145,-154 -239,-78 -342,-274 383,-215 1288,254 1414,759 -353,88 -573,173 -953,14 -10,-4 -934,-489 -337,-501 70,-1 147,3 219,2zm7655 -250c42,-59 1,-14 55,-61 52,-46 -35,21 41,-31l310 -153c193,-55 316,83 341,249 -456,222 -539,134 -747,-4zm-12261 776c-640,175 -1105,-93 -1590,-489 -130,-106 -279,-239 -346,-392 417,-80 919,-87 1333,40 324,100 765,361 863,581l-637 -76c68,68 114,93 209,153 139,88 124,56 168,182zm1306 -1123c126,-19 200,82 260,158 -27,204 -149,241 -279,335l19 -493zm-8 722c177,-226 1116,-985 1650,-635 -107,124 -308,164 -324,261l628 -44c-109,337 -370,491 -797,561 -272,45 -962,2 -1158,-144zm1288 -409l0 0zm2109 -216c49,-143 261,-410 363,-545 121,-161 220,-346 282,-559 86,27 281,187 388,252 338,208 855,440 1226,573 627,224 1398,386 2103,244 38,-148 60,-302 57,-477l236 239c53,64 141,184 160,299 -237,241 -998,425 -1391,515 -207,48 -232,21 -313,180 -132,257 -325,707 -484,904 -119,-151 -135,-468 -458,-682 -274,-181 -630,-89 -935,-27 -184,-239 -778,-829 -1232,-915zm7248 -286c110,44 142,78 188,205 -89,97 -143,130 -269,181 -48,-112 -96,-138 -137,-259 103,-44 120,-80 218,-126zm-11430 1007c-211,-211 -253,-967 -184,-1299 55,-269 306,-865 582,-973 113,485 518,1258 51,2026 -4,7 -75,100 -76,100 -53,50 -11,29 -87,57 1,-183 -27,-598 -102,-733 -112,189 -97,601 -184,821zm9672 -703l-70 -246c240,-29 377,70 382,301l-312 -55zm3512 1277c-62,91 -231,220 -355,158 -440,-220 -2378,-1478 -2511,-1763 503,201 2636,1373 2866,1605zm-12093 -1445c-135,-121 -250,-163 -209,-450 215,76 587,398 693,519 -226,141 -348,53 -484,-69zm9598 -540c121,51 172,81 206,186 -92,97 -147,131 -323,153 -35,-91 -56,-102 -109,-202l226 -137zm-587 -309l149 209 -233 106c-41,-21 -70,-28 -110,-63 -87,-76 -42,-36 -80,-122l273 -129zm-2582 -3c88,-154 65,-220 183,-296 34,139 118,376 105,547 -6,73 -6,45 -20,97l-26 57c-395,80 -1165,-122 -1364,-367l1122 -38zm-4336 697c96,-604 1021,-1315 1381,-1277 32,449 -41,854 -255,1121 -170,213 -536,477 -963,444 13,-135 -1,-73 77,-166 130,-154 277,-257 332,-396l-572 274zm-518 145c-290,-40 -1017,-863 -588,-1961 638,110 1101,874 840,1642 -57,-59 -92,-131 -146,-225 -22,-39 -46,-86 -79,-132l-95 -102 67 778zm2931 -1428c1776,298 1420,229 1662,-456l72 790c-334,14 -765,47 -1085,35 -217,-8 -304,-109 -401,-126 -23,-4 -141,68 -249,-243zm-5706 -225l152 322 -117 172c-39,-25 -20,-8 -59,-45 -7,-7 -26,-29 -33,-37l-197 -248 253 -164zm8574 81c-595,3 -580,-254 -582,-615 191,63 512,445 582,615zm-2948 -588c22,283 -235,521 -510,442 -354,-102 -171,-405 -104,-711 341,196 438,154 613,269zm103 60c176,-159 254,-217 517,-226l196 27c43,251 -63,450 -275,500 -69,16 -308,22 -370,-5 -95,-41 -63,-148 -68,-297zm-980 -205c-19,134 -139,301 -321,220 -101,-45 -177,-242 -216,-372 166,13 258,130 536,151zm-6072 -251c177,-129 313,-346 512,-436 242,558 311,536 523,890 117,196 140,537 -116,332l-653 -550c-275,-181 -187,-34 -266,-235zm7082 137c-310,12 -659,-87 -613,-431 28,-209 137,-117 320,-66 146,40 269,47 411,82 7,315 -27,221 -117,416zm1195 -686l499 110c1,242 -29,408 -191,492 -158,82 -416,32 -549,-35l241 -567zm-883 144c432,-116 661,-176 624,101 -36,267 -318,362 -604,370l-19 -471zm-1623 -266l556 73c17,319 -15,498 -240,637 -180,-8 -385,-86 -501,-194l186 -516zm3315 -114c149,121 336,364 175,589 -193,-39 -288,-212 -371,-414l195 -175zm-3670 494c-125,-122 -119,-387 -133,-553l314 76c0,242 -28,393 -181,476zm-6710 -495c17,176 62,219 -68,314 -50,36 -188,113 -241,148 -560,377 -331,881 -588,966 -208,69 -476,6 -580,-123 -320,-399 -186,-1457 1477,-1305zm8121 -402c492,-11 632,303 414,662 -233,51 -452,17 -652,-94l238 -568zm-7165 -213c1171,-178 810,1099 59,1305 -991,272 -1024,-1158 -59,-1305zm8831 188c263,-165 555,220 198,386 -246,114 -611,-127 -198,-386zm-984 49c98,-49 231,-103 363,-104 282,413 170,609 -360,635 119,-375 -27,-281 -3,-531zm-1573 -233c331,32 867,34 608,396 -116,162 -546,313 -821,33l213 -430zm-7230 -626l31 -42c61,-37 -94,-63 79,-25l4 107 255 562c-28,73 -18,41 -56,95 -140,194 -234,315 -402,335 -249,30 -613,28 -872,34 34,-437 769,-611 962,-1064zm8175 620c256,-432 248,-516 521,-512 61,70 268,326 311,422 -160,208 -580,286 -833,90zm-1634 434c-44,-271 -19,-546 77,-757 180,-13 340,44 478,92 -20,357 -196,681 -555,665zm2731 -682c157,-47 178,-106 348,-133 63,113 212,335 5,425 -222,96 -322,-108 -352,-292zm-5639 1216c0,-419 246,-1030 459,-1227 -29,363 -128,678 -144,1121 -32,932 -23,1330 413,2137 79,147 149,267 239,396 88,126 149,235 169,435 -457,52 -757,-484 -893,-839 -256,-667 -243,-1323 -243,-2023zm3727 -1263c63,-61 274,-282 370,-283 80,-1 393,126 456,170 -152,542 -707,333 -826,113zm1929 -503l134 135c-42,132 -45,85 -123,187 -224,4 -297,-75 -374,-227l364 -95zm-2589 283c1,-316 409,-590 727,-645 52,220 134,468 -57,601 -184,128 -455,90 -671,44zm-2249 3287c-83,-73 -93,-126 -141,-251 -267,-693 -313,-1508 -168,-2214 124,-603 672,-1549 1126,-1772 398,713 170,799 111,1632 -46,651 2,1280 12,1918 -139,-32 -516,-361 -702,-441l-238 1128zm-3903 -3715l-71 722c-2,-5 -8,15 -13,22 -92,-115 -201,-497 -212,-675l296 -69zm7346 198c-167,-90 -253,-183 -237,-441 304,63 765,260 776,524 -204,69 -374,7 -540,-82zm621 -464c245,-3 490,41 549,231 -228,196 -548,41 -549,-231zm-7814 1022c-53,-550 97,-988 431,-1177 482,-272 1041,-144 1142,236 -255,146 -495,378 -709,586 -87,84 -233,242 -351,286 -89,34 -417,86 -513,70zm5355 3224c-120,-264 -347,-612 -421,-955 -141,-656 -136,-1870 28,-2547 120,-495 -97,-686 -108,-1097 151,101 287,216 468,323 165,98 554,222 555,219 4,-7 16,7 23,12 -260,664 -391,947 -227,1820 153,814 551,1384 573,1567 -136,140 -315,201 -453,316 -207,173 -253,290 -439,343zm1847 -4743c64,77 47,3 29,120 -111,22 -73,35 -158,-29 -304,-57 -431,-250 -538,-521 -318,-807 79,-625 228,-628 130,-179 223,-193 192,-537l-265 -15 -25 -255c-375,2 -324,232 -510,299 -102,-949 895,-658 1050,-313 87,195 41,740 15,978 -87,828 -32,288 -20,900zm-344 -2655c101,-95 240,-257 386,-268l51 12c28,165 -84,344 -193,439l-244 -182zm9514 9185c-458,-273 -1134,-584 -1660,-809 -565,-242 -1114,-506 -1690,-745 -436,-181 -892,-388 -1349,-520 -157,-46 -346,-76 -478,-122 -268,-94 -710,-728 -842,-994 -72,-145 -99,-295 -160,-440 -103,-244 -729,-1208 -929,-1541 -860,-1426 -1466,-839 -1731,-1338 -316,-592 -54,-1370 -57,-1537 -8,-397 -236,-627 -40,-1017 119,-237 353,-530 416,-799 -440,93 -891,306 -1240,503 -233,131 -422,75 -700,145 -1332,336 -1493,1566 -1496,2747 -1127,921 -1933,2147 -1657,3707 116,655 378,1152 419,1365 -305,-7 -584,-981 -696,-1159 -147,39 -107,87 -247,143 -241,-282 -122,-422 -102,-815l-327 178c-134,-260 -506,-554 -536,-982 -77,-1110 64,-580 -432,-1061 227,-425 748,-582 979,-741 -70,-390 -588,-783 -1113,-648 -522,134 -678,620 -1212,574 8,-188 11,-578 42,-744 51,-270 284,-216 227,-561 -97,-68 -230,-145 -410,-88 -189,126 4,273 4,833 0,517 70,579 -134,835 -81,103 -145,181 -215,278 -306,421 -592,334 -767,678 -82,161 -49,253 -129,366 -151,213 -473,480 -551,892 -68,359 74,528 252,703 212,209 438,175 789,175 158,-53 33,-1053 706,-1191l225 215c484,357 597,-81 1389,586 630,531 267,414 256,864 516,-91 691,0 560,533 -100,407 -126,699 -83,1148 -292,-19 -334,-153 -569,-240 -593,-218 -1366,-200 -1919,8 91,211 655,376 810,784 -842,159 -1332,495 -1936,843 289,141 2364,-385 2583,-155 61,40 48,-9 -29,132 -33,61 -62,107 -91,162 -130,241 -454,895 -446,1120 464,-27 1301,-459 1678,-770 161,-132 264,-312 392,-407 284,522 511,972 873,1296 -150,150 -426,158 -525,359 1605,-32 3828,-479 5300,-479 1389,0 3860,310 5404,369 66,-142 169,-250 216,-391 -158,-132 -347,-188 -511,-309 -393,-289 -769,-565 -1041,-972 -49,-73 -91,-150 -170,-186 -62,317 -31,610 -22,929 -79,-20 -615,-328 -657,-387 -66,-92 -402,-1299 178,-1608 313,-167 473,38 686,179l1883 1257c142,98 482,336 633,392 204,-109 373,-212 592,-328 198,-105 426,-175 595,-285 193,-125 754,-685 814,-930z"/>
   <path class="fil1" d="M9154 25343c454,86 1048,676 1232,915 305,-62 662,-153 935,27 324,214 340,530 458,682 159,-197 353,-647 484,-904 82,-159 106,-132 313,-180 393,-91 1154,-274 1391,-515 -19,-116 -107,-235 -160,-299l-236 -239c3,175 -19,330 -57,477 -705,142 -1476,-20 -2103,-244 -371,-132 -888,-365 -1226,-573 -106,-65 -302,-225 -388,-252 -61,213 -161,398 -282,559 -101,135 -314,402 -363,545z"/>
   <path class="fil1" d="M6698 23996l238 -1128c186,80 563,409 702,441 -11,-638 -58,-1267 -12,-1918 59,-833 287,-919 -111,-1632 -454,224 -1002,1169 -1126,1772 -145,706 -99,1521 168,2214 48,125 58,178 141,251z"/>
   <path class="fil1" d="M8303 24262c186,-53 231,-170 439,-343 138,-115 317,-176 453,-316 -23,-183 -420,-753 -573,-1567 -164,-873 -33,-1157 227,-1820 -7,-5 -19,-19 -23,-12 -2,3 -390,-121 -555,-219 -181,-107 -317,-222 -468,-323 12,411 228,602 108,1097 -164,678 -169,1891 -28,2547 74,344 301,691 421,955z"/>
   <path class="fil1" d="M3203 21225c-965,147 -931,1577 59,1305 750,-206 1112,-1484 -59,-1305z"/>
   <path class="fil1" d="M2247 21839c-1662,-153 -1796,906 -1477,1305 104,130 371,192 580,123 257,-85 28,-589 588,-966 53,-35 191,-112 241,-148 131,-95 85,-138 68,-314z"/>
   <path class="fil1" d="M10022 19610l145 24 -17 -115c-13,-611 -67,-72 20,-900 25,-239 72,-783 -15,-978 -155,-345 -1152,-636 -1050,313 186,-67 135,-298 510,-299l25 255 265 15c31,344 -61,358 -192,537 -149,3 -546,-179 -228,628 107,272 234,465 538,521z"/>
   <path class="fil1" d="M5879 22192c0,700 -12,1357 243,2023 136,354 436,891 893,839 -20,-200 -81,-309 -169,-435 -90,-129 -160,-250 -239,-396 -436,-807 -445,-1204 -413,-2137 15,-443 115,-758 144,-1121 -213,196 -459,808 -459,1227z"/>
   <path class="fil1" d="M7639 25182l-67 -778 95 102c33,46 57,94 79,132 54,95 89,166 146,225 261,-767 -203,-1531 -840,-1642 -429,1097 298,1921 588,1961z"/>
   <path class="fil1" d="M4972 26064c88,-219 72,-631 184,-821 74,135 103,550 102,733 76,-28 34,-7 87,-57 1,-1 72,-93 76,-100 468,-768 62,-1541 -51,-2026 -276,108 -527,704 -582,973 -68,332 -26,1088 184,1299z"/>
   <path class="fil1" d="M11908 27535c226,63 436,198 708,156l-153 -598 148 90c41,27 73,52 124,86 219,145 629,397 906,353 -43,-336 -1000,-1300 -1157,-1375l-393 527c-131,242 -130,480 -183,761z"/>
   <path class="fil1" d="M2948 21037c97,17 424,-36 513,-70 118,-45 265,-202 351,-286 214,-207 454,-440 709,-586 -101,-380 -660,-508 -1142,-236 -334,189 -484,628 -431,1177z"/>
   <path class="fil1" d="M2524 25486c66,153 216,286 346,392 484,396 949,664 1590,489 -44,-126 -29,-95 -168,-182 -95,-60 -141,-85 -209,-153l637 76c-97,-220 -538,-481 -863,-581 -414,-128 -917,-121 -1333,-40z"/>
   <path class="fil1" d="M5042 26716l-569 257c55,-167 132,-237 189,-424 -697,94 -1159,666 -1343,1266 -41,134 -70,216 51,222 499,26 1579,-767 1672,-1321z"/>
   <path class="fil1" d="M8157 25037l572 -274c-55,140 -202,243 -332,396 -78,92 -64,31 -77,166 427,33 793,-232 963,-444 214,-267 287,-672 255,-1121 -360,-39 -1285,673 -1381,1277z"/>
   <path class="fil1" d="M6574 28315c107,-24 195,-56 301,-90 107,-34 958,-162 1042,-301 31,-137 -32,-187 -86,-302 -46,-99 -68,-260 -108,-347 -257,-64 -914,-40 -1220,-21 -32,118 68,834 70,1061z"/>
   <path class="fil1" d="M5551 27065c-34,-56 -44,-81 -88,-143l-141 -140c-185,349 450,1583 1054,1557 15,-455 37,-1396 -498,-1591 -344,-126 -138,155 -328,318z"/>
   <path class="fil1" d="M8180 27915c89,-88 108,-200 220,-352 383,-521 225,-868 112,-1388 -130,89 -127,198 -261,350 -126,-213 -96,-627 -247,-829 -198,226 -316,1715 176,2218z"/>
   <path class="fil1" d="M7045 25559l0 0zm-1288 409c196,146 886,189 1158,144 427,-71 687,-224 797,-561l-628 44c17,-97 217,-138 324,-261 -534,-350 -1473,409 -1650,635z"/>
   <path class="fil1" d="M8736 27311c734,123 1907,642 2612,622 40,-74 47,-67 100,-147l50 -172c-571,-131 -497,-9 -1359,-289 -418,-136 -842,-355 -1324,-339 -59,94 -69,190 -79,325z"/>
   <path class="fil1" d="M7070 28354c-30,39 35,29 -90,45 50,65 -34,17 78,38 517,25 1323,-69 1850,-125l1345 -138c71,-8 135,-14 211,-23l226 -66c-445,-282 -1310,-151 -1844,-80 -301,40 -623,98 -905,160 -230,50 -654,186 -872,190z"/>
   <path class="fil1" d="M18155 26638c-230,-232 -2363,-1404 -2866,-1605 133,285 2071,1543 2511,1763 124,62 293,-67 355,-158z"/>
   <path class="fil1" d="M8723 25568c103,196 197,120 342,274 -72,1 -149,-3 -219,-2 -596,12 327,496 337,501 380,159 600,74 953,-14 -126,-505 -1031,-974 -1414,-759z"/>
   <path class="fil1" d="M10209 26532c80,135 307,311 446,419 60,47 108,77 184,133 103,75 789,484 755,96 -36,-420 -341,-920 -939,-820l-447 172z"/>
   <path class="fil1" d="M2247 20603c-193,454 -928,628 -962,1064 258,-5 623,-4 872,-34 169,-20 262,-141 402,-335 39,-53 29,-22 56,-95l-255 -562c-7,-10 -30,-35 -36,-41 -5,-5 -19,-7 -22,-20 -4,-14 -16,-13 -24,-20 8,54 21,42 -31,42z"/>
   <path class="fil1" d="M12714 26011c108,360 548,897 884,998 -108,-582 -14,-683 97,-1188 -195,23 -872,125 -981,190z"/>
   <path class="fil1" d="M11763 27873l126 71c506,186 2373,407 2739,347 -193,-188 -1726,-384 -2178,-459 -621,-103 -579,-199 -688,41z"/>
   <path class="fil1" d="M3540 22626c79,202 -10,54 266,235l653 550c256,205 233,-136 116,-332 -212,-354 -281,-332 -523,-890 -198,91 -335,307 -512,436z"/>
   <path class="fil1" d="M12492 24341l-1122 38c200,246 969,447 1364,367l26 -57c14,-52 14,-25 20,-97 13,-171 -71,-407 -105,-547 -117,76 -95,142 -183,296z"/>
   <path class="fil1" d="M1953 26657c43,39 8,23 77,53 197,86 1387,116 1719,-60 8,-4 17,-11 24,-15l46 -33c-433,-442 -1566,-7 -1867,55z"/>
   <path class="fil1" d="M10570 23754c108,310 226,239 249,243 97,17 184,117 401,126 320,12 752,-21 1085,-35l-72 -790c-243,685 114,755 -1662,456z"/>
   <polygon class="fil1" points="6413,27059 7621,27085 7628,26732 6302,26729 "/>
   <path class="fil1" d="M5404 26453c394,130 1518,147 1702,-189 -624,2 -862,37 -1466,-113 -96,106 -171,185 -236,302z"/>
   <path class="fil1" d="M9126 22471c116,108 321,186 501,194 225,-140 257,-318 240,-637l-556 -73 -186 516z"/>
   <path class="fil1" d="M10130 22006c200,111 419,145 652,94 218,-359 78,-674 -414,-662l-238 568z"/>
   <path class="fil1" d="M9265 21658c275,280 705,129 821,-33 259,-362 -277,-364 -608,-396l-213 430z"/>
   <path class="fil1" d="M10873 27324l-573 -512c-286,-237 -300,-248 -802,-233 62,119 379,392 545,490 273,162 489,207 830,255z"/>
   <path class="fil1" d="M8946 20709c215,46 486,84 671,-44 191,-133 109,-380 57,-601 -318,55 -727,329 -727,645z"/>
   <path class="fil1" d="M10489 23022c-175,-116 -272,-73 -613,-269 -68,306 -251,609 104,711 275,79 532,-158 510,-442z"/>
   <path class="fil1" d="M11577 22643c133,68 391,118 549,35 162,-84 192,-251 191,-492l-499 -110 -241 567z"/>
   <path class="fil1" d="M10422 21223c252,197 672,118 833,-90 -44,-96 -251,-353 -311,-422 -273,-4 -265,80 -521,512z"/>
   <path class="fil1" d="M8788 21657c359,16 535,-308 555,-665 -139,-48 -298,-105 -478,-92 -95,211 -120,486 -77,757z"/>
   <path class="fil1" d="M10592 23082c4,149 -28,256 68,297 61,26 300,21 370,5 212,-50 318,-249 275,-500l-196 -27c-263,8 -341,66 -517,226z"/>
   <path class="fil1" d="M10623 22763c90,-195 124,-101 117,-416 -142,-35 -264,-42 -411,-82 -183,-50 -292,-142 -320,66 -46,344 303,443 613,431z"/>
   <path class="fil1" d="M8379 27886c394,-17 861,-62 1222,-147 -136,-200 -720,-255 -927,-258 -75,89 -278,317 -296,405z"/>
   <path class="fil1" d="M9606 20929c119,220 674,429 826,-113 -63,-44 -375,-170 -456,-170 -96,1 -308,222 -370,283z"/>
   <path class="fil1" d="M10935 22220l19 471c286,-9 568,-103 604,-370 37,-277 -192,-217 -624,-101z"/>
   <path class="fil1" d="M11051 21462c-23,250 123,156 3,531 529,-26 642,-222 360,-635 -132,1 -266,54 -363,104z"/>
   <path class="fil1" d="M17441 25897c68,79 252,256 396,239 110,-13 415,-137 497,-203 -68,-97 -199,-254 -390,-221 -111,19 -435,119 -504,185z"/>
   <path class="fil1" d="M10680 20561c-12,-264 -473,-461 -776,-524 -16,258 70,351 237,441 165,90 335,151 540,82z"/>
   <path class="fil1" d="M16720 25592c209,138 292,226 747,4 -25,-165 -148,-304 -341,-249l-310 153c-77,52 11,-14 -41,31 -54,47 -13,1 -55,61z"/>
   <path class="fil1" d="M12035 21413c-413,259 -49,501 198,386 357,-166 66,-552 -198,-386z"/>
   <path class="fil1" d="M6547 25261c-106,-121 -478,-443 -693,-519 -41,287 74,329 209,450 137,122 258,210 484,69z"/>
   <path class="fil1" d="M15531 28127c-46,-116 -237,-294 -313,-376 -82,-88 -263,-284 -363,-334 -17,520 203,640 676,710z"/>
   <path class="fil1" d="M13437 23611c-70,-169 -391,-551 -582,-615 2,361 -13,617 582,615z"/>
   <path class="fil1" d="M8848 26784l589 157c-26,-156 -400,-529 -577,-545l-13 389z"/>
   <path class="fil1" d="M12431 22015c83,202 177,376 371,414 161,-225 -26,-468 -175,-589l-195 175z"/>
   <path class="fil1" d="M11518 20975c31,184 131,388 352,292 207,-90 59,-312 -5,-425 -170,26 -191,86 -348,133z"/>
   <path class="fil1" d="M7140 26522l470 -7c58,-72 15,28 62,-119 1,-5 17,-104 19,-118 10,-92 19,-181 14,-259 -150,41 -430,391 -565,502z"/>
   <path class="fil1" d="M2499 20350c11,179 120,561 212,675 5,-7 12,-27 13,-22l71 -722 -296 69z"/>
   <path class="fil1" d="M8957 22335c153,-83 181,-234 181,-476l-314 -76c14,166 9,431 133,553z"/>
   <path class="fil1" d="M11311 20246c-59,-189 -304,-234 -549,-231 1,272 321,427 549,231z"/>
   <path class="fil1" d="M16662 26682c-7,-176 -37,-263 -139,-342 -61,-47 -192,-140 -284,-148 -17,312 138,444 423,491z"/>
   <path class="fil1" d="M9612 22877c-278,-21 -371,-138 -536,-151 39,130 115,327 216,372 181,81 301,-86 321,-220z"/>
   <path class="fil1" d="M18132 26249c55,137 6,59 154,126 110,50 91,59 219,95 56,-113 119,-198 138,-371 -152,22 -413,50 -511,151z"/>
   <path class="fil1" d="M14694 28044c-167,-146 -423,-316 -698,-356 32,239 17,254 250,290 141,22 298,78 448,66z"/>
   <path class="fil1" d="M9806 16863l244 182c108,-95 221,-274 193,-439l-51 -12c-146,11 -285,173 -386,268z"/>
   <path class="fil1" d="M11172 20521c78,152 150,231 374,227 79,-102 81,-56 123,-187l-134 -135 -364 95z"/>
   <path class="fil1" d="M4610 23693l197 248c7,8 26,30 33,37 39,37 20,21 59,45l117 -172 -152 -322 -253 164z"/>
   <path class="fil1" d="M16184 25183c41,121 89,147 137,259 125,-51 180,-84 269,-181 -46,-126 -78,-161 -188,-205 -98,46 -114,82 -218,126z"/>
   <path class="fil1" d="M15435 24789c54,101 74,111 109,202 176,-22 231,-56 323,-153 -34,-105 -85,-135 -206,-186l-226 137z"/>
   <path class="fil1" d="M5746 25738c131,-95 253,-131 279,-335 -60,-76 -134,-176 -260,-158l-19 493z"/>
   <path class="fil1" d="M17242 27164l265 -88c-78,-175 -267,-249 -476,-300 45,177 151,252 211,389z"/>
   <path class="fil1" d="M12834 27706c148,50 369,152 554,121 -107,-142 -357,-262 -543,-332l-11 212z"/>
   <path class="fil1" d="M15520 26058l275 23c-15,-206 -133,-383 -270,-423l-5 400z"/>
   <path class="fil1" d="M14644 25361l312 55c-5,-231 -142,-330 -382,-301l70 246z"/>
   <path class="fil1" d="M14801 24472c37,86 -7,47 80,122 40,35 69,43 110,63l233 -106 -149 -209 -273 129z"/>
   <path class="fil2" d="M2247 20603c53,0 40,12 31,-42 8,7 21,6 24,20 4,14 18,16 22,20 5,6 29,31 36,41l-4 -107c-173,-37 -18,-12 -79,25l-31 42z"/>
   <path class="fil2" d="M10022 19610c85,64 47,52 158,29 18,-118 35,-43 -29,-120l17 115 -145 -24z"/>
   <path class="fil2" d="M7057 28437c-112,-21 -28,27 -78,-38 126,-16 61,-7 90,-45 -205,65 -77,15 -134,111l122 -27z"/>
  </g>
 </g>
</svg>
