<?xml version="1.0" encoding="UTF-8" standalone="no" ?>
<!DOCTYPE svg PUBLIC "-//W3C//DTD SVG 1.1//EN" "http://www.w3.org/Graphics/SVG/1.1/DTD/svg11.dtd">
<svg xmlns="http://www.w3.org/2000/svg" xmlns:xlink="http://www.w3.org/1999/xlink" version="1.1" width="500" height="400" viewBox="0 0 500 400" xml:space="preserve">
<desc>Created with Fabric.js 1.6.0</desc>
<defs></defs>
<g style="stroke: none; stroke-width: 1; stroke-dasharray: none; stroke-linecap: butt; stroke-linejoin: miter; stroke-miterlimit: 10; fill: none; fill-rule: nonzero; opacity: 1;" transform="translate(1.6496062992125644 -393.7598425196852) scale(0.66 0.66)" >
	<path d="M 7057 28437 l -122 27 c 58 -96 -70 -46 134 -111 c 218 -4 642 -139 872 -190 c 282 -62 604 -120 905 -160 c 535 -71 1399 -202 1844 80 l -226 66 c -76 10 -141 15 -211 23 l -1345 138 c -527 56 -1333 150 -1850 125 z m 5393 -605 c 452 75 1984 271 2178 459 c -366 59 -2234 -161 -2739 -347 l -126 -71 c 109 -240 66 -144 688 -41 z m 1546 -144 c 275 39 530 210 698 356 c -150 12 -307 -44 -448 -66 c -233 -36 -218 -51 -250 -290 z m -5617 198 c 18 -88 221 -316 296 -405 c 207 3 791 58 927 258 c -361 85 -828 130 -1222 147 z m 4467 -391 c 186 70 436 191 543 332 c -185 31 -406 -70 -554 -121 l 11 -212 z m 2010 -78 c 100 50 281 246 363 334 c 76 82 267 259 313 376 c -473 -69 -693 -190 -676 -710 z m -7981 808 c -107 34 -194 65 -301 90 c -3 -227 -102 -943 -70 -1061 c 306 -19 963 -43 1220 21 c 40 87 63 248 108 347 c 53 115 117 165 86 302 c -84 139 -935 267 -1042 301 z m 3264 -901 c 862 280 787 158 1359 289 l -50 172 c -52 80 -60 73 -100 147 c -706 19 -1878 -499 -2612 -622 c 10 -135 20 -230 79 -325 c 481 -16 906 203 1324 339 z m -4588 -260 c 189 -163 -17 -444 328 -318 c 535 195 513 1137 498 1591 c -604 26 -1239 -1208 -1054 -1557 l 141 140 c 44 62 54 88 88 143 z m 6357 470 c 54 -281 52 -519 183 -761 l 393 -527 c 156 76 1114 1040 1157 1375 c -277 44 -687 -208 -906 -353 c -51 -34 -83 -59 -124 -86 l -148 -90 l 153 598 c -273 42 -483 -94 -708 -156 z m -3728 381 c -493 -504 -374 -1992 -176 -2218 c 151 202 121 616 247 829 c 134 -152 131 -262 261 -350 c 113 520 271 867 -112 1388 c -112 152 -131 264 -220 352 z m 9061 -752 c -59 -137 -166 -212 -211 -389 c 209 52 398 125 476 300 l -265 88 z m -9621 -78 l -1208 -26 l -110 -330 l 1326 4 l -8 353 z m 1240 -690 c 177 17 551 390 577 545 l -589 -157 l 13 -389 z m 2012 928 c -341 -48 -557 -93 -830 -255 c -165 -98 -482 -370 -545 -490 c 502 -15 516 -4 802 233 l 573 512 z m -5831 -608 c -93 554 -1173 1347 -1672 1321 c -120 -6 -92 -88 -51 -222 c 184 -599 646 -1172 1343 -1266 c -57 187 -134 257 -189 424 l 569 -257 z m -3089 -59 c 301 -62 1433 -497 1867 -55 l -46 33 c -7 4 -16 11 -24 15 c -332 176 -1522 147 -1719 60 c -69 -30 -34 -14 -77 -53 z m 8702 -297 c 598 -100 903 400 939 820 c 33 388 -652 -21 -755 -96 c -77 -56 -124 -86 -184 -133 c -139 -108 -366 -285 -446 -419 l 447 -172 z m 5867 -20 c 102 79 132 166 139 342 c -285 -47 -440 -178 -423 -491 c 92 9 223 101 284 148 z m 1609 -91 c 97 -101 359 -128 511 -151 c -19 173 -82 258 -138 371 c -128 -36 -109 -44 -219 -95 c -147 -67 -99 11 -154 -126 z m -12728 203 c 65 -116 140 -196 236 -302 c 604 149 843 115 1466 113 c -185 336 -1308 319 -1702 189 z m 10121 -795 c 137 40 255 217 270 423 l -275 -23 l 5 -400 z m -8385 864 c 135 -111 415 -461 565 -502 c 5 77 -4 166 -14 259 c -2 14 -17 113 -19 118 c -47 147 -4 47 -62 119 l -470 7 z m 5574 -511 c 109 -65 786 -167 981 -190 c -111 505 -205 606 -97 1188 c -336 -101 -775 -639 -884 -998 z m 4727 -115 c 69 -67 392 -166 504 -185 c 191 -33 321 124 390 221 c -82 66 -387 190 -497 203 c -144 17 -328 -160 -396 -239 z m -8375 -55 c -145 -154 -239 -78 -342 -274 c 383 -215 1288 254 1414 759 c -353 88 -573 173 -953 14 c -10 -4 -934 -489 -337 -501 c 70 -1 147 3 219 2 z m 7655 -250 c 42 -59 1 -14 55 -61 c 52 -46 -35 21 41 -31 l 310 -153 c 193 -55 316 83 341 249 c -456 222 -539 134 -747 -4 z m -12261 776 c -640 175 -1105 -93 -1590 -489 c -130 -106 -279 -239 -346 -392 c 417 -80 919 -87 1333 40 c 324 100 765 361 863 581 l -637 -76 c 68 68 114 93 209 153 c 139 88 124 56 168 182 z m 1306 -1123 c 126 -19 200 82 260 158 c -27 204 -149 241 -279 335 l 19 -493 z m -8 722 c 177 -226 1116 -985 1650 -635 c -107 124 -308 164 -324 261 l 628 -44 c -109 337 -370 491 -797 561 c -272 45 -962 2 -1158 -144 z m 1288 -409 l 0 0 z m 2109 -216 c 49 -143 261 -410 363 -545 c 121 -161 220 -346 282 -559 c 86 27 281 187 388 252 c 338 208 855 440 1226 573 c 627 224 1398 386 2103 244 c 38 -148 60 -302 57 -477 l 236 239 c 53 64 141 184 160 299 c -237 241 -998 425 -1391 515 c -207 48 -232 21 -313 180 c -132 257 -325 707 -484 904 c -119 -151 -135 -468 -458 -682 c -274 -181 -630 -89 -935 -27 c -184 -239 -778 -829 -1232 -915 z m 7248 -286 c 110 44 142 78 188 205 c -89 97 -143 130 -269 181 c -48 -112 -96 -138 -137 -259 c 103 -44 120 -80 218 -126 z m -11430 1007 c -211 -211 -253 -967 -184 -1299 c 55 -269 306 -865 582 -973 c 113 485 518 1258 51 2026 c -4 7 -75 100 -76 100 c -53 50 -11 29 -87 57 c 1 -183 -27 -598 -102 -733 c -112 189 -97 601 -184 821 z m 9672 -703 l -70 -246 c 240 -29 377 70 382 301 l -312 -55 z m 3512 1277 c -62 91 -231 220 -355 158 c -440 -220 -2378 -1478 -2511 -1763 c 503 201 2636 1373 2866 1605 z m -12093 -1445 c -135 -121 -250 -163 -209 -450 c 215 76 587 398 693 519 c -226 141 -348 53 -484 -69 z m 9598 -540 c 121 51 172 81 206 186 c -92 97 -147 131 -323 153 c -35 -91 -56 -102 -109 -202 l 226 -137 z m -587 -309 l 149 209 l -233 106 c -41 -21 -70 -28 -110 -63 c -87 -76 -42 -36 -80 -122 l 273 -129 z m -2582 -3 c 88 -154 65 -220 183 -296 c 34 139 118 376 105 547 c -6 73 -6 45 -20 97 l -26 57 c -395 80 -1165 -122 -1364 -367 l 1122 -38 z m -4336 697 c 96 -604 1021 -1315 1381 -1277 c 32 449 -41 854 -255 1121 c -170 213 -536 477 -963 444 c 13 -135 -1 -73 77 -166 c 130 -154 277 -257 332 -396 l -572 274 z m -518 145 c -290 -40 -1017 -863 -588 -1961 c 638 110 1101 874 840 1642 c -57 -59 -92 -131 -146 -225 c -22 -39 -46 -86 -79 -132 l -95 -102 l 67 778 z m 2931 -1428 c 1776 298 1420 229 1662 -456 l 72 790 c -334 14 -765 47 -1085 35 c -217 -8 -304 -109 -401 -126 c -23 -4 -141 68 -249 -243 z m -5706 -225 l 152 322 l -117 172 c -39 -25 -20 -8 -59 -45 c -7 -7 -26 -29 -33 -37 l -197 -248 l 253 -164 z m 8574 81 c -595 3 -580 -254 -582 -615 c 191 63 512 445 582 615 z m -2948 -588 c 22 283 -235 521 -510 442 c -354 -102 -171 -405 -104 -711 c 341 196 438 154 613 269 z m 103 60 c 176 -159 254 -217 517 -226 l 196 27 c 43 251 -63 450 -275 500 c -69 16 -308 22 -370 -5 c -95 -41 -63 -148 -68 -297 z m -980 -205 c -19 134 -139 301 -321 220 c -101 -45 -177 -242 -216 -372 c 166 13 258 130 536 151 z m -6072 -251 c 177 -129 313 -346 512 -436 c 242 558 311 536 523 890 c 117 196 140 537 -116 332 l -653 -550 c -275 -181 -187 -34 -266 -235 z m 7082 137 c -310 12 -659 -87 -613 -431 c 28 -209 137 -117 320 -66 c 146 40 269 47 411 82 c 7 315 -27 221 -117 416 z m 1195 -686 l 499 110 c 1 242 -29 408 -191 492 c -158 82 -416 32 -549 -35 l 241 -567 z m -883 144 c 432 -116 661 -176 624 101 c -36 267 -318 362 -604 370 l -19 -471 z m -1623 -266 l 556 73 c 17 319 -15 498 -240 637 c -180 -8 -385 -86 -501 -194 l 186 -516 z m 3315 -114 c 149 121 336 364 175 589 c -193 -39 -288 -212 -371 -414 l 195 -175 z m -3670 494 c -125 -122 -119 -387 -133 -553 l 314 76 c 0 242 -28 393 -181 476 z m -6710 -495 c 17 176 62 219 -68 314 c -50 36 -188 113 -241 148 c -560 377 -331 881 -588 966 c -208 69 -476 6 -580 -123 c -320 -399 -186 -1457 1477 -1305 z m 8121 -402 c 492 -11 632 303 414 662 c -233 51 -452 17 -652 -94 l 238 -568 z m -7165 -213 c 1171 -178 810 1099 59 1305 c -991 272 -1024 -1158 -59 -1305 z m 8831 188 c 263 -165 555 220 198 386 c -246 114 -611 -127 -198 -386 z m -984 49 c 98 -49 231 -103 363 -104 c 282 413 170 609 -360 635 c 119 -375 -27 -281 -3 -531 z m -1573 -233 c 331 32 867 34 608 396 c -116 162 -546 313 -821 33 l 213 -430 z m -7230 -626 l 31 -42 c 61 -37 -94 -63 79 -25 l 4 107 l 255 562 c -28 73 -18 41 -56 95 c -140 194 -234 315 -402 335 c -249 30 -613 28 -872 34 c 34 -437 769 -611 962 -1064 z m 8175 620 c 256 -432 248 -516 521 -512 c 61 70 268 326 311 422 c -160 208 -580 286 -833 90 z m -1634 434 c -44 -271 -19 -546 77 -757 c 180 -13 340 44 478 92 c -20 357 -196 681 -555 665 z m 2731 -682 c 157 -47 178 -106 348 -133 c 63 113 212 335 5 425 c -222 96 -322 -108 -352 -292 z m -5639 1216 c 0 -419 246 -1030 459 -1227 c -29 363 -128 678 -144 1121 c -32 932 -23 1330 413 2137 c 79 147 149 267 239 396 c 88 126 149 235 169 435 c -457 52 -757 -484 -893 -839 c -256 -667 -243 -1323 -243 -2023 z m 3727 -1263 c 63 -61 274 -282 370 -283 c 80 -1 393 126 456 170 c -152 542 -707 333 -826 113 z m 1929 -503 l 134 135 c -42 132 -45 85 -123 187 c -224 4 -297 -75 -374 -227 l 364 -95 z m -2589 283 c 1 -316 409 -590 727 -645 c 52 220 134 468 -57 601 c -184 128 -455 90 -671 44 z m -2249 3287 c -83 -73 -93 -126 -141 -251 c -267 -693 -313 -1508 -168 -2214 c 124 -603 672 -1549 1126 -1772 c 398 713 170 799 111 1632 c -46 651 2 1280 12 1918 c -139 -32 -516 -361 -702 -441 l -238 1128 z m -3903 -3715 l -71 722 c -2 -5 -8 15 -13 22 c -92 -115 -201 -497 -212 -675 l 296 -69 z m 7346 198 c -167 -90 -253 -183 -237 -441 c 304 63 765 260 776 524 c -204 69 -374 7 -540 -82 z m 621 -464 c 245 -3 490 41 549 231 c -228 196 -548 41 -549 -231 z m -7814 1022 c -53 -550 97 -988 431 -1177 c 482 -272 1041 -144 1142 236 c -255 146 -495 378 -709 586 c -87 84 -233 242 -351 286 c -89 34 -417 86 -513 70 z m 5355 3224 c -120 -264 -347 -612 -421 -955 c -141 -656 -136 -1870 28 -2547 c 120 -495 -97 -686 -108 -1097 c 151 101 287 216 468 323 c 165 98 554 222 555 219 c 4 -7 16 7 23 12 c -260 664 -391 947 -227 1820 c 153 814 551 1384 573 1567 c -136 140 -315 201 -453 316 c -207 173 -253 290 -439 343 z m 1847 -4743 c 64 77 47 3 29 120 c -111 22 -73 35 -158 -29 c -304 -57 -431 -250 -538 -521 c -318 -807 79 -625 228 -628 c 130 -179 223 -193 192 -537 l -265 -15 l -25 -255 c -375 2 -324 232 -510 299 c -102 -949 895 -658 1050 -313 c 87 195 41 740 15 978 c -87 828 -32 288 -20 900 z m -344 -2655 c 101 -95 240 -257 386 -268 l 51 12 c 28 165 -84 344 -193 439 l -244 -182 z m 9514 9185 c -458 -273 -1134 -584 -1660 -809 c -565 -242 -1114 -506 -1690 -745 c -436 -181 -892 -388 -1349 -520 c -157 -46 -346 -76 -478 -122 c -268 -94 -710 -728 -842 -994 c -72 -145 -99 -295 -160 -440 c -103 -244 -729 -1208 -929 -1541 c -860 -1426 -1466 -839 -1731 -1338 c -316 -592 -54 -1370 -57 -1537 c -8 -397 -236 -627 -40 -1017 c 119 -237 353 -530 416 -799 c -440 93 -891 306 -1240 503 c -233 131 -422 75 -700 145 c -1332 336 -1493 1566 -1496 2747 c -1127 921 -1933 2147 -1657 3707 c 116 655 378 1152 419 1365 c -305 -7 -584 -981 -696 -1159 c -147 39 -107 87 -247 143 c -241 -282 -122 -422 -102 -815 l -327 178 c -134 -260 -506 -554 -536 -982 c -77 -1110 64 -580 -432 -1061 c 227 -425 748 -582 979 -741 c -70 -390 -588 -783 -1113 -648 c -522 134 -678 620 -1212 574 c 8 -188 11 -578 42 -744 c 51 -270 284 -216 227 -561 c -97 -68 -230 -145 -410 -88 c -189 126 4 273 4 833 c 0 517 70 579 -134 835 c -81 103 -145 181 -215 278 c -306 421 -592 334 -767 678 c -82 161 -49 253 -129 366 c -151 213 -473 480 -551 892 c -68 359 74 528 252 703 c 212 209 438 175 789 175 c 158 -53 33 -1053 706 -1191 l 225 215 c 484 357 597 -81 1389 586 c 630 531 267 414 256 864 c 516 -91 691 0 560 533 c -100 407 -126 699 -83 1148 c -292 -19 -334 -153 -569 -240 c -593 -218 -1366 -200 -1919 8 c 91 211 655 376 810 784 c -842 159 -1332 495 -1936 843 c 289 141 2364 -385 2583 -155 c 61 40 48 -9 -29 132 c -33 61 -62 107 -91 162 c -130 241 -454 895 -446 1120 c 464 -27 1301 -459 1678 -770 c 161 -132 264 -312 392 -407 c 284 522 511 972 873 1296 c -150 150 -426 158 -525 359 c 1605 -32 3828 -479 5300 -479 c 1389 0 3860 310 5404 369 c 66 -142 169 -250 216 -391 c -158 -132 -347 -188 -511 -309 c -393 -289 -769 -565 -1041 -972 c -49 -73 -91 -150 -170 -186 c -62 317 -31 610 -22 929 c -79 -20 -615 -328 -657 -387 c -66 -92 -402 -1299 178 -1608 c 313 -167 473 38 686 179 l 1883 1257 c 142 98 482 336 633 392 c 204 -109 373 -212 592 -328 c 198 -105 426 -175 595 -285 c 193 -125 754 -685 814 -930 z" style="stroke: none; stroke-width: 1; stroke-dasharray: none; stroke-linecap: butt; stroke-linejoin: miter; stroke-miterlimit: 10; fill: black; fill-rule: evenodd; opacity: 1;" transform=" matrix(0.03779527559055119 0 0 0.03779527559055119 0 0) " stroke-linecap="round" />
	<path d="M 9154 25343 c 454 86 1048 676 1232 915 c 305 -62 662 -153 935 27 c 324 214 340 530 458 682 c 159 -197 353 -647 484 -904 c 82 -159 106 -132 313 -180 c 393 -91 1154 -274 1391 -515 c -19 -116 -107 -235 -160 -299 l -236 -239 c 3 175 -19 330 -57 477 c -705 142 -1476 -20 -2103 -244 c -371 -132 -888 -365 -1226 -573 c -106 -65 -302 -225 -388 -252 c -61 213 -161 398 -282 559 c -101 135 -314 402 -363 545 z" style="stroke: none; stroke-width: 1; stroke-dasharray: none; stroke-linecap: butt; stroke-linejoin: miter; stroke-miterlimit: 10; fill: white; fill-rule: evenodd; opacity: 1;" transform=" matrix(0.03779527559055119 0 0 0.03779527559055119 0 0) " stroke-linecap="round" />
	<path d="M 6698 23996 l 238 -1128 c 186 80 563 409 702 441 c -11 -638 -58 -1267 -12 -1918 c 59 -833 287 -919 -111 -1632 c -454 224 -1002 1169 -1126 1772 c -145 706 -99 1521 168 2214 c 48 125 58 178 141 251 z" style="stroke: none; stroke-width: 1; stroke-dasharray: none; stroke-linecap: butt; stroke-linejoin: miter; stroke-miterlimit: 10; fill: white; fill-rule: evenodd; opacity: 1;" transform=" matrix(0.03779527559055119 0 0 0.03779527559055119 0 0) " stroke-linecap="round" />
	<path d="M 8303 24262 c 186 -53 231 -170 439 -343 c 138 -115 317 -176 453 -316 c -23 -183 -420 -753 -573 -1567 c -164 -873 -33 -1157 227 -1820 c -7 -5 -19 -19 -23 -12 c -2 3 -390 -121 -555 -219 c -181 -107 -317 -222 -468 -323 c 12 411 228 602 108 1097 c -164 678 -169 1891 -28 2547 c 74 344 301 691 421 955 z" style="stroke: none; stroke-width: 1; stroke-dasharray: none; stroke-linecap: butt; stroke-linejoin: miter; stroke-miterlimit: 10; fill: white; fill-rule: evenodd; opacity: 1;" transform=" matrix(0.03779527559055119 0 0 0.03779527559055119 0 0) " stroke-linecap="round" />
	<path d="M 3203 21225 c -965 147 -931 1577 59 1305 c 750 -206 1112 -1484 -59 -1305 z" style="stroke: none; stroke-width: 1; stroke-dasharray: none; stroke-linecap: butt; stroke-linejoin: miter; stroke-miterlimit: 10; fill: white; fill-rule: evenodd; opacity: 1;" transform=" matrix(0.03779527559055119 0 0 0.03779527559055119 0 0) " stroke-linecap="round" />
	<path d="M 2247 21839 c -1662 -153 -1796 906 -1477 1305 c 104 130 371 192 580 123 c 257 -85 28 -589 588 -966 c 53 -35 191 -112 241 -148 c 131 -95 85 -138 68 -314 z" style="stroke: none; stroke-width: 1; stroke-dasharray: none; stroke-linecap: butt; stroke-linejoin: miter; stroke-miterlimit: 10; fill: white; fill-rule: evenodd; opacity: 1;" transform=" matrix(0.03779527559055119 0 0 0.03779527559055119 0 0) " stroke-linecap="round" />
	<path d="M 10022 19610 l 145 24 l -17 -115 c -13 -611 -67 -72 20 -900 c 25 -239 72 -783 -15 -978 c -155 -345 -1152 -636 -1050 313 c 186 -67 135 -298 510 -299 l 25 255 l 265 15 c 31 344 -61 358 -192 537 c -149 3 -546 -179 -228 628 c 107 272 234 465 538 521 z" style="stroke: none; stroke-width: 1; stroke-dasharray: none; stroke-linecap: butt; stroke-linejoin: miter; stroke-miterlimit: 10; fill: white; fill-rule: evenodd; opacity: 1;" transform=" matrix(0.03779527559055119 0 0 0.03779527559055119 0 0) " stroke-linecap="round" />
	<path d="M 5879 22192 c 0 700 -12 1357 243 2023 c 136 354 436 891 893 839 c -20 -200 -81 -309 -169 -435 c -90 -129 -160 -250 -239 -396 c -436 -807 -445 -1204 -413 -2137 c 15 -443 115 -758 144 -1121 c -213 196 -459 808 -459 1227 z" style="stroke: none; stroke-width: 1; stroke-dasharray: none; stroke-linecap: butt; stroke-linejoin: miter; stroke-miterlimit: 10; fill: white; fill-rule: evenodd; opacity: 1;" transform=" matrix(0.03779527559055119 0 0 0.03779527559055119 0 0) " stroke-linecap="round" />
	<path d="M 7639 25182 l -67 -778 l 95 102 c 33 46 57 94 79 132 c 54 95 89 166 146 225 c 261 -767 -203 -1531 -840 -1642 c -429 1097 298 1921 588 1961 z" style="stroke: none; stroke-width: 1; stroke-dasharray: none; stroke-linecap: butt; stroke-linejoin: miter; stroke-miterlimit: 10; fill: white; fill-rule: evenodd; opacity: 1;" transform=" matrix(0.03779527559055119 0 0 0.03779527559055119 0 0) " stroke-linecap="round" />
	<path d="M 4972 26064 c 88 -219 72 -631 184 -821 c 74 135 103 550 102 733 c 76 -28 34 -7 87 -57 c 1 -1 72 -93 76 -100 c 468 -768 62 -1541 -51 -2026 c -276 108 -527 704 -582 973 c -68 332 -26 1088 184 1299 z" style="stroke: none; stroke-width: 1; stroke-dasharray: none; stroke-linecap: butt; stroke-linejoin: miter; stroke-miterlimit: 10; fill: white; fill-rule: evenodd; opacity: 1;" transform=" matrix(0.03779527559055119 0 0 0.03779527559055119 0 0) " stroke-linecap="round" />
	<path d="M 11908 27535 c 226 63 436 198 708 156 l -153 -598 l 148 90 c 41 27 73 52 124 86 c 219 145 629 397 906 353 c -43 -336 -1000 -1300 -1157 -1375 l -393 527 c -131 242 -130 480 -183 761 z" style="stroke: none; stroke-width: 1; stroke-dasharray: none; stroke-linecap: butt; stroke-linejoin: miter; stroke-miterlimit: 10; fill: white; fill-rule: evenodd; opacity: 1;" transform=" matrix(0.03779527559055119 0 0 0.03779527559055119 0 0) " stroke-linecap="round" />
	<path d="M 2948 21037 c 97 17 424 -36 513 -70 c 118 -45 265 -202 351 -286 c 214 -207 454 -440 709 -586 c -101 -380 -660 -508 -1142 -236 c -334 189 -484 628 -431 1177 z" style="stroke: none; stroke-width: 1; stroke-dasharray: none; stroke-linecap: butt; stroke-linejoin: miter; stroke-miterlimit: 10; fill: white; fill-rule: evenodd; opacity: 1;" transform=" matrix(0.03779527559055119 0 0 0.03779527559055119 0 0) " stroke-linecap="round" />
	<path d="M 2524 25486 c 66 153 216 286 346 392 c 484 396 949 664 1590 489 c -44 -126 -29 -95 -168 -182 c -95 -60 -141 -85 -209 -153 l 637 76 c -97 -220 -538 -481 -863 -581 c -414 -128 -917 -121 -1333 -40 z" style="stroke: none; stroke-width: 1; stroke-dasharray: none; stroke-linecap: butt; stroke-linejoin: miter; stroke-miterlimit: 10; fill: white; fill-rule: evenodd; opacity: 1;" transform=" matrix(0.03779527559055119 0 0 0.03779527559055119 0 0) " stroke-linecap="round" />
	<path d="M 5042 26716 l -569 257 c 55 -167 132 -237 189 -424 c -697 94 -1159 666 -1343 1266 c -41 134 -70 216 51 222 c 499 26 1579 -767 1672 -1321 z" style="stroke: none; stroke-width: 1; stroke-dasharray: none; stroke-linecap: butt; stroke-linejoin: miter; stroke-miterlimit: 10; fill: white; fill-rule: evenodd; opacity: 1;" transform=" matrix(0.03779527559055119 0 0 0.03779527559055119 0 0) " stroke-linecap="round" />
	<path d="M 8157 25037 l 572 -274 c -55 140 -202 243 -332 396 c -78 92 -64 31 -77 166 c 427 33 793 -232 963 -444 c 214 -267 287 -672 255 -1121 c -360 -39 -1285 673 -1381 1277 z" style="stroke: none; stroke-width: 1; stroke-dasharray: none; stroke-linecap: butt; stroke-linejoin: miter; stroke-miterlimit: 10; fill: white; fill-rule: evenodd; opacity: 1;" transform=" matrix(0.03779527559055119 0 0 0.03779527559055119 0 0) " stroke-linecap="round" />
	<path d="M 6574 28315 c 107 -24 195 -56 301 -90 c 107 -34 958 -162 1042 -301 c 31 -137 -32 -187 -86 -302 c -46 -99 -68 -260 -108 -347 c -257 -64 -914 -40 -1220 -21 c -32 118 68 834 70 1061 z" style="stroke: none; stroke-width: 1; stroke-dasharray: none; stroke-linecap: butt; stroke-linejoin: miter; stroke-miterlimit: 10; fill: white; fill-rule: evenodd; opacity: 1;" transform=" matrix(0.03779527559055119 0 0 0.03779527559055119 0 0) " stroke-linecap="round" />
	<path d="M 5551 27065 c -34 -56 -44 -81 -88 -143 l -141 -140 c -185 349 450 1583 1054 1557 c 15 -455 37 -1396 -498 -1591 c -344 -126 -138 155 -328 318 z" style="stroke: none; stroke-width: 1; stroke-dasharray: none; stroke-linecap: butt; stroke-linejoin: miter; stroke-miterlimit: 10; fill: white; fill-rule: evenodd; opacity: 1;" transform=" matrix(0.03779527559055119 0 0 0.03779527559055119 0 0) " stroke-linecap="round" />
	<path d="M 8180 27915 c 89 -88 108 -200 220 -352 c 383 -521 225 -868 112 -1388 c -130 89 -127 198 -261 350 c -126 -213 -96 -627 -247 -829 c -198 226 -316 1715 176 2218 z" style="stroke: none; stroke-width: 1; stroke-dasharray: none; stroke-linecap: butt; stroke-linejoin: miter; stroke-miterlimit: 10; fill: white; fill-rule: evenodd; opacity: 1;" transform=" matrix(0.03779527559055119 0 0 0.03779527559055119 0 0) " stroke-linecap="round" />
	<path d="M 7045 25559 l 0 0 z m -1288 409 c 196 146 886 189 1158 144 c 427 -71 687 -224 797 -561 l -628 44 c 17 -97 217 -138 324 -261 c -534 -350 -1473 409 -1650 635 z" style="stroke: none; stroke-width: 1; stroke-dasharray: none; stroke-linecap: butt; stroke-linejoin: miter; stroke-miterlimit: 10; fill: white; fill-rule: evenodd; opacity: 1;" transform=" matrix(0.03779527559055119 0 0 0.03779527559055119 0 0) " stroke-linecap="round" />
	<path d="M 8736 27311 c 734 123 1907 642 2612 622 c 40 -74 47 -67 100 -147 l 50 -172 c -571 -131 -497 -9 -1359 -289 c -418 -136 -842 -355 -1324 -339 c -59 94 -69 190 -79 325 z" style="stroke: none; stroke-width: 1; stroke-dasharray: none; stroke-linecap: butt; stroke-linejoin: miter; stroke-miterlimit: 10; fill: white; fill-rule: evenodd; opacity: 1;" transform=" matrix(0.03779527559055119 0 0 0.03779527559055119 0 0) " stroke-linecap="round" />
	<path d="M 7070 28354 c -30 39 35 29 -90 45 c 50 65 -34 17 78 38 c 517 25 1323 -69 1850 -125 l 1345 -138 c 71 -8 135 -14 211 -23 l 226 -66 c -445 -282 -1310 -151 -1844 -80 c -301 40 -623 98 -905 160 c -230 50 -654 186 -872 190 z" style="stroke: none; stroke-width: 1; stroke-dasharray: none; stroke-linecap: butt; stroke-linejoin: miter; stroke-miterlimit: 10; fill: white; fill-rule: evenodd; opacity: 1;" transform=" matrix(0.03779527559055119 0 0 0.03779527559055119 0 0) " stroke-linecap="round" />
	<path d="M 18155 26638 c -230 -232 -2363 -1404 -2866 -1605 c 133 285 2071 1543 2511 1763 c 124 62 293 -67 355 -158 z" style="stroke: none; stroke-width: 1; stroke-dasharray: none; stroke-linecap: butt; stroke-linejoin: miter; stroke-miterlimit: 10; fill: white; fill-rule: evenodd; opacity: 1;" transform=" matrix(0.03779527559055119 0 0 0.03779527559055119 0 0) " stroke-linecap="round" />
	<path d="M 8723 25568 c 103 196 197 120 342 274 c -72 1 -149 -3 -219 -2 c -596 12 327 496 337 501 c 380 159 600 74 953 -14 c -126 -505 -1031 -974 -1414 -759 z" style="stroke: none; stroke-width: 1; stroke-dasharray: none; stroke-linecap: butt; stroke-linejoin: miter; stroke-miterlimit: 10; fill: white; fill-rule: evenodd; opacity: 1;" transform=" matrix(0.03779527559055119 0 0 0.03779527559055119 0 0) " stroke-linecap="round" />
	<path d="M 10209 26532 c 80 135 307 311 446 419 c 60 47 108 77 184 133 c 103 75 789 484 755 96 c -36 -420 -341 -920 -939 -820 l -447 172 z" style="stroke: none; stroke-width: 1; stroke-dasharray: none; stroke-linecap: butt; stroke-linejoin: miter; stroke-miterlimit: 10; fill: white; fill-rule: evenodd; opacity: 1;" transform=" matrix(0.03779527559055119 0 0 0.03779527559055119 0 0) " stroke-linecap="round" />
	<path d="M 2247 20603 c -193 454 -928 628 -962 1064 c 258 -5 623 -4 872 -34 c 169 -20 262 -141 402 -335 c 39 -53 29 -22 56 -95 l -255 -562 c -7 -10 -30 -35 -36 -41 c -5 -5 -19 -7 -22 -20 c -4 -14 -16 -13 -24 -20 c 8 54 21 42 -31 42 z" style="stroke: none; stroke-width: 1; stroke-dasharray: none; stroke-linecap: butt; stroke-linejoin: miter; stroke-miterlimit: 10; fill: white; fill-rule: evenodd; opacity: 1;" transform=" matrix(0.03779527559055119 0 0 0.03779527559055119 0 0) " stroke-linecap="round" />
	<path d="M 12714 26011 c 108 360 548 897 884 998 c -108 -582 -14 -683 97 -1188 c -195 23 -872 125 -981 190 z" style="stroke: none; stroke-width: 1; stroke-dasharray: none; stroke-linecap: butt; stroke-linejoin: miter; stroke-miterlimit: 10; fill: white; fill-rule: evenodd; opacity: 1;" transform=" matrix(0.03779527559055119 0 0 0.03779527559055119 0 0) " stroke-linecap="round" />
	<path d="M 11763 27873 l 126 71 c 506 186 2373 407 2739 347 c -193 -188 -1726 -384 -2178 -459 c -621 -103 -579 -199 -688 41 z" style="stroke: none; stroke-width: 1; stroke-dasharray: none; stroke-linecap: butt; stroke-linejoin: miter; stroke-miterlimit: 10; fill: white; fill-rule: evenodd; opacity: 1;" transform=" matrix(0.03779527559055119 0 0 0.03779527559055119 0 0) " stroke-linecap="round" />
	<path d="M 3540 22626 c 79 202 -10 54 266 235 l 653 550 c 256 205 233 -136 116 -332 c -212 -354 -281 -332 -523 -890 c -198 91 -335 307 -512 436 z" style="stroke: none; stroke-width: 1; stroke-dasharray: none; stroke-linecap: butt; stroke-linejoin: miter; stroke-miterlimit: 10; fill: white; fill-rule: evenodd; opacity: 1;" transform=" matrix(0.03779527559055119 0 0 0.03779527559055119 0 0) " stroke-linecap="round" />
	<path d="M 12492 24341 l -1122 38 c 200 246 969 447 1364 367 l 26 -57 c 14 -52 14 -25 20 -97 c 13 -171 -71 -407 -105 -547 c -117 76 -95 142 -183 296 z" style="stroke: none; stroke-width: 1; stroke-dasharray: none; stroke-linecap: butt; stroke-linejoin: miter; stroke-miterlimit: 10; fill: white; fill-rule: evenodd; opacity: 1;" transform=" matrix(0.03779527559055119 0 0 0.03779527559055119 0 0) " stroke-linecap="round" />
	<path d="M 1953 26657 c 43 39 8 23 77 53 c 197 86 1387 116 1719 -60 c 8 -4 17 -11 24 -15 l 46 -33 c -433 -442 -1566 -7 -1867 55 z" style="stroke: none; stroke-width: 1; stroke-dasharray: none; stroke-linecap: butt; stroke-linejoin: miter; stroke-miterlimit: 10; fill: white; fill-rule: evenodd; opacity: 1;" transform=" matrix(0.03779527559055119 0 0 0.03779527559055119 0 0) " stroke-linecap="round" />
	<path d="M 10570 23754 c 108 310 226 239 249 243 c 97 17 184 117 401 126 c 320 12 752 -21 1085 -35 l -72 -790 c -243 685 114 755 -1662 456 z" style="stroke: none; stroke-width: 1; stroke-dasharray: none; stroke-linecap: butt; stroke-linejoin: miter; stroke-miterlimit: 10; fill: white; fill-rule: evenodd; opacity: 1;" transform=" matrix(0.03779527559055119 0 0 0.03779527559055119 0 0) " stroke-linecap="round" />
	<polygon points="6413,27059 7621,27085 7628,26732 6302,26729 " style="stroke: none; stroke-width: 1; stroke-dasharray: none; stroke-linecap: butt; stroke-linejoin: miter; stroke-miterlimit: 10; fill: white; fill-rule: evenodd; opacity: 1;" transform="  matrix(0.03779527559055119 0 0 0.03779527559055119 0 0) "/>
	<path d="M 5404 26453 c 394 130 1518 147 1702 -189 c -624 2 -862 37 -1466 -113 c -96 106 -171 185 -236 302 z" style="stroke: none; stroke-width: 1; stroke-dasharray: none; stroke-linecap: butt; stroke-linejoin: miter; stroke-miterlimit: 10; fill: white; fill-rule: evenodd; opacity: 1;" transform=" matrix(0.03779527559055119 0 0 0.03779527559055119 0 0) " stroke-linecap="round" />
	<path d="M 9126 22471 c 116 108 321 186 501 194 c 225 -140 257 -318 240 -637 l -556 -73 l -186 516 z" style="stroke: none; stroke-width: 1; stroke-dasharray: none; stroke-linecap: butt; stroke-linejoin: miter; stroke-miterlimit: 10; fill: white; fill-rule: evenodd; opacity: 1;" transform=" matrix(0.03779527559055119 0 0 0.03779527559055119 0 0) " stroke-linecap="round" />
	<path d="M 10130 22006 c 200 111 419 145 652 94 c 218 -359 78 -674 -414 -662 l -238 568 z" style="stroke: none; stroke-width: 1; stroke-dasharray: none; stroke-linecap: butt; stroke-linejoin: miter; stroke-miterlimit: 10; fill: white; fill-rule: evenodd; opacity: 1;" transform=" matrix(0.03779527559055119 0 0 0.03779527559055119 0 0) " stroke-linecap="round" />
	<path d="M 9265 21658 c 275 280 705 129 821 -33 c 259 -362 -277 -364 -608 -396 l -213 430 z" style="stroke: none; stroke-width: 1; stroke-dasharray: none; stroke-linecap: butt; stroke-linejoin: miter; stroke-miterlimit: 10; fill: white; fill-rule: evenodd; opacity: 1;" transform=" matrix(0.03779527559055119 0 0 0.03779527559055119 0 0) " stroke-linecap="round" />
	<path d="M 10873 27324 l -573 -512 c -286 -237 -300 -248 -802 -233 c 62 119 379 392 545 490 c 273 162 489 207 830 255 z" style="stroke: none; stroke-width: 1; stroke-dasharray: none; stroke-linecap: butt; stroke-linejoin: miter; stroke-miterlimit: 10; fill: white; fill-rule: evenodd; opacity: 1;" transform=" matrix(0.03779527559055119 0 0 0.03779527559055119 0 0) " stroke-linecap="round" />
	<path d="M 8946 20709 c 215 46 486 84 671 -44 c 191 -133 109 -380 57 -601 c -318 55 -727 329 -727 645 z" style="stroke: none; stroke-width: 1; stroke-dasharray: none; stroke-linecap: butt; stroke-linejoin: miter; stroke-miterlimit: 10; fill: white; fill-rule: evenodd; opacity: 1;" transform=" matrix(0.03779527559055119 0 0 0.03779527559055119 0 0) " stroke-linecap="round" />
	<path d="M 10489 23022 c -175 -116 -272 -73 -613 -269 c -68 306 -251 609 104 711 c 275 79 532 -158 510 -442 z" style="stroke: none; stroke-width: 1; stroke-dasharray: none; stroke-linecap: butt; stroke-linejoin: miter; stroke-miterlimit: 10; fill: white; fill-rule: evenodd; opacity: 1;" transform=" matrix(0.03779527559055119 0 0 0.03779527559055119 0 0) " stroke-linecap="round" />
	<path d="M 11577 22643 c 133 68 391 118 549 35 c 162 -84 192 -251 191 -492 l -499 -110 l -241 567 z" style="stroke: none; stroke-width: 1; stroke-dasharray: none; stroke-linecap: butt; stroke-linejoin: miter; stroke-miterlimit: 10; fill: white; fill-rule: evenodd; opacity: 1;" transform=" matrix(0.03779527559055119 0 0 0.03779527559055119 0 0) " stroke-linecap="round" />
	<path d="M 10422 21223 c 252 197 672 118 833 -90 c -44 -96 -251 -353 -311 -422 c -273 -4 -265 80 -521 512 z" style="stroke: none; stroke-width: 1; stroke-dasharray: none; stroke-linecap: butt; stroke-linejoin: miter; stroke-miterlimit: 10; fill: white; fill-rule: evenodd; opacity: 1;" transform=" matrix(0.03779527559055119 0 0 0.03779527559055119 0 0) " stroke-linecap="round" />
	<path d="M 8788 21657 c 359 16 535 -308 555 -665 c -139 -48 -298 -105 -478 -92 c -95 211 -120 486 -77 757 z" style="stroke: none; stroke-width: 1; stroke-dasharray: none; stroke-linecap: butt; stroke-linejoin: miter; stroke-miterlimit: 10; fill: white; fill-rule: evenodd; opacity: 1;" transform=" matrix(0.03779527559055119 0 0 0.03779527559055119 0 0) " stroke-linecap="round" />
	<path d="M 10592 23082 c 4 149 -28 256 68 297 c 61 26 300 21 370 5 c 212 -50 318 -249 275 -500 l -196 -27 c -263 8 -341 66 -517 226 z" style="stroke: none; stroke-width: 1; stroke-dasharray: none; stroke-linecap: butt; stroke-linejoin: miter; stroke-miterlimit: 10; fill: white; fill-rule: evenodd; opacity: 1;" transform=" matrix(0.03779527559055119 0 0 0.03779527559055119 0 0) " stroke-linecap="round" />
	<path d="M 10623 22763 c 90 -195 124 -101 117 -416 c -142 -35 -264 -42 -411 -82 c -183 -50 -292 -142 -320 66 c -46 344 303 443 613 431 z" style="stroke: none; stroke-width: 1; stroke-dasharray: none; stroke-linecap: butt; stroke-linejoin: miter; stroke-miterlimit: 10; fill: white; fill-rule: evenodd; opacity: 1;" transform=" matrix(0.03779527559055119 0 0 0.03779527559055119 0 0) " stroke-linecap="round" />
	<path d="M 8379 27886 c 394 -17 861 -62 1222 -147 c -136 -200 -720 -255 -927 -258 c -75 89 -278 317 -296 405 z" style="stroke: none; stroke-width: 1; stroke-dasharray: none; stroke-linecap: butt; stroke-linejoin: miter; stroke-miterlimit: 10; fill: white; fill-rule: evenodd; opacity: 1;" transform=" matrix(0.03779527559055119 0 0 0.03779527559055119 0 0) " stroke-linecap="round" />
	<path d="M 9606 20929 c 119 220 674 429 826 -113 c -63 -44 -375 -170 -456 -170 c -96 1 -308 222 -370 283 z" style="stroke: none; stroke-width: 1; stroke-dasharray: none; stroke-linecap: butt; stroke-linejoin: miter; stroke-miterlimit: 10; fill: white; fill-rule: evenodd; opacity: 1;" transform=" matrix(0.03779527559055119 0 0 0.03779527559055119 0 0) " stroke-linecap="round" />
	<path d="M 10935 22220 l 19 471 c 286 -9 568 -103 604 -370 c 37 -277 -192 -217 -624 -101 z" style="stroke: none; stroke-width: 1; stroke-dasharray: none; stroke-linecap: butt; stroke-linejoin: miter; stroke-miterlimit: 10; fill: white; fill-rule: evenodd; opacity: 1;" transform=" matrix(0.03779527559055119 0 0 0.03779527559055119 0 0) " stroke-linecap="round" />
	<path d="M 11051 21462 c -23 250 123 156 3 531 c 529 -26 642 -222 360 -635 c -132 1 -266 54 -363 104 z" style="stroke: none; stroke-width: 1; stroke-dasharray: none; stroke-linecap: butt; stroke-linejoin: miter; stroke-miterlimit: 10; fill: white; fill-rule: evenodd; opacity: 1;" transform=" matrix(0.03779527559055119 0 0 0.03779527559055119 0 0) " stroke-linecap="round" />
	<path d="M 17441 25897 c 68 79 252 256 396 239 c 110 -13 415 -137 497 -203 c -68 -97 -199 -254 -390 -221 c -111 19 -435 119 -504 185 z" style="stroke: none; stroke-width: 1; stroke-dasharray: none; stroke-linecap: butt; stroke-linejoin: miter; stroke-miterlimit: 10; fill: white; fill-rule: evenodd; opacity: 1;" transform=" matrix(0.03779527559055119 0 0 0.03779527559055119 0 0) " stroke-linecap="round" />
	<path d="M 10680 20561 c -12 -264 -473 -461 -776 -524 c -16 258 70 351 237 441 c 165 90 335 151 540 82 z" style="stroke: none; stroke-width: 1; stroke-dasharray: none; stroke-linecap: butt; stroke-linejoin: miter; stroke-miterlimit: 10; fill: white; fill-rule: evenodd; opacity: 1;" transform=" matrix(0.03779527559055119 0 0 0.03779527559055119 0 0) " stroke-linecap="round" />
	<path d="M 16720 25592 c 209 138 292 226 747 4 c -25 -165 -148 -304 -341 -249 l -310 153 c -77 52 11 -14 -41 31 c -54 47 -13 1 -55 61 z" style="stroke: none; stroke-width: 1; stroke-dasharray: none; stroke-linecap: butt; stroke-linejoin: miter; stroke-miterlimit: 10; fill: white; fill-rule: evenodd; opacity: 1;" transform=" matrix(0.03779527559055119 0 0 0.03779527559055119 0 0) " stroke-linecap="round" />
	<path d="M 12035 21413 c -413 259 -49 501 198 386 c 357 -166 66 -552 -198 -386 z" style="stroke: none; stroke-width: 1; stroke-dasharray: none; stroke-linecap: butt; stroke-linejoin: miter; stroke-miterlimit: 10; fill: white; fill-rule: evenodd; opacity: 1;" transform=" matrix(0.03779527559055119 0 0 0.03779527559055119 0 0) " stroke-linecap="round" />
	<path d="M 6547 25261 c -106 -121 -478 -443 -693 -519 c -41 287 74 329 209 450 c 137 122 258 210 484 69 z" style="stroke: none; stroke-width: 1; stroke-dasharray: none; stroke-linecap: butt; stroke-linejoin: miter; stroke-miterlimit: 10; fill: white; fill-rule: evenodd; opacity: 1;" transform=" matrix(0.03779527559055119 0 0 0.03779527559055119 0 0) " stroke-linecap="round" />
	<path d="M 15531 28127 c -46 -116 -237 -294 -313 -376 c -82 -88 -263 -284 -363 -334 c -17 520 203 640 676 710 z" style="stroke: none; stroke-width: 1; stroke-dasharray: none; stroke-linecap: butt; stroke-linejoin: miter; stroke-miterlimit: 10; fill: white; fill-rule: evenodd; opacity: 1;" transform=" matrix(0.03779527559055119 0 0 0.03779527559055119 0 0) " stroke-linecap="round" />
	<path d="M 13437 23611 c -70 -169 -391 -551 -582 -615 c 2 361 -13 617 582 615 z" style="stroke: none; stroke-width: 1; stroke-dasharray: none; stroke-linecap: butt; stroke-linejoin: miter; stroke-miterlimit: 10; fill: white; fill-rule: evenodd; opacity: 1;" transform=" matrix(0.03779527559055119 0 0 0.03779527559055119 0 0) " stroke-linecap="round" />
	<path d="M 8848 26784 l 589 157 c -26 -156 -400 -529 -577 -545 l -13 389 z" style="stroke: none; stroke-width: 1; stroke-dasharray: none; stroke-linecap: butt; stroke-linejoin: miter; stroke-miterlimit: 10; fill: white; fill-rule: evenodd; opacity: 1;" transform=" matrix(0.03779527559055119 0 0 0.03779527559055119 0 0) " stroke-linecap="round" />
	<path d="M 12431 22015 c 83 202 177 376 371 414 c 161 -225 -26 -468 -175 -589 l -195 175 z" style="stroke: none; stroke-width: 1; stroke-dasharray: none; stroke-linecap: butt; stroke-linejoin: miter; stroke-miterlimit: 10; fill: white; fill-rule: evenodd; opacity: 1;" transform=" matrix(0.03779527559055119 0 0 0.03779527559055119 0 0) " stroke-linecap="round" />
	<path d="M 11518 20975 c 31 184 131 388 352 292 c 207 -90 59 -312 -5 -425 c -170 26 -191 86 -348 133 z" style="stroke: none; stroke-width: 1; stroke-dasharray: none; stroke-linecap: butt; stroke-linejoin: miter; stroke-miterlimit: 10; fill: white; fill-rule: evenodd; opacity: 1;" transform=" matrix(0.03779527559055119 0 0 0.03779527559055119 0 0) " stroke-linecap="round" />
	<path d="M 7140 26522 l 470 -7 c 58 -72 15 28 62 -119 c 1 -5 17 -104 19 -118 c 10 -92 19 -181 14 -259 c -150 41 -430 391 -565 502 z" style="stroke: none; stroke-width: 1; stroke-dasharray: none; stroke-linecap: butt; stroke-linejoin: miter; stroke-miterlimit: 10; fill: white; fill-rule: evenodd; opacity: 1;" transform=" matrix(0.03779527559055119 0 0 0.03779527559055119 0 0) " stroke-linecap="round" />
	<path d="M 2499 20350 c 11 179 120 561 212 675 c 5 -7 12 -27 13 -22 l 71 -722 l -296 69 z" style="stroke: none; stroke-width: 1; stroke-dasharray: none; stroke-linecap: butt; stroke-linejoin: miter; stroke-miterlimit: 10; fill: white; fill-rule: evenodd; opacity: 1;" transform=" matrix(0.03779527559055119 0 0 0.03779527559055119 0 0) " stroke-linecap="round" />
	<path d="M 8957 22335 c 153 -83 181 -234 181 -476 l -314 -76 c 14 166 9 431 133 553 z" style="stroke: none; stroke-width: 1; stroke-dasharray: none; stroke-linecap: butt; stroke-linejoin: miter; stroke-miterlimit: 10; fill: white; fill-rule: evenodd; opacity: 1;" transform=" matrix(0.03779527559055119 0 0 0.03779527559055119 0 0) " stroke-linecap="round" />
	<path d="M 11311 20246 c -59 -189 -304 -234 -549 -231 c 1 272 321 427 549 231 z" style="stroke: none; stroke-width: 1; stroke-dasharray: none; stroke-linecap: butt; stroke-linejoin: miter; stroke-miterlimit: 10; fill: white; fill-rule: evenodd; opacity: 1;" transform=" matrix(0.03779527559055119 0 0 0.03779527559055119 0 0) " stroke-linecap="round" />
	<path d="M 16662 26682 c -7 -176 -37 -263 -139 -342 c -61 -47 -192 -140 -284 -148 c -17 312 138 444 423 491 z" style="stroke: none; stroke-width: 1; stroke-dasharray: none; stroke-linecap: butt; stroke-linejoin: miter; stroke-miterlimit: 10; fill: white; fill-rule: evenodd; opacity: 1;" transform=" matrix(0.03779527559055119 0 0 0.03779527559055119 0 0) " stroke-linecap="round" />
	<path d="M 9612 22877 c -278 -21 -371 -138 -536 -151 c 39 130 115 327 216 372 c 181 81 301 -86 321 -220 z" style="stroke: none; stroke-width: 1; stroke-dasharray: none; stroke-linecap: butt; stroke-linejoin: miter; stroke-miterlimit: 10; fill: white; fill-rule: evenodd; opacity: 1;" transform=" matrix(0.03779527559055119 0 0 0.03779527559055119 0 0) " stroke-linecap="round" />
	<path d="M 18132 26249 c 55 137 6 59 154 126 c 110 50 91 59 219 95 c 56 -113 119 -198 138 -371 c -152 22 -413 50 -511 151 z" style="stroke: none; stroke-width: 1; stroke-dasharray: none; stroke-linecap: butt; stroke-linejoin: miter; stroke-miterlimit: 10; fill: white; fill-rule: evenodd; opacity: 1;" transform=" matrix(0.03779527559055119 0 0 0.03779527559055119 0 0) " stroke-linecap="round" />
	<path d="M 14694 28044 c -167 -146 -423 -316 -698 -356 c 32 239 17 254 250 290 c 141 22 298 78 448 66 z" style="stroke: none; stroke-width: 1; stroke-dasharray: none; stroke-linecap: butt; stroke-linejoin: miter; stroke-miterlimit: 10; fill: white; fill-rule: evenodd; opacity: 1;" transform=" matrix(0.03779527559055119 0 0 0.03779527559055119 0 0) " stroke-linecap="round" />
	<path d="M 9806 16863 l 244 182 c 108 -95 221 -274 193 -439 l -51 -12 c -146 11 -285 173 -386 268 z" style="stroke: none; stroke-width: 1; stroke-dasharray: none; stroke-linecap: butt; stroke-linejoin: miter; stroke-miterlimit: 10; fill: white; fill-rule: evenodd; opacity: 1;" transform=" matrix(0.03779527559055119 0 0 0.03779527559055119 0 0) " stroke-linecap="round" />
	<path d="M 11172 20521 c 78 152 150 231 374 227 c 79 -102 81 -56 123 -187 l -134 -135 l -364 95 z" style="stroke: none; stroke-width: 1; stroke-dasharray: none; stroke-linecap: butt; stroke-linejoin: miter; stroke-miterlimit: 10; fill: white; fill-rule: evenodd; opacity: 1;" transform=" matrix(0.03779527559055119 0 0 0.03779527559055119 0 0) " stroke-linecap="round" />
	<path d="M 4610 23693 l 197 248 c 7 8 26 30 33 37 c 39 37 20 21 59 45 l 117 -172 l -152 -322 l -253 164 z" style="stroke: none; stroke-width: 1; stroke-dasharray: none; stroke-linecap: butt; stroke-linejoin: miter; stroke-miterlimit: 10; fill: white; fill-rule: evenodd; opacity: 1;" transform=" matrix(0.03779527559055119 0 0 0.03779527559055119 0 0) " stroke-linecap="round" />
	<path d="M 16184 25183 c 41 121 89 147 137 259 c 125 -51 180 -84 269 -181 c -46 -126 -78 -161 -188 -205 c -98 46 -114 82 -218 126 z" style="stroke: none; stroke-width: 1; stroke-dasharray: none; stroke-linecap: butt; stroke-linejoin: miter; stroke-miterlimit: 10; fill: white; fill-rule: evenodd; opacity: 1;" transform=" matrix(0.03779527559055119 0 0 0.03779527559055119 0 0) " stroke-linecap="round" />
	<path d="M 15435 24789 c 54 101 74 111 109 202 c 176 -22 231 -56 323 -153 c -34 -105 -85 -135 -206 -186 l -226 137 z" style="stroke: none; stroke-width: 1; stroke-dasharray: none; stroke-linecap: butt; stroke-linejoin: miter; stroke-miterlimit: 10; fill: white; fill-rule: evenodd; opacity: 1;" transform=" matrix(0.03779527559055119 0 0 0.03779527559055119 0 0) " stroke-linecap="round" />
	<path d="M 5746 25738 c 131 -95 253 -131 279 -335 c -60 -76 -134 -176 -260 -158 l -19 493 z" style="stroke: none; stroke-width: 1; stroke-dasharray: none; stroke-linecap: butt; stroke-linejoin: miter; stroke-miterlimit: 10; fill: white; fill-rule: evenodd; opacity: 1;" transform=" matrix(0.03779527559055119 0 0 0.03779527559055119 0 0) " stroke-linecap="round" />
	<path d="M 17242 27164 l 265 -88 c -78 -175 -267 -249 -476 -300 c 45 177 151 252 211 389 z" style="stroke: none; stroke-width: 1; stroke-dasharray: none; stroke-linecap: butt; stroke-linejoin: miter; stroke-miterlimit: 10; fill: white; fill-rule: evenodd; opacity: 1;" transform=" matrix(0.03779527559055119 0 0 0.03779527559055119 0 0) " stroke-linecap="round" />
	<path d="M 12834 27706 c 148 50 369 152 554 121 c -107 -142 -357 -262 -543 -332 l -11 212 z" style="stroke: none; stroke-width: 1; stroke-dasharray: none; stroke-linecap: butt; stroke-linejoin: miter; stroke-miterlimit: 10; fill: white; fill-rule: evenodd; opacity: 1;" transform=" matrix(0.03779527559055119 0 0 0.03779527559055119 0 0) " stroke-linecap="round" />
	<path d="M 15520 26058 l 275 23 c -15 -206 -133 -383 -270 -423 l -5 400 z" style="stroke: none; stroke-width: 1; stroke-dasharray: none; stroke-linecap: butt; stroke-linejoin: miter; stroke-miterlimit: 10; fill: white; fill-rule: evenodd; opacity: 1;" transform=" matrix(0.03779527559055119 0 0 0.03779527559055119 0 0) " stroke-linecap="round" />
	<path d="M 14644 25361 l 312 55 c -5 -231 -142 -330 -382 -301 l 70 246 z" style="stroke: none; stroke-width: 1; stroke-dasharray: none; stroke-linecap: butt; stroke-linejoin: miter; stroke-miterlimit: 10; fill: white; fill-rule: evenodd; opacity: 1;" transform=" matrix(0.03779527559055119 0 0 0.03779527559055119 0 0) " stroke-linecap="round" />
	<path d="M 14801 24472 c 37 86 -7 47 80 122 c 40 35 69 43 110 63 l 233 -106 l -149 -209 l -273 129 z" style="stroke: none; stroke-width: 1; stroke-dasharray: none; stroke-linecap: butt; stroke-linejoin: miter; stroke-miterlimit: 10; fill: white; fill-rule: evenodd; opacity: 1;" transform=" matrix(0.03779527559055119 0 0 0.03779527559055119 0 0) " stroke-linecap="round" />
	<path d="M 2247 20603 c 53 0 40 12 31 -42 c 8 7 21 6 24 20 c 4 14 18 16 22 20 c 5 6 29 31 36 41 l -4 -107 c -173 -37 -18 -12 -79 25 l -31 42 z" style="stroke: none; stroke-width: 1; stroke-dasharray: none; stroke-linecap: butt; stroke-linejoin: miter; stroke-miterlimit: 10; fill: #777777; fill-rule: evenodd; opacity: 1;" transform=" matrix(0.03779527559055119 0 0 0.03779527559055119 0 0) " stroke-linecap="round" />
	<path d="M 10022 19610 c 85 64 47 52 158 29 c 18 -118 35 -43 -29 -120 l 17 115 l -145 -24 z" style="stroke: none; stroke-width: 1; stroke-dasharray: none; stroke-linecap: butt; stroke-linejoin: miter; stroke-miterlimit: 10; fill: #777777; fill-rule: evenodd; opacity: 1;" transform=" matrix(0.03779527559055119 0 0 0.03779527559055119 0 0) " stroke-linecap="round" />
	<path d="M 7057 28437 c -112 -21 -28 27 -78 -38 c 126 -16 61 -7 90 -45 c -205 65 -77 15 -134 111 l 122 -27 z" style="stroke: none; stroke-width: 1; stroke-dasharray: none; stroke-linecap: butt; stroke-linejoin: miter; stroke-miterlimit: 10; fill: #777777; fill-rule: evenodd; opacity: 1;" transform=" matrix(0.03779527559055119 0 0 0.03779527559055119 0 0) " stroke-linecap="round" />
</g>
</svg>