<?xml version="1.0" encoding="UTF-8" standalone="no"?>
<!-- Created with Inkscape (http://www.inkscape.org/) -->

<svg
   xmlns:dc="http://purl.org/dc/elements/1.1/"
   xmlns:cc="http://creativecommons.org/ns#"
   xmlns:rdf="http://www.w3.org/1999/02/22-rdf-syntax-ns#"
   xmlns:svg="http://www.w3.org/2000/svg"
   xmlns="http://www.w3.org/2000/svg"
   xmlns:sodipodi="http://sodipodi.sourceforge.net/DTD/sodipodi-0.dtd"
   xmlns:inkscape="http://www.inkscape.org/namespaces/inkscape"
   width="53.900585mm"
   height="23.16758mm"
   viewBox="0 0 190.98633 82.089849"
   id="svg2"
   version="1.1"
   inkscape:version="0.91 r13725"
   sodipodi:docname="hello.svg">
  <defs
     id="defs4" />
  <sodipodi:namedview
     id="base"
     pagecolor="#ffffff"
     bordercolor="#666666"
     borderopacity="1.0"
     inkscape:pageopacity="0.0"
     inkscape:pageshadow="2"
     inkscape:zoom="0.35"
     inkscape:cx="-351.26255"
     inkscape:cy="-404.5717"
     inkscape:document-units="px"
     inkscape:current-layer="layer1"
     showgrid="false"
     fit-margin-top="0"
     fit-margin-left="0"
     fit-margin-right="0"
     fit-margin-bottom="0"
     inkscape:window-width="1393"
     inkscape:window-height="855"
     inkscape:window-x="47"
     inkscape:window-y="1"
     inkscape:window-maximized="1" />
  <metadata
     id="metadata7">
    <rdf:RDF>
      <cc:Work
         rdf:about="">
        <dc:format>image/svg+xml</dc:format>
        <dc:type
           rdf:resource="http://purl.org/dc/dcmitype/StillImage" />
        <dc:title></dc:title>
      </cc:Work>
    </rdf:RDF>
  </metadata>
  <g
     inkscape:label="Layer 1"
     inkscape:groupmode="layer"
     id="layer1"
     transform="translate(-53.405411,-45.700653)">
    <path
       inkscape:connector-curvature="0"
       id="path3341"
       style="font-style:normal;font-variant:normal;font-weight:500;font-stretch:normal;font-size:90px;line-height:125%;font-family:'Apple Chancery';-inkscape-font-specification:'Apple Chancery, Medium';text-align:start;letter-spacing:0px;word-spacing:0px;writing-mode:lr-tb;text-anchor:start;fill:#000000;fill-opacity:1;stroke:none;stroke-width:1px;stroke-linecap:butt;stroke-linejoin:miter;stroke-opacity:1"
       d="M 87.7267,67.541473 Q 85.749161,77.60495 85.353653,81.07663 l -1.362305,12.172851 24.521482,0 0.17578,-1.582031 q 2.85645,-25.532227 10.10743,-34.716797 8.87695,-11.25 19.6875,-11.25 4.04296,0 7.51464,1.40625 l -6.5039,6.37207 q -3.69141,-2.504882 -7.33887,-2.504882 -7.42676,0 -10.32715,7.382812 -2.90039,7.338867 -5.75683,33.310547 l -0.65918,5.976562 q -1.23047,11.557618 -1.23047,17.885738 0,3.73536 3.20801,3.73536 2.37304,0 5.88867,-2.02149 0.17578,0.79102 0.17578,1.09863 0,1.31836 -2.3291,2.37305 l -2.54883,1.18652 -12.91992,5.88868 q 0,-8.12989 2.10937,-27.6416 l 0.17578,-1.582036 -24.521481,0 -0.439453,3.999026 -0.571289,4.87793 q -0.74707,6.24023 -2.724609,9.00879 -1.933594,2.76855 -7.470703,5.40527 l 10.371093,0.65918 -5.273437,5.09766 -19.028321,-0.9668 5.625,-5.44922 4.79004,0.52734 q 3.471679,-2.24121 4.790039,-5.58105 1.318359,-3.38379 2.285156,-12.52442 l 3.383789,-30.761714 -1.362305,0 q -18.28125,0 -18.28125,12.084961 0,3.779297 2.06543,7.602539 l -7.163086,6.855469 q -1.010742,-3.427734 -1.010742,-6.811523 0,-11.337891 8.4375,-18.19336 8.4375,-6.855469 22.412109,-6.855469 l 3.47168,0 z" />
    <path
       inkscape:connector-curvature="0"
       id="path3343"
       style="font-style:normal;font-variant:normal;font-weight:500;font-stretch:normal;font-size:90px;line-height:125%;font-family:'Apple Chancery';-inkscape-font-specification:'Apple Chancery, Medium';text-align:start;letter-spacing:0px;word-spacing:0px;writing-mode:lr-tb;text-anchor:start;fill:#000000;fill-opacity:1;stroke:none;stroke-width:1px;stroke-linecap:butt;stroke-linejoin:miter;stroke-opacity:1"
       d="m 156.06166,112.67331 q 1.09863,0.74707 1.09863,1.75781 0,1.36231 -2.8125,4.6582 -7.51464,8.70118 -14.85351,8.70118 -4.48242,0 -7.38281,-3.55957 -2.9004,-3.55957 -2.9004,-9.09668 0,-10.01953 7.5586,-20.258792 7.60254,-10.283203 15.0293,-10.283203 5.36132,0 5.36132,5.756836 0,6.459961 -6.28418,12.612309 -6.24023,6.15234 -15.24902,8.56933 0.87891,10.59082 8.34961,10.59082 7.38281,0 12.08496,-9.44824 z m -20.25879,-6.50391 q 1.27442,0.43946 2.3291,0.43946 5.44922,0 9.53614,-3.33985 4.08691,-3.339841 4.08691,-7.822263 0,-5.141602 -5.22949,-5.141602 -3.7793,0 -6.85547,4.526367 -3.03223,4.482422 -3.86719,11.337888 z" />
    <path
       inkscape:connector-curvature="0"
       id="path3345"
       style="font-style:normal;font-variant:normal;font-weight:500;font-stretch:normal;font-size:90px;line-height:125%;font-family:'Apple Chancery';-inkscape-font-specification:'Apple Chancery, Medium';text-align:start;letter-spacing:0px;word-spacing:0px;writing-mode:lr-tb;text-anchor:start;fill:#000000;fill-opacity:1;stroke:none;stroke-width:1px;stroke-linecap:butt;stroke-linejoin:miter;stroke-opacity:1"
       d="m 180.75893,113.728 q 1.27441,0.61523 1.27441,1.58203 0,3.16406 -4.74609,7.82226 -4.70215,4.65821 -7.91016,4.65821 -3.64746,0 -3.64746,-5.27344 0,-3.20801 0.39551,-6.54785 l 0.4834,-3.91114 3.38378,-30.585933 q 1.58204,-13.974609 9.58008,-23.33496 8.042,-9.360352 18.50098,-9.360352 2.54883,0 4.30664,0.439453 l -6.24023,6.37207 q -2.06543,-0.703125 -4.83399,-0.703125 -6.5918,0 -9.88769,4.658204 -3.25196,4.614257 -4.48243,15.688476 l -4.08691,36.826167 q -0.4834,4.2627 -0.4834,6.1084 0,3.95508 1.36231,3.95508 1.62597,0 3.82324,-2.59277 2.19726,-2.63672 3.20801,-5.80078 z" />
    <path
       inkscape:connector-curvature="0"
       id="path3347"
       style="font-style:normal;font-variant:normal;font-weight:500;font-stretch:normal;font-size:90px;line-height:125%;font-family:'Apple Chancery';-inkscape-font-specification:'Apple Chancery, Medium';text-align:start;letter-spacing:0px;word-spacing:0px;writing-mode:lr-tb;text-anchor:start;fill:#000000;fill-opacity:1;stroke:none;stroke-width:1px;stroke-linecap:butt;stroke-linejoin:miter;stroke-opacity:1"
       d="m 204.66518,113.728 q 1.27441,0.61523 1.27441,1.58203 0,3.16406 -4.74609,7.82226 -4.70215,4.65821 -7.91016,4.65821 -3.64746,0 -3.64746,-5.27344 0,-3.20801 0.39551,-6.54785 l 0.4834,-3.91114 3.38378,-30.585933 q 1.58204,-13.974609 9.58008,-23.33496 8.042,-9.360352 18.50098,-9.360352 2.54883,0 4.30664,0.439453 l -6.24023,6.37207 q -2.06543,-0.703125 -4.83399,-0.703125 -6.5918,0 -9.88769,4.658204 -3.25196,4.614257 -4.48243,15.688476 l -4.08691,36.826167 q -0.4834,4.2627 -0.4834,6.1084 0,3.95508 1.36231,3.95508 1.62597,0 3.82324,-2.59277 2.19726,-2.63672 3.20801,-5.80078 z" />
    <path
       inkscape:connector-curvature="0"
       id="path3349"
       style="font-style:normal;font-variant:normal;font-weight:500;font-stretch:normal;font-size:90px;line-height:125%;font-family:'Apple Chancery';-inkscape-font-specification:'Apple Chancery, Medium';text-align:start;letter-spacing:0px;word-spacing:0px;writing-mode:lr-tb;text-anchor:start;fill:#000000;fill-opacity:1;stroke:none;stroke-width:1px;stroke-linecap:butt;stroke-linejoin:miter;stroke-opacity:1"
       d="m 220.48549,127.7905 q -9.8877,0 -9.8877,-13.09571 0,-10.54687 7.73438,-20.302731 7.73437,-9.799804 16.04004,-9.799804 10.01953,0 10.01953,13.095703 0,10.590822 -7.73438,20.346682 -7.73437,9.75586 -16.17187,9.75586 z m 5.31738,-4.92188 q 5.05371,0 8.4375,-5.625 3.42774,-5.625 3.42774,-14.01855 0,-13.71094 -8.52539,-13.71094 -5.00977,0 -8.4375,5.668945 -3.38379,5.624995 -3.38379,13.974605 0,13.71094 8.48144,13.71094 z" />
  </g>
</svg>
