<?xml version="1.0" encoding="UTF-8" standalone="no"?>
<!-- Created with Inkscape (http://www.inkscape.org/) -->

<svg
   xmlns:dc="http://purl.org/dc/elements/1.1/"
   xmlns:cc="http://creativecommons.org/ns#"
   xmlns:rdf="http://www.w3.org/1999/02/22-rdf-syntax-ns#"
   xmlns:svg="http://www.w3.org/2000/svg"
   xmlns="http://www.w3.org/2000/svg"
   xmlns:sodipodi="http://sodipodi.sourceforge.net/DTD/sodipodi-0.dtd"
   xmlns:inkscape="http://www.inkscape.org/namespaces/inkscape"
   width="278.1875"
   height="355.75"
   id="svg3261"
   version="1.1"
   inkscape:version="0.48+devel r"
   sodipodi:docname="Nouveau document 2">
  <defs
     id="defs3263" />
  <sodipodi:namedview
     id="base"
     pagecolor="#ffffff"
     bordercolor="#666666"
     borderopacity="1.0"
     inkscape:pageopacity="0.0"
     inkscape:pageshadow="2"
     inkscape:zoom="0.49497475"
     inkscape:cx="424.90939"
     inkscape:cy="307.98084"
     inkscape:document-units="px"
     inkscape:current-layer="layer1"
     showgrid="true"
     fit-margin-top="0"
     fit-margin-left="0"
     fit-margin-right="0"
     fit-margin-bottom="0"
     inkscape:window-width="1257"
     inkscape:window-height="879"
     inkscape:window-x="82"
     inkscape:window-y="80"
     inkscape:window-maximized="0">
    <inkscape:grid
       type="axonomgrid"
       id="grid3269"
       units="mm"
       empspacing="5"
       visible="false"
       enabled="true"
       snapvisiblegridlinesonly="true" />
  </sodipodi:namedview>
  <metadata
     id="metadata3266">
    <rdf:RDF>
      <cc:Work
         rdf:about="">
        <dc:format>image/svg+xml</dc:format>
        <dc:type
           rdf:resource="http://purl.org/dc/dcmitype/StillImage" />
        <dc:title></dc:title>
      </cc:Work>
    </rdf:RDF>
  </metadata>
  <g
     inkscape:label="Calque 1"
     inkscape:groupmode="layer"
     id="layer1"
     transform="translate(-321.1875,-254.5625)">
    <g
       id="g3359">
      <path
         sodipodi:nodetypes="ccccccccccccc"
         inkscape:connector-curvature="0"
         id="path3271"
         d="m 506.318,370.27557 92.057,-53.15057 -107.40625,-62 -168.78125,97.4375 107.40625,62 46.03831,-26.5704 0,-17.71653 -46.03831,26.56818 L 352.875,352.5625 490.97475,272.83462 567.6875,317.125 506.318,352.55903 z"
         style="fill:#ffdd55;fill-opacity:1;stroke:#000000;stroke-width:1px;stroke-linecap:butt;stroke-linejoin:miter;stroke-opacity:1" />
      <path
         sodipodi:nodetypes="ccccccccccccc"
         inkscape:connector-curvature="0"
         id="path3275"
         d="m 352.8883,511.6479 -2e-5,-123.6558 61.3617,35.4454 0.0102,53.13728 15.34297,-8.85827 -0.009,-53.15401 -107.40625,-62 0,194.875 107.40625,62 0.009,-106.28792 -15.34297,8.85827 -0.0102,70.86715 -61.36168,-35.43408"
         style="fill:#ffdd55;stroke:#000000;stroke-width:1px;stroke-linecap:butt;stroke-linejoin:miter;stroke-opacity:1" />
      <path
         sodipodi:nodetypes="ccccccccccccccccc"
         inkscape:connector-curvature="0"
         id="path3351"
         d="M 490.97503,255.11809 490.96875,450 l 0.006,17.71651 L 567.6875,512 l -122.75,70.875 0,-88.59375 -15.34375,8.875 0,106.28125 L 598.375,512 l 0,-194.875 -92.0625,53.15625 0,-88.59375 m 76.71875,62 0,141.75 -76.71875,-44.28125 0,-53.15625 z"
         style="fill:#ffdd55;fill-opacity:1;stroke:#000000;stroke-width:1px;stroke-linecap:butt;stroke-linejoin:miter;stroke-opacity:1" />
      <path
         id="path3299"
         d="m 475.63206,387.9921 -46.03831,26.5704 0.009,53.15401 15.34297,-8.85826 -0.009,-35.42075 30.69534,-17.72886 z"
         style="fill:#ffdd55;fill-opacity:1;stroke:#000000;stroke-width:1px;stroke-linecap:butt;stroke-linejoin:miter;stroke-opacity:1"
         inkscape:connector-curvature="0" />
      <path
         sodipodi:nodetypes="cccccc"
         inkscape:connector-curvature="0"
         id="path3281"
         d="m 475.63206,281.69289 -0.007,159.46336 -138.07973,79.70987 M 322.20236,547.44092 490.96875,450 l 0.006,-194.88191"
         style="fill:#ffdd55;fill-opacity:1;stroke:#000000;stroke-width:1px;stroke-linecap:butt;stroke-linejoin:miter;stroke-opacity:1" />
      <path
         sodipodi:nodetypes="ccccc"
         inkscape:connector-curvature="0"
         id="path3286"
         d="m 352.8883,512.00785 -15.34297,8.85827 0,-141.73228 15.34297,8.85826 z"
         style="fill:#d4aa00;stroke:#000000;stroke-width:1px;stroke-linecap:butt;stroke-linejoin:miter;stroke-opacity:1" />
      <path
         sodipodi:nodetypes="ccccc"
         inkscape:connector-curvature="0"
         id="path3288"
         d="M 475.63206,299.40943 368.23127,361.4173 352.8883,352.55903 475.63206,281.69289 z"
         style="fill:#d4aa00;fill-opacity:1;stroke:#000000;stroke-width:1px;stroke-linecap:butt;stroke-linejoin:miter;stroke-opacity:1" />
      <path
         inkscape:connector-curvature="0"
         id="path3290"
         d="m 352.8883,529.72439 61.37188,35.43307 0,17.71653 -76.71485,-44.29133 z"
         style="fill:#d4aa00;fill-opacity:1;stroke:#000000;stroke-width:1px;stroke-linecap:butt;stroke-linejoin:miter;stroke-opacity:1" />
      <path
         sodipodi:nodetypes="ccccc"
         inkscape:connector-curvature="0"
         id="path3294"
         d="m 506.318,299.40943 46.02891,26.5748 15.34297,-8.85827 -61.37188,-35.43307 z"
         style="fill:#d4aa00;fill-opacity:1;stroke:#000000;stroke-width:1px;stroke-linecap:butt;stroke-linejoin:miter;stroke-opacity:1" />
      <path
         sodipodi:nodetypes="ccccc"
         inkscape:connector-curvature="0"
         id="path3304"
         d="m 567.68988,512.00785 -15.34297,-8.85827 -107.40079,62.00788 0,17.71653 z"
         style="fill:#d4aa00;fill-opacity:1;stroke:#000000;stroke-width:1px;stroke-linecap:butt;stroke-linejoin:miter;stroke-opacity:1" />
      <path
         sodipodi:nodetypes="ccccc"
         inkscape:connector-curvature="0"
         id="path3306"
         d="m 567.68988,352.55903 0,124.01575 15.34297,8.85826 0,-141.73227 z"
         style="fill:#d4aa00;fill-opacity:1;stroke:#000000;stroke-width:1px;stroke-linecap:butt;stroke-linejoin:miter;stroke-opacity:1" />
      <path
         inkscape:connector-curvature="0"
         id="path3355"
         d="m 506.318,387.9921 0,-17.71653"
         style="fill:none;stroke:#000000;stroke-width:1px;stroke-linecap:butt;stroke-linejoin:miter;stroke-opacity:1" />
      <path
         sodipodi:nodetypes="ccccccccccccccc"
         inkscape:connector-curvature="0"
         id="path3357"
         d="m 444.94612,494.29131 -15.34297,8.85827 0,106.29922 168.77267,-97.44095 -107.40079,-62.00787 -168.77267,97.44094 107.40079,62.00788 0,-106.29922 -15.34297,8.85827 0,70.86615 -61.37188,-35.43308 138.08673,-79.72441 76.71485,44.29134 -122.74376,70.86614 z"
         style="fill:#ffdd55;fill-opacity:1;stroke:#000000;stroke-width:1px;stroke-linecap:butt;stroke-linejoin:miter;stroke-opacity:1" />
    </g>
  </g>
</svg>
