 0
SECTION
 2
ENTITIES
  0
POLYLINE
 8
Layer0
 66
     1
70
    8
 10
0.0
 20
 0.0
 30
0.0
  0
VERTEX
  8
MY3DLAYER
10
101.01377481542539
20
41.66377481542537
30
0.0
 70
     32
  0
VERTEX
  8
MY3DLAYER
10
96.70471857744347
20
52.066756826189696
30
0.0
 70
     32
  0
VERTEX
  8
MY3DLAYER
10
101.01377481542539
20
62.46973883695401
30
0.0
 70
     32
  0
VERTEX
  8
MY3DLAYER
10
102.48351365237941
20
73.63351365237939
30
0.0
 70
     32
  0
VERTEX
  8
MY3DLAYER
10
101.0137748154254
20
84.79728846780476
30
0.0
 70
     32
  0
VERTEX
  8
MY3DLAYER
10
96.7047185774435
20
95.2002704785691
30
0.0
 70
     32
  0
VERTEX
  8
MY3DLAYER
10
89.85000000000002
20
104.13351365237939
30
0.0
 70
     32
  0
VERTEX
  8
MY3DLAYER
10
80.91675682618974
20
110.98823222982286
30
0.0
 70
     32
  0
VERTEX
  8
MY3DLAYER
10
70.5137748154254
20
115.29728846780478
30
0.0
 70
     32
  0
VERTEX
  8
MY3DLAYER
10
59.35000000000003
20
116.7670273047588
30
0.0
 70
     32
  0
VERTEX
  8
MY3DLAYER
10
48.18622518457466
20
115.29728846780479
30
0.0
 70
     32
  0
VERTEX
  8
MY3DLAYER
10
37.78324317381033
20
110.98823222982288
30
0.0
 70
     32
  0
VERTEX
  8
MY3DLAYER
10
28.850000000000033
20
104.13351365237943
30
0.0
 70
     32
  0
VERTEX
  8
MY3DLAYER
10
21.99528142255656
20
95.20027047856914
30
0.0
 70
     32
  0
VERTEX
  8
MY3DLAYER
10
17.686225184574646
20
84.79728846780482
30
0.0
 70
     32
  0
VERTEX
  8
MY3DLAYER
10
16.21648634762061
20
73.63351365237943
30
0.0
 70
     32
  0
VERTEX
  8
MY3DLAYER
10
17.686225184574617
20
62.46973883695405
30
0.0
 70
     32
  0
VERTEX
  8
MY3DLAYER
10
21.99528142255655
20
52.06675682618972
30
0.0
 70
     32
  0
VERTEX
  8
MY3DLAYER
10
17.686225184574628
20
41.66377481542539
30
0.0
 70
     32
  0
VERTEX
  8
MY3DLAYER
10
16.2164863476206
20
30.50000000000002
30
0.0
 70
     32
  0
VERTEX
  8
MY3DLAYER
10
17.686225184574617
20
19.33622518457464
30
0.0
 70
     32
  0
VERTEX
  8
MY3DLAYER
10
21.995281422556513
20
8.933243173810327
30
0.0
 70
     32
  0
VERTEX
  8
MY3DLAYER
10
28.850000000000005
20
1.8675863686997138e-15
30
0.0
 70
     32
  0
VERTEX
  8
MY3DLAYER
10
0.0
20
0.0
30
0.0
 70
     32
  0
VERTEX
  8
MY3DLAYER
10
0.0
20
118.7
30
0.0
 70
     32
  0
VERTEX
  8
MY3DLAYER
10
118.7
20
118.7
30
0.0
 70
     32
  0
VERTEX
  8
MY3DLAYER
10
118.7
20
0.0
30
0.0
 70
     32
  0
VERTEX
  8
MY3DLAYER
10
89.85000000000001
20
-5.602759106099141e-15
30
0.0
 70
     32
  0
VERTEX
  8
MY3DLAYER
10
96.70471857744347
20
8.933243173810299
30
0.0
 70
     32
  0
VERTEX
  8
MY3DLAYER
10
101.01377481542538
20
19.336225184574616
30
0.0
 70
     32
  0
VERTEX
  8
MY3DLAYER
10
102.48351365237941
20
30.499999999999996
30
0.0
 70
     32
  0
VERTEX
  8
MY3DLAYER
10
101.01377481542539
20
41.66377481542537
30
0.0
 70
     32
  0
SEQEND
  0
POLYLINE
 8
Layer0
 66
     1
70
    8
 10
0.0
 20
 0.0
 30
0.0
  0
VERTEX
  8
MY3DLAYER
10
29.889262298183418
20
-7.8939808756268794
30
0.0
 70
     32
  0
VERTEX
  8
MY3DLAYER
10
28.850000000000005
20
1.8675863686997138e-15
30
0.0
 70
     32
  0
VERTEX
  8
MY3DLAYER
10
37.78324317381027
20
-6.854718577443461
30
0.0
 70
     32
  0
VERTEX
  8
MY3DLAYER
10
48.18622518457458
20
-11.163774815425368
30
0.0
 70
     32
  0
VERTEX
  8
MY3DLAYER
10
59.349999999999994
20
-12.633513652379404
30
0.0
 70
     32
  0
VERTEX
  8
MY3DLAYER
10
70.51377481542535
20
-11.163774815425386
30
0.0
 70
     32
  0
VERTEX
  8
MY3DLAYER
10
80.91675682618967
20
-6.854718577443483
30
0.0
 70
     32
  0
VERTEX
  8
MY3DLAYER
10
89.85000000000001
20
-5.602759106099141e-15
30
0.0
 70
     32
  0
VERTEX
  8
MY3DLAYER
10
88.81073770181658
20
-7.893980875626905
30
0.0
 70
     32
  0
VERTEX
  8
MY3DLAYER
10
85.76377481542538
20
-15.250000000000014
30
0.0
 70
     32
  0
VERTEX
  8
MY3DLAYER
10
80.91675682618968
20
-21.56675682618971
30
0.0
 70
     32
  0
VERTEX
  8
MY3DLAYER
10
74.6
20
-26.413774815425388
30
0.0
 70
     32
  0
VERTEX
  8
MY3DLAYER
10
67.24398087562687
20
-29.460737701816583
30
0.0
 70
     32
  0
VERTEX
  8
MY3DLAYER
10
59.35
20
-30.5
30
0.0
 70
     32
  0
VERTEX
  8
MY3DLAYER
10
51.45601912437311
20
-29.46073770181658
30
0.0
 70
     32
  0
VERTEX
  8
MY3DLAYER
10
44.099999999999994
20
-26.413774815425374
30
0.0
 70
     32
  0
VERTEX
  8
MY3DLAYER
10
37.7832431738103
20
-21.566756826189696
30
0.0
 70
     32
  0
VERTEX
  8
MY3DLAYER
10
32.93622518457462
20
-15.249999999999995
30
0.0
 70
     32
  0
VERTEX
  8
MY3DLAYER
10
29.889262298183418
20
-7.8939808756268794
30
0.0
 70
     32
  0
SEQEND
  0
POLYLINE
 8
Layer0
 66
     1
70
    8
 10
0.0
 20
 0.0
 30
0.0
  0
VERTEX
  8
MY3DLAYER
10
89.85000000000001
20
-5.602759106099141e-15
30
0.0
 70
     32
  0
VERTEX
  8
MY3DLAYER
10
28.850000000000005
20
1.8675863686997138e-15
30
0.0
 70
     32
  0
VERTEX
  8
MY3DLAYER
10
29.889262298183425
20
7.893980875626889
30
0.0
 70
     32
  0
VERTEX
  8
MY3DLAYER
10
32.93622518457463
20
15.250000000000004
30
0.0
 70
     32
  0
VERTEX
  8
MY3DLAYER
10
37.783243173810305
20
21.566756826189703
30
0.0
 70
     32
  0
VERTEX
  8
MY3DLAYER
10
44.10000000000001
20
26.41377481542538
30
0.0
 70
     32
  0
VERTEX
  8
MY3DLAYER
10
51.45601912437312
20
29.460737701816583
30
0.0
 70
     32
  0
VERTEX
  8
MY3DLAYER
10
59.35
20
30.5
30
0.0
 70
     32
  0
VERTEX
  8
MY3DLAYER
10
67.2439808756269
20
29.46073770181658
30
0.0
 70
     32
  0
VERTEX
  8
MY3DLAYER
10
74.60000000000002
20
26.41377481542537
30
0.0
 70
     32
  0
VERTEX
  8
MY3DLAYER
10
80.91675682618971
20
21.566756826189696
30
0.0
 70
     32
  0
VERTEX
  8
MY3DLAYER
10
85.76377481542539
20
15.249999999999977
30
0.0
 70
     32
  0
VERTEX
  8
MY3DLAYER
10
88.81073770181658
20
7.89398087562687
30
0.0
 70
     32
  0
VERTEX
  8
MY3DLAYER
10
89.85000000000001
20
-5.602759106099141e-15
30
0.0
 70
     32
  0
SEQEND
  0
POLYLINE
 8
Layer0
 66
     1
70
    8
 10
0.0
 20
 0.0
 30
0.0
  0
VERTEX
  8
MY3DLAYER
10
67.2439808756269
20
29.46073770181658
30
0.0
 70
     32
  0
VERTEX
  8
MY3DLAYER
10
59.35
20
30.5
30
0.0
 70
     32
  0
VERTEX
  8
MY3DLAYER
10
70.51377481542538
20
31.96973883695402
30
0.0
 70
     32
  0
VERTEX
  8
MY3DLAYER
10
80.9167568261897
20
36.278795074935935
30
0.0
 70
     32
  0
VERTEX
  8
MY3DLAYER
10
89.85000000000001
20
43.1335136523794
30
0.0
 70
     32
  0
VERTEX
  8
MY3DLAYER
10
96.70471857744347
20
52.066756826189696
30
0.0
 70
     32
  0
VERTEX
  8
MY3DLAYER
10
101.01377481542539
20
41.66377481542537
30
0.0
 70
     32
  0
VERTEX
  8
MY3DLAYER
10
102.48351365237941
20
30.499999999999996
30
0.0
 70
     32
  0
VERTEX
  8
MY3DLAYER
10
101.01377481542538
20
19.336225184574616
30
0.0
 70
     32
  0
VERTEX
  8
MY3DLAYER
10
96.70471857744347
20
8.933243173810299
30
0.0
 70
     32
  0
VERTEX
  8
MY3DLAYER
10
89.85000000000001
20
-5.602759106099141e-15
30
0.0
 70
     32
  0
VERTEX
  8
MY3DLAYER
10
88.81073770181658
20
7.89398087562687
30
0.0
 70
     32
  0
VERTEX
  8
MY3DLAYER
10
85.76377481542539
20
15.249999999999977
30
0.0
 70
     32
  0
VERTEX
  8
MY3DLAYER
10
80.91675682618971
20
21.566756826189696
30
0.0
 70
     32
  0
VERTEX
  8
MY3DLAYER
10
74.60000000000002
20
26.41377481542537
30
0.0
 70
     32
  0
VERTEX
  8
MY3DLAYER
10
67.2439808756269
20
29.46073770181658
30
0.0
 70
     32
  0
SEQEND
  0
POLYLINE
 8
Layer0
 66
     1
70
    8
 10
0.0
 20
 0.0
 30
0.0
  0
VERTEX
  8
MY3DLAYER
10
28.850000000000005
20
1.8675863686997138e-15
30
0.0
 70
     32
  0
VERTEX
  8
MY3DLAYER
10
89.85000000000001
20
-5.602759106099141e-15
30
0.0
 70
     32
  0
VERTEX
  8
MY3DLAYER
10
80.91675682618967
20
-6.854718577443483
30
0.0
 70
     32
  0
VERTEX
  8
MY3DLAYER
10
70.51377481542535
20
-11.163774815425386
30
0.0
 70
     32
  0
VERTEX
  8
MY3DLAYER
10
59.349999999999994
20
-12.633513652379404
30
0.0
 70
     32
  0
VERTEX
  8
MY3DLAYER
10
48.18622518457458
20
-11.163774815425368
30
0.0
 70
     32
  0
VERTEX
  8
MY3DLAYER
10
37.78324317381027
20
-6.854718577443461
30
0.0
 70
     32
  0
VERTEX
  8
MY3DLAYER
10
28.850000000000005
20
1.8675863686997138e-15
30
0.0
 70
     32
  0
SEQEND
  0
POLYLINE
 8
Layer0
 66
     1
70
    8
 10
0.0
 20
 0.0
 30
0.0
  0
VERTEX
  8
MY3DLAYER
10
17.686225184574628
20
41.66377481542539
30
0.0
 70
     32
  0
VERTEX
  8
MY3DLAYER
10
21.99528142255655
20
52.06675682618972
30
0.0
 70
     32
  0
VERTEX
  8
MY3DLAYER
10
28.849999999999998
20
43.13351365237941
30
0.0
 70
     32
  0
VERTEX
  8
MY3DLAYER
10
37.783243173810284
20
36.27879507493596
30
0.0
 70
     32
  0
VERTEX
  8
MY3DLAYER
10
48.18622518457459
20
31.96973883695404
30
0.0
 70
     32
  0
VERTEX
  8
MY3DLAYER
10
59.35
20
30.5
30
0.0
 70
     32
  0
VERTEX
  8
MY3DLAYER
10
51.45601912437312
20
29.460737701816583
30
0.0
 70
     32
  0
VERTEX
  8
MY3DLAYER
10
44.10000000000001
20
26.41377481542538
30
0.0
 70
     32
  0
VERTEX
  8
MY3DLAYER
10
37.783243173810305
20
21.566756826189703
30
0.0
 70
     32
  0
VERTEX
  8
MY3DLAYER
10
32.93622518457463
20
15.250000000000004
30
0.0
 70
     32
  0
VERTEX
  8
MY3DLAYER
10
29.889262298183425
20
7.893980875626889
30
0.0
 70
     32
  0
VERTEX
  8
MY3DLAYER
10
28.850000000000005
20
1.8675863686997138e-15
30
0.0
 70
     32
  0
VERTEX
  8
MY3DLAYER
10
21.995281422556513
20
8.933243173810327
30
0.0
 70
     32
  0
VERTEX
  8
MY3DLAYER
10
17.686225184574617
20
19.33622518457464
30
0.0
 70
     32
  0
VERTEX
  8
MY3DLAYER
10
16.2164863476206
20
30.50000000000002
30
0.0
 70
     32
  0
VERTEX
  8
MY3DLAYER
10
17.686225184574628
20
41.66377481542539
30
0.0
 70
     32
  0
SEQEND
  0
POLYLINE
 8
Layer0
 66
     1
70
    8
 10
0.0
 20
 0.0
 30
0.0
  0
VERTEX
  8
MY3DLAYER
10
28.850000000000016
20
61.0
30
0.0
 70
     32
  0
VERTEX
  8
MY3DLAYER
10
21.99528142255655
20
52.06675682618972
30
0.0
 70
     32
  0
VERTEX
  8
MY3DLAYER
10
17.686225184574617
20
62.46973883695405
30
0.0
 70
     32
  0
VERTEX
  8
MY3DLAYER
10
16.21648634762061
20
73.63351365237943
30
0.0
 70
     32
  0
VERTEX
  8
MY3DLAYER
10
17.686225184574646
20
84.79728846780482
30
0.0
 70
     32
  0
VERTEX
  8
MY3DLAYER
10
21.99528142255656
20
95.20027047856914
30
0.0
 70
     32
  0
VERTEX
  8
MY3DLAYER
10
28.850000000000033
20
104.13351365237943
30
0.0
 70
     32
  0
VERTEX
  8
MY3DLAYER
10
37.78324317381033
20
110.98823222982288
30
0.0
 70
     32
  0
VERTEX
  8
MY3DLAYER
10
48.18622518457466
20
115.29728846780479
30
0.0
 70
     32
  0
VERTEX
  8
MY3DLAYER
10
59.35000000000003
20
116.7670273047588
30
0.0
 70
     32
  0
VERTEX
  8
MY3DLAYER
10
70.5137748154254
20
115.29728846780478
30
0.0
 70
     32
  0
VERTEX
  8
MY3DLAYER
10
80.91675682618974
20
110.98823222982286
30
0.0
 70
     32
  0
VERTEX
  8
MY3DLAYER
10
89.85000000000002
20
104.13351365237939
30
0.0
 70
     32
  0
VERTEX
  8
MY3DLAYER
10
96.7047185774435
20
95.2002704785691
30
0.0
 70
     32
  0
VERTEX
  8
MY3DLAYER
10
101.0137748154254
20
84.79728846780476
30
0.0
 70
     32
  0
VERTEX
  8
MY3DLAYER
10
102.48351365237941
20
73.63351365237939
30
0.0
 70
     32
  0
VERTEX
  8
MY3DLAYER
10
101.01377481542539
20
62.46973883695401
30
0.0
 70
     32
  0
VERTEX
  8
MY3DLAYER
10
96.70471857744347
20
52.066756826189696
30
0.0
 70
     32
  0
VERTEX
  8
MY3DLAYER
10
89.85000000000001
20
61.0
30
0.0
 70
     32
  0
VERTEX
  8
MY3DLAYER
10
80.91675682618973
20
67.85471857744346
30
0.0
 70
     32
  0
VERTEX
  8
MY3DLAYER
10
70.5137748154254
20
72.16377481542537
30
0.0
 70
     32
  0
VERTEX
  8
MY3DLAYER
10
59.350000000000016
20
73.6335136523794
30
0.0
 70
     32
  0
VERTEX
  8
MY3DLAYER
10
48.18622518457465
20
72.16377481542538
30
0.0
 70
     32
  0
VERTEX
  8
MY3DLAYER
10
37.78324317381032
20
67.85471857744348
30
0.0
 70
     32
  0
VERTEX
  8
MY3DLAYER
10
28.850000000000016
20
61.0
30
0.0
 70
     32
  0
SEQEND
  0
POLYLINE
 8
Layer0
 66
     1
70
    8
 10
0.0
 20
 0.0
 30
0.0
  0
VERTEX
  8
MY3DLAYER
10
70.51377481542538
20
31.96973883695402
30
0.0
 70
     32
  0
VERTEX
  8
MY3DLAYER
10
59.35
20
30.5
30
0.0
 70
     32
  0
VERTEX
  8
MY3DLAYER
10
48.18622518457459
20
31.96973883695404
30
0.0
 70
     32
  0
VERTEX
  8
MY3DLAYER
10
37.783243173810284
20
36.27879507493596
30
0.0
 70
     32
  0
VERTEX
  8
MY3DLAYER
10
28.849999999999998
20
43.13351365237941
30
0.0
 70
     32
  0
VERTEX
  8
MY3DLAYER
10
21.99528142255655
20
52.06675682618972
30
0.0
 70
     32
  0
VERTEX
  8
MY3DLAYER
10
28.850000000000016
20
61.0
30
0.0
 70
     32
  0
VERTEX
  8
MY3DLAYER
10
37.78324317381032
20
67.85471857744348
30
0.0
 70
     32
  0
VERTEX
  8
MY3DLAYER
10
48.18622518457465
20
72.16377481542538
30
0.0
 70
     32
  0
VERTEX
  8
MY3DLAYER
10
59.350000000000016
20
73.6335136523794
30
0.0
 70
     32
  0
VERTEX
  8
MY3DLAYER
10
70.5137748154254
20
72.16377481542537
30
0.0
 70
     32
  0
VERTEX
  8
MY3DLAYER
10
80.91675682618973
20
67.85471857744346
30
0.0
 70
     32
  0
VERTEX
  8
MY3DLAYER
10
89.85000000000001
20
61.0
30
0.0
 70
     32
  0
VERTEX
  8
MY3DLAYER
10
96.70471857744347
20
52.066756826189696
30
0.0
 70
     32
  0
VERTEX
  8
MY3DLAYER
10
89.85000000000001
20
43.1335136523794
30
0.0
 70
     32
  0
VERTEX
  8
MY3DLAYER
10
80.9167568261897
20
36.278795074935935
30
0.0
 70
     32
  0
VERTEX
  8
MY3DLAYER
10
70.51377481542538
20
31.96973883695402
30
0.0
 70
     32
  0
SEQEND
 0
ENDSEC
 0
EOF
